<svg xmlns="http://www.w3.org/2000/svg" width="230.328" height="226.734" viewBox="0 0 230.328 226.734"><defs><style>.a{fill:#27bdbe;}.b{fill:#ff4e00;}</style></defs><g transform="translate(0)"><path class="a" d="M134.077,226.233a6.917,6.917,0,0,1-4.9-2.032l-16.047-16.054L97.068,224.2a6.947,6.947,0,0,1-11.857-4.921,6.889,6.889,0,0,1,2.039-4.905l25.167-25.159a1,1,0,0,1,.71-.294h0a1,1,0,0,1,.71.294l25.152,25.16a6.947,6.947,0,0,1-4.912,11.859Zm-20.949-20.509h0a1,1,0,0,1,.71.294l16.752,16.761a4.938,4.938,0,1,0,6.979-6.989h0l-24.442-24.451L88.668,215.79a4.933,4.933,0,0,0,0,6.989,4.954,4.954,0,0,0,6.982,0l16.768-16.759A1.007,1.007,0,0,1,113.127,205.724Zm55.421,4.25a6.948,6.948,0,0,1-6.94-6.94V171.425L146.4,156.219a53.879,53.879,0,0,1-27.749,11.048l28.591,28.619a6.923,6.923,0,0,1,0,9.812,6.98,6.98,0,0,1-4.9,2.041,6.857,6.857,0,0,1-4.918-2.046L113.08,181.337,88.721,205.7a6.945,6.945,0,0,1-11.858-4.911,6.874,6.874,0,0,1,2.034-4.9l28.6-28.623a54.015,54.015,0,0,1-27.654-11.044L64.638,171.424v31.593a6.94,6.94,0,0,1-13.881.008V185.32l-16.7,16.69a6.935,6.935,0,1,1-9.8-9.812l16.7-16.7H23.212a6.94,6.94,0,0,1,0-13.881H54.843l15.191-15.2A54.018,54.018,0,0,1,58.989,118.77l-28.608,28.6a6.94,6.94,0,0,1-9.8-9.826l24.361-24.358L20.564,88.819A6.945,6.945,0,1,1,30.39,79l28.6,28.6a53.912,53.912,0,0,1,11.07-27.754L54.85,64.629l-31.609-.015a6.94,6.94,0,0,1,0-13.881l17.728.007-16.7-16.7a6.943,6.943,0,0,1,9.819-9.819l16.69,16.69V23.18a6.94,6.94,0,0,1,13.881,0V54.8L79.87,70a53.922,53.922,0,0,1,27.666-11.045L78.972,30.389A6.945,6.945,0,0,1,88.8,20.57l24.366,24.36,24.36-24.36a6.945,6.945,0,1,1,9.819,9.826L118.789,58.951A54.053,54.053,0,0,1,146.44,70l15.2-15.206V23.2a6.94,6.94,0,0,1,13.881,0V40.91l16.7-16.69a6.948,6.948,0,0,1,9.833,9.819L185.338,50.744h17.728a6.94,6.94,0,1,1,0,13.881H171.45l-15.206,15.2a53.938,53.938,0,0,1,11.067,27.659l28.554-28.561a6.9,6.9,0,0,1,4.916-2.032h.006a6.944,6.944,0,0,1,4.9,11.859l-24.4,24.366,24.373,24.366a6.942,6.942,0,1,1-9.819,9.815l-28.557-28.561A54.1,54.1,0,0,1,156.227,146.4l15.191,15.2,31.616.015a6.944,6.944,0,0,1-.008,13.888L185.3,175.5l16.7,16.7A6.937,6.937,0,1,1,192.181,202l-16.7-16.689v17.722A6.944,6.944,0,0,1,168.548,209.973Zm-22.066-56.1a1,1,0,0,1,.71.294l16.13,16.13a1,1,0,0,1,.294.71v32.023a4.933,4.933,0,0,0,9.866,0V182.89a1,1,0,0,1,1.713-.71l18.41,18.4a4.878,4.878,0,0,0,3.486,1.447,4.965,4.965,0,0,0,3.486-1.447,4.9,4.9,0,0,0,0-6.969L182.168,175.2a1,1,0,0,1,.708-1.713h0l20.151.007a4.937,4.937,0,0,0,.006-9.874L171,163.6a1,1,0,0,1-.71-.294l-16.115-16.121a1,1,0,0,1-.075-1.336,52.159,52.159,0,0,0,11.358-29.424,1,1,0,0,1,1.711-.646l30.086,30.093a4.936,4.936,0,1,0,6.982-6.98l-25.084-25.077a1,1,0,0,1,0-1.419l25.115-25.076a4.938,4.938,0,0,0-3.489-8.431h0a4.913,4.913,0,0,0-3.5,1.445L167.195,110.43a1,1,0,0,1-1.711-.646A51.991,51.991,0,0,0,154.118,80.37a1,1,0,0,1,.073-1.336l16.13-16.123a1,1,0,0,1,.71-.294h32.032a4.933,4.933,0,0,0,0-9.866H182.91a1,1,0,0,1-.71-1.713L200.626,32.62a4.941,4.941,0,1,0-7-6.979l-18.409,18.4a1,1,0,0,1-1.713-.71V23.2a4.933,4.933,0,1,0-9.866,0v32.01a1.007,1.007,0,0,1-.294.71l-16.123,16.13a1,1,0,0,1-1.335.075,52.111,52.111,0,0,0-29.408-11.344,1,1,0,0,1-.646-1.711l30.086-30.085a4.939,4.939,0,0,0-6.98-6.989L113.874,47.058a1,1,0,0,1-1.419,0L87.379,21.989a4.939,4.939,0,1,0-6.989,6.98l30.093,30.1a1,1,0,0,1-.646,1.711A51.991,51.991,0,0,0,80.415,72.125a1,1,0,0,1-1.336-.073l-16.13-16.13a1,1,0,0,1-.294-.71V23.18a4.933,4.933,0,0,0-9.866,0V43.332a1,1,0,0,1-1.713.708l-18.4-18.4a4.936,4.936,0,1,0-6.98,6.98L44.1,51.036a1,1,0,0,1-.71,1.712h0l-20.151-.007a4.933,4.933,0,1,0,0,9.866l32.025.015a1,1,0,0,1,.71.294L72.115,79.061a1,1,0,0,1,.073,1.336,51.982,51.982,0,0,0-11.365,29.512,1,1,0,0,1-1.711.647L28.974,80.418a4.939,4.939,0,0,0-6.989,6.98l25.084,25.076a1,1,0,0,1,0,1.419L22,138.963a4.954,4.954,0,0,0,0,6.99,4.844,4.844,0,0,0,3.478,1.445,4.895,4.895,0,0,0,3.486-1.447L59.1,115.82a1,1,0,0,1,1.711.646,52.064,52.064,0,0,0,11.345,29.4,1,1,0,0,1-.075,1.336L55.969,163.327a1,1,0,0,1-.71.294H23.212a4.933,4.933,0,1,0,0,9.866H43.386a1,1,0,0,1,.708,1.713L25.677,193.617a4.928,4.928,0,1,0,6.965,6.973l18.41-18.4a1,1,0,0,1,1.713.71v20.128a4.933,4.933,0,0,0,9.866-.007V171.008a1,1,0,0,1,.294-.71l16.13-16.13a1,1,0,0,1,1.336-.075A52.084,52.084,0,0,0,109.8,165.437a1,1,0,0,1,.646,1.711L80.314,197.3a4.928,4.928,0,0,0,0,6.973,4.947,4.947,0,0,0,6.987,0L112.371,179.2a1,1,0,0,1,1.419,0l25.061,25.069a4.87,4.87,0,0,0,3.494,1.454,4.965,4.965,0,0,0,3.479-1.454,4.913,4.913,0,0,0,0-6.971L115.7,167.148a1,1,0,0,1,.649-1.711,51.955,51.955,0,0,0,29.5-11.343A1.019,1.019,0,0,1,146.482,153.876Zm-33.369,1.862a42.445,42.445,0,0,1-34.02-68.07,42.645,42.645,0,0,1,8.6-8.607,41.888,41.888,0,0,1,50.855,0,42.644,42.644,0,0,1,8.594,8.61,42.52,42.52,0,0,1-8.593,59.46h0A42.14,42.14,0,0,1,113.112,155.739Zm0-83.272a40.106,40.106,0,0,0-24.216,8.2,40.625,40.625,0,0,0-8.2,8.2,40.435,40.435,0,0,0,56.641,56.658h0a40.63,40.63,0,0,0-24.228-73.059Zm24.833,73.861h0Zm81.326-7.283a6.889,6.889,0,0,1-4.905-2.027l-25.191-25.182a1,1,0,0,1,0-1.419l25.191-25.175a6.943,6.943,0,1,1,9.819,9.818l-16.074,16.074L224.185,127.2a6.936,6.936,0,0,1-4.914,11.846ZM191.3,111.127,215.786,135.6a4.953,4.953,0,0,0,6.98,0,4.947,4.947,0,0,0,0-6.979l-16.786-16.777a1,1,0,0,1,0-1.419L222.766,93.64a4.936,4.936,0,0,0-6.979-6.982ZM6.938,139.046A6.939,6.939,0,0,1,2.032,127.2l16.074-16.073L2.034,95.068A6.946,6.946,0,0,1,6.946,83.208a6.9,6.9,0,0,1,4.912,2.032h0L37.01,110.408a1,1,0,0,1,0,1.418L11.844,137.011A6.836,6.836,0,0,1,6.938,139.046Zm.008-53.83a4.938,4.938,0,0,0-3.494,8.433l16.783,16.768a1,1,0,0,1,0,1.419L3.452,128.619a4.933,4.933,0,0,0,3.486,8.419,4.851,4.851,0,0,0,3.482-1.443l24.463-24.478L10.439,86.66A4.908,4.908,0,0,0,6.946,85.216Zm106.166-47.9h0a1,1,0,0,1-.71-.294L87.251,11.857a6.918,6.918,0,0,1,0-9.82,6.93,6.93,0,0,1,9.816,0L113.112,18.1,129.17,2.031A6.951,6.951,0,1,1,139,11.857L113.82,37.025A1,1,0,0,1,113.112,37.318ZM92.157,2.007a4.932,4.932,0,0,0-3.492,8.429L113.111,34.9l24.476-24.459a4.944,4.944,0,0,0-7-6.989L113.822,20.233a1,1,0,0,1-.71.294h0a1,1,0,0,1-.71-.294L95.649,3.457A4.892,4.892,0,0,0,92.157,2.007Z" transform="translate(0 0)"/></g><g transform="translate(4.114 0.501)"><path class="b" d="M163.875,229.863a6.917,6.917,0,0,1-4.9-2.032l-16.046-16.054-16.059,16.051a6.947,6.947,0,0,1-11.857-4.921A6.889,6.889,0,0,1,117.051,218l25.167-25.159a1,1,0,0,1,.71-.294h0a1,1,0,0,1,.71.294L168.789,218a6.947,6.947,0,0,1-4.914,11.859Zm-20.948-20.508h0a1,1,0,0,1,.71.294l16.752,16.761a4.938,4.938,0,1,0,6.979-6.989h0l-24.442-24.451-24.458,24.451a4.933,4.933,0,0,0,0,6.989,4.954,4.954,0,0,0,6.982,0l16.768-16.759A1,1,0,0,1,142.927,209.355Zm55.421,4.248a6.948,6.948,0,0,1-6.94-6.94V175.055L176.2,159.849A53.879,53.879,0,0,1,148.453,170.9l28.591,28.619a6.923,6.923,0,0,1,0,9.812,6.981,6.981,0,0,1-4.9,2.041,6.857,6.857,0,0,1-4.918-2.046L142.88,184.967l-24.36,24.36a6.945,6.945,0,0,1-11.858-4.911,6.874,6.874,0,0,1,2.034-4.9l28.6-28.623a54.015,54.015,0,0,1-27.654-11.044L94.438,175.054v31.593a6.94,6.94,0,0,1-13.881.008V188.948l-16.7,16.69a6.935,6.935,0,1,1-9.8-9.812l16.7-16.7H53.012a6.94,6.94,0,0,1,0-13.881H84.643l15.191-15.2A54.022,54.022,0,0,1,88.789,122.4L60.182,151a6.94,6.94,0,0,1-9.8-9.826l24.361-24.357L50.364,92.45a6.945,6.945,0,0,1,9.826-9.819l28.6,28.6a53.912,53.912,0,0,1,11.07-27.754L84.65,68.261l-31.609-.015a6.94,6.94,0,0,1,0-13.881l17.728.007-16.7-16.7a6.943,6.943,0,0,1,9.819-9.819l16.69,16.69V26.81a6.94,6.94,0,1,1,13.881,0V58.427L109.67,73.633a53.922,53.922,0,0,1,27.666-11.045L108.772,34.019A6.945,6.945,0,1,1,118.6,24.2l24.366,24.36,24.36-24.36a6.945,6.945,0,0,1,9.819,9.826L148.588,62.581a54.052,54.052,0,0,1,27.651,11.045l15.2-15.206V26.826a6.94,6.94,0,1,1,13.881,0V44.54l16.7-16.69a6.948,6.948,0,0,1,9.833,9.819L215.136,54.374h17.728a6.94,6.94,0,1,1,0,13.881H201.249l-15.2,15.2a53.938,53.938,0,0,1,11.067,27.659l28.554-28.561a6.9,6.9,0,0,1,4.916-2.032h.006a6.944,6.944,0,0,1,4.9,11.859l-24.4,24.366,24.373,24.366a6.942,6.942,0,1,1-9.82,9.815l-28.554-28.562a54.1,54.1,0,0,1-11.057,27.669l15.191,15.2,31.616.015a6.944,6.944,0,0,1-.008,13.888l-17.728-.007,16.7,16.7a6.937,6.937,0,1,1-9.813,9.808l-16.7-16.689V206.66A6.947,6.947,0,0,1,198.348,213.6Zm-22.066-56.1a1,1,0,0,1,.71.294l16.13,16.13a1,1,0,0,1,.294.71v32.023a4.933,4.933,0,1,0,9.866,0V186.52a1,1,0,0,1,1.713-.71l18.41,18.4a4.878,4.878,0,0,0,3.486,1.447,4.965,4.965,0,0,0,3.486-1.447,4.9,4.9,0,0,0,0-6.969l-18.412-18.412a1,1,0,0,1,.708-1.713h0l20.151.007a4.937,4.937,0,0,0,.006-9.874l-32.03-.015a1,1,0,0,1-.71-.294L183.979,150.82a1,1,0,0,1-.075-1.336,52.159,52.159,0,0,0,11.358-29.424,1,1,0,0,1,1.711-.646l30.086,30.093a4.936,4.936,0,1,0,6.982-6.98l-25.086-25.077a1,1,0,0,1,0-1.419L234.07,90.954a4.938,4.938,0,0,0-3.489-8.431h0a4.913,4.913,0,0,0-3.5,1.445l-30.086,30.093a1,1,0,0,1-1.711-.646A51.991,51.991,0,0,0,183.916,84a1,1,0,0,1,.073-1.336l16.13-16.123a1,1,0,0,1,.71-.294h32.032a4.933,4.933,0,0,0,0-9.866H212.709a1,1,0,0,1-.71-1.713l18.431-18.42a4.941,4.941,0,1,0-7-6.979l-18.409,18.4a1,1,0,0,1-1.713-.71V26.826a4.933,4.933,0,1,0-9.866,0v32.01a1.007,1.007,0,0,1-.294.71l-16.123,16.13a1,1,0,0,1-1.335.075A52.115,52.115,0,0,0,146.285,64.4a1,1,0,0,1-.646-1.711l30.086-30.085a4.939,4.939,0,1,0-6.98-6.989L143.674,50.688a1,1,0,0,1-1.419,0L117.179,25.62a4.939,4.939,0,1,0-6.989,6.98l30.093,30.1a1,1,0,0,1-.646,1.711,51.991,51.991,0,0,0-29.422,11.343,1,1,0,0,1-1.336-.073L92.749,59.552a1,1,0,0,1-.294-.71V26.81a4.933,4.933,0,0,0-9.866,0V46.962a1,1,0,0,1-1.713.708l-18.4-18.4a4.936,4.936,0,1,0-6.98,6.98L73.9,54.666a1,1,0,0,1-.71,1.712h0l-20.151-.007a4.933,4.933,0,0,0,0,9.866l32.025.015a1,1,0,0,1,.71.294l16.138,16.145a1,1,0,0,1,.073,1.336,51.982,51.982,0,0,0-11.365,29.512,1,1,0,0,1-1.711.648L58.774,84.048a4.939,4.939,0,0,0-6.989,6.98L76.869,116.1a1,1,0,0,1,0,1.419L51.8,142.593a4.954,4.954,0,0,0,0,6.99,4.844,4.844,0,0,0,3.478,1.445,4.895,4.895,0,0,0,3.486-1.447L88.9,119.45a1,1,0,0,1,1.711.646,52.064,52.064,0,0,0,11.344,29.4,1,1,0,0,1-.075,1.336L85.77,166.955a1,1,0,0,1-.71.294H53.012a4.933,4.933,0,1,0,0,9.866H73.186a1,1,0,0,1,.708,1.713L55.477,197.246a4.928,4.928,0,1,0,6.965,6.973l18.41-18.4a1,1,0,0,1,1.713.71v20.128a4.933,4.933,0,0,0,9.866-.007v-32.01a1,1,0,0,1,.294-.71l16.13-16.13a1,1,0,0,1,1.336-.075A52.084,52.084,0,0,0,139.6,169.066a1,1,0,0,1,.646,1.711l-30.132,30.154a4.928,4.928,0,0,0,0,6.973,4.947,4.947,0,0,0,6.987,0l25.069-25.069a1,1,0,0,1,1.419,0L168.651,207.9a4.87,4.87,0,0,0,3.494,1.454,4.965,4.965,0,0,0,3.479-1.454,4.913,4.913,0,0,0,0-6.971L145.5,170.777a1,1,0,0,1,.649-1.711,51.955,51.955,0,0,0,29.5-11.343A1.023,1.023,0,0,1,176.282,157.506Zm-33.369,1.862a42.445,42.445,0,0,1-34.02-68.07,42.645,42.645,0,0,1,8.6-8.607,41.888,41.888,0,0,1,50.855,0,42.644,42.644,0,0,1,8.594,8.61,42.52,42.52,0,0,1-8.593,59.46h0A42.14,42.14,0,0,1,142.912,159.369Zm0-83.272A40.106,40.106,0,0,0,118.7,84.3a40.625,40.625,0,0,0-8.2,8.2,40.435,40.435,0,0,0,56.641,56.658h0A40.63,40.63,0,0,0,142.912,76.1Zm24.833,73.861h0Zm81.325-7.281a6.889,6.889,0,0,1-4.905-2.027l-25.191-25.182a1,1,0,0,1,0-1.419l25.191-25.175a6.943,6.943,0,1,1,9.819,9.818l-16.074,16.074,16.074,16.066a6.936,6.936,0,0,1-4.914,11.846ZM221.1,114.757l24.481,24.473a4.953,4.953,0,0,0,6.98,0,4.947,4.947,0,0,0,0-6.979l-16.784-16.777a1,1,0,0,1,0-1.419L252.566,97.27a4.936,4.936,0,0,0-6.979-6.982ZM36.738,142.677a6.939,6.939,0,0,1-4.905-11.846l16.074-16.073L31.832,98.7A6.946,6.946,0,0,1,36.744,86.84a6.9,6.9,0,0,1,4.912,2.032h0l25.152,25.167a1,1,0,0,1,0,1.418L41.642,140.639A6.827,6.827,0,0,1,36.738,142.677Zm.008-53.83a4.938,4.938,0,0,0-3.494,8.433l16.783,16.768a1,1,0,0,1,0,1.419L33.252,132.251a4.933,4.933,0,0,0,3.486,8.419,4.851,4.851,0,0,0,3.482-1.443l24.463-24.478L40.239,90.291A4.9,4.9,0,0,0,36.746,88.847Zm106.166-47.9h0a1,1,0,0,1-.71-.294L117.049,15.487a6.943,6.943,0,1,1,9.82-9.818l16.043,16.065L158.97,5.661a6.951,6.951,0,1,1,9.834,9.826L143.62,40.655A1,1,0,0,1,142.912,40.949ZM121.957,5.637a4.932,4.932,0,0,0-3.492,8.429l24.445,24.46,24.473-24.459a4.944,4.944,0,0,0-7-6.989L143.622,23.863a1,1,0,0,1-.71.294h0a1,1,0,0,1-.71-.294L125.449,7.087A4.9,4.9,0,0,0,121.957,5.637Z" transform="translate(-29.8 -3.63)"/></g></svg>