<svg xmlns="http://www.w3.org/2000/svg" width="391.968" height="196.025" viewBox="0 0 391.968 196.025"><defs><style>.a{fill:#ff4e00;}</style></defs><path class="a" d="M34.418,287.483q0,2.608,4.417,4.811a21.72,21.72,0,0,0,9.852,2.206q10.753,0,17.663-7.247a6.556,6.556,0,0,1,.963-.849,1.668,1.668,0,0,1,.849-.17H69.52a1.086,1.086,0,0,1,1.073.564,5.077,5.077,0,0,1,.284,2.036A23.645,23.645,0,0,1,67.084,301.8a27.436,27.436,0,0,1-10.756,9.568,33.261,33.261,0,0,1-15.572,3.623,35.987,35.987,0,0,1-16.53-3.738A29.231,29.231,0,0,1,12.507,300.61,28.851,28.851,0,0,1,8.15,284.868a29.534,29.534,0,0,1,4.078-15.512,28.459,28.459,0,0,1,11.609-10.7,37.709,37.709,0,0,1,17.608-3.908,37.172,37.172,0,0,1,13.645,2.376,22.326,22.326,0,0,1,9.568,6.793,15.923,15.923,0,0,1,3.509,10.192,15.7,15.7,0,0,1-5.321,12.173,19.322,19.322,0,0,1-13.476,4.811,17.321,17.321,0,0,1-13.246-5.435,1.626,1.626,0,0,0-1.188.509A1.791,1.791,0,0,0,34.418,287.483ZM47.329,219.77a11.055,11.055,0,0,1,8.1,3.059,10.756,10.756,0,0,1,3.114,8.04,16.862,16.862,0,0,1-3,9.568,22.464,22.464,0,0,1-8.325,7.3,24.654,24.654,0,0,1-11.779,2.83,17.817,17.817,0,0,1-9.513-2.376c-.83-.454-1.248-.908-1.248-1.358a1.5,1.5,0,0,1,.339-.9l.679-1.133a.977.977,0,0,1,.793-.454,2.647,2.647,0,0,1,1.018.339l.454.225a7.339,7.339,0,0,0,3.623,1.018,3.716,3.716,0,0,0,3.169-1.527,7.028,7.028,0,0,0,1.133-4.247,21.218,21.218,0,0,0-.17-2.775c-.115-.867-.248-1.757-.394-2.66a19.46,19.46,0,0,1-.225-3.169A11.7,11.7,0,0,1,38.55,223,12.092,12.092,0,0,1,47.329,219.77Zm-9.513,59.9a2.145,2.145,0,0,0,1.812.9c1.358,0,2.036-.752,2.036-2.266V262.229q0-2.264-2.036-2.266a2.149,2.149,0,0,0-1.812.908Z" transform="translate(-8.15 -219.77)"/><path class="a" d="M177.858,287.483q0,2.608,4.417,4.811a21.721,21.721,0,0,0,9.852,2.206q10.753,0,17.663-7.247a6.555,6.555,0,0,1,.963-.849,1.667,1.667,0,0,1,.848-.17h1.358a1.085,1.085,0,0,1,1.073.564,5.077,5.077,0,0,1,.284,2.036,23.646,23.646,0,0,1-3.793,12.967,27.436,27.436,0,0,1-10.756,9.568,33.261,33.261,0,0,1-15.572,3.623,35.986,35.986,0,0,1-16.53-3.738,29.231,29.231,0,0,1-11.719-10.646,28.851,28.851,0,0,1-4.357-15.741,29.535,29.535,0,0,1,4.078-15.512,28.459,28.459,0,0,1,11.609-10.7,37.709,37.709,0,0,1,17.608-3.908,37.172,37.172,0,0,1,13.645,2.376,22.325,22.325,0,0,1,9.568,6.793,15.923,15.923,0,0,1,3.509,10.192,15.7,15.7,0,0,1-5.32,12.173,19.322,19.322,0,0,1-13.476,4.811,17.321,17.321,0,0,1-13.246-5.435,1.626,1.626,0,0,0-1.188.509A1.791,1.791,0,0,0,177.858,287.483Zm12.907-67.713a11.056,11.056,0,0,1,8.1,3.059,10.756,10.756,0,0,1,3.114,8.04,16.862,16.862,0,0,1-3,9.568,22.464,22.464,0,0,1-8.325,7.3,24.654,24.654,0,0,1-11.779,2.83,17.817,17.817,0,0,1-9.513-2.376c-.83-.454-1.248-.908-1.248-1.358a1.5,1.5,0,0,1,.339-.9l.679-1.133a.977.977,0,0,1,.794-.454,2.647,2.647,0,0,1,1.018.339l.454.225a7.339,7.339,0,0,0,3.623,1.018,3.716,3.716,0,0,0,3.169-1.527,7.028,7.028,0,0,0,1.133-4.247,21.214,21.214,0,0,0-.17-2.775c-.115-.867-.248-1.757-.394-2.66a19.462,19.462,0,0,1-.225-3.169,11.7,11.7,0,0,1,3.454-8.55A12.092,12.092,0,0,1,190.765,219.77Zm-9.513,59.9a2.145,2.145,0,0,0,1.812.9c1.358,0,2.036-.752,2.036-2.266V262.229q0-2.264-2.036-2.266a2.149,2.149,0,0,0-1.812.908Z" transform="translate(-85.799 -219.77)"/><path class="a" d="M321.288,287.483q0,2.608,4.417,4.811a21.721,21.721,0,0,0,9.852,2.206q10.753,0,17.663-7.247a6.558,6.558,0,0,1,.963-.849,1.668,1.668,0,0,1,.849-.17h1.358a1.085,1.085,0,0,1,1.073.564,5.077,5.077,0,0,1,.284,2.036,23.646,23.646,0,0,1-3.793,12.967A27.437,27.437,0,0,1,343.2,311.37a33.262,33.262,0,0,1-15.572,3.623,35.987,35.987,0,0,1-16.53-3.738,29.231,29.231,0,0,1-11.719-10.646,28.852,28.852,0,0,1-4.357-15.741,29.534,29.534,0,0,1,4.078-15.512,28.459,28.459,0,0,1,11.609-10.7,37.709,37.709,0,0,1,17.608-3.908,37.173,37.173,0,0,1,13.645,2.376,22.326,22.326,0,0,1,9.568,6.793,15.923,15.923,0,0,1,3.509,10.192,15.7,15.7,0,0,1-5.32,12.173,19.322,19.322,0,0,1-13.476,4.811,17.321,17.321,0,0,1-13.246-5.435,1.626,1.626,0,0,0-1.188.509A1.791,1.791,0,0,0,321.288,287.483ZM334.2,219.77a11.055,11.055,0,0,1,8.1,3.059,10.756,10.756,0,0,1,3.114,8.04,16.862,16.862,0,0,1-3,9.568,22.465,22.465,0,0,1-8.325,7.3,24.654,24.654,0,0,1-11.778,2.83,17.817,17.817,0,0,1-9.513-2.376c-.83-.454-1.248-.908-1.248-1.358a1.5,1.5,0,0,1,.339-.9l.679-1.133a.977.977,0,0,1,.793-.454,2.647,2.647,0,0,1,1.018.339l.454.225a7.339,7.339,0,0,0,3.623,1.018,3.716,3.716,0,0,0,3.169-1.527,7.028,7.028,0,0,0,1.133-4.247,21.225,21.225,0,0,0-.17-2.775c-.115-.867-.248-1.757-.394-2.66a19.461,19.461,0,0,1-.225-3.169A11.7,11.7,0,0,1,325.42,223,12.092,12.092,0,0,1,334.2,219.77Zm-9.513,59.9a2.145,2.145,0,0,0,1.812.9c1.358,0,2.036-.752,2.036-2.266V262.229q0-2.264-2.036-2.266a2.149,2.149,0,0,0-1.812.908Z" transform="translate(-163.442 -219.77)"/><path class="a" d="M464.728,287.483q0,2.608,4.417,4.811A21.72,21.72,0,0,0,479,294.5q10.754,0,17.663-7.247a6.558,6.558,0,0,1,.963-.849,1.668,1.668,0,0,1,.849-.17h1.358a1.085,1.085,0,0,1,1.073.564,5.077,5.077,0,0,1,.284,2.036,23.646,23.646,0,0,1-3.793,12.967,27.437,27.437,0,0,1-10.756,9.568,33.261,33.261,0,0,1-15.572,3.623,35.987,35.987,0,0,1-16.53-3.738,29.232,29.232,0,0,1-11.719-10.646,28.852,28.852,0,0,1-4.357-15.741,29.535,29.535,0,0,1,4.078-15.512,28.459,28.459,0,0,1,11.609-10.7,37.709,37.709,0,0,1,17.608-3.908,37.172,37.172,0,0,1,13.645,2.376,22.327,22.327,0,0,1,9.568,6.793,15.923,15.923,0,0,1,3.509,10.192,15.7,15.7,0,0,1-5.32,12.173,19.322,19.322,0,0,1-13.476,4.811,17.321,17.321,0,0,1-13.246-5.435,1.626,1.626,0,0,0-1.188.509A1.791,1.791,0,0,0,464.728,287.483Zm12.907-67.713a11.056,11.056,0,0,1,8.1,3.059,10.756,10.756,0,0,1,3.114,8.04,16.862,16.862,0,0,1-3,9.568,22.465,22.465,0,0,1-8.325,7.3,24.654,24.654,0,0,1-11.779,2.83,17.817,17.817,0,0,1-9.513-2.376c-.83-.454-1.248-.908-1.248-1.358a1.5,1.5,0,0,1,.339-.9L456,244.8a.977.977,0,0,1,.793-.454,2.647,2.647,0,0,1,1.018.339l.454.225a7.339,7.339,0,0,0,3.623,1.018,3.716,3.716,0,0,0,3.169-1.527,7.027,7.027,0,0,0,1.133-4.247,21.225,21.225,0,0,0-.17-2.775c-.115-.867-.248-1.757-.394-2.66a19.454,19.454,0,0,1-.225-3.169,11.7,11.7,0,0,1,3.454-8.55A12.092,12.092,0,0,1,477.635,219.77Zm-9.508,59.9a2.145,2.145,0,0,0,1.812.9c1.358,0,2.036-.752,2.036-2.266V262.229q0-2.264-2.036-2.266a2.15,2.15,0,0,0-1.812.908Z" transform="translate(-241.091 -219.77)"/><path class="a" d="M608.168,287.483q0,2.608,4.417,4.811a21.72,21.72,0,0,0,9.852,2.206q10.753,0,17.663-7.247a6.559,6.559,0,0,1,.963-.849,1.669,1.669,0,0,1,.849-.17h1.358a1.086,1.086,0,0,1,1.073.564,5.076,5.076,0,0,1,.284,2.036,23.645,23.645,0,0,1-3.793,12.967,27.436,27.436,0,0,1-10.756,9.568,33.261,33.261,0,0,1-15.572,3.623,35.986,35.986,0,0,1-16.53-3.738,29.232,29.232,0,0,1-11.719-10.646,28.85,28.85,0,0,1-4.357-15.741,29.535,29.535,0,0,1,4.078-15.512,28.46,28.46,0,0,1,11.609-10.7,37.709,37.709,0,0,1,17.608-3.908,37.172,37.172,0,0,1,13.645,2.376,22.327,22.327,0,0,1,9.568,6.793,15.924,15.924,0,0,1,3.509,10.192,15.7,15.7,0,0,1-5.321,12.173,19.322,19.322,0,0,1-13.476,4.811,17.321,17.321,0,0,1-13.246-5.435,1.626,1.626,0,0,0-1.188.509A1.791,1.791,0,0,0,608.168,287.483Zm12.907-67.713a11.056,11.056,0,0,1,8.1,3.059,10.756,10.756,0,0,1,3.114,8.04,16.862,16.862,0,0,1-3,9.568,22.464,22.464,0,0,1-8.325,7.3,24.654,24.654,0,0,1-11.779,2.83,17.816,17.816,0,0,1-9.513-2.376c-.83-.454-1.248-.908-1.248-1.358a1.5,1.5,0,0,1,.339-.9l.679-1.133a.977.977,0,0,1,.793-.454,2.647,2.647,0,0,1,1.018.339l.454.225a7.339,7.339,0,0,0,3.624,1.018A3.716,3.716,0,0,0,608.5,244.4a7.027,7.027,0,0,0,1.133-4.247,21.225,21.225,0,0,0-.17-2.775c-.115-.867-.248-1.757-.395-2.66a19.454,19.454,0,0,1-.225-3.169A11.7,11.7,0,0,1,612.3,223,12.093,12.093,0,0,1,621.075,219.77Zm-9.513,59.9a2.145,2.145,0,0,0,1.812.9c1.358,0,2.037-.752,2.037-2.266V262.229q0-2.264-2.037-2.266a2.149,2.149,0,0,0-1.812.908Z" transform="translate(-318.74 -219.77)"/><path class="a" d="M608.168,287.483q0,2.608,4.417,4.811a21.72,21.72,0,0,0,9.852,2.206q10.753,0,17.663-7.247a6.559,6.559,0,0,1,.963-.849,1.669,1.669,0,0,1,.849-.17h1.358a1.086,1.086,0,0,1,1.073.564,5.076,5.076,0,0,1,.284,2.036,23.645,23.645,0,0,1-3.793,12.967,27.436,27.436,0,0,1-10.756,9.568,33.261,33.261,0,0,1-15.572,3.623,35.986,35.986,0,0,1-16.53-3.738,29.232,29.232,0,0,1-11.719-10.646,28.85,28.85,0,0,1-4.357-15.741,29.535,29.535,0,0,1,4.078-15.512,28.46,28.46,0,0,1,11.609-10.7,37.709,37.709,0,0,1,17.608-3.908,37.172,37.172,0,0,1,13.645,2.376,22.327,22.327,0,0,1,9.568,6.793,15.924,15.924,0,0,1,3.509,10.192,15.7,15.7,0,0,1-5.321,12.173,19.322,19.322,0,0,1-13.476,4.811,17.321,17.321,0,0,1-13.246-5.435,1.626,1.626,0,0,0-1.188.509A1.791,1.791,0,0,0,608.168,287.483Zm12.907-67.713a11.056,11.056,0,0,1,8.1,3.059,10.756,10.756,0,0,1,3.114,8.04,16.862,16.862,0,0,1-3,9.568,22.464,22.464,0,0,1-8.325,7.3,24.654,24.654,0,0,1-11.779,2.83,17.816,17.816,0,0,1-9.513-2.376c-.83-.454-1.248-.908-1.248-1.358a1.5,1.5,0,0,1,.339-.9l.679-1.133a.977.977,0,0,1,.793-.454,2.647,2.647,0,0,1,1.018.339l.454.225a7.339,7.339,0,0,0,3.624,1.018A3.716,3.716,0,0,0,608.5,244.4a7.027,7.027,0,0,0,1.133-4.247,21.225,21.225,0,0,0-.17-2.775c-.115-.867-.248-1.757-.395-2.66a19.454,19.454,0,0,1-.225-3.169A11.7,11.7,0,0,1,612.3,223,12.093,12.093,0,0,1,621.075,219.77Zm-9.513,59.9a2.145,2.145,0,0,0,1.812.9c1.358,0,2.037-.752,2.037-2.266V262.229q0-2.264-2.037-2.266a2.149,2.149,0,0,0-1.812.908Z" transform="translate(-252.839 -219.77)"/><path class="a" d="M34.418,507.247q0,2.607,4.417,4.811a21.722,21.722,0,0,0,9.852,2.206q10.753,0,17.663-7.247a6.562,6.562,0,0,1,.963-.849,1.668,1.668,0,0,1,.849-.17H69.52a1.085,1.085,0,0,1,1.073.564,5.077,5.077,0,0,1,.284,2.036,23.645,23.645,0,0,1-3.793,12.966,27.434,27.434,0,0,1-10.756,9.568,33.259,33.259,0,0,1-15.572,3.624,35.987,35.987,0,0,1-16.53-3.738,29.231,29.231,0,0,1-11.719-10.646A28.851,28.851,0,0,1,8.15,504.633a29.535,29.535,0,0,1,4.078-15.512,28.459,28.459,0,0,1,11.609-10.7,37.708,37.708,0,0,1,17.608-3.908,37.173,37.173,0,0,1,13.645,2.376,22.327,22.327,0,0,1,9.568,6.793,15.923,15.923,0,0,1,3.509,10.192,15.7,15.7,0,0,1-5.321,12.173,19.322,19.322,0,0,1-13.476,4.811,17.321,17.321,0,0,1-13.246-5.435,1.626,1.626,0,0,0-1.188.509A1.791,1.791,0,0,0,34.418,507.247ZM47.329,439.53a11.055,11.055,0,0,1,8.1,3.059,10.756,10.756,0,0,1,3.114,8.04,16.862,16.862,0,0,1-3,9.568,22.464,22.464,0,0,1-8.325,7.3,24.654,24.654,0,0,1-11.779,2.83,17.818,17.818,0,0,1-9.513-2.376c-.83-.454-1.248-.908-1.248-1.358a1.5,1.5,0,0,1,.339-.9l.679-1.133a.977.977,0,0,1,.793-.454,2.648,2.648,0,0,1,1.018.339l.454.225a7.338,7.338,0,0,0,3.623,1.018,3.716,3.716,0,0,0,3.169-1.527,7.028,7.028,0,0,0,1.133-4.247,21.22,21.22,0,0,0-.17-2.775c-.115-.867-.248-1.757-.394-2.66a19.461,19.461,0,0,1-.225-3.169,11.7,11.7,0,0,1,3.454-8.549A12.111,12.111,0,0,1,47.329,439.53Zm-9.513,59.9a2.145,2.145,0,0,0,1.812.9c1.358,0,2.036-.752,2.036-2.266V481.989q0-2.264-2.036-2.266a2.149,2.149,0,0,0-1.812.908Z" transform="translate(-8.15 -338.733)"/><path class="a" d="M177.858,507.247q0,2.607,4.417,4.811a21.722,21.722,0,0,0,9.852,2.206q10.753,0,17.663-7.247a6.561,6.561,0,0,1,.963-.849,1.667,1.667,0,0,1,.848-.17h1.358a1.085,1.085,0,0,1,1.073.564,5.076,5.076,0,0,1,.284,2.036,23.646,23.646,0,0,1-3.793,12.966,27.434,27.434,0,0,1-10.756,9.568,33.259,33.259,0,0,1-15.572,3.624,35.986,35.986,0,0,1-16.53-3.738,29.231,29.231,0,0,1-11.719-10.646,28.851,28.851,0,0,1-4.357-15.741,29.535,29.535,0,0,1,4.078-15.512,28.459,28.459,0,0,1,11.609-10.7,37.708,37.708,0,0,1,17.608-3.908,37.173,37.173,0,0,1,13.645,2.376,22.326,22.326,0,0,1,9.568,6.793,15.923,15.923,0,0,1,3.509,10.192,15.7,15.7,0,0,1-5.32,12.173,19.322,19.322,0,0,1-13.476,4.811,17.321,17.321,0,0,1-13.246-5.435,1.626,1.626,0,0,0-1.188.509A1.791,1.791,0,0,0,177.858,507.247Zm12.907-67.717a11.056,11.056,0,0,1,8.1,3.059,10.756,10.756,0,0,1,3.114,8.04,16.862,16.862,0,0,1-3,9.568,22.464,22.464,0,0,1-8.325,7.3,24.654,24.654,0,0,1-11.779,2.83,17.817,17.817,0,0,1-9.513-2.376c-.83-.454-1.248-.908-1.248-1.358a1.5,1.5,0,0,1,.339-.9l.679-1.133a.977.977,0,0,1,.794-.454,2.648,2.648,0,0,1,1.018.339l.454.225a7.338,7.338,0,0,0,3.623,1.018,3.716,3.716,0,0,0,3.169-1.527,7.028,7.028,0,0,0,1.133-4.247,21.216,21.216,0,0,0-.17-2.775c-.115-.867-.248-1.757-.394-2.66a19.463,19.463,0,0,1-.225-3.169,11.7,11.7,0,0,1,3.454-8.549A12.111,12.111,0,0,1,190.765,439.53Zm-9.513,59.9a2.145,2.145,0,0,0,1.812.9c1.358,0,2.036-.752,2.036-2.266V481.989q0-2.264-2.036-2.266a2.149,2.149,0,0,0-1.812.908Z" transform="translate(-85.799 -338.733)"/><g transform="translate(147.724 103.446)"><path class="a" d="M19.256,736.938a17.341,17.341,0,0,1,8.889,1.981,10.236,10.236,0,0,1,4.587,6.174,17.72,17.72,0,0,1,7.077-7.077,20.838,20.838,0,0,1,10.137-2.435q8.153,0,12.457,4.871t4.3,13.815V790.84a3.826,3.826,0,0,1-.849,2.775,4.18,4.18,0,0,1-3,.849H42.469a4.193,4.193,0,0,1-3-.849,3.819,3.819,0,0,1-.849-2.775V751.886a3.426,3.426,0,0,0-.564-2.036,1.842,1.842,0,0,0-1.587-.794,2.087,2.087,0,0,0-1.926.908V790.84a3.826,3.826,0,0,1-.849,2.775,4.18,4.18,0,0,1-3,.849H10.312a4.193,4.193,0,0,1-3-.849,3.819,3.819,0,0,1-.849-2.775V750.867a13.046,13.046,0,0,0-1.133-6.059A10.927,10.927,0,0,0,1.143,740.9a2.92,2.92,0,0,1-.963-.734,1.4,1.4,0,0,1-.17-.734v-1.358c0-.752.454-1.133,1.358-1.133H19.256Z" transform="translate(-0.01 -705.34)"/><path class="a" d="M207.621,760.131q-11.435,0-16.306-9.4a17.773,17.773,0,0,1-6.4,7.132,17.96,17.96,0,0,1-9.343,2.266q-7.816,0-12.567-3.848a12.46,12.46,0,0,1-4.756-10.192,10.779,10.779,0,0,1,3.908-8.774q3.908-3.227,12.058-4.357,20.833-2.718,20.837-15.742a12.593,12.593,0,0,0-3.623-9,11.51,11.51,0,0,0-8.6-3.793c-1.587,0-2.376.527-2.376,1.587a2.191,2.191,0,0,0,.339,1.133,11.051,11.051,0,0,1,7.811,2.83,9.447,9.447,0,0,1,3.059,7.247,10.469,10.469,0,0,1-4.357,8.6,17.607,17.607,0,0,1-11.155,3.4q-6.907,0-10.985-3.454a11.35,11.35,0,0,1-4.078-9.114q0-7.589,7.362-12.173t19.475-4.587q14.5,0,22.025,7.022t7.531,20.608v14.154a6.679,6.679,0,0,0,.339,2.605,1.169,1.169,0,0,0,1.133.679,1.533,1.533,0,0,0,1.472-.908,12.843,12.843,0,0,0,.793-3.509,8.621,8.621,0,0,1,.454-2.321.952.952,0,0,1,.908-.394H224.5a1,1,0,0,1,.963.793,8.531,8.531,0,0,1,.284,2.605q0,9.061-4.7,13.985Q216.331,760.126,207.621,760.131Zm6-76.662a12.374,12.374,0,0,1-3.908,9.228,13.341,13.341,0,0,1-9.682,3.793,17.885,17.885,0,0,1-6.059-1.073,31.887,31.887,0,0,1-6.738-3.568q-6.226-4.073-7.985-4.926a7.329,7.329,0,0,0-3.114-.849,2.575,2.575,0,0,0-1.587.509,1.56,1.56,0,0,0-.679,1.3q0,1.927,3.059,3.169a9.88,9.88,0,0,1,1.472.679.77.77,0,0,1,.339.679,1.892,1.892,0,0,1-.225.794l-.225.564c-.3.757-.679,1.133-1.133,1.133a6.705,6.705,0,0,1-1.587-.339,14.963,14.963,0,0,1-7.472-4.532,10.971,10.971,0,0,1-2.715-7.362,12.381,12.381,0,0,1,3.908-9.228,13.359,13.359,0,0,1,9.682-3.793,16.817,16.817,0,0,1,5.6,1.018,41.287,41.287,0,0,1,7.192,3.624q3.626,2.153,5.66,3.4t3.229,1.812a5.117,5.117,0,0,0,2.206.564,2.575,2.575,0,0,0,1.587-.509,1.56,1.56,0,0,0,.679-1.3q0-2.037-3.059-3.169a9.64,9.64,0,0,1-1.472-.679.764.764,0,0,1-.339-.679,1.826,1.826,0,0,1,.225-.794l.225-.564c.3-.752.679-1.133,1.133-1.133a6.692,6.692,0,0,1,1.587.339,14.963,14.963,0,0,1,7.472,4.531A10.969,10.969,0,0,1,213.62,683.469Zm-24.231,52.205a2.155,2.155,0,0,0-1.812-.908q-1.926,0-1.926,2.266v7.247q0,2.264,1.926,2.266a2.163,2.163,0,0,0,1.812-.9Z" transform="translate(-85.671 -669.65)"/><path class="a" d="M343.176,795.821q-15.968,0-24.291-7.7T310.56,765.7q0-14.716,8.325-22.419t24.291-7.7q15.968,0,24.291,7.7t8.325,22.419q0,14.723-8.325,22.42T343.176,795.821Zm0-5.206q2.036,0,2.036-3.059V743.845c0-2.036-.679-3.059-2.036-3.059s-2.036,1.018-2.036,3.059v43.711C341.139,789.592,341.818,790.615,343.176,790.615Z" transform="translate(-168.121 -705.34)"/><path class="a" d="M477.693,744.66a1.489,1.489,0,0,1-1.188-.454,8.854,8.854,0,0,1-1.073-2.037A251.384,251.384,0,0,1,465.41,717.6q-3-9.171-3-14.833,0-7.7,4.3-12t11.774-4.3q7.472,0,11.778,4.3t4.3,12q0,5.662-3,14.833a252.566,252.566,0,0,1-10.022,24.571,8.786,8.786,0,0,1-1.078,2.037,1.5,1.5,0,0,1-1.188.454Zm.794,25.139a13.616,13.616,0,0,1-9.283-3.059,10.645,10.645,0,0,1,.06-15.851,15.449,15.449,0,0,1,18.457,0,10.645,10.645,0,0,1,.06,15.851A13.68,13.68,0,0,1,478.486,769.8Z" transform="translate(-250.323 -678.75)"/></g></svg>