<?xml version="1.0" encoding="utf-8"?>
<!-- Generator: Adobe Illustrator 24.1.0, SVG Export Plug-In . SVG Version: 6.00 Build 0)  -->
<svg version="1.1" id="Layer_1" xmlns="http://www.w3.org/2000/svg" xmlns:xlink="http://www.w3.org/1999/xlink" x="0px" y="0px"
	 viewBox="0 0 463 314" style="enable-background:new 0 0 463 314;" xml:space="preserve">
<style type="text/css">
	.st0{fill:none;stroke:#FF4E00;stroke-width:5.6693;}
</style>
<g transform="translate(-27.359 1)">
	<g transform="translate(28.359 0)">
		<path class="st0" d="M115.2,217.3c-25,0-45.2,20.2-45.3,45.2c0,25,20.2,45.2,45.2,45.3s45.2-20.2,45.3-45.2c0,0,0,0,0,0
			C160.4,237.6,140.2,217.4,115.2,217.3C115.2,217.3,115.2,217.3,115.2,217.3z M115.2,285.2c-12.5,0-22.6-10.1-22.6-22.6
			c0-12.5,10.1-22.6,22.6-22.6s22.6,10.1,22.6,22.6C137.7,275.1,127.6,285.2,115.2,285.2L115.2,285.2z M456,183.9v48.3
			c0,12-9.8,21.8-21.8,21.8h0h-23.3c-4.8-32.7-35.1-55.3-67.8-50.5c-26.2,3.8-46.7,24.4-50.5,50.5H174.3
			c-4.8-32.7-35.1-55.3-67.8-50.5C80.4,207.3,59.8,227.8,56,254H26.8c-12,0-21.8-9.8-21.8-21.8l0,0v-48.3H456z M351.7,217.4
			c-25,0-45.2,20.2-45.3,45.2c0,25,20.2,45.2,45.2,45.3s45.2-20.2,45.3-45.2c0,0,0,0,0,0C396.9,237.7,376.7,217.4,351.7,217.4
			L351.7,217.4z M351.7,285.2c-12.5,0-22.6-10.1-22.6-22.6c0-12.5,10.1-22.6,22.6-22.6s22.6,10.1,22.6,22.6
			C374.3,275.1,364.2,285.2,351.7,285.2L351.7,285.2z M447.4,135.3l-85.7-84.7c-5.4-5.4-12.8-8.4-20.4-8.4h-43.2V26
			c0-12-9.7-21.8-21.7-21.8c0,0,0,0-0.1,0H26.8C14.8,4.2,5,13.9,5,26v3.4V129v42.8h451V156C456,148.2,452.9,140.8,447.4,135.3
			L447.4,135.3z M410.1,138.2h-82.9c-1.9,0-3.4-1.5-3.4-3.4c0,0,0,0,0,0v-64c0-1.9,1.5-3.4,3.4-3.4c0,0,0,0,0,0h15.8
			c0.9,0,1.7,0.3,2.4,0.9l67.1,64c1.4,1.3,1.4,3.5,0.1,4.8C411.9,137.8,411,138.1,410.1,138.2L410.1,138.2z"/>
	</g>
</g>
</svg>
