<?xml version="1.0" encoding="utf-8"?>
<!-- Generator: Adobe Illustrator 24.1.0, SVG Export Plug-In . SVG Version: 6.00 Build 0)  -->
<svg version="1.1" id="Layer_1" xmlns="http://www.w3.org/2000/svg" xmlns:xlink="http://www.w3.org/1999/xlink" x="0px" y="0px"
	 viewBox="0 0 632.2 414" style="enable-background:new 0 0 632.2 414;" xml:space="preserve">
<style type="text/css">
	.st0{fill:none;stroke:#27BDBE;stroke-width:5.6693;}
</style>
<g transform="translate(215.024 -104.427)">
	<g transform="translate(-219 100.425)">
		<path class="st0" d="M210.8,300.5c-30.9,0-56,25-56,55.9c0,30.9,25,56,55.9,56c30.9,0,56-25,56-55.9S241.7,300.5,210.8,300.5
			L210.8,300.5z M210.8,384.4c-15.4,0-27.9-12.5-27.9-27.9c0-15.4,12.5-27.9,27.9-27.9c15.4,0,27.9,12.5,27.9,27.9l0,0
			C238.7,371.9,226.2,384.4,210.8,384.4L210.8,384.4z"/>
		<path class="st0" d="M74.7,259.3v59.6c0,14.8,12,26.9,26.9,26.9c0,0,0,0,0,0h36.1c5.9-40.3,43.3-68.3,83.7-62.4
			c32.3,4.7,57.7,30.1,62.4,62.4h146.1c5.8-40.4,43.3-68.4,83.7-62.5c32.4,4.7,57.8,30.1,62.5,62.5H605c14.8,0,26.9-12,26.9-26.9
			c0,0,0,0,0,0v-59.6H74.7z"/>
		<path class="st0" d="M503.1,300.5c-30.9,0-56,25-56,55.9c0,30.9,25,56,55.9,56c30.9,0,56-25,56-55.9
			C559,325.6,534,300.6,503.1,300.5z M503.1,384.4c-15.4,0-27.9-12.5-27.9-27.9c0-15.4,12.5-27.9,27.9-27.9
			c15.4,0,27.9,12.5,27.9,27.9v0C531,371.9,518.5,384.4,503.1,384.4L503.1,384.4z"/>
		<g transform="translate(0 0)">
			<path class="st0" d="M80,153.5c-39.7,0-72-32.2-72-72c0-39.7,32.2-72,72-72c39.7,0,72,32.2,72,72C152,121.3,119.8,153.5,80,153.5
				C80.1,153.5,80,153.5,80,153.5z M107.5,96.8c-0.8,0-1.6-0.1-2.4-0.3l-13.6-3.7L75,88.4c-4.1-1.1-6.9-4.8-6.9-9V33.1
				c0-5.1,4.2-9.3,9.3-9.3c5.1,0,9.3,4.2,9.3,9.3v39.1l23.2,6.2c1.9,0.6,3.6,1.7,4.9,3.2c1.9,2.3,2.5,5.3,1.7,8.1
				C115.4,94,111.7,96.8,107.5,96.8z"/>
		</g>
		<g transform="translate(20.572 11.44)">
			<path class="st0" d="M600.9,187.7L495,82.9c-6.7-6.6-15.8-10.4-25.3-10.4h-53.5v-20c0-14.8-12-26.9-26.9-26.9c0,0,0,0,0,0H151.2
				c24.5,50.7,3.3,111.7-47.4,136.3c-13.8,6.7-29,10.2-44.4,10.2c-1.7,0-3.6,0-5.4-0.1v60.9h557.5v-19.7
				C611.5,203.6,607.7,194.4,600.9,187.7z M554.7,191.2H452.3c-2.4,0-4.3-1.9-4.3-4.3v-79.1c0-2.4,1.9-4.3,4.3-4.3h19.5
				c1.1,0,2.2,0.4,3,1.2l82.9,79.1c1.7,1.6,1.8,4.3,0.2,6C557,190.7,555.9,191.2,554.7,191.2z"/>
		</g>
	</g>
</g>
</svg>
