<svg xmlns="http://www.w3.org/2000/svg" width="56.741" height="52.702" viewBox="0 0 56.741 52.702"><path d="M19.32,17.227l3.906-3.906L19.32,9.414,15.414,13.32l1.1,1.1Z" transform="translate(-2.064 -4.303)" fill="#fff"/><path d="M18.274,20.219l-2.805-2.805-3.055,3.055h6.109Z" transform="translate(-1.874 -4.543)" fill="#fff"/><path d="M48.469,17.414l-3.055,3.055h6.109Z" transform="translate(-4.399 -4.543)" fill="#fff"/><path d="M28.469,17.414l-3.055,3.055h6.109Z" transform="translate(-2.868 -4.543)" fill="#fff"/><path d="M12.938,60.7h36.37L49.42,59H12.826Z" transform="translate(-2.752 -8.002)" fill="#fff"/><path d="M7,23H53.519v3.407H7Z" transform="translate(-1.889 -4.983)" fill="#fff"/><path d="M27,48h8.518v1.7H27Z" transform="translate(-2.889 -7.094)" fill="#fff"/><path d="M52.086,40.316A19.579,19.579,0,0,0,59.644,25.7H57.958V24h2.555a.852.852,0,0,1,.852.852,21.293,21.293,0,0,1-9.4,17.654" transform="translate(-4.624 -4.37)" fill="#fff"/><path d="M10.408,42.513A21.29,21.29,0,0,1,1,24.852.852.852,0,0,1,1.852,24H4.407v1.7H2.722a19.574,19.574,0,0,0,7.557,14.612" transform="translate(-1 -4.37)" fill="#fff"/><path d="M37.659,50.22a.9.9,0,0,1-.95.852h-11.4a.9.9,0,0,1-.95-.852v-.884a25.5,25.5,0,0,1-12.31-3.6l.63,9.6H49.339l.63-9.6a25.51,25.51,0,0,1-12.31,3.6Z" transform="translate(-2.637 -6.036)" fill="#fff"/><path d="M11.06,29l.788,12.057a23.127,23.127,0,0,0,12.394,4.092v-.816a.9.9,0,0,1,.946-.852H36.535a.9.9,0,0,1,.946.852v.816a23.12,23.12,0,0,0,12.394-4.092L50.662,29Z" transform="translate(-2.491 -4.789)" fill="#fff"/><path d="M31.32,3.414,35.227,7.32,31.32,11.227,27.414,7.32Zm1.2,9.017,3.906-3.906,3.906,3.906-3.906,3.906Z" transform="translate(-2.698 -3.414)" fill="#fff"/><path d="M44.414,7.32,48.32,3.414,52.227,7.32,48.32,11.227Z" transform="translate(-4.205 -3.414)" fill="#fff"/></svg>