<svg xmlns="http://www.w3.org/2000/svg" width="102.693" height="33.115" viewBox="0 0 102.693 33.115"><defs><style>.a{fill:#505050;}</style></defs><path class="a" d="M15.188.209a39.155,39.155,0,0,1,5.5,2.072,29.217,29.217,0,0,1,4.556,2.56c1.109.73,2.194,1.493,3.292,2.24a1.682,1.682,0,0,0,.285.152q.8.349,1.608.695a3.853,3.853,0,0,1,1.2.847,11.628,11.628,0,0,1,1.3,1.558c.628.9,1.235,1.824,1.867,2.726a.829.829,0,0,1,.109.867c-.013.031-.017.065-.03.1a10.092,10.092,0,0,1-1.652,2.671,2.1,2.1,0,0,1-.649.462A29.5,29.5,0,0,1,28,19a7.49,7.49,0,0,0-1.542.651,4.311,4.311,0,0,0-.928.717q-4.02,4.092-8.042,8.183a.315.315,0,0,1-.375.091c-.253-.085-.512-.15-.769-.226a1.067,1.067,0,0,1-.148-.067c.061-.085.115-.159.166-.235a6.554,6.554,0,0,0,1.268-3.983,6.906,6.906,0,0,0-.573-2.421,7.439,7.439,0,0,0-.924-1.658c-.054-.079-.107-.159-.161-.237l-.05.03.155.262A8.116,8.116,0,0,1,16.7,21.95a6.322,6.322,0,0,1-1.349,5.419,5.847,5.847,0,0,1-1.4,1.314,1.142,1.142,0,0,0-.131.122c.118.041.209.076.3.1,1.231.37,2.462.736,3.691,1.107a3.168,3.168,0,0,1,1.584,1.006,2.108,2.108,0,0,1,.49,1.959,2.2,2.2,0,0,0-.037.294H19.7c-.083-.033-.165-.074-.25-.1q-5.19-1.6-10.379-3.2c-.893-.274-1.793-.521-2.693-.771a1.482,1.482,0,0,1-1.116-1.447c0-.375-.024-.75-.039-1.124a.725.725,0,0,0-.227-.486c-.233-.238-.46-.484-.689-.726a28.933,28.933,0,0,1-2.663-3.155A8.242,8.242,0,0,1,.087,18.382,2.365,2.365,0,0,0,0,18.046v-1a2.771,2.771,0,0,0,.089-.36,5.79,5.79,0,0,1,1.1-2.863,8.5,8.5,0,0,1,4.736-3.294,5.93,5.93,0,0,1,2.627-.176c.673.116,1.342.264,2.011.4,1.969.41,3.931.837,5.9,1.229,1.75.349,3.508.662,5.262.989.183.033.37.055.582.087a6.2,6.2,0,0,1,1.122-3.972,2.119,2.119,0,0,0-.266-.242,5.842,5.842,0,0,0-.8-.464,4.879,4.879,0,0,0-2.782-.227,19.086,19.086,0,0,1-3.209.333c-.577,0-1.153-.007-1.728-.024a3.227,3.227,0,0,1-.6-.067c-.708-.159-1.418-.311-2.116-.5-1.867-.514-3.7-1.137-5.534-1.752-.333-.111-.667-.213-1-.329-.148-.052-.316-.105-.349-.288s.1-.314.24-.407a3.394,3.394,0,0,1,.608-.342c.44-.181.891-.331,1.335-.5a.585.585,0,0,1,.5.03A47.692,47.692,0,0,0,13.057,6.44a13.652,13.652,0,0,0,1.49.425,17.5,17.5,0,0,0,4.316.233,16.473,16.473,0,0,1,2.527.017,6.832,6.832,0,0,1,1.963.471,1.039,1.039,0,0,0,.153.041c.017-.02.031-.043.048-.063-.039-.017-.078-.033-.116-.052-.329-.163-.647-.351-.987-.481a6.675,6.675,0,0,0-2.534-.394A21.442,21.442,0,0,1,15.8,6.322a10.5,10.5,0,0,1-2.638-.754C11.8,4.934,10.482,4.217,9.173,3.481,7.885,2.756,6.6,2.022,5.32,1.292a1.106,1.106,0,0,1-.146-.1c-.2-.157-.2-.281.024-.394A2.449,2.449,0,0,1,5.711.614C6.277.47,6.846.337,7.414.2c.092,0,.183.007.275.007h4.525C13.2.213,14.2.211,15.188.209Zm8.82,7.767a.1.1,0,0,1,.017.013.04.04,0,0,1-.017-.013.636.636,0,0,1-.052-.048c-.017-.017-.031-.035-.048-.052l-.083-.067c-.011-.013-.024-.024-.035-.037l-.078-.017c.015.018.028.037.043.054l.041.03.113.039c.017.017.035.031.052.048S23.992,7.959,24.008,7.976Zm-.4-.27.061.007c-.02-.028-.041-.054-.063-.081l-.052.017C23.569,7.669,23.587,7.688,23.605,7.706Z" transform="translate(0 -0.163)"/><path class="a" d="M366.252,78.513a7.128,7.128,0,0,1-4.858-2.606,6.988,6.988,0,0,1-1.017-1.63c-.033-.076-.065-.153-.109-.261l2.712-1.647c.048.083.087.153.128.224a5.12,5.12,0,0,0,2.4,2.264,4.043,4.043,0,0,0,4.238-.444,3.583,3.583,0,0,0,1.36-2.266,6.256,6.256,0,0,0,.1-1.018c.017-.5,0-1,0-1.54-.085.037-.15.061-.211.094a7.784,7.784,0,0,1-3.859.9,7.464,7.464,0,0,1-5.338-2.222,6.988,6.988,0,0,1-1.976-3.939,7.351,7.351,0,0,1,1.2-5.506,7.123,7.123,0,0,1,4.634-2.994,7.991,7.991,0,0,1,5.349.741c.05.026.1.043.194.081v-.976h3.639c.006.076.013.15.013.222,0,5.066.011,10.133-.006,15.2a7.135,7.135,0,0,1-2.176,5.268,7.33,7.33,0,0,1-4.039,2c-.179.03-.357.065-.534.1h-1.3Zm1.133-11.26c.146-.015.372-.024.591-.061a3.561,3.561,0,0,0,2.883-2.242,4.557,4.557,0,0,0,.035-3.49,3.51,3.51,0,0,0-2.19-2.127,4.208,4.208,0,0,0-2.222-.153,3.581,3.581,0,0,0-2.73,2.12,4.5,4.5,0,0,0-.362,2.346,4.024,4.024,0,0,0,.739,2.044A3.833,3.833,0,0,0,367.385,67.252Z" transform="translate(-293.231 -45.449)"/><path class="a" d="M452.161,78.547c-.179-.031-.357-.065-.536-.094a7.153,7.153,0,0,1-5.53-4.187c-.039-.081-.068-.166-.109-.266l2.7-1.641c.042.07.083.131.118.192a5.5,5.5,0,0,0,1.941,2.05,4.171,4.171,0,0,0,3.4.46,3.635,3.635,0,0,0,2.667-2.9,5.132,5.132,0,0,0,.105-.967c.017-.475.006-.952,0-1.427,0-.055-.007-.111-.011-.189-.057.024-.094.035-.129.054a7.79,7.79,0,0,1-3.225.915,7.614,7.614,0,0,1-5.388-1.615,7.009,7.009,0,0,1-2.628-4.523,7.358,7.358,0,0,1,.845-4.935,7.094,7.094,0,0,1,4.75-3.51,7.96,7.96,0,0,1,5.573.68c.057.03.118.048.211.087V55.79c.183-.057,3.321-.072,3.654-.017v.238q0,7.577,0,15.153a7.25,7.25,0,0,1-5.906,7.231c-.237.05-.479.074-.717.113a.322.322,0,0,0-.083.043C453.3,78.547,452.728,78.547,452.161,78.547Zm-3.1-15.4c.03.29.039.584.092.869a3.72,3.72,0,0,0,2.22,2.889,3.981,3.981,0,0,0,2.279.274,3.59,3.59,0,0,0,3.013-2.5,4.568,4.568,0,0,0,.019-3.022,3.531,3.531,0,0,0-2.547-2.429,4.227,4.227,0,0,0-2.514.078,3.542,3.542,0,0,0-2.022,1.695A4.505,4.505,0,0,0,449.065,63.152Z" transform="translate(-363.099 -45.435)"/><path class="a" d="M555.28,70.448c-.024-.007-.046-.015-.07-.024.006-.107.019-.216.019-.323q0-7.139,0-14.28h.05Z" transform="translate(-452.587 -45.502)"/><path class="a" d="M40.11.043a.33.33,0,0,1,0-.043h7.769a.385.385,0,0,0,0,.046q-1.486,0-2.974,0H40.385C40.293.05,40.2.044,40.11.043Z" transform="translate(-32.696)"/><path class="a" d="M395.06,178.88c.185.017.368.033.553.048h-.551A.438.438,0,0,1,395.06,178.88Z" transform="translate(-322.038 -145.816)"/><path class="a" d="M555.35,36.57l.044,0v.5a.164.164,0,0,1-.042,0C555.352,36.908,555.35,36.74,555.35,36.57Z" transform="translate(-452.701 -29.811)"/><path class="a" d="M289.116,63.21a7.26,7.26,0,0,1-6.085,7.216,7.791,7.791,0,0,1-4.334-.383,7.032,7.032,0,0,1-4.6-5.612,7.221,7.221,0,0,1,1.059-5.345,7.144,7.144,0,0,1,4.756-3.187,7.873,7.873,0,0,1,5.081.6,7.008,7.008,0,0,1,3.941,4.979A8.126,8.126,0,0,1,289.116,63.21ZM281.564,59.1c-.159,0-.318-.006-.475,0a2.061,2.061,0,0,0-.3.043,3.554,3.554,0,0,0-2.724,2.018,4.459,4.459,0,0,0-.052,3.852,3.558,3.558,0,0,0,2.268,2.015,4.143,4.143,0,0,0,1.954.137,3.584,3.584,0,0,0,2.846-2.15,4.6,4.6,0,0,0,.32-2.693,3.841,3.841,0,0,0-.852-1.92A3.665,3.665,0,0,0,281.564,59.1Z" transform="translate(-223.333 -45.425)"/><path class="a" d="M205.822,27.99h3.843V44.385c.364.015.712.006,1.057.007s.7,0,1.052,0h6.3v3.641c-.179.048-11.848.065-12.253.017Q205.823,38.03,205.822,27.99Z" transform="translate(-167.777 -22.816)"/><path class="a" d="M539.057,55.777q0,7.139,0,14.28c0,.107-.011.216-.019.323H535.37V55.792a.748.748,0,0,1,.131-.026q1.741,0,3.48,0A.534.534,0,0,1,539.057,55.777Z" transform="translate(-436.414 -45.458)"/><path class="a" d="M538.987,29.482c0,.168,0,.336,0,.506a1.843,1.843,0,0,1-1.852,1.625,1.869,1.869,0,1,1,1.808-2.375A1.827,1.827,0,0,1,538.987,29.482Z" transform="translate(-436.339 -22.722)"/><path class="a" d="M86.315,106.612l-.155-.262.05-.03c.054.079.107.159.161.237Z" transform="translate(-70.234 -86.668)"/><path class="a" d="M127.7,40.41c.02.028.041.054.063.081l-.061-.007C127.7,40.46,127.7,40.436,127.7,40.41Z" transform="translate(-104.096 -32.941)"/><path class="a" d="M128.843,41.438l-.113-.039c.009-.009.02-.02.031-.03l.081.068Z" transform="translate(-104.936 -33.723)"/><path class="a" d="M128.323,41.144c-.015-.018-.028-.037-.043-.054l.078.017Z" transform="translate(-104.569 -33.495)"/><path class="a" d="M128.551,41.237l-.041-.03c.011-.013.024-.026.035-.037.011.013.024.024.035.037Z" transform="translate(-104.757 -33.56)"/><path class="a" d="M129.34,41.73c.017.017.031.035.048.052l0,0c-.017-.017-.033-.031-.05-.05Z" transform="translate(-105.433 -34.017)"/><path class="a" d="M129.6,42l.05.05,0,0L129.6,42S129.6,42,129.6,42Z" transform="translate(-105.645 -34.237)"/><path class="a" d="M129.88,42.276l.018.011c-.007,0-.013-.009-.018-.011Z" transform="translate(-105.873 -34.461)"/><path class="a" d="M49.973,168.788c-.009.033-.009.046-.015.048a6.341,6.341,0,0,1-1.991.767.7.7,0,0,1-.769-.386.754.754,0,0,1,.126-.858.675.675,0,0,1,.736-.174C48.7,168.378,49.33,168.585,49.973,168.788Z" transform="translate(-38.408 -137.066)"/></svg>