<?xml version="1.0" encoding="utf-8"?>
<!-- Generator: Adobe Illustrator 24.1.0, SVG Export Plug-In . SVG Version: 6.00 Build 0)  -->
<svg version="1.1" id="Layer_1" xmlns="http://www.w3.org/2000/svg" xmlns:xlink="http://www.w3.org/1999/xlink" x="0px" y="0px"
	 viewBox="0 0 74.6 103.4" style="enable-background:new 0 0 74.6 103.4;" xml:space="preserve">
<style type="text/css">
	.st0{fill:#FF4E00;}
	.st1{enable-background:new    ;}
</style>
<g transform="translate(-169.714 -1062.564)">
	<g transform="translate(169.714 1062.564)">
		<path class="st0" d="M74.5,11.1c-0.1-0.4-0.5-0.8-0.9-0.9L66,8.5L64.3,1c-0.2-0.7-0.8-1.1-1.5-0.9c-0.2,0.1-0.4,0.2-0.6,0.3
			l-8.7,8.7C36.8-1,15.1,4.4,5.1,21.1s-4.7,38.4,12,48.4s38.4,4.7,48.4-12c6.8-11.2,6.8-25.2,0-36.5l8.7-8.7
			C74.5,12,74.6,11.6,74.5,11.1L74.5,11.1z M68.1,39.3c0,18.1-14.7,32.8-32.8,32.8S2.5,57.4,2.5,39.3S17.2,6.5,35.3,6.5
			c5.8,0,11.4,1.5,16.4,4.4l-4,4c0,0-0.1,0.1-0.1,0.1c-13.4-6.8-29.8-1.5-36.7,11.9S9.4,56.8,22.9,63.6c13.4,6.8,29.8,1.5,36.7-11.9
			c4-7.8,4-16.9,0-24.7c0,0,0.1-0.1,0.1-0.1l4-4C66.6,27.9,68.1,33.5,68.1,39.3z M56.6,26.8c6.9,11.8,2.9,26.9-8.8,33.8
			S20.9,63.5,14,51.8S11,24.8,22.8,17.9c7.7-4.5,17.3-4.5,25,0l1.3,5.8L47.8,25c-7.9-7-20-6.2-27,1.7s-6.2,20,1.7,27s20,6.2,27-1.7
			c6.3-7.2,6.3-18,0-25.2l1.2-1.2L56.6,26.8z M40.6,39.3c0,2.9-2.4,5.3-5.3,5.4c-2.9,0-5.3-2.4-5.4-5.3c0-2.9,2.4-5.3,5.3-5.4
			c1,0,2,0.3,2.8,0.8l-3.7,3.7c-0.5,0.5-0.5,1.3,0,1.7c0.5,0.5,1.2,0.5,1.7,0l0,0l3.7-3.7C40.3,37.3,40.6,38.3,40.6,39.3z M39.8,33
			c-3.5-2.5-8.4-1.8-10.9,1.7s-1.8,8.4,1.7,10.9s8.4,1.8,10.9-1.7c2-2.7,2-6.4,0-9.2l6.3-6.3c6,7,5.2,17.4-1.7,23.4
			c-7,6-17.4,5.2-23.4-1.7s-5.2-17.4,1.7-23.4c6.2-5.4,15.5-5.4,21.7,0L39.8,33z M63.1,20l-4.6,4.6l-0.7-0.2l0,0l-6.2-1.4l-1.6-6.9
			L62.4,3.7l1.4,6.2c0.1,0.5,0.5,0.8,0.9,0.9l6.2,1.4L63.1,20z"/>
		<g class="st1">
			<path class="st0" d="M22.8,90.6v8.7h-2.3v-4.5l-1.9,3.2H18L16,94.9v4.5h-2.3v-8.7H16l2.3,3.7l2.3-3.7H22.8z"/>
			<path class="st0" d="M26.7,90.6v8.7h-2.3v-8.7H26.7z"/>
			<path class="st0" d="M28.1,98.4l1-1.9c0.7,0.5,1.6,0.8,2.3,0.8c0.6,0,0.9-0.2,0.9-0.5c0-1-3.9-1.1-3.9-3.8c0-1.5,1.2-2.5,3.1-2.5
				c1.3,0,2.2,0.4,3,1l-0.9,1.9c-0.6-0.4-1.3-0.7-2.1-0.7c-0.5,0-0.8,0.2-0.8,0.4c0,1,3.9,0.8,3.9,3.8c0,1.6-1.2,2.6-3.2,2.6
				C30.1,99.5,28.9,99.1,28.1,98.4z"/>
			<path class="st0" d="M35.9,98.4l1-1.9c0.7,0.5,1.6,0.8,2.3,0.8c0.6,0,0.9-0.2,0.9-0.5c0-1-3.9-1.1-3.9-3.8c0-1.5,1.2-2.5,3.1-2.5
				c1.3,0,2.2,0.4,3,1l-0.9,1.9c-0.6-0.4-1.3-0.7-2.1-0.7c-0.5,0-0.8,0.2-0.8,0.4c0,1,3.9,0.8,3.9,3.8c0,1.6-1.2,2.6-3.2,2.6
				C37.9,99.5,36.7,99.1,35.9,98.4z"/>
			<path class="st0" d="M48.9,98.5h-2.8l-0.2,0.8h-2.4l2.6-8.7H49l2.5,8.7h-2.4L48.9,98.5z M46,89.9l-1.1-0.5
				c0.2-1.1,0.9-1.7,1.6-1.7c0.8,0,1.4,0.6,1.9,0.6c0.2,0,0.5-0.2,0.6-0.6l1.1,0.5c-0.2,1-0.9,1.6-1.6,1.6c-0.8,0-1.4-0.7-1.9-0.7
				C46.4,89.3,46.1,89.5,46,89.9z M48.4,96.5l-0.9-3.4l-0.9,3.4H48.4z"/>
			<path class="st0" d="M60.9,94.9c0,2.8-1.6,4.6-4.2,4.6c-2.5,0-4.1-1.7-4.1-4.4c0-2.8,1.6-4.6,4.2-4.6
				C59.3,90.5,60.9,92.2,60.9,94.9z M58.6,95c0-1.4-0.7-2.3-1.7-2.3c-1.1,0-1.8,0.9-1.8,2.3c0,1.4,0.7,2.2,1.8,2.2
				C57.9,97.3,58.6,96.4,58.6,95z"/>
		</g>
	</g>
</g>
</svg>
