<svg xmlns="http://www.w3.org/2000/svg" width="161.749" height="161.741" viewBox="0 0 161.749 161.741"><g transform="translate(-258.13 -273.093)"><g transform="translate(-134.274 -38.861) rotate(-13)"><g transform="translate(305.348 421.792)"><g transform="translate(0 0)"><path d="M4.539,105.057l27.3-18.2a7.968,7.968,0,0,1,10.669,1.733l7.952,10.224a3.4,3.4,0,0,0,4.358.917l1.513-.834c5.014-2.733,11.253-6.136,23.823-18.71s15.98-18.818,18.713-23.823l.829-1.513a3.4,3.4,0,0,0-.9-4.374L88.577,42.523a7.972,7.972,0,0,1-1.735-10.669l18.2-27.3a7.926,7.926,0,0,1,10.684-2.4l11.415,6.857a16.1,16.1,0,0,1,7.342,9.529c4.111,14.977,1.018,40.825-37.059,78.907-30.289,30.287-52.838,38.432-68.337,38.432A39.818,39.818,0,0,1,18.53,134.5,16.087,16.087,0,0,1,9,127.154L2.137,115.746A7.927,7.927,0,0,1,4.539,105.057Zm1.47,8.383,6.848,11.415a11.616,11.616,0,0,0,6.855,5.313c13.826,3.8,37.982.652,74.538-35.9s39.7-60.709,35.9-74.538a11.633,11.633,0,0,0-5.32-6.864L113.418,6.015a3.439,3.439,0,0,0-4.636,1.043L98.893,21.9l-8.3,12.449a3.459,3.459,0,0,0,.751,4.63l10.219,7.949a7.866,7.866,0,0,1,2.083,10.1l-.811,1.474c-2.872,5.268-6.444,11.822-19.481,24.857S63.764,99.967,58.5,102.839l-1.476.814a7.866,7.866,0,0,1-10.1-2.083L38.977,91.35a3.461,3.461,0,0,0-4.63-.751l-27.3,18.2A3.436,3.436,0,0,0,6.009,113.44Z" transform="translate(-1 -1.018)" fill="#27bdbe"/><path d="M325.33,73.819a38.25,38.25,0,0,0-38.207,38.207,2.247,2.247,0,1,1-4.495,0,42.749,42.749,0,0,1,42.7-42.7,2.247,2.247,0,0,1,0,4.495Z" transform="translate(-266.883 -51.334)" fill="#27bdbe"/><path d="M311.845,125.019a24.752,24.752,0,0,0-24.722,24.722,2.247,2.247,0,0,1-4.495,0,29.251,29.251,0,0,1,29.217-29.217,2.247,2.247,0,1,1,0,4.495Z" transform="translate(-253.398 -89.049)" fill="#27bdbe"/><path d="M298.36,176.219a11.251,11.251,0,0,0-11.237,11.237,2.247,2.247,0,1,1-4.495,0,15.75,15.75,0,0,1,15.732-15.732,2.247,2.247,0,1,1,0,4.495Z" transform="translate(-239.913 -126.764)" fill="#27bdbe"/></g></g></g></g></svg>