<svg xmlns="http://www.w3.org/2000/svg" width="46.799" height="43.894" viewBox="0 0 46.799 43.894"><g transform="translate(0 -18.997)"><path d="M15.415,48.016c0-4.392,5.695-5.094,5.695-7.513a1.7,1.7,0,0,0-1.852-1.7,2.787,2.787,0,0,0-2.2,1.442l-1.647-1.1a4.509,4.509,0,0,1,4.031-2.436c2.144,0,3.963,1.3,3.963,3.6,0,3.911-5.455,4.58-5.506,6.879H23.6v1.9H15.518A8.419,8.419,0,0,1,15.415,48.016ZM24.838,44.6l5.249-7.685h2.625v7.2h1.578v1.837H32.712V49.1H30.533V45.959H24.838V44.6Zm5.695-.481V40.349a11.578,11.578,0,0,1,.087-1.27h-.035a7.024,7.024,0,0,1-.6,1.115l-2.813,3.894v.033h3.362Zm10.744-.646-.424,1.518a16.7,16.7,0,0,1-19.9,11.918A16.458,16.458,0,0,1,8.659,38.5l2.517.7a.787.787,0,0,0,.974-.954L9.413,27.59A.787.787,0,0,0,8.1,27.223l-7.863,7.7a.787.787,0,0,0,.339,1.32l2.74.765A21.979,21.979,0,0,0,19.382,62.2c11.661,3.037,23.554-4.181,26.794-15.787l.405-1.452a.787.787,0,0,0-.546-.969l-3.79-1.058A.787.787,0,0,0,41.277,43.476Zm4.478-6.641-3.974.516a.787.787,0,0,0-.679.882l.157,1.205a.787.787,0,0,0,.882.679l3.974-.516a.787.787,0,0,0,.679-.882l-.157-1.205A.787.787,0,0,0,45.755,36.835ZM42.7,29.325,39.2,31.293a.787.787,0,0,0-.3,1.072l.6,1.059a.787.787,0,0,0,1.072.3l3.491-1.967a.787.787,0,0,0,.3-1.072l-.6-1.059A.787.787,0,0,0,42.7,29.325Zm-5.65-5.817-2.5,3.132a.787.787,0,0,0,.124,1.106l.95.758a.787.787,0,0,0,1.106-.124l2.5-3.132a.787.787,0,0,0-.124-1.106l-.95-.758A.787.787,0,0,0,37.046,23.508Zm-7.417-3.277-1.145,3.841a.787.787,0,0,0,.529.979l1.165.347a.787.787,0,0,0,.979-.529L32.3,21.028a.787.787,0,0,0-.529-.979L30.607,19.7A.787.787,0,0,0,29.628,20.232Zm-8.1-.26.377,3.99a.787.787,0,0,0,.857.709l1.21-.114a.787.787,0,0,0,.709-.857l-.377-3.99A.787.787,0,0,0,23.443,19l-1.21.114A.787.787,0,0,0,21.524,19.972Zm-7.612,2.8,1.844,3.558a.787.787,0,0,0,1.061.336L17.9,26.1a.787.787,0,0,0,.336-1.061l-1.844-3.558a.787.787,0,0,0-1.061-.336l-1.079.559A.787.787,0,0,0,13.912,22.767Z" transform="translate(0)" fill="#505050"/></g></svg>