<svg xmlns="http://www.w3.org/2000/svg" width="189" height="54.415" viewBox="0 0 189 54.415"><defs><style>.a,.b{fill:#f7f9fa;}.b{font-size:9px;font-family:Helvetica-LightOblique, Helvetica;font-weight:300;font-style:oblique;}</style></defs><g transform="translate(0 0)"><g transform="translate(0 0)"><g transform="translate(0 7.357)"><path class="a" d="M0,41.688l2.5-4.957a10.721,10.721,0,0,0,5.965,2.1c1.665,0,2.456-.481,2.456-1.23,0-2.589-10.307-2.765-10.307-10.044,0-3.815,3.113-6.622,8.157-6.622a13.427,13.427,0,0,1,7.894,2.5L14.252,28.31A10.793,10.793,0,0,0,8.726,26.47c-1.4,0-2.016.527-2.016,1.142,0,2.673,10.307,2.192,10.307,9.868,0,4.254-3.2,6.886-8.287,6.886A14.633,14.633,0,0,1,0,41.688Z" transform="translate(0 -20.94)"/><path class="a" d="M78.732,21.83V44.637H72.813l-6.8-11.273v11.27H60.05V21.83h5.965l6.756,11.228V21.83Z" transform="translate(-38.954 -21.517)"/><path class="a" d="M146.291,32.353c0,7.279-4.254,12.018-10.834,12.018-6.492,0-10.746-4.518-10.746-11.491,0-7.237,4.3-11.93,10.964-11.93C142.124,20.95,146.291,25.426,146.291,32.353Zm-6.141.263c0-3.6-1.753-5.877-4.56-5.877-2.895,0-4.736,2.326-4.736,6.007,0,3.6,1.8,5.832,4.693,5.832C138.351,38.582,140.15,36.3,140.15,32.617Z" transform="translate(-80.899 -20.946)"/><path class="a" d="M223.125,21.83,217.9,44.637H213.65L209,31.786l-4.648,12.851H200.1L194.88,21.83h6.1l2.238,11.14,3.727-11.14h4.121l3.773,11.14,2.192-11.14h6.1Z" transform="translate(-126.418 -21.517)"/></g><path class="a" d="M314.114,14.087a.76.76,0,0,1,.748.7v15.83a1.641,1.641,0,0,1-.6,1.194c-2.986,2.54-7.567,4.033-12.345,4.033-10.753,0-17.92-7.167-17.92-17.92S291.167,0,301.92,0a20.576,20.576,0,0,1,10.455,2.888.774.774,0,0,1,.45.9L310.337,11.1a.759.759,0,0,1-.945.4,15.706,15.706,0,0,0-7.167-1.742c-4.581,0-7.665,3.285-7.665,8.164,0,4.978,3.084,8.263,7.665,8.263,1.841,0,3.084-.348,3.632-.945V22.35h-4.581c-.45,0-.748-.2-.8-.548l-.646-6.868a.726.726,0,0,1,.8-.847h13.483Zm-7.964,10.4v0Z" transform="translate(-184.23 0)"/><path class="a" d="M17.671,35.84a19.848,19.848,0,0,1-7.234-1.288,15.878,15.878,0,0,1-5.577-3.635A16.106,16.106,0,0,1,1.27,25.276,20.48,20.48,0,0,1,0,17.969,20.765,20.765,0,0,1,1.27,10.6,16.157,16.157,0,0,1,4.859,4.934a15.839,15.839,0,0,1,5.577-3.645A19.822,19.822,0,0,1,17.671,0a19.819,19.819,0,0,1,7.234,1.289,15.838,15.838,0,0,1,5.577,3.645A16.158,16.158,0,0,1,34.072,10.6a20.765,20.765,0,0,1,1.27,7.365,20.487,20.487,0,0,1-1.27,7.308,16.1,16.1,0,0,1-3.589,5.641,15.875,15.875,0,0,1-5.577,3.634A19.851,19.851,0,0,1,17.671,35.84ZM13.377,5.951h0L4.851,14.5,8.28,27.314,21.1,30.746l8.53-8.53L16.81,18.785,13.377,5.951Zm1.29-.745h0l3.316,12.4,12.395,3.317L27.061,8.53,14.667,5.207Z" transform="translate(133.422 0)"/><path class="a" d="M489.911,77.6c4.089,1.261,4.56,3.8,4.029,5.512-.559,1.809-2.375,3.643-6.464,2.382-4.044-1.247-4.56-3.8-4-5.607C484.005,78.175,485.867,76.352,489.911,77.6Z" transform="translate(-313.507 -50.071)"/><path class="a" d="M491.935,26.83a.759.759,0,0,1-.509-.885l6.513-23.671a.763.763,0,0,1,.934-.492l8.372,2.579a.768.768,0,0,1,.5.934l-7.989,23.218a.757.757,0,0,1-.917.446Z" transform="translate(-318.77 -1.135)"/></g><text class="b" transform="translate(89.27 52.414)"><tspan x="0" y="0">gelo delivery</tspan></text></g></svg>