<svg xmlns="http://www.w3.org/2000/svg" width="165.267" height="50.712" viewBox="0 0 165.267 50.712"><defs><style>.a{fill:#27bdbe;}.b,.c{fill:#fff;}.c{font-size:10px;font-family:Helvetica-LightOblique, Helvetica;font-weight:300;font-style:oblique;}</style></defs><g transform="translate(0 6.433)"><path class="a" d="M0,39.083l2.187-4.334A9.375,9.375,0,0,0,7.4,36.588c1.456,0,2.147-.421,2.147-1.075,0-2.264-9.013-2.418-9.013-8.783,0-3.336,2.722-5.791,7.133-5.791a11.741,11.741,0,0,1,6.9,2.187l-2.11,4.258a9.437,9.437,0,0,0-4.832-1.61c-1.226,0-1.763.461-1.763,1,0,2.338,9.013,1.917,9.013,8.629,0,3.72-2.8,6.021-7.247,6.021A12.8,12.8,0,0,1,0,39.083Z" transform="translate(0 -20.94)"/><path class="a" d="M76.386,21.83V41.773H71.21l-5.944-9.858V41.77H60.05V21.83h5.216l5.907,9.818V21.83Z" transform="translate(-41.603 -21.557)"/><path class="a" d="M143.581,30.921c0,6.365-3.72,10.509-9.474,10.509-5.677,0-9.4-3.95-9.4-10.048,0-6.328,3.757-10.432,9.587-10.432C139.937,20.95,143.581,24.864,143.581,30.921Zm-5.37.23c0-3.146-1.533-5.139-3.987-5.139-2.531,0-4.141,2.034-4.141,5.253,0,3.146,1.573,5.1,4.1,5.1C136.638,36.368,138.211,34.374,138.211,31.152Z" transform="translate(-86.4 -20.947)"/><path class="a" d="M219.578,21.83l-4.565,19.943h-3.72l-4.064-11.237-4.064,11.237h-3.72L194.88,21.83h5.33l1.957,9.741,3.259-9.741h3.6l3.3,9.741,1.917-9.741Z" transform="translate(-135.015 -21.557)"/></g><path class="b" d="M310.332,12.318a.665.665,0,0,1,.654.608V26.769a1.435,1.435,0,0,1-.522,1.044A16.992,16.992,0,0,1,299.67,31.34c-9.4,0-15.67-6.267-15.67-15.67S290.267,0,299.67,0a17.992,17.992,0,0,1,9.142,2.525.677.677,0,0,1,.393.783l-2.175,6.4a.664.664,0,0,1-.826.347,13.734,13.734,0,0,0-6.267-1.524c-4.006,0-6.7,2.872-6.7,7.139,0,4.353,2.7,7.225,6.7,7.225,1.61,0,2.7-.3,3.176-.826V19.543h-4.006c-.393,0-.654-.175-.7-.479l-.565-6.006a.635.635,0,0,1,.7-.74h11.79Zm-6.964,9.1v0Z" transform="translate(-196.758)"/><path class="b" d="M395.242,0c-9.271,0-15.452,6.267-15.452,15.713,0,9.357,6.181,15.627,15.452,15.627s15.452-6.267,15.452-15.627C410.693,6.267,404.513,0,395.242,0Z" transform="translate(-263.122)"/><path class="b" d="M489.079,77.548c3.576,1.1,3.987,3.324,3.523,4.82-.488,1.582-2.077,3.186-5.652,2.083-3.536-1.091-3.987-3.324-3.5-4.9C483.915,78.051,485.543,76.457,489.079,77.548Z" transform="translate(-334.826 -53.476)"/><path class="b" d="M491.868,23.68a.664.664,0,0,1-.445-.774l5.7-20.7a.667.667,0,0,1,.817-.43l7.32,2.255a.672.672,0,0,1,.433.817l-6.986,20.3a.662.662,0,0,1-.8.39Z" transform="translate(-340.448 -1.213)"/><g transform="translate(120.91 4.451)"><path class="a" d="M465.81,60.3l.24-.237-.089-.326Z" transform="translate(-443.628 -45.84)"/><path class="a" d="M424.44,25.667l10.838,2.9-2.9-10.841L421.54,14.82Z" transform="translate(-412.957 -14.719)"/><path class="a" d="M420.091,14.585l-.353-.1-.258.258Z" transform="translate(-411.53 -14.49)"/><path class="a" d="M404.057,28.162l-3-11.222L393.6,24.411l3,11.209,11.212,3,7.459-7.459Z" transform="translate(-393.6 -16.187)"/></g><text class="c" transform="translate(78.06 47.712)"><tspan x="0" y="0">gelo delivery</tspan></text></svg>