<svg xmlns="http://www.w3.org/2000/svg" width="234.596" height="60.394" viewBox="0 0 234.596 60.394"><g transform="translate(-36 -360)"><g transform="translate(157 360)"><path d="M0,20.212,6.1,14.15,13.264,21.4c1,1.137.254,2.21-.505,4.017l.505.763L12,27.449l-.674-.677c-2.192,1.045-3.646,1.234-4.265.474,0,0-7.062-7.117-7.062-7.034Z" transform="translate(0 -9.288)" fill="#ee3128" fill-rule="evenodd"/><path d="M22.88,36.92l2.464,3.268L25,40.982l.89-.495,1.33.794-.787-1.289.591-.893-.938.447Z" transform="translate(-15.018 -24.233)" fill="#fff" fill-rule="evenodd"/><path d="M5.8,35.007l5.374,5.5a1.693,1.693,0,0,0,2.168-.148,2.232,2.232,0,0,1-1.825-.2l-5.57-5.4-.148.247Z" transform="translate(-3.807 -22.815)" fill="#fff" fill-rule="evenodd"/><path d="M122.943,21.512l-6.1-6.062L109.675,22.7c-1,1.137-.254,2.21.505,4.017l-.505.763,1.265,1.271.674-.677c2.192,1.045,3.646,1.234,4.265.474,0-.007,7.065-7.12,7.065-7.034Z" transform="translate(-71.669 -10.141)" fill="#ee3128" fill-rule="evenodd"/><path d="M118.05,38.21l-2.467,3.271.347.79-.887-.495-1.333.794.79-1.289-.591-.89.935.443Z" transform="translate(-74.635 -25.08)" fill="#fff" fill-rule="evenodd"/><path d="M129,36.291l-5.374,5.5a1.693,1.693,0,0,1-2.168-.148,2.232,2.232,0,0,0,1.825-.2l5.57-5.4.148.251Z" transform="translate(-79.722 -23.655)" fill="#fff" fill-rule="evenodd"/><path d="M67.577,0A4.127,4.127,0,1,1,63.45,4.127,4.135,4.135,0,0,1,67.577,0Z" transform="translate(-41.646)" fill="#ee3128" fill-rule="evenodd"/><path d="M71.893,6.35A1.883,1.883,0,1,1,70.01,8.233,1.886,1.886,0,0,1,71.893,6.35Z" transform="translate(-45.952 -4.168)" fill="#fff" fill-rule="evenodd"/><path d="M60.8,21.366a12.145,12.145,0,0,0-3.787,1.2V25.9a3.764,3.764,0,0,0,1.873.684,19.135,19.135,0,0,1,9.151.127,3.782,3.782,0,0,0,1.405-.6l.041-3.509a15.687,15.687,0,0,0-3.66-1.326l-5.024.086Z" transform="translate(-37.419 -13.967)" fill="#ee3128" fill-rule="evenodd"/><path d="M59.509,26.466a5.457,5.457,0,0,1,.808-.811l9.319.041a1.818,1.818,0,0,1,.893.942c.162-.557-.22-1-.852-1.326l-9.364-.041c-.735.333-.976.749-.8,1.2Z" transform="translate(-39.025 -16.586)" fill="#fff" fill-rule="evenodd"/><path d="M59.526,30.99a1.3,1.3,0,0,0,.852.684H63.1l-.086.426-2.766-.041c-.924-.227-.783-.756-.725-1.069Z" transform="translate(-39.042 -20.341)" fill="#fff" fill-rule="evenodd"/><path d="M84.477,30.99a1.3,1.3,0,0,1-.852.684H80.9l.086.426,2.766-.041c.924-.227.783-.756.725-1.069Z" transform="translate(-53.1 -20.341)" fill="#fff" fill-rule="evenodd"/><path d="M42.324,40.55A17.024,17.024,0,1,1,25.3,57.574,17.055,17.055,0,0,1,42.324,40.55Z" transform="translate(-16.606 -26.616)" fill="#231f20" fill-rule="evenodd"/><path d="M44.965,44.74A15.495,15.495,0,1,1,29.47,60.235,15.524,15.524,0,0,1,44.965,44.74Z" transform="translate(-19.343 -29.366)" fill="#231f20" fill-rule="evenodd"/><path d="M53.621,57.67A11.151,11.151,0,1,1,42.47,68.821,11.174,11.174,0,0,1,53.621,57.67Z" transform="translate(-27.876 -37.853)" fill="#fff" fill-rule="evenodd"/><path d="M7.61,101.67l-.11,7.4,1.625.326c2.852,7.288,7.938,11.46,17.536,14.144a7.664,7.664,0,0,1,3.79,3.591,6.263,6.263,0,0,1,3.68-3.481c8.192-2.529,14.11-5.378,17.752-14.034l1.948-.326-.326-7.615-4.763,5.55.972,1.416c-4.024,6.928-9.436,9.065-15.481,9.031l-1.625-1.522a4.818,4.818,0,0,1-4.44-.216l-1.3,1.632c-7.8,0-12.694-3.447-15.587-9.247l1.082-1.089L7.61,101.67Z" transform="translate(-4.923 -66.733)" fill="#ee3128" fill-rule="evenodd"/><path d="M30.858,119.721l-.866,3.481c-9.745-.948-16.484-5.182-19.594-13.381l1.732-.216-2.058-.653-1.3-3.481.759,3.807L8.45,110.91l1.3-.979q5.469,12.35,20.027,14.687l1.082,3.155v-8.051Z" transform="translate(-5.546 -69.227)" fill="#fff" fill-rule="evenodd"/><path d="M76.49,123.609c7.893-.591,16-3.79,20.244-13.165L95,110.007l1.948-.436,1.409-3.481L97.6,109.9l1.192,1.632-1.515-.869c-4.168,9.319-11.962,13.055-20.783,14.251v-1.3Z" transform="translate(-50.205 -69.634)" fill="#fff" fill-rule="evenodd"/><path d="M38.324,35.27h0a18.842,18.842,0,0,1,18.8,18.8h0a18.842,18.842,0,0,1-18.8,18.8h0a18.842,18.842,0,0,1-18.8-18.8h0a18.842,18.842,0,0,1,18.8-18.8Zm0,.392h0A18.449,18.449,0,0,0,19.908,54.074h0A18.449,18.449,0,0,0,38.32,72.489h0A18.455,18.455,0,0,0,56.736,54.074h0A18.443,18.443,0,0,0,38.324,35.662Z" transform="translate(-12.812 -23.15)" fill="#231f20"/><path d="M69.619,139.062h.11a.49.49,0,0,0,.519-.454v-2.725a.49.49,0,0,0-.519-.454h-.11a.49.49,0,0,0-.519.454v2.725a.488.488,0,0,0,.519.454Z" transform="translate(-45.355 -88.892)" fill="#fff" fill-rule="evenodd"/><path d="M69.3,138.592h.11a.39.39,0,0,0,.261-.093.271.271,0,0,0,.1-.2h0v-2.725h0a.271.271,0,0,0-.1-.2.39.39,0,0,0-.261-.093H69.3a.39.39,0,0,0-.261.093.271.271,0,0,0-.1.2h0V138.3h0a.271.271,0,0,0,.1.2.4.4,0,0,0,.261.093Zm.107.323H69.3a.7.7,0,0,1-.471-.175.592.592,0,0,1-.21-.44h0v-2.725h0a.583.583,0,0,1,.206-.44.724.724,0,0,1,.474-.175h.11a.7.7,0,0,1,.471.175.6.6,0,0,1,.21.44h0V138.3h0a.575.575,0,0,1-.21.44.708.708,0,0,1-.471.175Z" transform="translate(-45.04 -88.583)" fill="#231f20"/><path d="M73.079,139.062h.11a.49.49,0,0,0,.519-.454v-2.725a.49.49,0,0,0-.519-.454h-.11a.49.49,0,0,0-.519.454v2.725a.492.492,0,0,0,.519.454Z" transform="translate(-47.626 -88.892)" fill="#fff" fill-rule="evenodd"/><path d="M72.77,138.592h.11a.39.39,0,0,0,.261-.093.271.271,0,0,0,.1-.2h0v-2.725h0a.271.271,0,0,0-.1-.2.39.39,0,0,0-.261-.093h-.11a.39.39,0,0,0-.261.093.271.271,0,0,0-.1.2h0V138.3h0a.271.271,0,0,0,.1.2.409.409,0,0,0,.261.093Zm.11.323h-.11a.7.7,0,0,1-.471-.175.592.592,0,0,1-.21-.44h0v-2.725h0a.575.575,0,0,1,.21-.44.724.724,0,0,1,.474-.175h.11a.7.7,0,0,1,.471.175.592.592,0,0,1,.21.44h0V138.3h0a.575.575,0,0,1-.21.44.731.731,0,0,1-.474.175Z" transform="translate(-47.317 -88.583)" fill="#231f20"/><path d="M76.669,139.062h.11a.49.49,0,0,0,.519-.454v-2.725a.49.49,0,0,0-.519-.454h-.11a.49.49,0,0,0-.519.454v2.725a.493.493,0,0,0,.519.454Z" transform="translate(-49.982 -88.892)" fill="#fff" fill-rule="evenodd"/><path d="M76.36,138.592h.11a.39.39,0,0,0,.261-.093.271.271,0,0,0,.1-.2h0v-2.725h0a.271.271,0,0,0-.1-.2.39.39,0,0,0-.261-.093h-.11a.39.39,0,0,0-.261.093.271.271,0,0,0-.1.2h0V138.3h0a.271.271,0,0,0,.1.2.409.409,0,0,0,.261.093Zm.11.323h-.11a.7.7,0,0,1-.471-.175.592.592,0,0,1-.21-.44h0v-2.725h0a.583.583,0,0,1,.206-.44.724.724,0,0,1,.474-.175h.11a.7.7,0,0,1,.471.175.6.6,0,0,1,.21.44h0V138.3h0a.575.575,0,0,1-.21.44.708.708,0,0,1-.471.175Z" transform="translate(-49.674 -88.583)" fill="#231f20"/><path d="M121.3,84.9v.11a.51.51,0,0,0,.5.519l3,0a.515.515,0,0,0,.5-.519V84.9a.51.51,0,0,0-.5-.519l-3,0a.513.513,0,0,0-.5.519Z" transform="translate(-79.617 -55.384)" fill="#fff" fill-rule="evenodd"/><path d="M121.153,84.59v.11a.431.431,0,0,0,.007.072.369.369,0,0,0,.093.182.33.33,0,0,0,.172.1.421.421,0,0,0,.065.007l3,0a.465.465,0,0,0,.069-.007.4.4,0,0,0,.069-.021.3.3,0,0,0,.062-.038.368.368,0,0,0,.144-.292v-.11a.429.429,0,0,0-.007-.072.369.369,0,0,0-.093-.182.318.318,0,0,0-.172-.1.42.42,0,0,0-.065-.007l-3,0a.468.468,0,0,0-.069.007.4.4,0,0,0-.069.021.3.3,0,0,0-.062.038.368.368,0,0,0-.144.292Zm-.323.11v-.11a.686.686,0,0,1,.275-.55.588.588,0,0,1,.12-.072.681.681,0,0,1,.134-.045.592.592,0,0,1,.134-.014l3,0a.884.884,0,0,1,.134.014.649.649,0,0,1,.333.189.7.7,0,0,1,.179.344.592.592,0,0,1,.014.134v.11a.686.686,0,0,1-.275.55.588.588,0,0,1-.12.072.682.682,0,0,1-.134.045.592.592,0,0,1-.134.014l-3,0a.593.593,0,0,1-.134-.014.649.649,0,0,1-.333-.189.7.7,0,0,1-.179-.344.553.553,0,0,1-.014-.134Z" transform="translate(-79.309 -55.076)" fill="#231f20"/><path d="M121.29,88.369v.11a.51.51,0,0,0,.5.519l3,0a.515.515,0,0,0,.5-.519v-.11a.51.51,0,0,0-.5-.519l-3,0a.513.513,0,0,0-.5.519Z" transform="translate(-79.61 -57.662)" fill="#fff" fill-rule="evenodd"/><path d="M121.143,88.06v.11a.429.429,0,0,0,.007.072.369.369,0,0,0,.093.182.317.317,0,0,0,.172.1.422.422,0,0,0,.065.007l3,0a.466.466,0,0,0,.069-.007.4.4,0,0,0,.069-.021.3.3,0,0,0,.062-.038.368.368,0,0,0,.144-.292v-.11a.428.428,0,0,0-.007-.072.384.384,0,0,0-.093-.182h0a.32.32,0,0,0-.168-.1.422.422,0,0,0-.065-.007l-3,0a.464.464,0,0,0-.069.007.4.4,0,0,0-.069.021.3.3,0,0,0-.062.038.361.361,0,0,0-.148.292Zm-.323.11v-.11a.686.686,0,0,1,.275-.55.587.587,0,0,1,.12-.072.682.682,0,0,1,.134-.045.591.591,0,0,1,.134-.014l3,0a.592.592,0,0,1,.134.014.649.649,0,0,1,.333.189h0a.69.69,0,0,1,.179.344.592.592,0,0,1,.014.134v.11a.686.686,0,0,1-.275.55.586.586,0,0,1-.12.072.681.681,0,0,1-.134.045.592.592,0,0,1-.134.014l-3,0a.885.885,0,0,1-.134-.014.649.649,0,0,1-.333-.189.705.705,0,0,1-.179-.344.887.887,0,0,1-.014-.134Z" transform="translate(-79.302 -57.353)" fill="#231f20"/><path d="M121.28,91.959v.11a.51.51,0,0,0,.5.519l3,0a.515.515,0,0,0,.5-.519v-.11a.51.51,0,0,0-.5-.519l-3,0a.515.515,0,0,0-.5.519Z" transform="translate(-79.604 -60.018)" fill="#fff" fill-rule="evenodd"/><path d="M121.133,91.65v.11a.562.562,0,0,0,.007.079.373.373,0,0,0,.093.179h0a.334.334,0,0,0,.162.093.268.268,0,0,0,.076.01l3,0a.468.468,0,0,0,.069-.007.4.4,0,0,0,.069-.021.3.3,0,0,0,.062-.038.368.368,0,0,0,.144-.292v-.11a.424.424,0,0,0-.007-.072.369.369,0,0,0-.093-.182.33.33,0,0,0-.172-.1.421.421,0,0,0-.065-.007l-3,0a.464.464,0,0,0-.069.007.4.4,0,0,0-.069.021.3.3,0,0,0-.062.038.356.356,0,0,0-.144.289Zm-.323.11v-.11a.687.687,0,0,1,.275-.55.587.587,0,0,1,.12-.072.681.681,0,0,1,.134-.045.593.593,0,0,1,.134-.014l3,0a.592.592,0,0,1,.134.014.649.649,0,0,1,.333.189.7.7,0,0,1,.179.344.591.591,0,0,1,.014.134v.11a.686.686,0,0,1-.275.55.586.586,0,0,1-.12.072.681.681,0,0,1-.134.045.592.592,0,0,1-.134.014l-3,0a.554.554,0,0,1-.151-.021.674.674,0,0,1-.316-.186h0a.7.7,0,0,1-.175-.333.634.634,0,0,1-.017-.141Z" transform="translate(-79.295 -59.71)" fill="#231f20"/><path d="M16.46,84.379v.11a.51.51,0,0,0,.5.519l3,0a.515.515,0,0,0,.5-.519v-.11a.51.51,0,0,0-.5-.519l-3,0a.513.513,0,0,0-.5.519Z" transform="translate(-10.804 -55.043)" fill="#fff" fill-rule="evenodd"/><path d="M16.313,84.07v.11a.564.564,0,0,0,.007.079.373.373,0,0,0,.093.179h0a.324.324,0,0,0,.165.1.427.427,0,0,0,.072.007l3,0a.467.467,0,0,0,.069-.007l.069-.021a.3.3,0,0,0,.062-.038.368.368,0,0,0,.144-.292v-.11a.429.429,0,0,0-.007-.072.369.369,0,0,0-.093-.182.33.33,0,0,0-.172-.1.421.421,0,0,0-.065-.007l-3,0a.465.465,0,0,0-.069.007.4.4,0,0,0-.069.021.3.3,0,0,0-.062.038.356.356,0,0,0-.144.289Zm-.323.11v-.11a.687.687,0,0,1,.275-.55.588.588,0,0,1,.12-.072.683.683,0,0,1,.134-.045.592.592,0,0,1,.134-.014l3,0a.592.592,0,0,1,.134.014.669.669,0,0,1,.333.192.705.705,0,0,1,.179.344.592.592,0,0,1,.014.134v.11a.686.686,0,0,1-.275.55.586.586,0,0,1-.12.072.681.681,0,0,1-.134.045.592.592,0,0,1-.134.014l-3,0a.633.633,0,0,1-.141-.017.662.662,0,0,1-.326-.186h0a.7.7,0,0,1-.175-.333.751.751,0,0,1-.017-.148Z" transform="translate(-10.495 -54.734)" fill="#231f20"/><path d="M16.45,87.849v.11a.51.51,0,0,0,.5.519l3,0a.515.515,0,0,0,.5-.519v-.11a.51.51,0,0,0-.5-.519l-3,0a.515.515,0,0,0-.5.519Z" transform="translate(-10.797 -57.32)" fill="#fff" fill-rule="evenodd"/><path d="M16.31,87.54v.11a.429.429,0,0,0,.007.072.369.369,0,0,0,.093.182.33.33,0,0,0,.172.1.42.42,0,0,0,.065.007l3,0A.468.468,0,0,0,19.712,88l.069-.021a.3.3,0,0,0,.062-.038.368.368,0,0,0,.144-.292v-.11a.429.429,0,0,0-.007-.072.369.369,0,0,0-.093-.182.33.33,0,0,0-.172-.1.422.422,0,0,0-.065-.007l-3,0a.463.463,0,0,0-.069.007.4.4,0,0,0-.069.021.3.3,0,0,0-.062.038.368.368,0,0,0-.144.292Zm-.32.11v-.11a.686.686,0,0,1,.275-.55.587.587,0,0,1,.12-.072.681.681,0,0,1,.134-.045.591.591,0,0,1,.134-.014l3,0a.592.592,0,0,1,.134.014.649.649,0,0,1,.333.189.705.705,0,0,1,.179.344.592.592,0,0,1,.014.134v.11a.686.686,0,0,1-.275.55.587.587,0,0,1-.12.072.681.681,0,0,1-.134.045.592.592,0,0,1-.134.014l-3,0a.592.592,0,0,1-.134-.014.649.649,0,0,1-.333-.189A.7.7,0,0,1,16,87.784a.592.592,0,0,1-.014-.134Z" transform="translate(-10.495 -57.012)" fill="#231f20"/><path d="M16.45,91.439v.11a.51.51,0,0,0,.5.519l3,0a.515.515,0,0,0,.5-.519v-.11a.51.51,0,0,0-.5-.519l-3,0a.511.511,0,0,0-.5.519Z" transform="translate(-10.797 -59.677)" fill="#fff" fill-rule="evenodd"/><path d="M16.3,91.13v.11a.429.429,0,0,0,.007.072.369.369,0,0,0,.093.182.33.33,0,0,0,.172.1.421.421,0,0,0,.065.007l3,0a.468.468,0,0,0,.069-.007.4.4,0,0,0,.069-.021.3.3,0,0,0,.062-.038.368.368,0,0,0,.144-.292v-.11a.429.429,0,0,0-.007-.072.369.369,0,0,0-.093-.182.33.33,0,0,0-.172-.1.423.423,0,0,0-.065-.007l-3,0a.428.428,0,0,0-.072.007.212.212,0,0,0-.065.024.6.6,0,0,0-.062.038.347.347,0,0,0-.144.289Zm-.323.11v-.11a.689.689,0,0,1,.268-.546.823.823,0,0,1,.117-.072.558.558,0,0,1,.134-.045.685.685,0,0,1,.141-.017l3,0a.591.591,0,0,1,.134.014.649.649,0,0,1,.333.189.7.7,0,0,1,.179.344.592.592,0,0,1,.014.134v.11a.686.686,0,0,1-.275.55.587.587,0,0,1-.12.072.681.681,0,0,1-.134.045.591.591,0,0,1-.134.014l-3,0a.885.885,0,0,1-.134-.014.649.649,0,0,1-.333-.189.7.7,0,0,1-.179-.344.88.88,0,0,1-.01-.134Z" transform="translate(-10.489 -59.368)" fill="#231f20"/><path d="M70.659,36.447h.11A.49.49,0,0,0,71.288,36V33.317a.487.487,0,0,0-.519-.447h-.11a.49.49,0,0,0-.519.447V36a.485.485,0,0,0,.519.447Z" transform="translate(-46.037 -21.575)" fill="#fff" fill-rule="evenodd"/><path d="M70.35,35.971h.11a.39.39,0,0,0,.261-.093.264.264,0,0,0,.1-.2h0V33h0a.264.264,0,0,0-.1-.2.409.409,0,0,0-.261-.093h-.11a.39.39,0,0,0-.261.093.264.264,0,0,0-.1.2h0v2.684h0a.264.264,0,0,0,.1.2.384.384,0,0,0,.261.093Zm.11.32h-.11a.712.712,0,0,1-.471-.172.579.579,0,0,1-.21-.436h0V33h0a.568.568,0,0,1,.21-.436.719.719,0,0,1,.471-.172h.11a.712.712,0,0,1,.471.172.579.579,0,0,1,.21.436h0v2.684h0a.568.568,0,0,1-.21.436.719.719,0,0,1-.471.172Z" transform="translate(-45.729 -21.26)" fill="#231f20"/><path d="M74.119,36.447h.11A.49.49,0,0,0,74.748,36V33.317a.487.487,0,0,0-.519-.447h-.11a.49.49,0,0,0-.519.447V36a.49.49,0,0,0,.519.447Z" transform="translate(-48.308 -21.575)" fill="#fff" fill-rule="evenodd"/><path d="M73.81,35.971h.11a.39.39,0,0,0,.261-.093.264.264,0,0,0,.1-.2h0V33h0a.264.264,0,0,0-.1-.2.408.408,0,0,0-.261-.093h-.11a.39.39,0,0,0-.261.093.264.264,0,0,0-.1.2h0v2.684h0a.264.264,0,0,0,.1.2.39.39,0,0,0,.261.093Zm.11.32h-.11a.712.712,0,0,1-.471-.172.579.579,0,0,1-.21-.436h0V33h0a.568.568,0,0,1,.21-.436.719.719,0,0,1,.471-.172h.11a.712.712,0,0,1,.471.172A.579.579,0,0,1,74.6,33h0v2.684h0a.568.568,0,0,1-.21.436.712.712,0,0,1-.471.172Z" transform="translate(-48 -21.26)" fill="#231f20"/><path d="M77.719,36.447h.11A.49.49,0,0,0,78.348,36V33.317a.487.487,0,0,0-.519-.447h-.11a.49.49,0,0,0-.519.447V36a.485.485,0,0,0,.519.447Z" transform="translate(-50.671 -21.575)" fill="#fff" fill-rule="evenodd"/><path d="M77.4,35.971h.11a.39.39,0,0,0,.261-.093.264.264,0,0,0,.1-.2h0V33h0a.264.264,0,0,0-.1-.2.408.408,0,0,0-.261-.093H77.4a.39.39,0,0,0-.261.093.264.264,0,0,0-.1.2h0v2.684h0a.264.264,0,0,0,.1.2.378.378,0,0,0,.261.093Zm.107.32H77.4a.712.712,0,0,1-.471-.172.579.579,0,0,1-.21-.436h0V33h0a.568.568,0,0,1,.21-.436.719.719,0,0,1,.471-.172h.11a.712.712,0,0,1,.471.172.579.579,0,0,1,.21.436h0v2.684h0a.568.568,0,0,1-.21.436.706.706,0,0,1-.471.172Z" transform="translate(-50.356 -21.26)" fill="#231f20"/><path d="M51.08,68.63a22.844,22.844,0,0,1,7.88-3.45c.526,1.746,1.179,3.591,2.021,5.653-2.883.392-5.23,1.931-7.732,2.952L51.08,68.63Z" transform="translate(-33.527 -42.782)" fill="#ee3128" fill-rule="evenodd"/><path d="M60.477,69.83A2.577,2.577,0,1,1,57.9,72.407a2.583,2.583,0,0,1,2.577-2.577Z" transform="translate(-38.003 -45.834)" fill="#fff" fill-rule="evenodd"/><path d="M60.731,72.935l-.069.093-.086-.086-.055-.168-.151.107-.278.107.093.069.052.155-.227.089-.058-.137-.155.093.024.12-.11.052.141.21.117.089-.144.034-.11.265-.124.1.1.052-.014.089.124.072.052.155.172.086.1-.134.124-.014,0-.117.124.072.031-.082.117.134.388-.028s.189.052.189.182-.186.271.137.285.32.292.529.268l.034.1.127.045c-.223.041-.148.34-.292.412a.485.485,0,0,1,.519.144l.065-.237c.065-.045.134-.079.082-.227l.1-.206a.425.425,0,0,1,.052-.316l.179-.23,0-.674.086-.041.072-.124.172-.258-.052-.113.089-.072-.031-.134.069-.093-.086-.258-.141-.124-.124-.031-.055.048-.076-.062-.127.041-.131-.038-.089.072-.127-.086-.048.072-.137-.113-.038-.158-.117-.048L61.7,72.5l-.117,0-.089.072-.117,0-.168.014-.017.12-.01.144-.127.041-.158,0,.007.1-.172-.041Z" transform="translate(-39.113 -47.547)" fill="#2a3795" fill-rule="evenodd"/><path d="M17.62,126.04l-8.23,8.051,1.082,1.416,8.337-8.161Z" transform="translate(-6.163 -82.728)" fill="#ee3128" fill-rule="evenodd"/><path d="M30.459,127.977l-2.165,2.172-.344-.344,2.161-2.175Z" transform="translate(-18.345 -83.772)" fill="#fff"/><path d="M15.309,141.224l-3.192,3-.337-.357,3.192-3Z" transform="translate(-7.732 -92.462)" fill="#fff"/><path d="M113.2,125.44l8.23,8.051-1.082,1.412-8.337-8.158Z" transform="translate(-73.519 -82.334)" fill="#ee3128" fill-rule="evenodd"/><path d="M113.907,127.03l2.165,2.175-.347.344-2.165-2.175Z" transform="translate(-74.537 -83.378)" fill="#fff"/><path d="M127.1,140.27l3.192,3-.337.354-3.189-3Z" transform="translate(-83.207 -92.068)" fill="#fff"/><path d="M48.01,72.22a.66.66,0,1,1-.66.66.66.66,0,0,1,.66-.66Z" transform="translate(-31.079 -47.403)" fill="#231f20" fill-rule="evenodd"/><path d="M49.081,75.615l6.234,15.47.928.141L49.521,75.44l-.44.175Zm.553-.385,6.849,16.075.065.155-.165-.024-1.144-.172-.052-.007-.021-.052L48.83,75.543l.8-.313Z" transform="translate(-32.05 -49.378)" fill="#231f20"/><path d="M50.68,79.15l.574-.23.629,1.436-.629.347Z" transform="translate(-33.265 -51.8)" fill="#231f20" fill-rule="evenodd"/><path d="M54.35,88.807l.746-.347.629,1.495-.746.46Z" transform="translate(-35.673 -58.062)" fill="#231f20" fill-rule="evenodd"/><path d="M58.35,98.3l.8-.285.574,1.436-.8.4Z" transform="translate(-38.299 -64.33)" fill="#231f20" fill-rule="evenodd"/><path d="M62.18,107.339l.746-.289.687,1.612-.859.344Z" transform="translate(-40.813 -70.264)" fill="#231f20" fill-rule="evenodd"/><path d="M65.85,116.72l.914-.46.746,2.014-1.144-.23Z" transform="translate(-43.222 -76.309)" fill="#231f20" fill-rule="evenodd"/><path d="M74.171,64.348A13.629,13.629,0,0,1,77.779,64v1.265a7.426,7.426,0,0,0-3.148.4,11.207,11.207,0,0,1-.46-1.323Z" transform="translate(-48.68 -42.005)" fill="#231f20" fill-rule="evenodd"/><path d="M76.51,66.668a5.684,5.684,0,0,1,2.749-.344l.058-.921,3.206-1.553.687.863-3.835,2.072-.113.8a6.45,6.45,0,0,0-2.405.23l-.347-1.151Z" transform="translate(-50.218 -41.909)" fill="#231f20" fill-rule="evenodd"/><path d="M78.84,72.588a4.217,4.217,0,0,1,1.948-.117v-.519l4.636-2.412.4,1.265-4.983,2.533v.46a5.5,5.5,0,0,0-1.6-.113,10.762,10.762,0,0,0-.4-1.1Z" transform="translate(-51.748 -45.644)" fill="#231f20" fill-rule="evenodd"/><path d="M58.9,82.477c2.938-1.663,6.014-3.161,8.8-2.972a26.69,26.69,0,0,1,5.44-2.935l.285,1.323a53.485,53.485,0,0,0-5.9,2.993c-1.924-.543-5.017.976-8.168,2.742L58.9,82.477Z" transform="translate(-38.66 -50.258)" fill="#231f20" fill-rule="evenodd"/><path d="M61.35,89.4c3-1.67,5.959-3.131,7.728-2.8l.113.347A57.618,57.618,0,0,1,75.26,83.78l.23,1.323a48.551,48.551,0,0,0-6.3,3.223c-.509-1.388-3.814.227-7.385,2.223L61.35,89.4Z" transform="translate(-40.268 -54.99)" fill="#231f20" fill-rule="evenodd"/><path d="M64.29,96.526c1.945-1.189,6.488-3.739,6.777-1.88a44.27,44.27,0,0,1,6.584-3.337l.172,1.381C75,93.939,69.939,95.818,69.176,98.33c.285.423,5.783-3.471,8.759-4.429l.172,1.381a39.2,39.2,0,0,0-7.959,4.258q-1.546.6-1.488-.632L68.2,95.743a24.608,24.608,0,0,0-3.454,1.88l-.46-1.1Z" transform="translate(-42.198 -59.933)" fill="#231f20" fill-rule="evenodd"/><path d="M76.09,103.375c1.089-.557,1.443-.574,1.464-.058a6.409,6.409,0,0,0-1.254,1.856l-.21-1.8Z" transform="translate(-49.943 -67.569)" fill="#fff" fill-rule="evenodd"/><path d="M77.084,102.807l-.065.921-.048,0,.065-.921.048,0Zm-.361-.117.027,1.495H76.7l-.027-1.495Zm-.278,0-.058,2.072h-.048l.058-2.072Zm-.457.168.058,1.21-.048,0-.058-1.21.048,0Z" transform="translate(-49.844 -67.402)" fill="#231f20"/><path d="M66.964,35.491a.194.194,0,1,1,.268.282,5.054,5.054,0,0,0-.735.852,2.756,2.756,0,0,0-.385.828.194.194,0,1,1-.375-.1,3.192,3.192,0,0,1,.436-.945,5.369,5.369,0,0,1,.79-.918Z" transform="translate(-43.143 -23.261)" fill="#231f20"/><path d="M58.464,37.024a.194.194,0,0,1,.234.309,3.046,3.046,0,0,0-.8.887,2.781,2.781,0,0,0-.357,1.107.2.2,0,0,1-.216.172.193.193,0,0,1-.172-.213,3.175,3.175,0,0,1,.409-1.258,3.474,3.474,0,0,1,.907-1Z" transform="translate(-37.509 -24.275)" fill="#231f20"/><path d="M50.308,40.145h0a.2.2,0,0,1,.275-.007.192.192,0,0,1,.007.275h0a3.543,3.543,0,0,0-.247.282,2.7,2.7,0,0,0-.192.278h0a1.552,1.552,0,0,0-.165,1.368.193.193,0,0,1-.117.247.2.2,0,0,1-.247-.117,1.925,1.925,0,0,1,.2-1.7h0a2.621,2.621,0,0,1,.22-.316,3.753,3.753,0,0,1,.271-.313Zm0,0Z" transform="translate(-32.494 -26.31)" fill="#231f20"/><path d="M42.47,45a.193.193,0,1,1,.34.182,3.556,3.556,0,0,0-.392,1.148,2.953,2.953,0,0,0,.055,1.137.194.194,0,1,1-.378.089,3.38,3.38,0,0,1-.062-1.285A3.968,3.968,0,0,1,42.47,45Z" transform="translate(-27.566 -29.472)" fill="#231f20"/><path d="M35.729,51.055a.2.2,0,0,1,.375.113h0c-.027.1-.052.189-.069.275a2.238,2.238,0,0,0-.031.275,2.518,2.518,0,0,0,.375,1.423.194.194,0,1,1-.337.192,2.9,2.9,0,0,1-.43-1.639,2.831,2.831,0,0,1,.038-.323c.024-.107.048-.213.079-.316Z" transform="translate(-23.372 -33.419)" fill="#231f20"/><path d="M29.6,58.152a.2.2,0,0,1,.2-.192.193.193,0,0,1,.189.2,3.818,3.818,0,0,0,.137,1.155,2.634,2.634,0,0,0,.467.911.2.2,0,0,1-.306.244,3.052,3.052,0,0,1-.533-1.041,4.3,4.3,0,0,1-.155-1.275Z" transform="translate(-19.426 -38.043)" fill="#231f20"/><path d="M24.638,66.268a.191.191,0,0,1,.179-.21.2.2,0,0,1,.213.179,2.445,2.445,0,0,0,.326,1.069,2.091,2.091,0,0,0,.756.732.193.193,0,1,1-.2.333,2.485,2.485,0,0,1-.893-.866,2.8,2.8,0,0,1-.385-1.237Z" transform="translate(-16.171 -43.358)" fill="#231f20"/><path d="M84.967,37.338a.194.194,0,0,1,.237.137.2.2,0,0,1-.137.241,3.16,3.16,0,0,0-1,.443,1.49,1.49,0,0,0-.522.629.194.194,0,0,1-.357-.151,1.863,1.863,0,0,1,.653-.79,3.4,3.4,0,0,1,1.124-.509Z" transform="translate(-54.593 -24.503)" fill="#231f20"/><path d="M93.84,40.6a.189.189,0,0,1,.22.162.2.2,0,0,1-.165.223,3.6,3.6,0,0,0-1.058.306,1.32,1.32,0,0,0-.567.488.2.2,0,0,1-.333-.2,1.713,1.713,0,0,1,.729-.636,3.985,3.985,0,0,1,1.175-.34Z" transform="translate(-60.325 -26.644)" fill="#231f20"/><path d="M101.68,45.07a.2.2,0,1,1,0,.392,2.03,2.03,0,0,0-.859.158,1.091,1.091,0,0,0-.5.454.194.194,0,0,1-.337-.192,1.493,1.493,0,0,1,.674-.612,2.366,2.366,0,0,1,1.024-.2Z" transform="translate(-65.609 -29.582)" fill="#231f20"/><path d="M108.51,50.665a.2.2,0,0,1,.151.23.189.189,0,0,1-.23.148,1.956,1.956,0,0,0-1.5.326.194.194,0,0,1-.21-.326,2.315,2.315,0,0,1,1.79-.378Z" transform="translate(-69.988 -33.222)" fill="#231f20"/><path d="M114.315,57.218a.193.193,0,0,1-.144.357,1.523,1.523,0,0,0-.783-.107,1.9,1.9,0,0,0-.8.323.193.193,0,1,1-.216-.32,2.248,2.248,0,0,1,.966-.385,1.87,1.87,0,0,1,.979.131Z" transform="translate(-73.701 -37.459)" fill="#231f20"/><path d="M119.25,65.054a.193.193,0,0,1-.2.333,2.427,2.427,0,0,0-.787-.3,1.894,1.894,0,0,0-.773.028.194.194,0,0,1-.089-.378,2.244,2.244,0,0,1,.931-.031,2.813,2.813,0,0,1,.914.351Z" transform="translate(-76.962 -42.446)" fill="#231f20"/><path d="M122.716,73.477a.2.2,0,0,1-.2.333,2.2,2.2,0,0,0-.677-.271,2.871,2.871,0,0,0-.8-.055.195.195,0,0,1-.024-.388,3.143,3.143,0,0,1,.907.065,2.563,2.563,0,0,1,.8.316Z" transform="translate(-79.308 -47.972)" fill="#231f20"/><path d="M21.409,75.11a.194.194,0,0,1,.344-.179,5.987,5.987,0,0,0,.625.972,4.492,4.492,0,0,0,.732.735.2.2,0,0,1-.244.306,4.883,4.883,0,0,1-.8-.8,7.13,7.13,0,0,1-.66-1.034Z" transform="translate(-14.038 -49.114)" fill="#231f20"/><path d="M20.4,94.567a.193.193,0,1,1,.323-.213h0a2.14,2.14,0,0,0,.2.258,2.305,2.305,0,0,0,.23.22,1.812,1.812,0,0,0,1.309.44.194.194,0,1,1,.048.385,2.211,2.211,0,0,1-1.6-.522,2.776,2.776,0,0,1-.275-.258,3.613,3.613,0,0,1-.23-.309Z" transform="translate(-13.368 -61.874)" fill="#231f20"/><path d="M123.044,81.058a.2.2,0,0,1-.151-.23.189.189,0,0,1,.23-.148,4.224,4.224,0,0,1,1.728.866.2.2,0,1,1-.244.306,3.86,3.86,0,0,0-1.564-.794Z" transform="translate(-80.66 -52.953)" fill="#231f20"/><path d="M123.166,98.587a.194.194,0,0,1,.175-.347,2.2,2.2,0,0,1,.711.581,4.045,4.045,0,0,1,.557.931.189.189,0,0,1-.1.254.194.194,0,0,1-.258-.1,3.542,3.542,0,0,0-.5-.842,1.886,1.886,0,0,0-.584-.478Z" transform="translate(-80.772 -64.468)" fill="#231f20"/><path d="M120.716,107.323a.192.192,0,0,1,.007-.275.2.2,0,0,1,.275.007,3.637,3.637,0,0,1,.931,1.749.193.193,0,1,1-.378.082,3.232,3.232,0,0,0-.306-.835,3.368,3.368,0,0,0-.529-.729Z" transform="translate(-79.198 -70.228)" fill="#231f20"/><path d="M21.215,102.54a.194.194,0,0,1,.278-.271h0a2.084,2.084,0,0,0,.244.206,3.265,3.265,0,0,0,1.959.577.194.194,0,1,1,.048.385A3.619,3.619,0,0,1,21.858,103a3.234,3.234,0,0,1-.347-.213,2.072,2.072,0,0,1-.3-.251Z" transform="translate(-13.889 -67.087)" fill="#231f20"/><path d="M24.044,111.482a.193.193,0,0,1,.213-.323,3.287,3.287,0,0,0,1.055.474,2.461,2.461,0,0,0,1.038.027.194.194,0,0,1,.072.381,2.864,2.864,0,0,1-1.2-.031,3.629,3.629,0,0,1-1.182-.529Z" transform="translate(-15.725 -72.94)" fill="#231f20"/><path d="M28.534,119.408a.194.194,0,0,1,.151-.357,5.632,5.632,0,0,0,1.137.375,1.549,1.549,0,0,0,.942-.076.193.193,0,0,1,.258.1.2.2,0,0,1-.1.258,1.92,1.92,0,0,1-1.175.1,5.984,5.984,0,0,1-1.216-.4Z" transform="translate(-18.651 -78.131)" fill="#231f20"/><path d="M34.7,126.646a.195.195,0,1,1,.127-.368,2.521,2.521,0,0,0,1.038.137,2.81,2.81,0,0,0,1.045-.306.194.194,0,0,1,.175.347,3.257,3.257,0,0,1-1.189.347,2.937,2.937,0,0,1-1.2-.158Z" transform="translate(-22.69 -82.761)" fill="#231f20"/><path d="M41.717,132.328a.2.2,0,0,1-.117-.251.192.192,0,0,1,.247-.113,2.01,2.01,0,0,0,1.021.11,2.571,2.571,0,0,0,1.038-.44.2.2,0,0,1,.271.048.192.192,0,0,1-.048.268,2.968,2.968,0,0,1-1.2.505,2.349,2.349,0,0,1-1.216-.127Z" transform="translate(-27.298 -86.377)" fill="#231f20"/><path d="M49.492,136.706a.191.191,0,0,1-.2-.186.2.2,0,0,1,.186-.206,3.366,3.366,0,0,0,1.086-.223,3.657,3.657,0,0,0,1.089-.673.195.195,0,1,1,.258.292,4.07,4.07,0,0,1-1.206.746,3.822,3.822,0,0,1-1.21.251Z" transform="translate(-32.351 -88.851)" fill="#231f20"/><path d="M59.1,139.531a.195.195,0,1,1-.079-.381h0a2.6,2.6,0,0,0,.292-.076,2.632,2.632,0,0,0,.275-.1,2.689,2.689,0,0,0,1.134-.928.195.195,0,1,1,.316.227,3.042,3.042,0,0,1-1.3,1.058,2.8,2.8,0,0,1-.313.113,2.651,2.651,0,0,1-.326.086Z" transform="translate(-38.64 -90.556)" fill="#231f20"/><path d="M80.165,138.717a.189.189,0,0,1,.271-.031.193.193,0,0,1,.034.271l-.883,1.124a.189.189,0,0,1-.271.031.193.193,0,0,1-.034-.271l.883-1.124Z" transform="translate(-52.011 -91)" fill="#231f20"/><path d="M87.624,136.215a.194.194,0,1,1,.375.1,3.834,3.834,0,0,1-.526,1.182,3.787,3.787,0,0,1-.9.935.193.193,0,0,1-.271-.038.19.19,0,0,1,.041-.271,3.453,3.453,0,0,0,.808-.838,3.654,3.654,0,0,0,.471-1.069Z" transform="translate(-56.621 -89.312)" fill="#231f20"/><path d="M96.114,132.963a.2.2,0,0,1,.385.065,3.793,3.793,0,0,1-.4,1.151,4.428,4.428,0,0,1-.77,1.021.194.194,0,1,1-.275-.275,3.921,3.921,0,0,0,.7-.931,3.408,3.408,0,0,0,.361-1.031Z" transform="translate(-62.351 -87.167)" fill="#231f20"/><path d="M104.876,128.043a.195.195,0,0,1,.381-.079,3.422,3.422,0,0,1-.309,2.192.193.193,0,1,1-.347-.168,3.014,3.014,0,0,0,.275-1.945Z" transform="translate(-68.643 -83.89)" fill="#231f20"/><path d="M111.774,121.868a.195.195,0,1,1,.371-.117v0h0c.031.1.055.189.076.278s.041.182.058.278a3.978,3.978,0,0,1-.01,1.426.194.194,0,1,1-.381-.072,3.71,3.71,0,0,0,.01-1.292c-.014-.082-.031-.165-.052-.251s-.048-.172-.072-.254Z" transform="translate(-73.359 -79.824)" fill="#231f20"/><path d="M116.932,114.523a.195.195,0,0,1,.316-.227,2.512,2.512,0,0,1,.474,1.12,2.088,2.088,0,0,1-.161,1.137.194.194,0,1,1-.357-.151,1.705,1.705,0,0,0,.134-.931,2.136,2.136,0,0,0-.405-.948Z" transform="translate(-76.726 -74.967)" fill="#231f20"/><path d="M39.174,71.486,37.422,73.9l-1.787-1.3.3-.409,1.3.945.388-.533-1.21-.88.3-.406,1.21.88.478-.656-1.347-.979.3-.405,1.832,1.33ZM37,69.74l-.419.388-.388-.419.419-.388L37,69.74ZM33.57,66.892l-.12-.6a1.323,1.323,0,0,1,.849.038,1.275,1.275,0,0,1,.591.577,1.3,1.3,0,0,1,.12,1.052,1.555,1.555,0,0,1-.783.873,1.616,1.616,0,0,1-1.2.223,1.324,1.324,0,0,1-.849-.684,1.243,1.243,0,0,1-.148-.935,1.184,1.184,0,0,1,.333-.533l.412.454a.62.62,0,0,0-.134.794.675.675,0,0,0,.467.354,1.155,1.155,0,0,0,.773-.192,1.234,1.234,0,0,0,.6-.567.659.659,0,0,0-.045-.577.608.608,0,0,0-.333-.289.868.868,0,0,0-.543.014Zm.529-1.546-.543.175-.175-.543.543-.175.175.543Zm-1.88-4.051.144-.594a1.3,1.3,0,0,1,.753.4,1.4,1.4,0,0,1-.045,1.773,1.564,1.564,0,0,1-1.079.46,1.62,1.62,0,0,1-1.179-.3,1.313,1.313,0,0,1-.481-.979,1.251,1.251,0,0,1,.261-.911,1.18,1.18,0,0,1,.526-.344l.182.584a.614.614,0,0,0-.457.66.667.667,0,0,0,.275.519,1.148,1.148,0,0,0,.783.151,1.281,1.281,0,0,0,.79-.258.656.656,0,0,0,.2-.543.608.608,0,0,0-.182-.4.906.906,0,0,0-.495-.21Zm-.447-1.371a1.927,1.927,0,0,1-.725-.278,1.462,1.462,0,0,1-.347-.351,1.16,1.16,0,0,1-.189-.43,1.675,1.675,0,0,1,.007-.653,1.4,1.4,0,0,1,.6-.955,1.827,1.827,0,0,1,2.227.43,1.379,1.379,0,0,1,.2,1.107,1.4,1.4,0,0,1-.6.959,1.534,1.534,0,0,1-1.175.172Zm.1-.612a1.108,1.108,0,0,0,.8-.082.779.779,0,0,0,.371-.533.771.771,0,0,0-.141-.629,1.15,1.15,0,0,0-.718-.375,1.112,1.112,0,0,0-.794.076.835.835,0,0,0-.227,1.175,1.133,1.133,0,0,0,.711.368ZM33.927,56.9l-2.7-1.258.536-1.148a2.2,2.2,0,0,1,.364-.594.692.692,0,0,1,.405-.192.882.882,0,0,1,.481.079.806.806,0,0,1,.419.412.953.953,0,0,1,0,.649,1.353,1.353,0,0,1,.364-.186,3.646,3.646,0,0,1,.584-.107l.68-.086-.306.653-.77.12a3.841,3.841,0,0,0-.533.1.482.482,0,0,0-.189.11.943.943,0,0,0-.158.261l-.052.11,1.127.526-.254.546Zm-1.3-1.271.189-.4a2.53,2.53,0,0,0,.2-.505.327.327,0,0,0-.045-.206.394.394,0,0,0-.179-.151.374.374,0,0,0-.254-.031.4.4,0,0,0-.2.155,4.381,4.381,0,0,0-.2.4l-.2.426.691.32Zm2.684-1.347L32.9,52.528l.354-.488,2.412,1.753-.354.488Zm.663-.99-2.144-2.069.405-.423,2.278.505-1.433-1.381.388-.4,2.144,2.069-.419.433-2.234-.485,1.4,1.35-.385.4Zm2.7-2.457-1.313-2.1-.749.467-.268-.426,2.007-1.254.268.426-.749.467,1.313,2.1-.509.32ZM40.264,49.8l-.921-2.835.574-.186.361,1.117,1.124-.364-.361-1.117.57-.186.921,2.835-.574.186-.4-1.237-1.12.364.4,1.241-.574.182Zm2.873-.869-.519-2.935.591-.1.519,2.935-.591.1Zm3.825-.254-.653.01-.271-.674-1.192.021-.234.68-.639.01,1.107-3,.636-.01,1.247,2.962Zm-1.127-1.158-.43-1.1-.385,1.113.814-.014Zm1.443,1.241.67-2.9.57.131.742,2.213.447-1.938.546.127-.67,2.9L49,49.15l-.732-2.165-.436,1.893-.55-.124Zm3.24-.158.546.216a.721.721,0,0,0-.007.481.8.8,0,0,0,.773.412.364.364,0,0,0,.261-.189.283.283,0,0,0,.027-.189.487.487,0,0,0-.134-.213c-.052-.052-.175-.165-.371-.333a1.623,1.623,0,0,1-.471-.57.779.779,0,0,1,.337-.979.79.79,0,0,1,.467-.1,1.44,1.44,0,0,1,.57.175,1.248,1.248,0,0,1,.639.6.873.873,0,0,1-.034.722l-.55-.251a.5.5,0,0,0,0-.368.594.594,0,0,0-.3-.261.679.679,0,0,0-.416-.089.215.215,0,0,0-.168.12.245.245,0,0,0,0,.2,1.548,1.548,0,0,0,.4.43,2.944,2.944,0,0,1,.481.488.814.814,0,0,1,.155.419.873.873,0,0,1-.11.478.89.89,0,0,1-.344.361.857.857,0,0,1-.509.113,1.722,1.722,0,0,1-.629-.2,1.289,1.289,0,0,1-.653-.625,1.213,1.213,0,0,1,.031-.856ZM55.7,52.177l.271.55a1.3,1.3,0,0,1-.832.182,1.288,1.288,0,0,1-.722-.405,1.269,1.269,0,0,1-.385-.983,1.547,1.547,0,0,1,.533-1.045,1.633,1.633,0,0,1,1.1-.526,1.316,1.316,0,0,1,1,.44,1.234,1.234,0,0,1,.385.863,1.182,1.182,0,0,1-.182.6l-.515-.33a.614.614,0,0,0-.076-.8.688.688,0,0,0-.543-.223,1.158,1.158,0,0,0-.7.388,1.246,1.246,0,0,0-.436.7.657.657,0,0,0,.2.546.6.6,0,0,0,.4.192.949.949,0,0,0,.512-.158ZM56.964,56.1l-.326-.567.457-.564L56.5,53.94l-.708.127-.32-.553,3.161-.485.32.55L56.964,56.1Zm.467-1.55.753-.907-1.158.2.405.7Zm2.495,1.055.326,1.144a3.489,3.489,0,0,1,.117.515.725.725,0,0,1-.034.333.743.743,0,0,1-.175.289.705.705,0,0,1-.309.186.685.685,0,0,1-.4,0,.7.7,0,0,1-.337-.223.781.781,0,0,1-.144.478.736.736,0,0,1-.392.265.848.848,0,0,1-.405.017.754.754,0,0,1-.364-.165.848.848,0,0,1-.247-.351c-.038-.093-.11-.323-.22-.691l-.278-.976,2.862-.818Zm-.313.715-.663.189.11.378c.065.227.11.364.131.416a.388.388,0,0,0,.168.2.305.305,0,0,0,.247.021.317.317,0,0,0,.2-.134.342.342,0,0,0,.038-.247c-.01-.058-.055-.223-.131-.5l-.1-.326Zm-1.137.326-.766.22.155.536A2.527,2.527,0,0,0,58,57.8a.384.384,0,0,0,.175.179.355.355,0,0,0,.268.01.392.392,0,0,0,.2-.124.354.354,0,0,0,.079-.216,2.132,2.132,0,0,0-.107-.526l-.137-.471Zm-.649,2.663,2.979-.1.076,2.21-.505.017-.055-1.608-.66.024.052,1.495-.5.017-.052-1.495-.811.027.058,1.663-.5.017-.079-2.265Zm.8,4.852-.285.543a1.313,1.313,0,0,1-.636-.564,1.269,1.269,0,0,1-.1-.821,1.283,1.283,0,0,1,.567-.89,1.568,1.568,0,0,1,1.158-.186,1.636,1.636,0,0,1,1.072.577,1.313,1.313,0,0,1,.23,1.065,1.234,1.234,0,0,1-.471.818,1.207,1.207,0,0,1-.594.206l-.038-.612a.616.616,0,0,0,.4-.155.628.628,0,0,0,.2-.378A.684.684,0,0,0,60,63.2a1.173,1.173,0,0,0-.722-.337,1.245,1.245,0,0,0-.828.062.66.66,0,0,0-.33.478.609.609,0,0,0,.079.433.87.87,0,0,0,.433.33Zm1.33,2.076-.244.55-1.474-.656a3.465,3.465,0,0,0-.464-.182.478.478,0,0,0-.344.048.646.646,0,0,0-.265.32.617.617,0,0,0-.062.4.405.405,0,0,0,.172.247,3.388,3.388,0,0,0,.45.23l1.505.67-.244.55-1.43-.636a4.063,4.063,0,0,1-.674-.354.832.832,0,0,1-.268-.316.906.906,0,0,1-.079-.419,1.507,1.507,0,0,1,.151-.56,1.627,1.627,0,0,1,.354-.55.923.923,0,0,1,.375-.213.86.86,0,0,1,.371-.021,3.592,3.592,0,0,1,.715.254l1.454.643Zm-1.718,3.333-.677.866a2.092,2.092,0,0,1-.4.412.991.991,0,0,1-.491.186,1.326,1.326,0,0,1-.557-.072,2.2,2.2,0,0,1-.615-.357,1.983,1.983,0,0,1-.443-.464,1.332,1.332,0,0,1-.216-.574,1.035,1.035,0,0,1,.072-.481,1.728,1.728,0,0,1,.278-.457l.7-.893,2.347,1.835Zm-.77.165L55.913,68.52l-.278.354a1.563,1.563,0,0,0-.2.306.548.548,0,0,0-.052.268.62.62,0,0,0,.131.3,2.4,2.4,0,0,0,.845.663.7.7,0,0,0,.333.045.549.549,0,0,0,.282-.134,2.921,2.921,0,0,0,.326-.371l.172-.216Zm-5.622,1.976.509-.412.629.361.924-.749-.234-.68.495-.4.972,3.045-.495.4-2.8-1.564Zm1.6.22,1.014.6-.381-1.113-.632.512Z" transform="translate(-19.907 -30.002)" fill="#fff" fill-rule="evenodd"/><path d="M62.683,127.21l-.55-.158.594-2.069a1.946,1.946,0,0,1-.828.213l.144-.5a1.663,1.663,0,0,0,.543-.134,1.048,1.048,0,0,0,.478-.361l.447.127-.828,2.88Zm1.344-.412.557-.014a.4.4,0,0,0,.082.258.307.307,0,0,0,.216.1.365.365,0,0,0,.313-.134,1.355,1.355,0,0,0,.216-.66.686.686,0,0,1-.56.2.8.8,0,0,1-.581-.323.99.99,0,0,1-.192-.725,1.01,1.01,0,0,1,.333-.7.975.975,0,0,1,1.419.2,2.437,2.437,0,0,1-.216,2.323.983.983,0,0,1-.818.292.845.845,0,0,1-.546-.234.918.918,0,0,1-.223-.581Zm1.4-1.131a.638.638,0,0,0-.089-.436.374.374,0,0,0-.278-.179.315.315,0,0,0-.271.1.644.644,0,0,0-.141.4.665.665,0,0,0,.076.433.349.349,0,0,0,.271.158.345.345,0,0,0,.289-.107.567.567,0,0,0,.144-.371Zm1.2,1.206.546-.113a.541.541,0,0,0,.168.309.377.377,0,0,0,.289.086.4.4,0,0,0,.285-.158.52.52,0,0,0,.089-.371.492.492,0,0,0-.144-.33.369.369,0,0,0-.292-.1,1.01,1.01,0,0,0-.258.065l.021-.467a.517.517,0,0,0,.344-.131.355.355,0,0,0,.1-.292.308.308,0,0,0-.354-.3.332.332,0,0,0-.241.124.479.479,0,0,0-.1.306l-.533-.045a1.148,1.148,0,0,1,.127-.443.774.774,0,0,1,.285-.282,1.047,1.047,0,0,1,.436-.131.878.878,0,0,1,.694.21.693.693,0,0,1,.251.474.7.7,0,0,1-.371.66.694.694,0,0,1,.622.656.883.883,0,0,1-.227.691,1.074,1.074,0,0,1-1.375.165.941.941,0,0,1-.361-.584Zm2.636-.278.529-.213a.5.5,0,0,0,.223.254.379.379,0,0,0,.3.031.385.385,0,0,0,.251-.223.677.677,0,0,0,0-.454.607.607,0,0,0-.23-.361.419.419,0,0,0-.347-.045.58.58,0,0,0-.364.33l-.464.062L69,124.406l1.454-.416.148.515-1.034.3.055.512a.864.864,0,0,1,.347-.2.851.851,0,0,1,.694.089.982.982,0,0,1,.45.615,1.079,1.079,0,0,1-.024.691.95.95,0,0,1-.667.6,1.01,1.01,0,0,1-.708-.027.9.9,0,0,1-.464-.488Z" transform="translate(-40.629 -81.383)" fill="#fff" fill-rule="evenodd"/><path d="M109.3,95.664l-.289.54a1.305,1.305,0,0,1-.629-.57,1.254,1.254,0,0,1-.086-.821,1.274,1.274,0,0,1,.577-.883,1.563,1.563,0,0,1,1.161-.172,1.636,1.636,0,0,1,1.065.591,1.32,1.32,0,0,1,.22,1.069,1.237,1.237,0,0,1-.481.814,1.2,1.2,0,0,1-.594.2l-.031-.612a.614.614,0,0,0,.4-.151.633.633,0,0,0,.206-.375.67.67,0,0,0-.134-.57,1.165,1.165,0,0,0-.718-.344,1.256,1.256,0,0,0-.828.052.661.661,0,0,0-.333.474.591.591,0,0,0,.076.433.865.865,0,0,0,.419.326Zm-1.649-1.594.237.045a3.124,3.124,0,0,0-.093.375.469.469,0,0,0,.014.275.159.159,0,0,0,.11.089.151.151,0,0,0,.131-.041.312.312,0,0,0,.086-.182.869.869,0,0,0,.01-.268l.189.089a.99.99,0,0,1-.01.347.6.6,0,0,1-.182.361.342.342,0,0,1-.292.079.35.35,0,0,1-.258-.2.892.892,0,0,1-.045-.584,1.725,1.725,0,0,1,.1-.388Z" transform="translate(-70.573 -61.513)" fill="#fff" fill-rule="evenodd"/><path d="M55.688,125.46a.7.7,0,1,1-.7.7.7.7,0,0,1,.7-.7Z" transform="translate(-36.093 -82.348)" fill="#fff" fill-rule="evenodd"/><path d="M91.258,125.46a.7.7,0,1,1-.7.7.7.7,0,0,1,.7-.7Z" transform="translate(-59.44 -82.348)" fill="#fff" fill-rule="evenodd"/><path d="M67.172,4.375c-.086.086-.165.172-.241.254a3.294,3.294,0,0,0-.959,2.155,2.338,2.338,0,0,0,.127.763,3.56,3.56,0,0,0,1.058,1.485l-.271.306a3.941,3.941,0,0,1-1.175-1.66,2.788,2.788,0,0,1-.151-.893,3.673,3.673,0,0,1,1.062-2.423c.082-.093.168-.182.254-.271l.3.285Z" transform="translate(-43.031 -2.685)" fill="#fff"/><path d="M80.728,4.08a6.3,6.3,0,0,1,.464.505,3.532,3.532,0,0,1,.914,2.22,3.035,3.035,0,0,1-.931,2.106,5.52,5.52,0,0,1-.457.426l-.258-.316a4.668,4.668,0,0,0,.423-.392A2.634,2.634,0,0,0,81.7,6.805a3.137,3.137,0,0,0-.818-1.962c-.131-.158-.275-.313-.433-.471l.278-.292Z" transform="translate(-52.805 -2.678)" fill="#fff"/></g><g transform="translate(100 360)"><path d="M0,183.75v17.489l22.573,27.619,22.58-27.619V183.75Z" transform="translate(0 -168.464)"/><path d="M3.6,187.35v17.085L25.873,231.68l22.281-27.245V187.35Z" transform="translate(-3.301 -171.765)" fill="#fff"/><path d="M314.64,382.38v20.057l16.4-20.057Z" transform="translate(-288.466 -350.571)"/><path d="M30.96,382.38l16.411,20.057V382.38Z" transform="translate(-28.385 -350.571)" fill="#ed1c24"/><path d="M429.4,90.978h-2.853l-.883-2.718-.883,2.718h-2.86l2.313,1.677-.883,2.725,2.313-1.685,2.313,1.685-.883-2.725Z" transform="translate(-386.822 -80.918)" fill="#ffde17"/><path d="M35.587,90.978,34.7,88.26l-.883,2.718H30.96l2.313,1.677L32.39,95.38,34.7,93.7l2.313,1.685-.883-2.725,2.313-1.677Z" transform="translate(-28.385 -80.918)" fill="#ffde17"/><path d="M165.989,90.978l-.883-2.718-.883,2.718H161.37l2.306,1.677L162.8,95.38l2.306-1.685,2.313,1.685-.883-2.725,2.313-1.677Z" transform="translate(-147.946 -80.918)" fill="#ed1c24"/><path d="M231.059,2.718,230.176,0l-.883,2.718H226.44l2.306,1.677L227.87,7.12l2.306-1.685,2.313,1.685-.883-2.725,2.313-1.677Z" transform="translate(-207.603)" fill="#ed1c24"/><path d="M299.079,90.978h-2.853l-.883-2.718-.883,2.718H291.6l2.313,1.677-.883,2.725,2.313-1.685,2.306,1.685-.883-2.725Z" transform="translate(-267.343 -80.918)" fill="#ed1c24"/><rect width="40.002" height="12.024" transform="translate(2.575 17.652)"/><path d="M406.922,236.995v-1.258a1.684,1.684,0,0,0-1.677-1.677h-4.237a1.684,1.684,0,0,0-1.677,1.677v5.031a1.684,1.684,0,0,0,1.677,1.677h4.237a1.684,1.684,0,0,0,1.677-1.677V239.51h-1.677v.839a.419.419,0,0,1-.419.419h-3.4a.419.419,0,0,1-.419-.419v-4.193a.419.419,0,0,1,.419-.419h3.4a.419.419,0,0,1,.419.419v.839Z" transform="translate(-366.111 -214.589)" fill="#fff"/><path d="M52.29,235.737v1.677a1.679,1.679,0,0,0,1.677,1.677h3.818a.423.423,0,0,1,.419.419v.839a.423.423,0,0,1-.419.419h-5.5v1.677H58.2a1.684,1.684,0,0,0,1.677-1.677v-1.677a1.684,1.684,0,0,0-1.677-1.677H54.386a.419.419,0,0,1-.419-.419v-.839a.419.419,0,0,1,.419-.419h5.5V234.06H53.967A1.679,1.679,0,0,0,52.29,235.737Z" transform="translate(-47.94 -214.589)" fill="#fff"/><path d="M173.945,234.06H168.03v8.385h1.677v-3.354h4.238a1.677,1.677,0,0,0,1.67-1.677v-1.677A1.678,1.678,0,0,0,173.945,234.06Zm0,2.935a.423.423,0,0,1-.419.419h-3.818v-1.677h3.818a.428.428,0,0,1,.419.419Z" transform="translate(-154.052 -214.589)" fill="#fff"/><path d="M283.59,242.445h1.677v-3.354H289.5v-1.677h-4.238v-1.677h5.915V234.06H283.59Z" transform="translate(-259.999 -214.589)" fill="#fff"/></g><g transform="translate(36 364)"><path d="M0,52.488Zm26.259-.015A26.236,26.236,0,1,0,.03,26.229,26.291,26.291,0,0,0,26.259,52.473Z" transform="translate(0 0)" fill="#007344" fill-rule="evenodd"/><path d="M28.33,53.641a25.462,25.462,0,1,1,17.946-7.459A25.369,25.369,0,0,1,28.33,53.641Z" transform="translate(-2.071 -2.008)" fill="#fff" fill-rule="evenodd"/><path d="M29.57,54.354A24.968,24.968,0,1,0,12.011,47.04,24.821,24.821,0,0,0,29.57,54.354Z" transform="translate(-3.311 -3.241)" fill="#007344" fill-rule="evenodd"/><path d="M38.891,27.869l-.316.7.573.52-.777-.086-.307.7-.171-.757-.742-.086.656-.381-.157-.757.564.52Z" transform="translate(-26.047 -19.535)" fill="#fff" fill-rule="evenodd"/><path d="M32.338,35.18l-.278.934.81.553-.978.033-.257.928-.349-.9-.966.021.762-.585-.328-.934.807.553Z" transform="translate(-21.257 -24.665)" fill="#fff" fill-rule="evenodd"/><path d="M26.439,45.39,26.4,46.581l1.138.372-1.152.363v1.17l-.709-.949-1.117.331.7-.928-.683-1,1.135.393Z" transform="translate(-17.302 -31.821)" fill="#fff" fill-rule="evenodd"/><path d="M20.477,58.16l.307,1.7,1.723.242-1.551.822.31,1.708L20.01,61.446l-1.531.807.757-1.551L17.98,59.466l1.741.236Z" transform="translate(-12.667 -40.768)" fill="#fff" fill-rule="evenodd"/><path d="M132.194,27.869l.328.7-.582.52.774-.086.307.7.171-.757.757-.086-.671-.381.171-.757-.585.52Z" transform="translate(-92.508 -19.535)" fill="#fff" fill-rule="evenodd"/><path d="M137.423,35.18l.263.934-.816.553.987.033.257.928.34-.9.966.021-.757-.585.331-.934-.81.553Z" transform="translate(-95.96 -24.665)" fill="#fff" fill-rule="evenodd"/><path d="M142.355,45.39l.012,1.191-1.117.372,1.138.363.015,1.17.689-.949,1.123.331-.709-.928.691-1-1.138.393Z" transform="translate(-98.943 -31.821)" fill="#fff" fill-rule="evenodd"/><path d="M144.573,58.16l-.3,1.7-1.735.242,1.546.822-.31,1.708,1.277-1.188,1.519.807-.762-1.551,1.274-1.235-1.755.236Z" transform="translate(-99.852 -40.768)" fill="#fff" fill-rule="evenodd"/><path d="M38.638,99.847a.19.19,0,0,0-.21.021L30.181,110.8a.378.378,0,0,0,.038.452,27.738,27.738,0,0,0,4.542,4.043c.106.071.3.225.381.021l.881-2.072a.33.33,0,0,0-.086-.361,17.344,17.344,0,0,1-2.379-1.977.468.468,0,0,1,0-.5l6.492-9.439c.033-.033,0-.118-.053-.139a12.907,12.907,0,0,1-1.359-.981Z" transform="translate(-21.101 -69.759)" fill="#fff" fill-rule="evenodd"/><path d="M59.023,123.285c.118,0,.118-.086.118-.157l.118-15.978a.126.126,0,0,0-.118-.106c-.393-.012-.81-.065-1.223-.118-.053-.021-.118.012-.157.086l-1.927,4.442c-.053.106-.086.086-.106-.021l-.151-4.988c0-.071-.021-.106-.053-.106a13.328,13.328,0,0,1-1.392-.585.1.1,0,0,0-.139.053l-5.8,13.96a.156.156,0,0,0,.053.189c.564.361,1.138.671,1.723.987.065.033.2.065.236-.053l3.57-9.988c.033-.118.065-.139.065.021l.157,8.472c0,.446.033.446.225.033l3.393-7.544c.033-.1.065-.1.053.021l-.881,11.023c-.012.065.071.151.139.171.706.1,1.41.157,2.1.189Z" transform="translate(-33.742 -73.927)" fill="#fff" fill-rule="evenodd"/><path d="M93.015,109.245a19.644,19.644,0,0,1-2.615.618c-.053,0-.118.086-.118.157l.1,4.2a.157.157,0,0,0,.177.157q1.569-.235,3.115-.57c.139-.033.189,0,.225.192l.257,1.649c.021.092.033.21-.086.242q-1.707.412-3.443.671c-.086.021-.189.053-.189.21l.106,4.359c0,.225.139.343.257.322a21.94,21.94,0,0,0,3.942-.774c.086-.012.21-.047.242.139l.343,2.273c.038.124-.086.242-.236.275a23.31,23.31,0,0,1-6.6,1.123c-.171,0-.31-.053-.31-.21l.106-15.878c0-.086.151-.139.257-.139a13.62,13.62,0,0,0,4.114-.81c.157-.053.21-.033.21.038l.257,1.6c.015.109-.027.13-.109.163Z" transform="translate(-61.792 -75.109)" fill="#fff" fill-rule="evenodd"/><path d="M108.774,120.713c-.053.012-.139.012-.157-.071l-2.858-15.582c-.012-.032,0-.053.053-.065.434-.192.86-.414,1.274-.638.032-.021.118-.033.118.012l3.963,15.018c.033.118.021.171-.032.21-.777.408-1.534.768-2.361,1.117Z" transform="translate(-74.123 -72.939)" fill="#fff" fill-rule="evenodd"/><path d="M138.027,80.159c-.106.511-.242.993-.393,1.478-.021.033-.053.118-.157.086l-.343-.189c-.053-.032-.118.021-.157.053l-.532,1.327a.2.2,0,0,0,.086.257l2.394,1.6a.188.188,0,0,0,.3-.139,23.4,23.4,0,0,0,.65-5.8.2.2,0,0,0-.139-.21l-3.957-1.374a.378.378,0,0,0-.5.151c-.349.671-.671,1.223-.978,1.723-.053.053-.139.157-.275.086l-1.944-.946c-.092-.053-.157-.1-.092-.257l.316-.692c.033-.086.151-.065.225-.033l.671.257a.129.129,0,0,0,.192-.065l.31-.827c.033-.065-.071-.157-.139-.189l-2.6-.892a.165.165,0,0,0-.2.106,16.032,16.032,0,0,1-1.105,2.562.256.256,0,0,0,.071.343l4.923,3.319a.231.231,0,0,0,.328-.106c.5-.789.96-1.6,1.413-2.385a.139.139,0,0,1,.2-.053l1.359.606c.059.006.1.071.08.2Z" transform="translate(-90.743 -52.936)" fill="#fff" fill-rule="evenodd"/><path d="M15.985,98.074c-.033-.086.065-.189.139-.242l9.95-6.3a.182.182,0,0,1,.189.038c.3.343.585.683.892,1.031a.263.263,0,0,1,.053.225l-7.281,11.936c-.053.065-.225.012-.275-.053a13.58,13.58,0,0,1-.842-1.155.233.233,0,0,1,.012-.257l1.708-2.739a.4.4,0,0,0,.033-.393c-.3-.774-.553-1.531-.795-2.308-.012-.071-.171-.086-.236-.053l-2.722,1.826c-.071.033-.21.012-.242-.053-.2-.479-.411-1-.582-1.5Zm8.13-3.325-2.825,1.9a.179.179,0,0,0-.071.225,9.983,9.983,0,0,0,.488,1.392c.033.118.139.192.2.065l2.222-3.561c.015-.021-.006-.033-.018-.021Z" transform="translate(-11.256 -64.075)" fill="#fff" fill-rule="evenodd"/><path d="M122.173,107.461c-.053.053-.139.106-.2.021l-4.391-5.322c-.038-.053-.106-.106-.177-.053l-.757.532c-.065.053-.157.124-.106.263l2.722,7.211a.15.15,0,0,1-.053.189,26.749,26.749,0,0,1-2.181,1.551c-.053.033-.139.065-.157-.021L112.51,96.938l.086-.118a12.791,12.791,0,0,0,2.846-2.358.514.514,0,0,1,.86.139l2.893,4.764a1.283,1.283,0,0,1-.071,1.454l-.086.1,4.326,4.805a.147.147,0,0,1,.012.225c-.393.538-.768,1-1.2,1.516Zm-5.316-7.855-1.191-2.34a.116.116,0,0,0-.189-.053c-.257.171-.52.393-.795.564a.082.082,0,0,0-.012.106l.978,2.615c.021.038.053.071.106.038l1.031-.742a.143.143,0,0,0,.071-.189Z" transform="translate(-78.696 -65.851)" fill="#fff" fill-rule="evenodd"/><path d="M135.308,95.311c-.012.053-.053.106-.118.071l-2.358-1.622a.148.148,0,0,0-.157.038l-.978,2.476a.234.234,0,0,0,.033.189l1.637,2.722a.19.19,0,0,1,.021.151c-.3.467-.585.913-.892,1.359a.076.076,0,0,1-.124,0l-7.228-12.021a.129.129,0,0,1,0-.151c.31-.387.585-.789.86-1.2a.081.081,0,0,1,.118-.033l9.681,6.229a.154.154,0,0,1,.047.151c-.16.538-.331,1.09-.541,1.643Zm-4.27-2.775-2.668-1.809c-.1-.065-.118-.053-.065.053l2.083,3.463c.033.053.118.171.189.012s.428-1.011.564-1.5c.021-.095-.053-.168-.1-.222Z" transform="translate(-87.578 -61.104)" fill="#fff" fill-rule="evenodd"/><path d="M17.23,85.095a22.281,22.281,0,0,1-2.072-3.233.166.166,0,0,0-.236-.086l-3.156,1.079c-.189.071-.225-.053-.225-.139-.065-.736-.053-1.472-.053-2.2a.233.233,0,0,1,.189-.263l9.037-1.788a.185.185,0,0,1,.21.086,18.764,18.764,0,0,0,1.584,3.017c.053.065,0,.183-.053.225l-4.923,3.366c-.1.071-.2.05-.3-.068Zm2.893-3.576q-.412-.6-.774-1.223a.066.066,0,0,0-.086,0l-2.326.81c-.106.012-.086.086-.065.118A10.184,10.184,0,0,0,17.9,82.854a.181.181,0,0,0,.236.053l1.986-1.321a.079.079,0,0,0,0-.068Z" transform="translate(-8.093 -54.987)" fill="#fff" fill-rule="evenodd"/><path d="M56.819,40.372A13.332,13.332,0,0,0,70.267,27.207a13.446,13.446,0,0,0-26.887,0A13.32,13.32,0,0,0,56.819,40.372Z" transform="translate(-30.561 -9.884)" fill="#fff" fill-rule="evenodd"/><path d="M57.818,41.108A12.639,12.639,0,0,1,48.9,37.394a12.5,12.5,0,0,1-3.7-8.919A12.626,12.626,0,1,1,57.818,41.108Z" transform="translate(-31.559 -11.152)" fill="#007344" fill-rule="evenodd"/><path d="M61.858,19.44a19.861,19.861,0,0,0,3.195-2.34,12.262,12.262,0,0,0-8.913,4.391,16.065,16.065,0,0,0,5.718-2.051Z" transform="translate(-39.332 -12.047)" fill="#fff" fill-rule="evenodd"/><path d="M92.743,19.44a16.025,16.025,0,0,0,5.718,2.051c-.231-.269-.467-.532-.724-.783A12.236,12.236,0,0,0,89.56,17.1a19.69,19.69,0,0,0,3.183,2.34Z" transform="translate(-62.746 -12.047)" fill="#fff" fill-rule="evenodd"/><path d="M50.9,45.742A20.978,20.978,0,0,1,48.536,35.31a12.283,12.283,0,0,0,9.557,19.14,23.889,23.889,0,0,1-7.19-8.709Z" transform="translate(-32.509 -24.695)" fill="#fff" fill-rule="evenodd"/><path d="M99.485,35.45a21.227,21.227,0,0,1-2.379,10.39,23.626,23.626,0,0,1-7.2,8.709A12.3,12.3,0,0,0,101.589,42.3a12.172,12.172,0,0,0-2.1-6.847Z" transform="translate(-62.967 -24.793)" fill="#fff" fill-rule="evenodd"/><path d="M64.539,41.786a23.583,23.583,0,0,0,7.447-8.845c1.965-4.01,2.674-8.091,2.261-10.8a15.944,15.944,0,0,1-6.218-2.169,20.465,20.465,0,0,1-3.49-2.595,19.429,19.429,0,0,1-3.463,2.595,16.093,16.093,0,0,1-6.229,2.154c-.393,2.722.29,6.8,2.275,10.81a23.5,23.5,0,0,0,7.417,8.848Z" transform="translate(-38.28 -12.244)" fill="#fff" fill-rule="evenodd"/><path d="M65.166,42.249c-.328-.242-.656-.479-.978-.742a22.6,22.6,0,0,1-6.046-7.586,22.787,22.787,0,0,1-2.512-9.267,11.626,11.626,0,0,1,.065-1.359,12.029,12.029,0,0,0,1.912-.343,14.97,14.97,0,0,0,3.029-1.105A19.509,19.509,0,0,0,64.1,19.666a13.386,13.386,0,0,0,1.064-.966,12.965,12.965,0,0,0,1.058.946,17.936,17.936,0,0,0,3.484,2.2,15.541,15.541,0,0,0,3.475,1.209,10.2,10.2,0,0,0,1.478.236c.033.434.053.848.053,1.262A22.442,22.442,0,0,1,72.2,33.919a22.887,22.887,0,0,1-6.079,7.624c-.3.239-.632.482-.955.706Z" transform="translate(-38.907 -13.174)" fill="#007344" fill-rule="evenodd"/><path d="M85.988,21.581a13.113,13.113,0,0,1-1.407-1.191,12.142,12.142,0,0,1-1.392,1.191Z" transform="translate(-58.323 -14.364)" fill="#fff" fill-rule="evenodd"/><path d="M82.809,26.714c-.65-.343-1.256-.724-1.773-1.064H77.2a18.479,18.479,0,0,1-1.773,1.064Z" transform="translate(-52.856 -18.07)" fill="#fff" fill-rule="evenodd"/><path d="M77.757,31.555a15.24,15.24,0,0,1-2.911-1.085H66.051a15.913,15.913,0,0,1-2.931,1.085Z" transform="translate(-44.184 -21.466)" fill="#fff" fill-rule="evenodd"/><path d="M75.213,36.515c0-.381,0-.742-.033-1.085h-18.3c-.033.343-.033.7-.033,1.085Z" transform="translate(-39.767 -24.843)" fill="#fff" fill-rule="evenodd"/><path d="M75.145,41.4c.038-.361.071-.724.086-1.085H56.9c.021.361.053.724.106,1.085Z" transform="translate(-39.802 -28.272)" fill="#fff" fill-rule="evenodd"/><path d="M75.233,46.344a10.43,10.43,0,0,0,.183-1.064H57.36c.053.343.118.7.189,1.064Z" transform="translate(-40.126 -31.75)" fill="#fff" fill-rule="evenodd"/><path d="M75.515,51.195l.257-1.085H58.23c.092.361.177.724.275,1.085Z" transform="translate(-40.739 -35.137)" fill="#fff" fill-rule="evenodd"/><path d="M75.977,56.085c.118-.361.236-.724.343-1.085H59.52c.106.361.2.724.328,1.085Z" transform="translate(-41.648 -38.566)" fill="#fff" fill-rule="evenodd"/><path d="M76.558,61.045c.139-.381.269-.742.408-1.085H61.1c.118.343.257.7.414,1.085Z" transform="translate(-42.761 -42.044)" fill="#fff" fill-rule="evenodd"/><path d="M77.248,65.934c.171-.361.343-.724.5-1.085H63.01c.157.361.31.724.488,1.085Z" transform="translate(-44.106 -45.473)" fill="#fff" fill-rule="evenodd"/><path d="M78.09,70.825c.2-.361.393-.724.585-1.085H65.28c.177.361.381.724.57,1.085Z" transform="translate(-45.706 -48.902)" fill="#fff" fill-rule="evenodd"/><path d="M79.084,75.725c.242-.361.467-.724.692-1.085H67.97c.2.361.428.724.671,1.085Z" transform="translate(-47.601 -52.337)" fill="#fff" fill-rule="evenodd"/><path d="M80.23,80.615c.275-.361.532-.7.795-1.085H71.06c.257.381.511.724.789,1.085Z" transform="translate(-49.778 -55.766)" fill="#fff" fill-rule="evenodd"/><path d="M81.58,85.493a12.375,12.375,0,0,0,.946-1.073h-7.8c.31.381.618.742.946,1.073Z" transform="translate(-52.363 -59.195)" fill="#fff" fill-rule="evenodd"/><path d="M83.165,90.349c.4-.349.774-.709,1.138-1.079H79.09c.361.369.742.73,1.155,1.079Z" transform="translate(-55.435 -62.596)" fill="#fff" fill-rule="evenodd"/><path d="M85.441,94.985c.355-.257.7-.52,1.046-.795H84.41c.34.275.689.538,1.031.795Z" transform="translate(-59.183 -66.048)" fill="#fff" fill-rule="evenodd"/><path d="M71.64,42.5c.52,0,1.138.021,1.445-.479a1.1,1.1,0,0,0,.192-.638V35.252a.393.393,0,0,0-.157-.257,1.982,1.982,0,0,0-.913-.381,2.644,2.644,0,0,0,.934-.381A.4.4,0,0,0,73.28,34V30.255a.533.533,0,0,0-.071-.29.77.77,0,0,0-.31-.328,2.1,2.1,0,0,0-1.256-.033,2.663,2.663,0,0,1,.242-.52,1.371,1.371,0,0,1,1.445-.827,2.717,2.717,0,0,1,1.191.538,5.028,5.028,0,0,1,1.46-.934,5.525,5.525,0,0,1,1.959-.381,4.556,4.556,0,0,1,3.286,1.433,4.72,4.72,0,0,1,1.413,3.339,5.136,5.136,0,0,1-1.5,3.378,4.54,4.54,0,0,1-3.135,1.5,2.749,2.749,0,0,1-1.676-.488,1.559,1.559,0,0,1-.709-1.274.684.684,0,0,1,.021-.2,1.568,1.568,0,0,1,.414-1.064,1.467,1.467,0,0,1,1.132-.467.943.943,0,0,1,.171.012h0a1.342,1.342,0,0,1,.81.275.944.944,0,0,1,.3.724.855.855,0,0,1-.73.913,1.574,1.574,0,0,0,.316.071,2.209,2.209,0,0,0,1.959-1.5,1.555,1.555,0,0,0-.1-.848,2.017,2.017,0,0,1-.157-.736,1.718,1.718,0,0,1,.225-.934,1.067,1.067,0,0,0,.086-1,2.523,2.523,0,0,0-.875-1.182,2.466,2.466,0,0,0-1.451-.414,2.292,2.292,0,0,0-1.418.6,1.652,1.652,0,0,0-.691,1.138V44.132a2.238,2.238,0,0,1-1.138-.553,1.61,1.61,0,0,1-.393-.553,1.575,1.575,0,0,1-.892.4A1.771,1.771,0,0,1,71.64,42.5Z" transform="translate(-50.177 -19.229)" fill="#007344" fill-rule="evenodd"/><path d="M73.864,43.682a1.346,1.346,0,0,0,.789.263,1.834,1.834,0,0,0,1.105-.742,1.562,1.562,0,0,0,.446,1,1.87,1.87,0,0,0,.532.328v-12.9a1.984,1.984,0,0,1,.81-1.413,2.66,2.66,0,0,1,1.664-.683,2.851,2.851,0,0,1,1.655.479,2.99,2.99,0,0,1,1.02,1.359,1.361,1.361,0,0,1-.106,1.274,1.564,1.564,0,0,0-.192.757,1.857,1.857,0,0,0,.139.638,1.9,1.9,0,0,1,.118,1.052,2.574,2.574,0,0,1-2.34,1.773,1.548,1.548,0,0,1-.656-.21.914.914,0,0,1-.393-1,.981.981,0,0,0,.5.381h0a.3.3,0,0,0,.171.033c.316,0,.452-.275.452-.553a.552.552,0,0,0-.177-.446,1.027,1.027,0,0,0-.6-.189h0a.639.639,0,0,0-.139-.012,1.037,1.037,0,0,0-.854.343,1.314,1.314,0,0,0-.328.86.5.5,0,0,0-.021.171,1.273,1.273,0,0,0,.526.987,2.592,2.592,0,0,0,1.5.414,4.1,4.1,0,0,0,2.878-1.4,4.76,4.76,0,0,0,1.395-3.115,4.433,4.433,0,0,0-1.309-3.094A4.264,4.264,0,0,0,79.42,28.72a4.832,4.832,0,0,0-1.82.361,4.4,4.4,0,0,0-1.445.952l-.106.118-.118-.086a3.066,3.066,0,0,0-1.17-.585,1.048,1.048,0,0,0-1.02.564,1.35,1.35,0,0,1,.81.157.979.979,0,0,1,.467.479.931.931,0,0,1,.106.446v3.738a.7.7,0,0,1-.257.511c-.053.038-.106.071-.157.106a.685.685,0,0,1,.139.106.761.761,0,0,1,.275.532v6.132a1.709,1.709,0,0,1-.242.842,1.312,1.312,0,0,1-1.017.588Z" transform="translate(-51.655 -20.1)" fill="#fff" fill-rule="evenodd"/></g><g transform="translate(220 366)"><path d="M0,48.716Zm25.307-.046-.947-.987-.527-.435-.579-.415-.625-.363-.679-.357-.711-.348-.783-.3-.8-.311-.829-.282L17.96,44.6l-.9-.256-.9-.262-.93-.256-.941-.276-.93-.271L12.416,43l-.956-.311-.93-.322-.921-.357-.915-.374-.9-.409-.875-.455-.829-.481-.823-.547-.777-.573-.746-.639-.7-.705-.625-.757-.593-.809-.512-.9-.455-.967L.486,33.355l-.2-.691L.15,31.959l-.107-.691-.032-.659.02-.685.052-.639.1-.651L.32,28.01l.164-.633.19-.6.236-.593.236-.593.276-.573.282-.579.291-.553.322-.567.3-.558.328-.547.322-.541.317-.547.328-.533.3-.533.308-.521.282-.527.276-.521.25-.512.236-.527.2-.512.19-.5.144-.512.118-.507.092-.512.026-.216.02-.225.02-.216v-.688l-.02-.23-.02-.236-.026-.216-.04-.236-.032-.216-.046-.236-.052-.236L6.1,11.728l-.072-.216-.066-.236-.092-.23-.078-.216L5.7,10.614l-.1-.236-.112-.2-.1-.216-.118-.23-.118-.216-.118-.2-.138-.2L4.779,8.9,4.64,8.7l-.158-.2-.153-.19-.158-.2L3.6,7.447,11.189,0l.829.429.394.184.409.2.4.178.409.178.4.178.429.17.415.164.42.153.409.158.42.144.429.138.42.138.429.118.42.118.435.118.429.1.44.112.429.078.435.1.44.066.429.092.438.066.435.052.449.046.455.052.44.04.449.026.435.04.461.014.435.02h.89l.435-.02.461-.014.435-.04.44-.026.449-.04.455-.052.44-.046.435-.052.449-.066.42-.092.449-.066.435-.1.42-.078.449-.112.42-.1.435-.118.429-.118.42-.118.429-.138.429-.138.42-.144.4-.158.429-.153.415-.164.42-.17.409-.178L37.388.99l.4-.178.4-.2.394-.184L39.424,0,47,7.421l-.573.659-.158.2-.144.19-.158.2-.138.2-.132.21-.138.2-.118.2-.118.216-.118.23-.1.216-.107.2-.1.236-.086.216-.086.216-.086.23-.072.236-.066.216-.052.225-.046.236-.046.236-.032.216-.04.236-.032.216-.02.236-.014.23v.688l.014.216.02.225.032.216.086.512.118.507.153.512.184.5.21.512.236.527.25.512.271.521.291.527.3.521.311.533.322.533.317.547.328.541L48,22.73l.3.558.322.567.282.553.291.579.276.573.236.593.236.593.184.6.17.633.138.625.1.651.046.639.02.685-.026.659-.107.691-.132.705-.21.691-.368,1.033-.455.967-.521.9-.593.809-.619.757-.705.705-.737.639-.783.573-.818.547-.849.481-.864.455-.9.409-.921.374-.915.357-.93.322-.961.311-.941.282-.936.271-.936.276-.93.256-.9.262-.9.256-.869.271-.829.282-.8.311-.777.3-.711.348-.685.357-.619.363-.587.415-.521.435-.938,1.013Z" fill="#231f20" fill-rule="evenodd"/><path d="M26.353,48.855l-.429-.256-.731-.383-.777-.357-.8-.328-.829-.3-.337-.118V31.3l3.906-2.925V48.855Zm-7.922-14.52V45.9l-.118-.032-.941-.276-.93-.265-.936-.291-.665-.225V37.033l3.59-2.7ZM11.01,39.92v3.405l-.809-.42-.8-.455-.763-.512-.164-.118,2.533-1.9ZM3.94,32l.02-.178.132-.573.158-.567.164-.567.216-.558L4.867,29l.256-.547L5.4,27.9l.291-.547.282-.541.328-.547.3-.541.317-.547.328-.521L7.57,24.1l.317-.541.308-.547.282-.521.291-.547.276-.558.236-.547.236-.541.184-.567.17-.553.138-.558.1-.573.04-.256.006-.256.02-.256.02-.25v-.276l-.02-.256-.02-.245L10.146,16l-.04-.256-.032-.271-.046-.256-.06-.256L9.916,14.7l-.066-.245-.06-.256L9.7,13.946l-.086-.256-.1-.236-.1-.256L9.3,12.961l-.1-.236-.138-.25-.118-.236-.124-.225-.138-.236-.138-.236L8.4,11.326l-.158-.23-.164-.216-.17-.216L7.766,10.5l6.405-6.27.2.1.415.2.409.2.42.19.429.184.42.17.429.184.415.17.42.158.449.144.44.158.429.153.435.138.44.118.449.138.435.1.461.118.435.1.449.107.455.078.461.092L23.5,7.3l.466.066.455.052.461.066.455.052.455.04.466.026.455.02.455.032h1.865l.461-.032.455-.02.461-.026.455-.04.455-.052.466-.066.455-.052.455-.066.461-.078.455-.092.449-.078.455-.107.44-.1.449-.118.435-.1L36.3,6.5l.429-.118.435-.138.44-.153.435-.158.429-.144.429-.158.44-.17.429-.184.144-.052L3.94,32Zm40-16.9v28.77l-.5.216-.9.343-.915.311-.921.3-.93.291-.153.026v-27L43.936,15.1ZM35,21.839V46.7l-.731.236-.849.291-.849.3-.792.328-.771.357-.337.184V25.1L35,21.839Zm13.59,2.205.032.066.322.547.322.521.317.547.328.541.308.547.3.541.282.547.271.558.256.547.236.553.2.558.19.567.144.567.118.573.092.579.046.593.026.593-.046.613-.078.613-.118.613-.178.645-.357.947-.42.875-.475.823-.527.757-.593.705-.633.639-.383.317V24.044Z" transform="translate(-2.806 -3.012)" fill="#fff" fill-rule="evenodd"/><path d="M33.359,45.62l1.324-.809h0a.648.648,0,0,0,.512.711c.337.092,1.575-.731,1.857-1.244.389-.7.271-1.923-.2-1.923-.567,0-1.831,1.382-2.64,1.382-.1,0-.613.164-.8-.613-.052-.2-.052-2.147-.052-2.536,0-1.6.6-1.917,1.909-2.766a9.172,9.172,0,0,1,2.352-.967h0l.216-.818.835-.455.014,2.925-1.264.481h0a.338.338,0,0,0-.337-.357,4.01,4.01,0,0,0-1.891,1.223s-.343,1.316.072,1.652c.236.2,2.173-1.575,2.925-1.376,0,0,.613.21.659.374a10.078,10.078,0,0,1,0,3.662,7.024,7.024,0,0,1-2.91,2.369,4.185,4.185,0,0,0-1.494.671h0v.679l-1.094.633.009-2.9ZM40.567,42a1.8,1.8,0,0,0,.256-.132.261.261,0,0,1,.2.072.373.373,0,0,1,.072.23,1.331,1.331,0,0,1-.072.317,2.045,2.045,0,0,1-.2.343,1.525,1.525,0,0,1-.256.291.475.475,0,0,1-.383.1.3.3,0,0,1-.132-.271,1.147,1.147,0,0,1,.052-.337,3.411,3.411,0,0,1,.2-.343A1.557,1.557,0,0,1,40.567,42ZM43.2,32.51l6.025-4.425v2.562l-1.206.777v-.343h0c0-.2-.066-.573-.066-.6,0-.066-.1-.078-.2-.078a14.489,14.489,0,0,0-2.087,1.673h0v2.378l1.356-.967v1.494l-1.376.93.02,1.172h0c0,.158-.066.731.337.705.078,0,.567-.475.884-.645h0l.026,1.126-3.662,2.7v-1.12h0c.481-.317.751-.461.751-1.232h0v-4.8h0c0-.553-.236-.679-.792-.481h0L43.2,32.51ZM49.016,35.7a.928.928,0,0,1,.256-.138.325.325,0,0,1,.2.06.521.521,0,0,1,.066.245,1.47,1.47,0,0,1-.066.3,2.085,2.085,0,0,1-.2.368,1.17,1.17,0,0,1-.256.262.466.466,0,0,1-.389.118.283.283,0,0,1-.124-.276,1.6,1.6,0,0,1,.046-.337c.072-.118.118-.216.2-.357.089-.078.19-.176.268-.242Zm8-10.916.066-.573h0c.046-.394-.21-.512-.558-.322a8.483,8.483,0,0,0-1.488.915,2.272,2.272,0,0,0-.374,1.534h0v3.417h0c0,.915.42.869.42.869.771-.052,1.955-.967,1.937-1.336h0l-.046-1.52L58.5,26.7l-.072,2.343h0c-.026.976-1.411,1.863-2.4,2.594a15.124,15.124,0,0,1-1.8,1.126c-.864.429-1.474.132-1.474-1.468h0l-.02-3.647h0c0-3.221.843-3.754,2.977-4.9a2.86,2.86,0,0,1,1.382-.357c.1-.2.04-.869.256-1.146h0L58.5,20.63l-.032,3.043-1.445,1.114Zm3.667,2.283a.964.964,0,0,1,.245-.132.405.405,0,0,1,.2.052.478.478,0,0,1,.066.245,1.058,1.058,0,0,1-.066.311,1.921,1.921,0,0,1-.2.343,1.316,1.316,0,0,1-.245.291.517.517,0,0,1-.389.118.326.326,0,0,1-.138-.291,1.26,1.26,0,0,1,.052-.337,1.55,1.55,0,0,1,.21-.343,1.023,1.023,0,0,1,.265-.256Z" transform="translate(-23.75 -14.691)" fill="#fff" fill-rule="evenodd"/><path d="M35.734,26.531a4.077,4.077,0,0,1-.279.374,4.3,4.3,0,0,1-.438.449A5,5,0,0,1,32.97,28.44a4.987,4.987,0,0,0,1.514.233h0a5.176,5.176,0,0,0,1.681-.282,3.52,3.52,0,0,0,.276-1.379c0-.095-.006-.2-.014-.3-.006-.055-.009-.107-.014-.155a1.276,1.276,0,0,1-.679-.023Zm-3.308,1.7a4.482,4.482,0,0,0,2.389-1.1,4.032,4.032,0,0,0,.656-.748.607.607,0,0,1-.092-.1l-.006-.006h0a.581.581,0,0,1-.063-.118,6.409,6.409,0,0,1-3.236-.055A9.817,9.817,0,0,1,29.6,24.994a5.168,5.168,0,0,0,2.827,3.236Zm2.058-10.09h0a5.494,5.494,0,0,1,3.855,1.578,5.334,5.334,0,0,1,1.618,3.82h0a5.387,5.387,0,0,1-1.615,3.834,5.478,5.478,0,0,1-3.855,1.595h0a5.364,5.364,0,0,1-3.808-1.595,5.442,5.442,0,0,1-1.448-2.611l-.052-.032.032-.052a5.346,5.346,0,0,1-.121-1.143h0a5.4,5.4,0,0,1,5.395-5.395Zm0,.3h0a5.075,5.075,0,0,0-1.01.1,14.921,14.921,0,0,1,1.8,2.8c.489.97.9,1.972,1.3,2.988a1.77,1.77,0,0,1,.51-.13l.086-.006a8.014,8.014,0,0,0,.291-2.614,6.1,6.1,0,0,0-.783-2.608l.043-.026a5.174,5.174,0,0,0-2.231-.5Zm-1.336.178a5.121,5.121,0,0,0-2.9,2.1,15.317,15.317,0,0,0,3.714,3.463q.415.272.855.527c.239.138.484.268.734.394a2.342,2.342,0,0,1,.521-.5h0c.075-.052.153-.1.227-.141-.4-1.016-.809-2.018-1.3-2.982a14.475,14.475,0,0,0-1.854-2.859ZM30.072,20.99a5.063,5.063,0,0,0-.685,2.548h0a5.124,5.124,0,0,0,.107,1.036,9.982,9.982,0,0,0,2.66,1.232,6.111,6.111,0,0,0,3.1.049.386.386,0,0,1,0-.058,1.172,1.172,0,0,1,.13-.443c-.245-.124-.486-.253-.725-.392q-.445-.255-.872-.535a15.49,15.49,0,0,1-3.716-3.437Zm6.471,7.249a5.213,5.213,0,0,0,1.583-1.077,5.3,5.3,0,0,0,.846-1.094A6.33,6.33,0,0,1,38,25.9c-.121-.029-.248-.055-.377-.083a2.124,2.124,0,0,1-.334.3h0c-.035.026-.069.049-.1.072h0a3.094,3.094,0,0,1-.273.173h0a1.656,1.656,0,0,1-.207.095c.012.078.02.153.026.222.009.107.014.216.014.328a3.722,3.722,0,0,1-.2,1.232Zm2.591-2.467a5.026,5.026,0,0,0,.521-2.231h0c0-.049,0-.095,0-.141a4.663,4.663,0,0,1-1.071.982,3.677,3.677,0,0,1-.357.2c-.078.04-.158.075-.242.109a.913.913,0,0,1-.055.651,1.768,1.768,0,0,1-.107.207c.083.017.164.037.245.055a5.11,5.11,0,0,0,1.068.164Zm.486-2.836a5.047,5.047,0,0,0-1.488-3,5.192,5.192,0,0,0-1.022-.78,6.366,6.366,0,0,1,.648,2.407,8.228,8.228,0,0,1-.291,2.666.766.766,0,0,1,.36.207c.089-.035.178-.075.268-.118a3.6,3.6,0,0,0,.328-.187,4.4,4.4,0,0,0,1.2-1.192Zm-3.382,1.911h0a1.451,1.451,0,0,0-.682.973.522.522,0,0,0,.012.153.4.4,0,0,0,.055.124.8.8,0,0,0,.907.1,1.769,1.769,0,0,0,.242-.107h0a1.933,1.933,0,0,0,.239-.15h0c.012-.009,0,0,0,0h0l.006,0c.035-.023.066-.043.095-.066h0a1.65,1.65,0,0,0,.541-.651.543.543,0,0,0,.009-.515s-.006-.009-.012-.014l0-.006h0A.566.566,0,0,0,37.1,24.5a1.944,1.944,0,0,0-.866.351Zm.771,1.1Z" transform="translate(-20.716 -12.918)" fill="#231f20"/></g></g></svg>