<?xml version="1.0" encoding="utf-8"?>
<!-- Generator: Adobe Illustrator 24.1.0, SVG Export Plug-In . SVG Version: 6.00 Build 0)  -->
<svg version="1.1" id="Layer_1" xmlns="http://www.w3.org/2000/svg" xmlns:xlink="http://www.w3.org/1999/xlink" x="0px" y="0px"
	 viewBox="0 0 75.4 92" style="enable-background:new 0 0 75.4 92;" xml:space="preserve">
<style type="text/css">
	.st0{fill:#27BDBE;}
	.st1{enable-background:new    ;}
</style>
<g transform="translate(0 0)">
	<g transform="translate(0 0)">
		<path class="st0" d="M72.4,11.5c-0.4-0.7-1.3-1-2-0.6s-1,1.3-0.6,2c4.4,7.7,3.1,17.4-3.2,23.7l-1.1,1.1c-0.3-0.7-0.7-1.4-1.3-1.9
			l-15-15.1c1-0.5,1.9-1.1,2.7-1.9l2.9-2.9c0.6-0.6,0.6-1.5,0-2.1s-1.5-0.6-2.1,0l0,0l-2.9,2.9c-1.3,1.4-3.2,2.1-5.1,2.1h-5.8
			c-0.4,0-0.8,0.2-1,0.4l-4.4,4.4c-1.3,1.3-3.5,1.3-4.8,0s-1.3-3.5,0-4.8l0,0L38.8,8.7C45,2.5,54.6,1.2,62.3,5.4
			c0.7,0.4,1.6,0.2,2-0.5c0.4-0.7,0.2-1.6-0.5-2h-0.1c-4.3-2.3-9.2-3.3-14-2.6c-4.5,0.6-8.6,2.5-12,5.5C28.3-2.6,14-1.8,5.7,7.6
			c-8,9-7.6,22.6,1,31.1l0.6,0.6c0.1,0.1,0.2,0.2,0.3,0.2c0.2,2.9,2.6,5.1,5.5,5.1c0.1,0,0.1,0,0.2,0c0,0.1,0,0.1,0,0.2
			c0,3.1,2.5,5.5,5.5,5.5l0,0c0.1,0,0.1,0,0.2,0c0,0.1,0,0.1,0,0.2c0,3.1,2.5,5.5,5.5,5.5l0,0c0.1,0,0.1,0,0.2,0
			c-0.1,3.1,2.3,5.6,5.3,5.8c1.5,0.1,3.1-0.5,4.2-1.6l2.1-2.1l2.8,2.8c2.2,2.2,5.7,2.2,7.8,0c1.1-1.1,1.7-2.6,1.6-4.2
			c0.1,0,0.2,0,0.3,0c3.1,0,5.5-2.5,5.5-5.5c0-0.1,0-0.2,0-0.2c0.1,0,0.1,0,0.2,0c3.1,0,5.5-2.5,5.5-5.5c0-0.1,0-0.2,0-0.2
			c0.1,0,0.1,0,0.2,0c2.2,0,4.3-1.4,5.1-3.4c0.1-0.1,0.3-0.2,0.4-0.3l2.9-2.9C76,31.5,77.5,20.4,72.4,11.5z M13,41.7
			c-1.4,0-2.6-1.2-2.6-2.6c0-0.7,0.3-1.4,0.8-1.9l2.5-2.5c1-1,2.7-1,3.7,0s1,2.7,0,3.7l0,0l-2.5,2.5C14.4,41.4,13.7,41.7,13,41.7z
			 M17,46.7c-1-1-1-2.7,0-3.7l0,0l2.5-2.5l0,0c1-1,2.7-1,3.7,0s1,2.7,0,3.7l-2.5,2.5C19.6,47.7,18,47.7,17,46.7L17,46.7z M22.7,52.4
			c-1-1-1-2.7,0-3.7l0,0l2.5-2.5l0,0c1-1,2.7-1,3.7,0s1,2.7,0,3.7l-2.5,2.5C25.4,53.5,23.7,53.5,22.7,52.4L22.7,52.4z M34.7,55.7
			l-2.5,2.5c-1,1-2.7,1-3.7,0s-1-2.7,0-3.7L31,52l0,0c1-1,2.7-1,3.7,0S35.7,54.7,34.7,55.7L34.7,55.7L34.7,55.7z M62.2,41.6
			c-1,1-2.7,1-3.7,0l0,0l-6.1-6.1l0,0l-5.8-5.8c-0.6-0.6-1.5-0.5-2.1,0.1c-0.5,0.6-0.5,1.5,0,2l11.9,11.9c1,1,1,2.7,0,3.7
			s-2.7,1-3.7,0L40.9,35.5c-0.6-0.6-1.5-0.6-2.1,0s-0.6,1.5,0,2.1l5.8,5.8l0,0l6.1,6.1c1,1,1,2.7,0,3.7s-2.7,1-3.7,0l0,0L40.9,47
			c-0.1-0.1-0.2-0.2-0.4-0.3L38.7,45c-0.6-0.6-1.5-0.5-2.1,0.1c-0.5,0.6-0.5,1.5,0,2l8.2,8.2c1,1,1,2.7,0,3.7s-2.7,1-3.7,0L38,55.9
			c1.1-2.9-0.3-6.1-3.2-7.2c-0.6-0.2-1.3-0.4-2-0.4c-0.1,0-0.1,0-0.2,0c0.1-3.1-2.3-5.6-5.3-5.8c-0.1,0-0.2,0-0.2,0
			c-0.1,0-0.1,0-0.2,0c0.1-3.1-2.3-5.6-5.3-5.8c-0.1,0-0.2,0-0.2,0c-0.1,0-0.1,0-0.2,0c0.1-3.1-2.3-5.6-5.3-5.8
			c-1.5-0.1-3.1,0.5-4.1,1.6L9.3,35c-0.3,0.3-0.6,0.7-0.8,1C0.8,28.3,1.2,15.8,9.1,8.3c7.4-6.9,18.8-7.2,26.4-0.6l-9,9
			c-2.4,2.5-2.3,6.5,0.2,8.9c2.4,2.4,6.3,2.4,8.8,0l4-4h5.2c0.4,0,0.8,0,1.3-0.1l16.3,16.2C63.2,38.9,63.2,40.6,62.2,41.6z"/>
	</g>
</g>
<g class="st1">
	<path class="st0" d="M17.5,79.3L15,88h-2.9l-2.6-8.7h2.4l1.6,6.1l1.6-6.1H17.5z"/>
	<path class="st0" d="M23.7,87.2h-2.8L20.7,88h-2.4l2.6-8.7h2.9l2.5,8.7h-2.4L23.7,87.2z M23.2,85.2l-0.9-3.4l-0.9,3.4H23.2z"/>
	<path class="st0" d="M32.4,85.8V88h-4.9v-8.7h2.3v6.6L32.4,85.8L32.4,85.8z"/>
	<path class="st0" d="M41.5,83.5c0,2.8-1.6,4.6-4.1,4.6s-4.1-1.7-4.1-4.4c0-2.8,1.6-4.6,4.2-4.6C39.9,79.2,41.5,80.9,41.5,83.5z
		 M39.2,83.6c0-1.4-0.7-2.3-1.7-2.3c-1.1,0-1.8,0.9-1.8,2.3s0.7,2.2,1.8,2.2C38.5,85.9,39.2,85.1,39.2,83.6z"/>
	<path class="st0" d="M48,88l-1.6-2.5h-0.7h-0.3V88h-2.3v-8.7h2.6c1.8,0,4.6,0,4.6,3.1c0,1.6-0.8,2.4-1.7,2.8l2,2.8
		C50.6,88,48,88,48,88z M46.4,83.5c0.9,0,1.6,0,1.6-1.1c0-1-0.8-1-1.6-1h-1v2.1H46.4z"/>
	<path class="st0" d="M54.1,81.5v1.2h3v2h-3v1.2H58V88h-6.2v-8.7H58v2.2H54.1z"/>
	<path class="st0" d="M59.4,87.1l1-1.9c0.7,0.5,1.6,0.8,2.3,0.8c0.6,0,0.9-0.2,0.9-0.5c0-1-3.9-1.1-3.9-3.8c0-1.5,1.2-2.5,3.1-2.5
		c1.3,0,2.2,0.4,3,1l-1,1.8c-0.6-0.4-1.3-0.7-2.1-0.7c-0.5,0-0.8,0.2-0.8,0.4c0,1,3.9,0.8,3.9,3.8c0,1.6-1.2,2.6-3.2,2.6
		C61.4,88.1,60.3,87.8,59.4,87.1z"/>
</g>
</svg>
