<?xml version="1.0" encoding="utf-8"?>
<!-- Generator: Adobe Illustrator 24.1.0, SVG Export Plug-In . SVG Version: 6.00 Build 0)  -->
<svg version="1.1" id="Layer_1" xmlns="http://www.w3.org/2000/svg" xmlns:xlink="http://www.w3.org/1999/xlink" x="0px" y="0px"
	 viewBox="0 0 75.3 74.7" style="enable-background:new 0 0 75.3 74.7;" xml:space="preserve">
<style type="text/css">
	.st0{fill:#5A00D2;}
	.st1{enable-background:new    ;}
</style>
<g transform="translate(0 0)">
	<g transform="translate(0 0)">
		<path class="st0" d="M74.1,17.8c-4.3-5.4-9.7-9.9-15.8-13C52,1.7,45.2,0.1,38.2,0c-0.2,0-1,0-1.2,0c-7,0.1-13.8,1.7-20,4.8
			s-11.6,7.5-15.8,13c-1.6,2.1-1.6,5,0,7.1c4.3,5.4,9.7,9.9,15.8,13c6.2,3.1,13.1,4.8,20,4.8c0.2,0,1,0,1.2,0c7-0.1,13.8-1.7,20-4.8
			s11.6-7.5,15.8-13C75.7,22.8,75.7,19.9,74.1,17.8z M18.4,35.1c-5.8-2.9-10.8-7-14.8-12.1c-0.8-1-0.8-2.3,0-3.3
			c5.1-6.6,12-11.5,19.8-14.2c-8.8,7.9-9.5,21.3-1.7,30.1c0.5,0.6,1.1,1.1,1.7,1.7C21.7,36.6,20,35.9,18.4,35.1z M37.6,39.6
			c-10.1,0-18.3-8.2-18.3-18.3S27.5,3,37.6,3s18.3,8.2,18.3,18.3C55.9,31.4,47.7,39.6,37.6,39.6L37.6,39.6z M71.6,23
			c-5.1,6.5-11.9,11.5-19.7,14.2c8.8-7.9,9.5-21.3,1.6-30.1c-0.5-0.6-1-1.1-1.6-1.6c7.8,2.7,14.7,7.7,19.8,14.2
			C72.4,20.6,72.4,22,71.6,23L71.6,23z"/>
	</g>
	<g transform="translate(29.818 13.513)">
		<g transform="translate(0 0)">
			<path class="st0" d="M7.8,0C3.5,0,0,3.5,0,7.8s3.5,7.8,7.8,7.8s7.8-3.5,7.8-7.8l0,0C15.6,3.5,12.1,0,7.8,0z M7.8,12.6
				C5.2,12.6,3,10.5,3,7.8S5.1,3,7.8,3c2.6,0,4.8,2.1,4.8,4.8C12.6,10.4,10.4,12.6,7.8,12.6L7.8,12.6z"/>
		</g>
	</g>
</g>
<g class="st1">
	<path class="st0" d="M25.2,59.8l-2.9,10H19l-2.9-10h2.7l1.9,7l1.8-7C22.5,59.8,25.2,59.8,25.2,59.8z"/>
	<path class="st0" d="M29.2,59.8v10h-2.6v-10C26.6,59.8,29.2,59.8,29.2,59.8z"/>
	<path class="st0" d="M30.7,68.7l1.1-2.2c0.8,0.6,1.8,0.9,2.6,0.9c0.7,0,1.1-0.2,1.1-0.5c0-1.1-4.5-1.2-4.5-4.4
		c0-1.7,1.4-2.9,3.6-2.9c1.4,0,2.5,0.4,3.5,1.1L37,62.8c-0.7-0.4-1.5-0.8-2.4-0.8c-0.6,0-0.9,0.2-0.9,0.5c0,1.2,4.5,1,4.5,4.3
		c0,1.9-1.4,3-3.6,3C33,69.9,31.7,69.5,30.7,68.7z"/>
	<path class="st0" d="M45.5,68.8h-3.2l-0.2,0.9h-2.7l2.9-10h3.3l2.9,10h-2.7L45.5,68.8z M42.2,58.9L41,58.4c0.2-1.2,1-1.9,1.9-1.9
		c1,0,1.6,0.7,2.2,0.7c0.3,0,0.6-0.2,0.7-0.7L47,57c-0.2,1.2-1,1.9-1.8,1.9c-0.9,0-1.7-0.7-2.2-0.7C42.7,58.2,42.4,58.4,42.2,58.9z
		 M45,66.5l-1-3.8l-1,3.8H45z"/>
	<path class="st0" d="M59.2,64.6c0,3.2-1.9,5.3-4.7,5.3s-4.7-2-4.7-5c0-3.2,1.9-5.2,4.8-5.2C57.5,59.6,59.2,61.6,59.2,64.6z
		 M56.5,64.7c0-1.6-0.8-2.6-2-2.6c-1.3,0-2.1,1-2.1,2.6c0,1.6,0.8,2.6,2.1,2.6C55.8,67.3,56.5,66.3,56.5,64.7z"/>
</g>
</svg>
