<svg xmlns="http://www.w3.org/2000/svg" width="727.672" height="602.272"><defs><style>.a,.b{fill:none;stroke-width:3px}.a{stroke:#27bdbe}.b{stroke:#ff4e00}.c{fill:#27bdbe}</style></defs><path stroke-width="3.00084px" d="m470.12 339.998 40.281-57.584-70.021-6.147-40.319 57.57Z" class="a"/><path stroke-width="3.00084px" d="m473.963 348.235-72.483-6.366 28.01 59.885 72.403 6.358 41.68-59.573-27.93-59.877Z" class="a"/><path stroke-width="2.99961px" d="m393.607 103.407-4.393 84.553 75.475-38.427 4.438-84.563Z" class="b"/><path stroke-width="2.99961px" d="m384.425 97.443 78.124-39.774-66.855-43.307-78.04 39.732-4.553 87.483 66.772 43.35Z" class="b"/><path d="m256.376 429.027 60.114 16.086-16.082-60.135-60.118-16.12Z" class="b"/><path d="m250.68 434.719-16.643-62.248-41.357 41.442 16.631 62.18 62.2 16.648 41.369-41.37ZM640.786 429.927l-10.827-61.28-47.704 39.99 10.797 61.297Z" class="b"/><path d="m648.352 432.684-49.382 41.39 55.037 19.968 49.326-41.35-11.199-63.409-54.977-20.01ZM618.878 98.707 568.324 48.19l-18.531 69.043 50.533 50.551Z" class="b"/><path d="m627.805 96.316-19.186 71.467 64.927-17.468 19.163-71.392-52.297-52.27-64.907 17.395Z" class="b"/><path d="m120.977 586.545-9.395-104.14c-.467-4.713-2.593-8.37-5.875-9.9-3.42-1.595-7.587-.873-11.361 1.863l-85.542 59.87c-3.91 2.672-5.97 6.374-5.532 10.077.302 3.638 2.957 6.875 7.334 8.916l94.663 44.142c4.24 1.977 8.426 1.931 11.544-.113 2.98-2.107 4.494-6.065 4.164-10.715m-8.022 5.417c-1.195.776-2.954.62-5.143-.4L13.149 547.42c-2.189-1.02-3.51-2.47-3.612-3.682-.174-1.413.865-2.928 2.853-4.332l85.54-59.869c1.988-1.404 3.866-1.862 5.097-1.288s2.088 2.307 2.29 4.732l9.12 104.012c.203 2.426-.288 4.195-1.483 4.971Z" class="c"/><path d="M93.141 499.454a3.1 3.1 0 0 0-4.213 1.533L71.194 539.02a3.17 3.17 0 1 0 5.745 2.679l17.734-38.033a3.1 3.1 0 0 0-1.532-4.212" class="c"/><circle cx="5.585" cy="5.585" r="5.585" class="c" transform="rotate(25 -1202.016 419.5)"/></svg>