<svg xmlns="http://www.w3.org/2000/svg" width="849.773" height="644.315"><defs><style>.a,.b{fill:none;stroke-width:3px}.a{stroke:#ff4e00}.b{stroke:#27bdbe}</style></defs><path stroke-width="3.00084px" d="m749.221 158.884 40.281-57.584-70.021-6.147-40.319 57.57Z" class="a"/><path stroke-width="3.00084px" d="m753.064 167.121-72.483-6.366 28.01 59.885 72.403 6.358 41.68-59.573-27.93-59.877Z" class="a"/><path d="m762.887 393.813-10.827-61.28-47.704 39.99 10.797 61.297Z" class="b"/><path d="m770.453 396.57-49.382 41.39 55.037 19.968 49.326-41.35-11.199-63.409-54.977-20.01ZM157.36 549.594l36.195-65.351-74.713 1.273-36.235 65.34Z" class="b"/><path d="m162.336 557.876-77.338 1.314 36.26 60.205 77.253-1.314 37.454-67.608-36.175-60.205Z" class="b"/><path stroke-width="2.99961px" d="M51.265 50.529 49.16 91.048l36.167-18.414 2.126-40.524Z" class="a"/><path stroke-width="2.99961px" d="M46.863 47.671 84.3 28.613 52.264 7.86 14.868 26.898 12.686 68.82l31.996 20.772Z" class="a"/><path d="m444.663 513.913 60.114 16.086-16.082-60.135-60.118-16.12Z" class="a"/><path d="m438.967 519.605-16.643-62.248-41.357 41.442 16.631 62.18 62.2 16.648 41.369-41.37Z" class="a"/></svg>