<svg xmlns="http://www.w3.org/2000/svg" width="125.899" height="121.936"><defs><style>.a{fill:#ff4e00}</style></defs><path d="M118.45 63.877 50.2 24.72c-3.107-1.748-6.278-2.015-8.639-.652-2.46 1.42-3.813 4.3-3.755 7.808l-.015 78.57c-.04 3.564 1.352 6.432 3.824 7.76 2.373 1.383 5.511 1.145 8.66-.673l68.065-39.297c3.05-1.76 4.828-4.361 4.913-7.165-.012-2.747-1.795-5.39-4.803-7.194m-.123 7.284c-.037 1.072-.892 2.09-2.466 2.998l-68.068 39.3c-1.574.908-3.038 1.097-3.83.636-.946-.503-1.43-1.797-1.439-3.628l.017-78.571c-.008-1.832.52-3.187 1.406-3.699s2.324-.291 3.906.632l68.053 39.27c1.58.925 2.459 1.991 2.421 3.062" class="a"/><path d="M52.752 43.445a2.33 2.33 0 0 0-.873 3.258l15.788 27.346a2.385 2.385 0 1 0 4.13-2.385L56.01 44.318a2.33 2.33 0 0 0-3.258-.873" class="a"/><circle cx="4.203" cy="4.203" r="4.203" class="a" transform="rotate(-30 187.33 -89.71)"/></svg>