<svg xmlns="http://www.w3.org/2000/svg" width="701.251" height="652.428"><defs><style>.a,.b{fill:none;stroke-width:3px}.a{stroke:#27bdbe}.b{stroke:#ff4e00}</style></defs><path stroke-width="3.00084px" d="m443.7 311.998 40.281-57.584-70.021-6.147-40.319 57.57Z" class="a"/><path stroke-width="3.00084px" d="m447.543 320.235-72.483-6.366 28.01 59.885 72.403 6.358 41.68-59.573-27.93-59.877Z" class="a"/><path d="m87.592 557.708 36.195-65.351-74.713 1.273-36.235 65.34Z" class="a"/><path d="m92.568 565.99-77.338 1.314 36.26 60.205 77.253-1.314 37.454-67.608-36.175-60.205Z" class="a"/><path stroke-width="2.99961px" d="m281.101 115.407-4.393 84.553 75.475-38.427 4.438-84.563Z" class="b"/><path stroke-width="2.99961px" d="m271.919 109.443 78.124-39.774-66.855-43.307-78.04 39.732-4.553 87.483 66.772 43.35Z" class="b"/><path d="m254.517 409.027 60.114 16.086-16.082-60.135-60.118-16.12Z" class="b"/><path d="m248.821 414.719-16.643-62.248-41.357 41.442 16.631 62.18 62.2 16.648 41.369-41.37ZM614.366 429.927l-10.827-61.28-47.704 39.99 10.797 61.297Z" class="b"/><path d="m621.932 432.684-49.382 41.39 55.037 19.968 49.326-41.35-11.199-63.409-54.977-20.01ZM592.458 98.707 541.904 48.19l-18.531 69.043 50.533 50.551Z" class="b"/><path d="M601.385 96.316 582.2 167.783l64.927-17.468 19.163-71.392-52.297-52.27-64.907 17.395Z" class="b"/></svg>