<svg xmlns="http://www.w3.org/2000/svg" width="163.68" height="156.72"><path fill="#ff4e00" d="m120.977 140.993-9.395-104.14c-.467-4.713-2.593-8.37-5.875-9.9-3.42-1.595-7.587-.873-11.361 1.863L8.804 88.686c-3.91 2.672-5.97 6.374-5.532 10.077.302 3.638 2.957 6.875 7.334 8.916l94.663 44.142c4.24 1.977 8.426 1.931 11.544-.113 2.98-2.107 4.494-6.065 4.164-10.715m-8.022 5.417c-1.195.776-2.954.62-5.143-.4l-94.663-44.142c-2.189-1.02-3.51-2.47-3.612-3.682-.174-1.413.865-2.928 2.853-4.332l85.54-59.869c1.988-1.404 3.866-1.862 5.097-1.288s2.088 2.307 2.29 4.732l9.12 104.012c.203 2.426-.288 4.195-1.483 4.971Z"/><path fill="#ff4e00" d="M93.141 53.902a3.1 3.1 0 0 0-4.213 1.533L71.194 93.468a3.17 3.17 0 1 0 5.745 2.679l17.734-38.033a3.1 3.1 0 0 0-1.532-4.212"/><circle cx="5.585" cy="5.585" r="5.585" fill="#ff4e00" transform="rotate(25 -197.139 196.724)"/></svg>