<svg xmlns="http://www.w3.org/2000/svg" xml:space="preserve" id="Layer_1" x="0" y="0" version="1.1" viewBox="0 0 822.2 514"><style>.st0{fill:#ff4e00}</style><path d="M74.8 168.928c0 4.3 3.7 8.3 11 12 7.6 3.7 16.1 5.6 24.6 5.5 16.6.5 32.6-6 44.1-18.1q1.05-1.2 2.4-2.1c.7-.3 1.4-.5 2.1-.4h3.4c1.1-.1 2.2.4 2.7 1.4.6 1.6.8 3.4.7 5.1.1 11.5-3.2 22.7-9.5 32.3-6.7 10.2-15.9 18.4-26.8 23.9-12 6.1-25.3 9.2-38.8 9-14.3.2-28.4-3-41.2-9.3-12-6-22.1-15.2-29.2-26.6-7.3-11.8-11.1-25.4-10.9-39.3-.2-13.6 3.3-27 10.2-38.7 6.9-11.5 17-20.7 29-26.7 13.6-6.8 28.7-10.1 43.9-9.7 11.6-.2 23.2 1.8 34 5.9 9.3 3.4 17.6 9.3 23.9 16.9 5.8 7.2 8.9 16.2 8.8 25.4.3 11.6-4.6 22.7-13.3 30.4-9.3 8.2-21.3 12.5-33.6 12-12.5.5-24.5-4.5-33-13.6-1.1 0-2.2.5-3 1.3-1 1-1.5 2.2-1.5 3.4M107 .028c7.5-.3 14.8 2.5 20.2 7.6 5.3 5.3 8.1 12.6 7.8 20.1 0 8.5-2.6 16.9-7.5 23.9-5.3 7.7-12.4 14-20.8 18.2-9.1 4.8-19.2 7.2-29.4 7.1-8.3.3-16.5-1.8-23.7-5.9-2.1-1.1-3.1-2.3-3.1-3.4 0-.8.3-1.6.8-2.3l1.7-2.8c.4-.7 1.2-1.1 2-1.1.9.1 1.8.4 2.5.8l1.1.6c2.7 1.6 5.9 2.5 9 2.5 3.1.1 6.1-1.3 7.9-3.8 2.1-3.1 3-6.9 2.8-10.6 0-2.3-.1-4.6-.4-6.9-.3-2.2-.6-4.4-1-6.6-.4-2.6-.6-5.3-.6-7.9-.2-8 2.9-15.7 8.6-21.3 6.2-5.7 14-8.6 22.1-8.2m-23.7 149.4c1 1.5 2.7 2.3 4.5 2.3q5.1 0 5.1-5.7v-40.1c0-3.8-1.7-5.6-5.1-5.7-1.8 0-3.5.8-4.5 2.3zM238.9 168.928c0 4.3 3.7 8.3 11 12 7.6 3.7 16.1 5.6 24.6 5.5 16.6.5 32.6-6 44.1-18.1q1.05-1.2 2.4-2.1c.7-.3 1.4-.5 2.1-.4h3.4c1.1-.1 2.2.4 2.7 1.4.6 1.6.8 3.4.7 5.1.1 11.5-3.2 22.7-9.5 32.3-6.7 10.2-15.9 18.4-26.8 23.9-12 6.1-25.3 9.2-38.8 9-14.3.2-28.4-3-41.2-9.3-12-6-22.1-15.2-29.2-26.6-7.3-11.8-11.1-25.4-10.9-39.3-.2-13.6 3.3-27 10.2-38.7 6.9-11.4 17-20.7 29-26.7 13.6-6.8 28.7-10.1 43.9-9.7 11.6-.2 23.2 1.8 34 5.9 9.3 3.4 17.6 9.3 23.9 16.9 5.8 7.2 8.9 16.2 8.8 25.4.3 11.6-4.6 22.7-13.3 30.4-9.3 8.2-21.3 12.4-33.6 12-12.5.5-24.5-4.5-33-13.6-1.1 0-2.2.5-3 1.3-1 1-1.5 2.2-1.5 3.4M271.1.028c7.5-.3 14.8 2.5 20.2 7.6 5.3 5.3 8.1 12.6 7.8 20.1 0 8.5-2.6 16.9-7.5 23.9-5.3 7.7-12.4 14-20.8 18.2-9.1 4.8-19.2 7.2-29.4 7.1-8.3.3-16.5-1.8-23.7-5.9-2.1-1.1-3.1-2.3-3.1-3.4 0-.8.3-1.6.8-2.3l1.7-2.8c.4-.7 1.2-1.1 2-1.1.9.1 1.8.4 2.5.8l1.1.6c2.7 1.6 5.9 2.5 9 2.5 3.1.1 6.1-1.3 7.9-3.8 2.1-3.1 3-6.9 2.8-10.6 0-2.3-.1-4.6-.4-6.9-.3-2.2-.6-4.4-1-6.6-.4-2.6-.6-5.3-.6-7.9-.2-8 2.9-15.7 8.6-21.3 6.1-5.7 14-8.6 22.1-8.2m-23.7 149.4c1 1.5 2.7 2.3 4.5 2.3q5.1 0 5.1-5.7v-40.1c0-3.8-1.7-5.6-5.1-5.7-1.8 0-3.5.8-4.5 2.3zM403 168.928c0 4.3 3.7 8.3 11 12 7.6 3.7 16.1 5.6 24.6 5.5 16.6.5 32.6-6 44.1-18.1q1.05-1.2 2.4-2.1c.7-.3 1.4-.5 2.1-.4h3.4c1.1-.1 2.2.4 2.7 1.4.6 1.6.8 3.4.7 5.1.1 11.5-3.2 22.7-9.5 32.3-6.7 10.2-15.9 18.4-26.8 23.9-12 6.1-25.4 9.2-38.8 9-14.3.2-28.4-3-41.2-9.3-12-6-22.1-15.2-29.2-26.6-7.3-11.8-11.1-25.4-10.9-39.3-.2-13.6 3.3-27 10.2-38.7 6.9-11.4 17-20.7 29-26.7 13.6-6.8 28.7-10.1 43.9-9.7 11.6-.2 23.2 1.8 34 5.9 9.3 3.4 17.6 9.3 23.9 16.9 5.8 7.2 8.9 16.2 8.8 25.4.3 11.6-4.6 22.7-13.3 30.4-9.3 8.2-21.3 12.5-33.6 12-12.5.5-24.5-4.5-33-13.6-1.1 0-2.2.5-3 1.3-1.1 1-1.5 2.2-1.5 3.4M435.2.028c7.5-.3 14.8 2.5 20.2 7.6 5.3 5.3 8.1 12.6 7.8 20.1 0 8.5-2.6 16.9-7.5 23.9-5.3 7.7-12.4 14-20.8 18.2-9.1 4.8-19.2 7.2-29.4 7.1-8.3.3-16.5-1.8-23.7-5.9-2.1-1.1-3.1-2.3-3.1-3.4 0-.8.3-1.6.8-2.3l1.7-2.8c.4-.7 1.2-1.1 2-1.1.9.1 1.8.4 2.5.8l1.1.6c2.7 1.6 5.9 2.5 9 2.5 3.1.1 6.1-1.3 7.9-3.8 2.1-3.1 3-6.9 2.8-10.6 0-2.3-.1-4.6-.4-6.9-.3-2.2-.6-4.4-1-6.6-.4-2.6-.6-5.3-.6-7.9-.2-8 2.9-15.7 8.6-21.3 6.1-5.7 14-8.6 22.1-8.2m-23.7 149.4c1 1.5 2.7 2.3 4.5 2.3q5.1 0 5.1-5.7v-40.1c0-3.8-1.7-5.6-5.1-5.7-1.8 0-3.5.8-4.5 2.3zM567.1 168.928c0 4.3 3.7 8.3 11 12 7.6 3.7 16.1 5.6 24.6 5.5 16.6.5 32.6-6 44.1-18.1q1.05-1.2 2.4-2.1c.7-.3 1.4-.5 2.1-.4h3.4c1.1-.1 2.2.4 2.7 1.4.6 1.6.8 3.4.7 5.1.1 11.5-3.2 22.7-9.5 32.3-6.7 10.2-15.9 18.4-26.8 23.9-12 6.1-25.4 9.2-38.8 9-14.3.2-28.4-3-41.2-9.3-12-6-22.1-15.2-29.2-26.6-7.3-11.8-11.1-25.4-10.9-39.3-.2-13.6 3.3-27 10.2-38.7 6.9-11.4 17-20.7 29-26.7 13.6-6.8 28.7-10.1 43.9-9.7 11.6-.2 23.2 1.8 34 5.9 9.3 3.4 17.6 9.3 23.9 16.9 5.8 7.2 8.9 16.2 8.8 25.4.3 11.6-4.6 22.7-13.3 30.4-9.3 8.2-21.3 12.4-33.6 12-12.5.5-24.5-4.5-33-13.6-1.1 0-2.2.5-3 1.3-1.1 1-1.5 2.2-1.5 3.4M599.3.028c7.5-.3 14.8 2.5 20.2 7.6 5.3 5.3 8.1 12.6 7.8 20.1 0 8.5-2.6 16.9-7.5 23.9-5.3 7.7-12.4 14-20.8 18.2-9.1 4.8-19.2 7.2-29.4 7.1-8.3.3-16.5-1.8-23.7-5.9-2.1-1.1-3.1-2.3-3.1-3.4 0-.8.3-1.6.8-2.3l1.7-2.8c.4-.7 1.2-1.1 2-1.1.9.1 1.8.4 2.5.8l1.1.6c2.7 1.6 5.9 2.5 9 2.5 3.1.1 6.1-1.3 7.9-3.8 2.1-3.1 3-6.9 2.8-10.6 0-2.3-.1-4.6-.4-6.9-.3-2.2-.6-4.4-1-6.6-.4-2.6-.6-5.3-.6-7.9-.2-8 2.9-15.7 8.6-21.3 6.1-5.7 14-8.6 22.1-8.2m-23.7 149.4c1 1.5 2.7 2.3 4.5 2.3q5.1 0 5.1-5.7v-40.1c0-3.8-1.7-5.6-5.1-5.7-1.8 0-3.5.8-4.5 2.3zM731.2 168.928c0 4.3 3.7 8.3 11 12 7.6 3.7 16.1 5.6 24.6 5.5 16.6.5 32.6-6 44.1-18.1q1.05-1.2 2.4-2.1c.7-.3 1.4-.5 2.1-.4h3.4c1.1-.1 2.2.4 2.7 1.4.6 1.6.8 3.4.7 5.1.1 11.5-3.2 22.7-9.5 32.3-6.7 10.2-15.9 18.4-26.8 23.9-12 6.1-25.4 9.2-38.8 9-14.3.2-28.4-3-41.2-9.3-12-6-22.1-15.2-29.2-26.6-7.3-11.8-11.1-25.4-10.9-39.3-.2-13.6 3.3-27 10.2-38.7 6.9-11.4 17-20.7 29-26.7 13.6-6.8 28.7-10.1 43.9-9.7 11.6-.2 23.2 1.8 34 5.9 9.3 3.4 17.6 9.3 23.9 16.9 5.8 7.2 8.9 16.2 8.8 25.4.3 11.6-4.6 22.7-13.3 30.4-9.3 8.2-21.3 12.5-33.6 12-12.5.5-24.5-4.5-33-13.6-1.1 0-2.2.5-3 1.3-1.1 1-1.5 2.2-1.5 3.4M763.4.028c7.5-.3 14.8 2.5 20.2 7.6 5.3 5.3 8.1 12.6 7.8 20.1 0 8.5-2.6 16.9-7.5 23.9-5.3 7.7-12.4 14-20.8 18.2-9.1 4.8-19.2 7.2-29.4 7.1-8.3.3-16.5-1.8-23.7-5.9-2.1-1.1-3.1-2.3-3.1-3.4 0-.8.3-1.6.8-2.3l1.7-2.8c.4-.7 1.2-1.1 2-1.1.9.1 1.8.4 2.5.8l1.1.6c2.7 1.6 5.9 2.5 9 2.5 3.1.1 6.1-1.3 7.9-3.8 2.1-3.1 3-6.9 2.8-10.6 0-2.3-.1-4.6-.4-6.9-.3-2.2-.6-4.4-1-6.6-.4-2.6-.6-5.3-.6-7.9-.2-8 2.9-15.7 8.6-21.3 6.1-5.7 14-8.6 22.1-8.2m-23.7 149.4c1 1.5 2.7 2.3 4.5 2.3q5.1 0 5.1-5.7v-40.1c0-3.8-1.7-5.6-5.1-5.7-1.8 0-3.5.8-4.5 2.3zM48 365.628c7.7-.4 15.4 1.3 22.2 4.9 5.7 3.5 9.8 9 11.4 15.4 4.1-7.5 10.2-13.6 17.7-17.7 7.8-4.1 16.5-6.2 25.3-6.1 13.6 0 23.9 4 31.1 12.1s10.7 19.6 10.7 34.5v91.2c.2 2.5-.5 5-2.1 6.9-2.1 1.6-4.8 2.4-7.5 2.1h-50.9c-2.7.3-5.4-.5-7.5-2.1-1.6-1.9-2.4-4.4-2.1-6.9v-97.2c.1-1.8-.4-3.6-1.4-5.1-.9-1.3-2.4-2-4-2-1.9-.2-3.7.7-4.8 2.3v102c.2 2.5-.5 5-2.1 6.9-2.1 1.6-4.8 2.4-7.5 2.1H25.7c-2.7.3-5.4-.5-7.5-2.1-1.6-1.9-2.4-4.4-2.1-6.9v-99.7c.3-5.2-.7-10.4-2.8-15.1-2.6-4.1-6.2-7.5-10.4-9.7-.9-.4-1.7-1.1-2.4-1.8-.3-.6-.5-1.2-.4-1.8v-3.4c0-1.9 1.1-2.8 3.4-2.8zM304.2 512.528c-19 0-32.6-7.8-40.7-23.4-3.6 7.3-9.1 13.4-16 17.8-7.1 4-15.2 5.9-23.3 5.7-13 0-23.4-3.2-31.3-9.6a30.99 30.99 0 0 1-11.9-25.4c-.4-8.4 3.2-16.5 9.7-21.9s16.5-9 30.1-10.9c34.6-4.5 52-17.6 52-39.3.1-8.4-3.1-16.5-9-22.5-5.5-6.1-13.3-9.5-21.5-9.5-4 0-5.9 1.3-5.9 4 0 1 .3 2 .8 2.8 7.2-.3 14.2 2.3 19.5 7.1 5 4.6 7.8 11.2 7.6 18.1.1 8.5-4 16.5-10.9 21.5-8 5.9-17.9 8.9-27.8 8.5-11.5 0-20.6-2.9-27.4-8.6-6.7-5.6-10.5-14-10.2-22.7 0-12.6 6.1-22.7 18.4-30.4s28.4-11.4 48.6-11.4c24.1 0 42.4 5.8 54.9 17.5s18.8 28.8 18.8 51.4v35.3c-.2 2.2.1 4.4.8 6.5.5 1.1 1.6 1.8 2.8 1.7 1.6.1 3-.8 3.7-2.3 1.1-2.8 1.7-5.8 2-8.8.1-2 .5-3.9 1.1-5.8.5-.7 1.4-1.1 2.3-1h4.8c1.2 0 2.2.8 2.4 2 .6 2.1.8 4.3.7 6.5 0 15.1-3.9 26.7-11.7 34.9-7.8 8.1-19 12.2-33.4 12.2m14.9-191.2c.1 8.7-3.4 17.1-9.7 23-6.4 6.3-15.2 9.7-24.2 9.5-5.2 0-10.3-.9-15.1-2.7-5.9-2.3-11.6-5.3-16.8-8.9-10.4-6.8-17-10.9-19.9-12.3-2.4-1.3-5.1-2-7.8-2.1-1.4 0-2.8.4-4 1.3-1.1.7-1.7 2-1.7 3.2 0 3.2 2.5 5.8 7.6 7.9 1.3.5 2.5 1 3.7 1.7.6.4.9 1 .8 1.7 0 .7-.2 1.4-.6 2l-.6 1.4c-.8 1.9-1.7 2.8-2.8 2.8-1.3-.1-2.7-.4-4-.8-7.2-1.8-13.7-5.8-18.6-11.3-4.4-5.1-6.9-11.6-6.8-18.4-.1-8.7 3.4-17.1 9.7-23 6.4-6.3 15.2-9.7 24.2-9.5 4.8 0 9.5.9 14 2.5 6.3 2.4 12.3 5.4 17.9 9 6 3.6 10.7 6.4 14.1 8.5s6.1 3.6 8.1 4.5c1.7.9 3.6 1.4 5.5 1.4 1.4 0 2.8-.4 4-1.3 1.1-.7 1.7-2 1.7-3.2 0-3.4-2.5-6-7.6-7.9-1.3-.5-2.5-1-3.7-1.7-.6-.4-.9-1-.8-1.7 0-.7.2-1.4.6-2l.6-1.4c.8-1.9 1.7-2.8 2.8-2.8 1.3.1 2.7.4 4 .8 7.2 1.8 13.7 5.8 18.6 11.3 4.5 5.2 6.9 11.8 6.8 18.5m-60.4 130.2c-1-1.5-2.7-2.3-4.5-2.3q-4.8 0-4.8 5.7v18.1c0 3.8 1.6 5.6 4.8 5.7 1.8 0 3.5-.8 4.5-2.3zM436.6 512.528c-26.6 0-46.7-6.4-60.6-19.2-13.8-12.8-20.8-31.4-20.8-55.9s6.9-43.1 20.8-55.9q20.7-19.2 60.6-19.2c26.6 0 46.7 6.4 60.6 19.2 13.8 12.8 20.8 31.4 20.8 55.9s-6.9 43.1-20.8 55.9q-20.7 19.2-60.6 19.2m0-13c3.4 0 5.1-2.5 5.1-7.6v-109c0-5.1-1.7-7.6-5.1-7.6s-5.1 2.5-5.1 7.6v109c0 5.1 1.7 7.6 5.1 7.6M567.1 451.228c-1.1.1-2.2-.3-3-1.1q-1.65-2.4-2.7-5.1c-9.4-20-17.8-40.4-25-61.3-5-15.2-7.5-27.6-7.5-37 0-12.8 3.6-22.8 10.7-29.9 7.2-7.2 16.9-10.7 29.4-10.7 12.4 0 22.2 3.6 29.4 10.7 7.2 7.2 10.7 17.1 10.7 29.9 0 9.4-2.5 21.8-7.5 37-7.3 20.9-15.6 41.3-25 61.3q-1.05 2.7-2.7 5.1c-.8.8-1.8 1.2-3 1.1zm2 62.7c-8.4.4-16.6-2.3-23.2-7.6-10.9-9.8-11.7-26.6-1.9-37.5.6-.7 1.3-1.4 2-2 13.7-10.2 32.4-10.2 46 0 11 9.7 11.9 26.5 2.2 37.5-.6.7-1.3 1.4-2 2-6.5 5.3-14.7 8-23.1 7.6" class="st0"/></svg>