<svg xmlns="http://www.w3.org/2000/svg" width="37.787" height="24.837"><path fill="#ff4e00" d="M13.117 18.285a3.276 3.276 0 1 0 3.273 3.279 3.276 3.276 0 0 0-3.273-3.279m0 4.912a1.633 1.633 0 1 1 1.633-1.633 1.636 1.636 0 0 1-1.633 1.633"/><path fill="#ff4e00" d="M5.143 15.871v3.491a1.574 1.574 0 0 0 1.576 1.576h2.114a4.323 4.323 0 0 1 8.557 0h8.553a4.327 4.327 0 0 1 8.563 0h1.691a1.574 1.574 0 0 0 1.576-1.576v-3.491Z"/><path fill="#ff4e00" d="M30.236 18.285a3.276 3.276 0 1 0 3.273 3.279 3.28 3.28 0 0 0-3.273-3.279m0 4.912a1.633 1.633 0 1 1 1.633-1.633 1.636 1.636 0 0 1-1.633 1.633M5.457 0a5.457 5.457 0 1 0 5.463 5.457A5.457 5.457 0 0 0 5.457 0m0 9.677a4.214 4.214 0 1 1 4.214-4.214 4.213 4.213 0 0 1-4.214 4.214m1.608-3.324a.5.5 0 0 1-.141-.019L5.163 5.86a.54.54 0 0 1-.4-.525V2.626a.545.545 0 0 1 1.089 0v2.293l1.358.365a.546.546 0 0 1 .384.666.54.54 0 0 1-.53.403Z"/><path fill="#ff4e00" d="m37.166 12.348-6.2-6.136a2.1 2.1 0 0 0-1.479-.608h-3.132V4.432a1.574 1.574 0 0 0-1.576-1.576H10.831a5.975 5.975 0 0 1-5.38 8.576c-.1 0-.211 0-.314-.006v3.567h32.651V13.84a2.12 2.12 0 0 0-.622-1.492m-2.7.2h-6a.25.25 0 0 1-.25-.25V7.667a.25.25 0 0 1 .25-.25h1.14a.25.25 0 0 1 .173.07l4.855 4.631a.248.248 0 0 1-.17.438Z"/></svg>