<svg xmlns="http://www.w3.org/2000/svg" width="32.674" height="21.998"><path fill="#ff4e00" d="M7.98 15.445a3.277 3.277 0 1 0 3.274 3.279 3.275 3.275 0 0 0-3.274-3.279m0 4.917a1.637 1.637 0 1 1 1.637-1.637 1.64 1.64 0 0 1-1.637 1.636Zm24.694-7.339v3.5a1.58 1.58 0 0 1-1.579 1.579h-1.69a4.333 4.333 0 0 0-8.575 0h-8.564a4.33 4.33 0 0 0-8.57 0H1.58a1.58 1.58 0 0 1-1.579-1.579v-3.5Zm-7.555 2.422a3.277 3.277 0 1 0 3.274 3.279 3.28 3.28 0 0 0-3.274-3.279m0 4.917a1.637 1.637 0 1 1 1.637-1.637 1.64 1.64 0 0 1-1.637 1.636Zm6.933-10.86-6.208-6.138a2.1 2.1 0 0 0-1.479-.611h-3.13V1.579A1.577 1.577 0 0 0 19.656 0H1.579A1.58 1.58 0 0 0 0 1.579v10.57h32.673v-1.153a2.12 2.12 0 0 0-.621-1.495Zm-2.706.205h-6.002a.247.247 0 0 1-.247-.247V4.822a.247.247 0 0 1 .247-.247h1.142a.27.27 0 0 1 .174.068l4.859 4.638a.247.247 0 0 1-.175.426Z"/></svg>