<svg xmlns="http://www.w3.org/2000/svg" width="391.968" height="196.025"><defs><style>.a{fill:#ff4e00}</style></defs><path d="M26.268 67.713q0 2.608 4.417 4.811a21.7 21.7 0 0 0 9.852 2.206q10.753 0 17.663-7.247a6.6 6.6 0 0 1 .963-.849 1.67 1.67 0 0 1 .849-.17h1.358a1.09 1.09 0 0 1 1.073.564 5.1 5.1 0 0 1 .284 2.036 23.65 23.65 0 0 1-3.793 12.966 27.44 27.44 0 0 1-10.756 9.568 33.26 33.26 0 0 1-15.572 3.623 36 36 0 0 1-16.53-3.738A29.23 29.23 0 0 1 4.357 80.84 28.85 28.85 0 0 1 0 65.098a29.53 29.53 0 0 1 4.078-15.512 28.46 28.46 0 0 1 11.609-10.7 37.7 37.7 0 0 1 17.608-3.908 37.2 37.2 0 0 1 13.645 2.376 22.3 22.3 0 0 1 9.568 6.793 15.92 15.92 0 0 1 3.509 10.192 15.7 15.7 0 0 1-5.321 12.173 19.32 19.32 0 0 1-13.476 4.811 17.32 17.32 0 0 1-13.246-5.435 1.63 1.63 0 0 0-1.188.509 1.8 1.8 0 0 0-.518 1.316M39.179 0a11.06 11.06 0 0 1 8.1 3.059 10.76 10.76 0 0 1 3.114 8.04 16.86 16.86 0 0 1-3 9.568 22.46 22.46 0 0 1-8.325 7.3 24.65 24.65 0 0 1-11.779 2.83 17.8 17.8 0 0 1-9.513-2.376q-1.246-.682-1.248-1.358a1.5 1.5 0 0 1 .339-.9l.679-1.133a.98.98 0 0 1 .793-.454 2.65 2.65 0 0 1 1.018.339l.454.225a7.34 7.34 0 0 0 3.623 1.018 3.72 3.72 0 0 0 3.169-1.527 7.03 7.03 0 0 0 1.133-4.247 21 21 0 0 0-.17-2.775 95 95 0 0 0-.394-2.66 19.5 19.5 0 0 1-.225-3.169A11.7 11.7 0 0 1 30.4 3.23 12.1 12.1 0 0 1 39.179 0m-9.513 59.9a2.15 2.15 0 0 0 1.812.9c1.358 0 2.036-.752 2.036-2.266V42.459q0-2.264-2.036-2.266a2.15 2.15 0 0 0-1.812.908ZM92.059 67.713q0 2.608 4.417 4.811a21.7 21.7 0 0 0 9.852 2.206q10.753 0 17.663-7.247a6.6 6.6 0 0 1 .963-.849 1.67 1.67 0 0 1 .848-.17h1.358a1.085 1.085 0 0 1 1.073.564 5.1 5.1 0 0 1 .284 2.036 23.65 23.65 0 0 1-3.793 12.967 27.44 27.44 0 0 1-10.756 9.568 33.26 33.26 0 0 1-15.572 3.623 36 36 0 0 1-16.53-3.738 29.23 29.23 0 0 1-11.719-10.646 28.85 28.85 0 0 1-4.357-15.741 29.54 29.54 0 0 1 4.078-15.512 28.46 28.46 0 0 1 11.609-10.7 37.7 37.7 0 0 1 17.608-3.908 37.2 37.2 0 0 1 13.645 2.376 22.3 22.3 0 0 1 9.568 6.793 15.92 15.92 0 0 1 3.509 10.192 15.7 15.7 0 0 1-5.32 12.173 19.32 19.32 0 0 1-13.476 4.811 17.32 17.32 0 0 1-13.246-5.435 1.63 1.63 0 0 0-1.188.509 1.8 1.8 0 0 0-.518 1.317M104.966 0a11.06 11.06 0 0 1 8.1 3.059 10.76 10.76 0 0 1 3.114 8.04 16.86 16.86 0 0 1-3 9.568 22.46 22.46 0 0 1-8.325 7.3 24.65 24.65 0 0 1-11.779 2.83 17.8 17.8 0 0 1-9.513-2.376q-1.247-.682-1.248-1.358a1.5 1.5 0 0 1 .339-.9l.679-1.133a.98.98 0 0 1 .794-.454 2.65 2.65 0 0 1 1.018.339l.454.225a7.34 7.34 0 0 0 3.623 1.018 3.72 3.72 0 0 0 3.169-1.527 7.03 7.03 0 0 0 1.133-4.247 21 21 0 0 0-.17-2.775 95 95 0 0 0-.394-2.66 19.5 19.5 0 0 1-.225-3.169 11.7 11.7 0 0 1 3.454-8.55A12.1 12.1 0 0 1 104.966 0m-9.513 59.9a2.15 2.15 0 0 0 1.812.9c1.358 0 2.036-.752 2.036-2.266V42.459q0-2.264-2.036-2.266a2.15 2.15 0 0 0-1.812.908ZM157.846 67.713q0 2.608 4.417 4.811a21.7 21.7 0 0 0 9.852 2.206q10.753 0 17.663-7.247a6.6 6.6 0 0 1 .963-.849 1.67 1.67 0 0 1 .849-.17h1.358a1.085 1.085 0 0 1 1.073.564 5.1 5.1 0 0 1 .284 2.036 23.65 23.65 0 0 1-3.793 12.967 27.44 27.44 0 0 1-10.754 9.569 33.26 33.26 0 0 1-15.572 3.623 36 36 0 0 1-16.53-3.738 29.23 29.23 0 0 1-11.719-10.646 28.85 28.85 0 0 1-4.357-15.741 29.53 29.53 0 0 1 4.078-15.512 28.46 28.46 0 0 1 11.609-10.7 37.7 37.7 0 0 1 17.608-3.908 37.2 37.2 0 0 1 13.645 2.376 22.3 22.3 0 0 1 9.568 6.793 15.92 15.92 0 0 1 3.509 10.192 15.7 15.7 0 0 1-5.32 12.173 19.32 19.32 0 0 1-13.476 4.811 17.32 17.32 0 0 1-13.246-5.435 1.63 1.63 0 0 0-1.188.509 1.8 1.8 0 0 0-.521 1.316M170.758 0a11.06 11.06 0 0 1 8.1 3.059 10.76 10.76 0 0 1 3.114 8.04 16.86 16.86 0 0 1-3 9.568 22.47 22.47 0 0 1-8.325 7.3 24.65 24.65 0 0 1-11.778 2.83 17.8 17.8 0 0 1-9.513-2.376q-1.246-.682-1.248-1.358a1.5 1.5 0 0 1 .339-.9l.679-1.133a.98.98 0 0 1 .793-.454 2.65 2.65 0 0 1 1.018.339l.454.225a7.34 7.34 0 0 0 3.623 1.018 3.72 3.72 0 0 0 3.169-1.527 7.03 7.03 0 0 0 1.133-4.247 21 21 0 0 0-.17-2.775 95 95 0 0 0-.394-2.66 19.5 19.5 0 0 1-.225-3.169 11.7 11.7 0 0 1 3.451-8.55 12.1 12.1 0 0 1 8.78-3.23m-9.513 59.9a2.15 2.15 0 0 0 1.812.9c1.358 0 2.036-.752 2.036-2.266V42.459q0-2.264-2.036-2.266a2.15 2.15 0 0 0-1.812.908ZM223.637 67.713q0 2.608 4.417 4.811a21.7 21.7 0 0 0 9.855 2.206q10.754 0 17.663-7.247a6.6 6.6 0 0 1 .963-.849 1.67 1.67 0 0 1 .849-.17h1.358a1.085 1.085 0 0 1 1.073.564 5.1 5.1 0 0 1 .284 2.036 23.65 23.65 0 0 1-3.793 12.967 27.44 27.44 0 0 1-10.756 9.568 33.26 33.26 0 0 1-15.572 3.623 36 36 0 0 1-16.53-3.738 29.23 29.23 0 0 1-11.719-10.646 28.85 28.85 0 0 1-4.357-15.741 29.54 29.54 0 0 1 4.078-15.512 28.46 28.46 0 0 1 11.609-10.7 37.7 37.7 0 0 1 17.608-3.908 37.2 37.2 0 0 1 13.645 2.376 22.3 22.3 0 0 1 9.568 6.793 15.92 15.92 0 0 1 3.509 10.192 15.7 15.7 0 0 1-5.32 12.173 19.32 19.32 0 0 1-13.476 4.811 17.32 17.32 0 0 1-13.246-5.435 1.63 1.63 0 0 0-1.188.509 1.8 1.8 0 0 0-.522 1.317M236.544 0a11.06 11.06 0 0 1 8.1 3.059 10.76 10.76 0 0 1 3.114 8.04 16.86 16.86 0 0 1-3 9.568 22.47 22.47 0 0 1-8.325 7.3 24.65 24.65 0 0 1-11.779 2.83 17.8 17.8 0 0 1-9.513-2.376q-1.247-.682-1.248-1.358a1.5 1.5 0 0 1 .339-.9l.677-1.133a.98.98 0 0 1 .793-.454 2.65 2.65 0 0 1 1.018.339l.454.225a7.34 7.34 0 0 0 3.623 1.018 3.72 3.72 0 0 0 3.169-1.527 7.03 7.03 0 0 0 1.133-4.247 21 21 0 0 0-.17-2.775 95 95 0 0 0-.394-2.66 19.5 19.5 0 0 1-.225-3.169 11.7 11.7 0 0 1 3.454-8.55 12.1 12.1 0 0 1 8.78-3.23m-9.508 59.9a2.15 2.15 0 0 0 1.812.9c1.358 0 2.036-.752 2.036-2.266V42.459q0-2.264-2.036-2.266a2.15 2.15 0 0 0-1.812.908ZM289.428 67.713q0 2.608 4.417 4.811a21.7 21.7 0 0 0 9.852 2.206q10.753 0 17.663-7.247a6.6 6.6 0 0 1 .963-.849 1.67 1.67 0 0 1 .849-.17h1.358a1.09 1.09 0 0 1 1.073.564 5.1 5.1 0 0 1 .284 2.036 23.65 23.65 0 0 1-3.793 12.967 27.44 27.44 0 0 1-10.756 9.568 33.26 33.26 0 0 1-15.572 3.623 36 36 0 0 1-16.53-3.738 29.23 29.23 0 0 1-11.719-10.646 28.85 28.85 0 0 1-4.357-15.741 29.54 29.54 0 0 1 4.078-15.512 28.46 28.46 0 0 1 11.609-10.7 37.7 37.7 0 0 1 17.608-3.908 37.2 37.2 0 0 1 13.645 2.376 22.3 22.3 0 0 1 9.568 6.793 15.92 15.92 0 0 1 3.509 10.192 15.7 15.7 0 0 1-5.321 12.173 19.32 19.32 0 0 1-13.476 4.811 17.32 17.32 0 0 1-13.246-5.435 1.63 1.63 0 0 0-1.188.509 1.8 1.8 0 0 0-.518 1.317M302.335 0a11.06 11.06 0 0 1 8.1 3.059 10.76 10.76 0 0 1 3.114 8.04 16.86 16.86 0 0 1-3 9.568 22.46 22.46 0 0 1-8.325 7.3 24.65 24.65 0 0 1-11.779 2.83 17.8 17.8 0 0 1-9.513-2.376q-1.246-.682-1.248-1.358a1.5 1.5 0 0 1 .339-.9l.679-1.133a.98.98 0 0 1 .793-.454 2.65 2.65 0 0 1 1.018.339l.454.225a7.34 7.34 0 0 0 3.624 1.018 3.72 3.72 0 0 0 3.169-1.528 7.03 7.03 0 0 0 1.133-4.247 21 21 0 0 0-.17-2.775 91 91 0 0 0-.395-2.66 19.5 19.5 0 0 1-.225-3.169 11.7 11.7 0 0 1 3.457-8.549A12.1 12.1 0 0 1 302.335 0m-9.513 59.9a2.15 2.15 0 0 0 1.812.9c1.358 0 2.037-.752 2.037-2.266V42.459q0-2.264-2.037-2.266a2.15 2.15 0 0 0-1.812.908ZM355.329 67.713q0 2.608 4.417 4.811a21.7 21.7 0 0 0 9.852 2.206q10.753 0 17.663-7.247a6.6 6.6 0 0 1 .963-.849 1.67 1.67 0 0 1 .849-.17h1.358a1.09 1.09 0 0 1 1.073.564 5.1 5.1 0 0 1 .284 2.036 23.65 23.65 0 0 1-3.793 12.967 27.44 27.44 0 0 1-10.756 9.568 33.26 33.26 0 0 1-15.572 3.623 36 36 0 0 1-16.53-3.738 29.23 29.23 0 0 1-11.719-10.646 28.85 28.85 0 0 1-4.357-15.741 29.54 29.54 0 0 1 4.078-15.512 28.46 28.46 0 0 1 11.609-10.7 37.7 37.7 0 0 1 17.608-3.908 37.2 37.2 0 0 1 13.645 2.376 22.3 22.3 0 0 1 9.568 6.793 15.92 15.92 0 0 1 3.509 10.192 15.7 15.7 0 0 1-5.321 12.173 19.32 19.32 0 0 1-13.476 4.811 17.32 17.32 0 0 1-13.246-5.435 1.63 1.63 0 0 0-1.188.509 1.8 1.8 0 0 0-.518 1.317M368.236 0a11.06 11.06 0 0 1 8.1 3.059 10.76 10.76 0 0 1 3.114 8.04 16.86 16.86 0 0 1-3 9.568 22.46 22.46 0 0 1-8.325 7.3 24.65 24.65 0 0 1-11.779 2.83 17.8 17.8 0 0 1-9.513-2.376q-1.247-.682-1.248-1.358a1.5 1.5 0 0 1 .339-.9l.679-1.133a.98.98 0 0 1 .793-.454 2.65 2.65 0 0 1 1.018.339l.454.225a7.34 7.34 0 0 0 3.624 1.018 3.72 3.72 0 0 0 3.169-1.528 7.03 7.03 0 0 0 1.133-4.247 21 21 0 0 0-.17-2.775 91 91 0 0 0-.395-2.66 19.5 19.5 0 0 1-.225-3.169 11.7 11.7 0 0 1 3.457-8.549A12.1 12.1 0 0 1 368.236 0m-9.513 59.9a2.15 2.15 0 0 0 1.812.9c1.358 0 2.037-.752 2.037-2.266V42.459q0-2.264-2.037-2.266a2.15 2.15 0 0 0-1.812.908ZM26.268 168.514q0 2.607 4.417 4.811a21.7 21.7 0 0 0 9.852 2.206q10.753 0 17.663-7.247a6.6 6.6 0 0 1 .963-.849 1.67 1.67 0 0 1 .849-.17h1.358a1.085 1.085 0 0 1 1.073.564 5.1 5.1 0 0 1 .284 2.036 23.65 23.65 0 0 1-3.793 12.966 27.43 27.43 0 0 1-10.756 9.568 33.26 33.26 0 0 1-15.572 3.624 36 36 0 0 1-16.53-3.738 29.23 29.23 0 0 1-11.719-10.646A28.85 28.85 0 0 1 0 165.9a29.54 29.54 0 0 1 4.078-15.512 28.46 28.46 0 0 1 11.609-10.7 37.7 37.7 0 0 1 17.608-3.908 37.2 37.2 0 0 1 13.645 2.376 22.3 22.3 0 0 1 9.568 6.793 15.92 15.92 0 0 1 3.509 10.192 15.7 15.7 0 0 1-5.321 12.173 19.32 19.32 0 0 1-13.476 4.811 17.32 17.32 0 0 1-13.246-5.435 1.63 1.63 0 0 0-1.188.509 1.8 1.8 0 0 0-.518 1.315m12.911-67.717a11.06 11.06 0 0 1 8.1 3.059 10.76 10.76 0 0 1 3.114 8.04 16.86 16.86 0 0 1-3 9.568 22.46 22.46 0 0 1-8.325 7.3 24.65 24.65 0 0 1-11.779 2.83 17.8 17.8 0 0 1-9.513-2.376q-1.246-.682-1.248-1.358a1.5 1.5 0 0 1 .339-.9l.679-1.133a.98.98 0 0 1 .793-.454 2.65 2.65 0 0 1 1.018.339l.454.225a7.34 7.34 0 0 0 3.623 1.018 3.72 3.72 0 0 0 3.169-1.527 7.03 7.03 0 0 0 1.133-4.247 21 21 0 0 0-.17-2.775 95 95 0 0 0-.394-2.66 19.5 19.5 0 0 1-.225-3.169 11.7 11.7 0 0 1 3.454-8.549 12.1 12.1 0 0 1 8.778-3.231m-9.513 59.9a2.15 2.15 0 0 0 1.812.9c1.358 0 2.036-.752 2.036-2.266v-16.075q0-2.264-2.036-2.266a2.15 2.15 0 0 0-1.812.908ZM92.059 168.514q0 2.607 4.417 4.811a21.7 21.7 0 0 0 9.852 2.206q10.753 0 17.663-7.247a6.6 6.6 0 0 1 .963-.849 1.67 1.67 0 0 1 .848-.17h1.358a1.085 1.085 0 0 1 1.073.564 5.1 5.1 0 0 1 .284 2.036 23.65 23.65 0 0 1-3.793 12.966 27.43 27.43 0 0 1-10.756 9.568 33.26 33.26 0 0 1-15.572 3.624 36 36 0 0 1-16.53-3.738 29.23 29.23 0 0 1-11.719-10.646 28.85 28.85 0 0 1-4.357-15.741 29.54 29.54 0 0 1 4.078-15.512 28.46 28.46 0 0 1 11.609-10.7 37.7 37.7 0 0 1 17.608-3.908 37.2 37.2 0 0 1 13.645 2.376 22.3 22.3 0 0 1 9.568 6.793 15.92 15.92 0 0 1 3.509 10.192 15.7 15.7 0 0 1-5.32 12.173 19.32 19.32 0 0 1-13.476 4.811 17.32 17.32 0 0 1-13.246-5.435 1.63 1.63 0 0 0-1.188.509 1.8 1.8 0 0 0-.518 1.317m12.907-67.717a11.06 11.06 0 0 1 8.1 3.059 10.76 10.76 0 0 1 3.114 8.04 16.86 16.86 0 0 1-3 9.568 22.46 22.46 0 0 1-8.325 7.3 24.65 24.65 0 0 1-11.779 2.83 17.8 17.8 0 0 1-9.513-2.376q-1.247-.682-1.248-1.358a1.5 1.5 0 0 1 .339-.9l.679-1.133a.98.98 0 0 1 .794-.454 2.65 2.65 0 0 1 1.018.339l.454.225a7.34 7.34 0 0 0 3.623 1.018 3.72 3.72 0 0 0 3.169-1.527 7.03 7.03 0 0 0 1.133-4.247 21 21 0 0 0-.17-2.775 95 95 0 0 0-.394-2.66 19.5 19.5 0 0 1-.225-3.169 11.7 11.7 0 0 1 3.454-8.549 12.1 12.1 0 0 1 8.777-3.231m-9.513 59.9a2.15 2.15 0 0 0 1.812.9c1.358 0 2.036-.752 2.036-2.266v-16.075q0-2.264-2.036-2.266a2.15 2.15 0 0 0-1.812.908ZM166.97 135.044a17.34 17.34 0 0 1 8.889 1.981 10.24 10.24 0 0 1 4.587 6.174 17.7 17.7 0 0 1 7.077-7.077 20.84 20.84 0 0 1 10.137-2.435q8.153 0 12.457 4.871t4.3 13.815v36.573a3.83 3.83 0 0 1-.849 2.775 4.18 4.18 0 0 1-3 .849h-20.385a4.2 4.2 0 0 1-3-.849 3.82 3.82 0 0 1-.849-2.775v-38.954a3.43 3.43 0 0 0-.564-2.036 1.84 1.84 0 0 0-1.587-.794 2.09 2.09 0 0 0-1.926.908v40.876a3.83 3.83 0 0 1-.849 2.775 4.18 4.18 0 0 1-3 .849h-20.382a4.2 4.2 0 0 1-3-.849 3.82 3.82 0 0 1-.849-2.775v-39.973a13.05 13.05 0 0 0-1.133-6.059 10.9 10.9 0 0 0-4.187-3.908 2.9 2.9 0 0 1-.963-.734 1.4 1.4 0 0 1-.17-.734v-1.358c0-.752.454-1.133 1.358-1.133h17.888ZM269.674 193.927q-11.435 0-16.306-9.4a17.77 17.77 0 0 1-6.4 7.132 17.96 17.96 0 0 1-9.343 2.266q-7.816 0-12.567-3.848a12.46 12.46 0 0 1-4.756-10.192 10.78 10.78 0 0 1 3.908-8.774q3.908-3.227 12.058-4.357 20.833-2.718 20.837-15.742a12.6 12.6 0 0 0-3.623-9 11.5 11.5 0 0 0-8.6-3.793c-1.587 0-2.376.527-2.376 1.587a2.2 2.2 0 0 0 .339 1.133 11.05 11.05 0 0 1 7.811 2.83 9.45 9.45 0 0 1 3.059 7.247 10.47 10.47 0 0 1-4.357 8.6 17.6 17.6 0 0 1-11.155 3.4q-6.907 0-10.985-3.454a11.35 11.35 0 0 1-4.078-9.114q0-7.589 7.362-12.173t19.475-4.587q14.5 0 22.025 7.022t7.531 20.608v14.154a6.7 6.7 0 0 0 .339 2.605 1.17 1.17 0 0 0 1.133.679 1.53 1.53 0 0 0 1.472-.908 12.8 12.8 0 0 0 .793-3.509 8.6 8.6 0 0 1 .454-2.321.95.95 0 0 1 .908-.394h1.921a1 1 0 0 1 .963.793 8.5 8.5 0 0 1 .284 2.605q0 9.061-4.7 13.985-4.716 4.915-13.426 4.92m6-76.662a12.37 12.37 0 0 1-3.908 9.228 13.34 13.34 0 0 1-9.682 3.793 17.9 17.9 0 0 1-6.059-1.073 32 32 0 0 1-6.738-3.568q-6.226-4.073-7.985-4.926a7.3 7.3 0 0 0-3.114-.849 2.58 2.58 0 0 0-1.587.509 1.56 1.56 0 0 0-.679 1.3q0 1.927 3.059 3.169a10 10 0 0 1 1.472.679.77.77 0 0 1 .339.679 1.9 1.9 0 0 1-.225.794l-.225.564q-.451 1.134-1.133 1.133a6.7 6.7 0 0 1-1.587-.339 14.96 14.96 0 0 1-7.472-4.532 10.97 10.97 0 0 1-2.715-7.362 12.38 12.38 0 0 1 3.908-9.228 13.36 13.36 0 0 1 9.682-3.793 16.8 16.8 0 0 1 5.6 1.018 41.3 41.3 0 0 1 7.192 3.624q3.626 2.153 5.66 3.4t3.229 1.812a5.1 5.1 0 0 0 2.206.564 2.58 2.58 0 0 0 1.587-.509 1.56 1.56 0 0 0 .679-1.3q0-2.037-3.059-3.169a9.6 9.6 0 0 1-1.472-.679.76.76 0 0 1-.339-.679 1.8 1.8 0 0 1 .225-.794l.225-.564c.3-.752.679-1.133 1.133-1.133a6.7 6.7 0 0 1 1.587.339 14.96 14.96 0 0 1 7.472 4.531 10.97 10.97 0 0 1 2.723 7.361Zm-24.231 52.205a2.15 2.15 0 0 0-1.812-.908q-1.926 0-1.926 2.266v7.247q0 2.264 1.926 2.266a2.16 2.16 0 0 0 1.812-.9ZM322.779 193.927q-15.968 0-24.291-7.7t-8.325-22.421q0-14.716 8.325-22.419t24.291-7.7q15.968 0 24.291 7.7t8.325 22.419q0 14.723-8.325 22.42t-24.291 7.701m0-5.206q2.036 0 2.036-3.059v-43.711c0-2.036-.679-3.059-2.036-3.059s-2.036 1.018-2.036 3.059v43.711c-.001 2.036.678 3.059 2.036 3.059M375.094 169.356a1.49 1.49 0 0 1-1.188-.454 8.9 8.9 0 0 1-1.073-2.037 251 251 0 0 1-10.022-24.569q-3-9.171-3-14.833 0-7.7 4.3-12t11.774-4.3q7.472 0 11.778 4.3t4.3 12q0 5.662-3 14.833a253 253 0 0 1-10.022 24.571 8.8 8.8 0 0 1-1.078 2.037 1.5 1.5 0 0 1-1.188.454Zm.794 25.139a13.62 13.62 0 0 1-9.283-3.059 10.645 10.645 0 0 1 .06-15.851 15.45 15.45 0 0 1 18.457 0 10.645 10.645 0 0 1 .06 15.851 13.68 13.68 0 0 1-9.295 3.06Z" class="a"/></svg>