<svg xmlns="http://www.w3.org/2000/svg" xml:space="preserve" id="Layer_1" x="0" y="0" version="1.1" viewBox="0 0 632.2 414"><style>.st0{fill:none;stroke:#27bdbe;stroke-width:5.6693}</style><path d="M206.824 296.498c-30.9 0-56 25-56 55.9s25 56 55.9 56 56-25 56-55.9-25-56-55.9-56zm0 83.9c-15.4 0-27.9-12.5-27.9-27.9s12.5-27.9 27.9-27.9 27.9 12.5 27.9 27.9-12.5 27.9-27.9 27.9z" class="st0"/><path d="M70.724 255.298v59.6c0 14.8 12 26.9 26.9 26.9h36.1c5.9-40.3 43.3-68.3 83.7-62.4 32.3 4.7 57.7 30.1 62.4 62.4h146.1c5.8-40.4 43.3-68.4 83.7-62.5 32.4 4.7 57.8 30.1 62.5 62.5h28.9c14.8 0 26.9-12 26.9-26.9v-59.6z" class="st0"/><path d="M499.124 296.498c-30.9 0-56 25-56 55.9s25 56 55.9 56 56-25 56-55.9-25-55.9-55.9-56zm0 83.9c-15.4 0-27.9-12.5-27.9-27.9s12.5-27.9 27.9-27.9 27.9 12.5 27.9 27.9-12.5 27.9-27.9 27.9zM76.024 149.498c-39.7 0-72-32.2-72-72 0-39.7 32.2-72 72-72 39.7 0 72 32.2 72 72s-32.2 72-72 72c.1 0 0 0 0 0zm27.5-56.7q-1.2 0-2.4-.3l-13.6-3.7-16.5-4.4c-4.1-1.1-6.9-4.8-6.9-9v-46.3c0-5.1 4.2-9.3 9.3-9.3s9.3 4.2 9.3 9.3v39.1l23.2 6.2c1.9.6 3.6 1.7 4.9 3.2 1.9 2.3 2.5 5.3 1.7 8.1-1.1 4.3-4.8 7.1-9 7.1z" class="st0"/><path d="m617.496 195.138-105.9-104.8c-6.7-6.6-15.8-10.4-25.3-10.4h-53.5v-20c0-14.8-12-26.9-26.9-26.9h-238.1c24.5 50.7 3.3 111.7-47.4 136.3-13.8 6.7-29 10.2-44.4 10.2-1.7 0-3.6 0-5.4-.1v60.9h557.5v-19.7c0-9.6-3.8-18.8-10.6-25.5zm-46.2 3.5h-102.4c-2.4 0-4.3-1.9-4.3-4.3v-79.1c0-2.4 1.9-4.3 4.3-4.3h19.5c1.1 0 2.2.4 3 1.2l82.9 79.1c1.7 1.6 1.8 4.3.2 6-.9.9-2 1.4-3.2 1.4z" class="st0"/></svg>