<svg xmlns="http://www.w3.org/2000/svg" xml:space="preserve" viewBox="0 0 463 314"><path d="M115.2 217.3c-25 0-45.2 20.2-45.3 45.2 0 25 20.2 45.2 45.2 45.3s45.2-20.2 45.3-45.2c0-25-20.2-45.2-45.2-45.3zm0 67.9c-12.5 0-22.6-10.1-22.6-22.6s10.1-22.6 22.6-22.6 22.6 10.1 22.6 22.6c-.1 12.5-10.2 22.6-22.6 22.6zM456 183.9v48.3c0 12-9.8 21.8-21.8 21.8h-23.3c-4.8-32.7-35.1-55.3-67.8-50.5-26.2 3.8-46.7 24.4-50.5 50.5H174.3c-4.8-32.7-35.1-55.3-67.8-50.5-26.1 3.8-46.7 24.3-50.5 50.5H26.8c-12 0-21.8-9.8-21.8-21.8v-48.3zm-104.3 33.5c-25 0-45.2 20.2-45.3 45.2 0 25 20.2 45.2 45.2 45.3s45.2-20.2 45.3-45.2c0-25-20.2-45.3-45.2-45.3zm0 67.8c-12.5 0-22.6-10.1-22.6-22.6s10.1-22.6 22.6-22.6 22.6 10.1 22.6 22.6-10.1 22.6-22.6 22.6zm95.7-149.9-85.7-84.7c-5.4-5.4-12.8-8.4-20.4-8.4h-43.2V26c0-12-9.7-21.8-21.7-21.8H26.8C14.8 4.2 5 13.9 5 26v145.8h451V156c0-7.8-3.1-15.2-8.6-20.7zm-37.3 2.9h-82.9c-1.9 0-3.4-1.5-3.4-3.4v-64c0-1.9 1.5-3.4 3.4-3.4H343q1.35 0 2.4.9l67.1 64c1.4 1.3 1.4 3.5.1 4.8-.7.7-1.6 1-2.5 1.1z" style="fill:none;stroke:#ff4e00;stroke-width:5.6693" transform="translate(1 1)"/></svg>