<svg xmlns="http://www.w3.org/2000/svg" width="57" height="53"><path fill="#fff" d="m17.256 12.924 3.906-3.906-3.906-3.907-3.906 3.906 1.1 1.1ZM16.4 15.676l-2.805-2.805-3.055 3.055h6.109ZM44.07 12.871l-3.055 3.055h6.109ZM25.601 12.871l-3.055 3.055h6.109ZM10.186 52.698h36.37l.112-1.7H10.074ZM5.111 18.017H51.63v3.407H5.111ZM24.111 40.906h8.518v1.7h-8.518ZM47.462 35.946A19.58 19.58 0 0 0 55.02 21.33h-1.686v-1.7h2.555a.85.85 0 0 1 .852.852 21.3 21.3 0 0 1-9.4 17.654M9.408 38.143A21.29 21.29 0 0 1 0 20.482a.85.85 0 0 1 .852-.852h2.555v1.7H1.722a19.57 19.57 0 0 0 7.557 14.612"/><path fill="#fff" d="M35.022 44.184a.9.9 0 0 1-.95.852h-11.4a.9.9 0 0 1-.95-.852V43.3a25.5 25.5 0 0 1-12.31-3.6l.63 9.6h36.66l.63-9.6a25.5 25.5 0 0 1-12.31 3.6Z"/><path fill="#fff" d="m8.569 24.211.788 12.057a23.13 23.13 0 0 0 12.394 4.092v-.816a.9.9 0 0 1 .946-.852h11.347a.9.9 0 0 1 .946.852v.816a23.1 23.1 0 0 0 12.394-4.092l.787-12.057ZM28.622 0l3.907 3.906-3.907 3.907-3.906-3.907Zm1.2 9.017 3.906-3.906 3.906 3.906-3.906 3.906ZM40.209 3.906 44.115 0l3.907 3.906-3.907 3.907Z"/></svg>