<svg xmlns="http://www.w3.org/2000/svg" width="102.693" height="33.115"><defs><style>.a{fill:#505050}</style></defs><path d="M15.188.046a39 39 0 0 1 5.5 2.072 29 29 0 0 1 4.556 2.56c1.109.73 2.194 1.493 3.292 2.24a1.7 1.7 0 0 0 .285.152q.8.349 1.608.695a3.9 3.9 0 0 1 1.2.847 11.6 11.6 0 0 1 1.3 1.558c.628.9 1.235 1.824 1.867 2.726a.83.83 0 0 1 .109.867c-.013.031-.017.065-.03.1a10.1 10.1 0 0 1-1.652 2.671 2.1 2.1 0 0 1-.649.462A29.5 29.5 0 0 1 28 18.837a7.5 7.5 0 0 0-1.542.651 4.3 4.3 0 0 0-.928.717q-4.02 4.092-8.042 8.183a.315.315 0 0 1-.375.091c-.253-.085-.512-.15-.769-.226a1 1 0 0 1-.148-.067c.061-.085.115-.159.166-.235a6.55 6.55 0 0 0 1.268-3.983 6.9 6.9 0 0 0-.573-2.421 7.4 7.4 0 0 0-.924-1.658l-.161-.237-.05.03.155.262a8 8 0 0 1 .623 1.843 6.32 6.32 0 0 1-1.349 5.419 5.9 5.9 0 0 1-1.4 1.314 1 1 0 0 0-.131.122c.118.041.209.076.3.1 1.231.37 2.462.736 3.691 1.107a3.17 3.17 0 0 1 1.584 1.006 2.11 2.11 0 0 1 .49 1.959 2 2 0 0 0-.037.294H19.7c-.083-.033-.165-.074-.25-.1l-10.379-3.2c-.893-.274-1.793-.521-2.693-.771a1.48 1.48 0 0 1-1.116-1.447c0-.375-.024-.75-.039-1.124a.73.73 0 0 0-.227-.486c-.233-.238-.46-.484-.689-.726a29 29 0 0 1-2.663-3.155 8.24 8.24 0 0 1-1.557-3.88A2.4 2.4 0 0 0 0 17.883v-1a3 3 0 0 0 .089-.36 5.8 5.8 0 0 1 1.1-2.863 8.5 8.5 0 0 1 4.736-3.294 5.9 5.9 0 0 1 2.627-.176c.673.116 1.342.264 2.011.4 1.969.41 3.931.837 5.9 1.229 1.75.349 3.508.662 5.262.989.183.033.37.055.582.087a6.2 6.2 0 0 1 1.122-3.972 2 2 0 0 0-.266-.242 6 6 0 0 0-.8-.464 4.9 4.9 0 0 0-2.782-.227 19 19 0 0 1-3.209.333q-.866 0-1.728-.024a3.2 3.2 0 0 1-.6-.067c-.708-.159-1.418-.311-2.116-.5-1.867-.514-3.7-1.137-5.534-1.752-.333-.111-.667-.213-1-.329-.148-.052-.316-.105-.349-.288s.1-.314.24-.407a3.4 3.4 0 0 1 .608-.342c.44-.181.891-.331 1.335-.5a.59.59 0 0 1 .5.03 48 48 0 0 0 5.329 2.133 14 14 0 0 0 1.49.425 17.5 17.5 0 0 0 4.316.233 16.5 16.5 0 0 1 2.527.017 6.8 6.8 0 0 1 1.963.471 1 1 0 0 0 .153.041q.024-.031.048-.063-.059-.025-.116-.052c-.329-.163-.647-.351-.987-.481a6.7 6.7 0 0 0-2.534-.394 21.4 21.4 0 0 1-4.117-.315 10.5 10.5 0 0 1-2.638-.754c-1.362-.634-2.68-1.351-3.989-2.087C7.885 2.593 6.6 1.859 5.32 1.129a1 1 0 0 1-.146-.1c-.2-.157-.2-.281.024-.394a2.5 2.5 0 0 1 .513-.184C6.277.307 6.846.174 7.414.037c.092 0 .183.007.275.007h4.525C13.2.05 14.2.048 15.188.046m8.82 7.767.017.013a.04.04 0 0 1-.017-.013l-.052-.048-.048-.052-.083-.067-.035-.037-.078-.017q.021.028.043.054l.041.03.113.039.052.048zm-.4-.27.061.007-.063-.081-.052.017q.023.03.051.057ZM73.021 33.064a7.13 7.13 0 0 1-4.858-2.606 7 7 0 0 1-1.017-1.63l-.109-.261 2.712-1.647.128.224a5.12 5.12 0 0 0 2.4 2.264 4.04 4.04 0 0 0 4.238-.444 3.58 3.58 0 0 0 1.36-2.266 6 6 0 0 0 .1-1.018c.017-.5 0-1 0-1.54-.085.037-.15.061-.211.094a7.8 7.8 0 0 1-3.859.9 7.46 7.46 0 0 1-5.338-2.222 7 7 0 0 1-1.976-3.939 7.35 7.35 0 0 1 1.2-5.506 7.12 7.12 0 0 1 4.634-2.994 8 8 0 0 1 5.349.741c.05.026.1.043.194.081v-.976h3.639q.011.114.013.222c0 5.066.011 10.133-.006 15.2a7.14 7.14 0 0 1-2.176 5.268 7.33 7.33 0 0 1-4.039 2q-.269.046-.534.1h-1.3Zm1.133-11.26c.146-.015.372-.024.591-.061a3.56 3.56 0 0 0 2.883-2.242 4.56 4.56 0 0 0 .035-3.49 3.51 3.51 0 0 0-2.19-2.127 4.2 4.2 0 0 0-2.222-.153 3.58 3.58 0 0 0-2.73 2.12 4.5 4.5 0 0 0-.362 2.346 4 4 0 0 0 .739 2.044 3.83 3.83 0 0 0 3.256 1.562ZM89.062 33.112c-.179-.031-.357-.065-.536-.094a7.15 7.15 0 0 1-5.53-4.187c-.039-.081-.068-.166-.109-.266l2.7-1.641c.042.07.083.131.118.192a5.5 5.5 0 0 0 1.941 2.05 4.17 4.17 0 0 0 3.4.46 3.64 3.64 0 0 0 2.667-2.9 5 5 0 0 0 .105-.967c.017-.475.006-.952 0-1.427 0-.055-.007-.111-.011-.189-.057.024-.094.035-.129.054a7.8 7.8 0 0 1-3.225.915 7.61 7.61 0 0 1-5.388-1.615 7 7 0 0 1-2.628-4.523 7.36 7.36 0 0 1 .845-4.935 7.1 7.1 0 0 1 4.75-3.51 7.96 7.96 0 0 1 5.573.68c.057.03.118.048.211.087v-.941c.183-.057 3.321-.072 3.654-.017v15.391a7.25 7.25 0 0 1-5.906 7.231c-.237.05-.479.074-.717.113a.3.3 0 0 0-.083.043c-.563-.004-1.135-.004-1.702-.004m-3.1-15.4c.03.29.039.584.092.869a3.72 3.72 0 0 0 2.22 2.889 4 4 0 0 0 2.279.274 3.59 3.59 0 0 0 3.013-2.5 4.57 4.57 0 0 0 .019-3.022 3.53 3.53 0 0 0-2.547-2.429 4.23 4.23 0 0 0-2.514.078 3.54 3.54 0 0 0-2.022 1.695 4.5 4.5 0 0 0-.536 2.151ZM102.693 24.946l-.07-.024c.006-.107.019-.216.019-.323v-14.28h.05Z" class="a"/><path d="M7.414.043V0h7.769v.046H7.689C7.597.05 7.504.044 7.414.043M73.022 33.064q.276.026.553.048h-.551zM102.649 6.759h.044v.5a.2.2 0 0 1-.042 0zM65.783 17.785a7.26 7.26 0 0 1-6.085 7.216 7.8 7.8 0 0 1-4.334-.383 7.03 7.03 0 0 1-4.6-5.612 7.22 7.22 0 0 1 1.059-5.345 7.14 7.14 0 0 1 4.756-3.187 7.87 7.87 0 0 1 5.081.6 7 7 0 0 1 3.941 4.979 8 8 0 0 1 .182 1.732m-7.552-4.11c-.159 0-.318-.006-.475 0a2 2 0 0 0-.3.043 3.55 3.55 0 0 0-2.724 2.018 4.46 4.46 0 0 0-.052 3.852 3.56 3.56 0 0 0 2.268 2.015 4.14 4.14 0 0 0 1.954.137 3.58 3.58 0 0 0 2.846-2.15 4.6 4.6 0 0 0 .32-2.693 3.84 3.84 0 0 0-.852-1.92 3.67 3.67 0 0 0-2.985-1.302M38.045 5.174h3.843v16.395c.364.015.712.006 1.057.007h7.352v3.641c-.179.048-11.848.065-12.253.017q.002-10.02.001-20.06M102.643 10.319v14.28c0 .107-.011.216-.019.323h-3.668V10.334a1 1 0 0 1 .131-.026h3.48a1 1 0 0 1 .076.011M102.648 6.76v.506a1.843 1.843 0 0 1-1.852 1.625 1.869 1.869 0 1 1 1.808-2.375 2 2 0 0 1 .044.244M16.081 19.944l-.155-.262.05-.03.161.237ZM23.604 7.469q.03.041.063.081l-.061-.007q-.002-.035-.002-.074M23.907 7.715l-.113-.039.031-.03.081.068ZM23.754 7.649q-.021-.028-.043-.054l.078.017Z" class="a"/><path d="m23.794 7.677-.041-.03.035-.037.035.037ZM23.907 7.713l.048.052c-.017-.017-.033-.031-.05-.05ZM23.955 7.763l.05.05zM24.007 7.815l.018.011c-.007 0-.013-.009-.018-.011M11.565 31.722c-.009.033-.009.046-.015.048a6.3 6.3 0 0 1-1.991.767.7.7 0 0 1-.769-.386.75.75 0 0 1 .126-.858.675.675 0 0 1 .736-.174c.64.193 1.27.4 1.913.603" class="a"/></svg>