<svg xmlns="http://www.w3.org/2000/svg" xml:space="preserve" id="Layer_1" x="0" y="0" version="1.1" viewBox="0 0 74.6 103.4"><style>.st0{fill:#ff4e00}</style><path d="M74.5 11.1c-.1-.4-.5-.8-.9-.9L66 8.5 64.3 1c-.2-.7-.8-1.1-1.5-.9l-.6.3-8.7 8.7C36.8-1 15.1 4.4 5.1 21.1s-4.7 38.4 12 48.4 38.4 4.7 48.4-12c6.8-11.2 6.8-25.2 0-36.5l8.7-8.7q.45-.45.3-1.2m-6.4 28.2c0 18.1-14.7 32.8-32.8 32.8S2.5 57.4 2.5 39.3 17.2 6.5 35.3 6.5c5.8 0 11.4 1.5 16.4 4.4l-4 4-.1.1c-13.4-6.8-29.8-1.5-36.7 11.9s-1.5 29.9 12 36.7c13.4 6.8 29.8 1.5 36.7-11.9 4-7.8 4-16.9 0-24.7l.1-.1 4-4c2.9 5 4.4 10.6 4.4 16.4M56.6 26.8c6.9 11.8 2.9 26.9-8.8 33.8S20.9 63.5 14 51.8s-3-27 8.8-33.9c7.7-4.5 17.3-4.5 25 0l1.3 5.8-1.3 1.3c-7.9-7-20-6.2-27 1.7s-6.2 20 1.7 27 20 6.2 27-1.7c6.3-7.2 6.3-18 0-25.2l1.2-1.2zm-16 12.5c0 2.9-2.4 5.3-5.3 5.4-2.9 0-5.3-2.4-5.4-5.3 0-2.9 2.4-5.3 5.3-5.4 1 0 2 .3 2.8.8l-3.7 3.7c-.5.5-.5 1.3 0 1.7.5.5 1.2.5 1.7 0l3.7-3.7c.6.8.9 1.8.9 2.8m-.8-6.3c-3.5-2.5-8.4-1.8-10.9 1.7s-1.8 8.4 1.7 10.9 8.4 1.8 10.9-1.7c2-2.7 2-6.4 0-9.2l6.3-6.3c6 7 5.2 17.4-1.7 23.4-7 6-17.4 5.2-23.4-1.7s-5.2-17.4 1.7-23.4c6.2-5.4 15.5-5.4 21.7 0zm23.3-13-4.6 4.6-.7-.2-6.2-1.4-1.6-6.9L62.4 3.7l1.4 6.2c.1.5.5.8.9.9l6.2 1.4zM22.8 90.6v8.7h-2.3v-4.5L18.6 98H18l-2-3.1v4.5h-2.3v-8.7H16l2.3 3.7 2.3-3.7h2.2zM26.7 90.6v8.7h-2.3v-8.7zM28.1 98.4l1-1.9c.7.5 1.6.8 2.3.8.6 0 .9-.2.9-.5 0-1-3.9-1.1-3.9-3.8 0-1.5 1.2-2.5 3.1-2.5 1.3 0 2.2.4 3 1l-.9 1.9c-.6-.4-1.3-.7-2.1-.7-.5 0-.8.2-.8.4 0 1 3.9.8 3.9 3.8 0 1.6-1.2 2.6-3.2 2.6-1.3 0-2.5-.4-3.3-1.1M35.9 98.4l1-1.9c.7.5 1.6.8 2.3.8.6 0 .9-.2.9-.5 0-1-3.9-1.1-3.9-3.8 0-1.5 1.2-2.5 3.1-2.5 1.3 0 2.2.4 3 1l-.9 1.9c-.6-.4-1.3-.7-2.1-.7-.5 0-.8.2-.8.4 0 1 3.9.8 3.9 3.8 0 1.6-1.2 2.6-3.2 2.6-1.3 0-2.5-.4-3.3-1.1M48.9 98.5h-2.8l-.2.8h-2.4l2.6-8.7H49l2.5 8.7h-2.4zM46 89.9l-1.1-.5c.2-1.1.9-1.7 1.6-1.7.8 0 1.4.6 1.9.6.2 0 .5-.2.6-.6l1.1.5c-.2 1-.9 1.6-1.6 1.6-.8 0-1.4-.7-1.9-.7-.2.2-.5.4-.6.8m2.4 6.6-.9-3.4-.9 3.4zM60.9 94.9c0 2.8-1.6 4.6-4.2 4.6-2.5 0-4.1-1.7-4.1-4.4 0-2.8 1.6-4.6 4.2-4.6 2.5 0 4.1 1.7 4.1 4.4m-2.3.1c0-1.4-.7-2.3-1.7-2.3-1.1 0-1.8.9-1.8 2.3s.7 2.2 1.8 2.2c1 .1 1.7-.8 1.7-2.2" class="st0"/></svg>