<svg xmlns="http://www.w3.org/2000/svg" width="161.749" height="161.741"><g fill="#27bdbe"><path d="M26.852 130.916 49.36 107.04a7.97 7.97 0 0 1 10.785-.712l10.048 8.174a3.4 3.4 0 0 0 4.453-.087l1.286-1.153c4.271-3.791 9.585-8.51 19.004-23.59s11.337-21.93 12.874-27.422l.468-1.66a3.4 3.4 0 0 0-1.861-4.06L94.67 51.08a7.97 7.97 0 0 1-4.091-10.005l11.592-30.695a7.926 7.926 0 0 1 9.87-4.742l12.666 4.114a16.1 16.1 0 0 1 9.297 7.633c7.375 13.668 10.175 39.55-18.359 85.221-22.7 36.324-42.838 49.333-57.94 52.82a39.8 39.8 0 0 1-10.597 1.03 16.09 16.09 0 0 1-10.938-5.013l-9.253-9.572a7.927 7.927 0 0 1-.065-10.955m3.319 7.837 9.24 9.582a11.62 11.62 0 0 0 7.874 3.635c14.327.592 37.156-7.909 64.552-51.748S136.863 32.14 130.05 19.52a11.63 11.63 0 0 0-6.728-5.491l-12.66-4.108a3.44 3.44 0 0 0-4.283 2.059l-6.297 16.686-5.287 13.997a3.46 3.46 0 0 0 1.773 4.342l11.746 5.447a7.866 7.866 0 0 1 4.301 9.372l-.458 1.619c-1.614 5.779-3.62 12.969-13.39 28.602s-15.352 20.59-19.835 24.572l-1.256 1.125a7.866 7.866 0 0 1-10.31.242l-10.042-8.17a3.46 3.46 0 0 0-4.68.31l-22.506 23.874a3.436 3.436 0 0 0 .033 4.756M62.008 39.1a38.25 38.25 0 0 0-28.634 45.823 2.248 2.248 0 1 1-4.38 1.01 42.75 42.75 0 0 1 32-51.21 2.248 2.248 0 0 1 1.012 4.38Z"/><path d="M65.041 52.24a24.75 24.75 0 0 0-18.527 29.65 2.248 2.248 0 0 1-4.38 1.01A29.25 29.25 0 0 1 64.03 47.86a2.248 2.248 0 1 1 1.011 4.38"/><path d="M68.074 65.379a11.25 11.25 0 0 0-8.42 13.477 2.248 2.248 0 1 1-4.38 1.01A15.75 15.75 0 0 1 67.063 61a2.248 2.248 0 1 1 1.01 4.38"/></g></svg>