<svg xmlns="http://www.w3.org/2000/svg" width="46.799" height="43.894"><path fill="#505050" d="M15.415 29.019c0-4.392 5.695-5.094 5.695-7.513a1.7 1.7 0 0 0-1.852-1.7 2.79 2.79 0 0 0-2.2 1.442l-1.647-1.1a4.51 4.51 0 0 1 4.031-2.436c2.144 0 3.963 1.3 3.963 3.6 0 3.911-5.455 4.58-5.506 6.879H23.6v1.9h-8.082a8 8 0 0 1-.103-1.072m9.423-3.416 5.249-7.685h2.625v7.2h1.578v1.837h-1.578v3.148h-2.179v-3.141h-5.695zm5.695-.481v-3.77a12 12 0 0 1 .087-1.27h-.035a7 7 0 0 1-.6 1.115l-2.813 3.894v.033h3.362Zm10.744-.646-.424 1.518a16.7 16.7 0 0 1-19.9 11.918A16.46 16.46 0 0 1 8.659 19.503l2.517.7a.787.787 0 0 0 .974-.954L9.413 8.593A.787.787 0 0 0 8.1 8.226l-7.863 7.7a.787.787 0 0 0 .339 1.32l2.74.765a21.98 21.98 0 0 0 16.066 25.192c11.661 3.037 23.554-4.181 26.794-15.787l.405-1.452a.787.787 0 0 0-.546-.969l-3.79-1.058a.787.787 0 0 0-.968.542Zm4.478-6.641-3.974.516a.787.787 0 0 0-.679.882l.157 1.205a.787.787 0 0 0 .882.679l3.974-.516a.787.787 0 0 0 .679-.882l-.157-1.205a.787.787 0 0 0-.882-.676ZM42.7 10.328l-3.5 1.968a.787.787 0 0 0-.3 1.072l.6 1.059a.787.787 0 0 0 1.072.3l3.491-1.967a.787.787 0 0 0 .3-1.072l-.6-1.059a.787.787 0 0 0-1.063-.301m-5.65-5.817-2.5 3.132a.787.787 0 0 0 .124 1.106l.95.758a.787.787 0 0 0 1.106-.124l2.5-3.132a.787.787 0 0 0-.124-1.106l-.95-.758a.787.787 0 0 0-1.11.124Zm-7.417-3.277-1.145 3.841a.787.787 0 0 0 .529.979l1.165.347a.787.787 0 0 0 .979-.529L32.3 2.031a.787.787 0 0 0-.529-.979L30.607.703a.787.787 0 0 0-.979.532Zm-8.1-.26.377 3.99a.787.787 0 0 0 .857.709l1.21-.114a.787.787 0 0 0 .709-.857l-.377-3.99a.787.787 0 0 0-.866-.709l-1.21.114a.787.787 0 0 0-.709.858Zm-7.612 2.8 1.844 3.558a.787.787 0 0 0 1.061.336l1.074-.565a.787.787 0 0 0 .336-1.061l-1.844-3.558a.787.787 0 0 0-1.061-.336l-1.079.559a.787.787 0 0 0-.34 1.063Z"/></svg>