<svg xmlns="http://www.w3.org/2000/svg" width="165.267" height="50.712"><defs><style>.a{fill:#27bdbe}.b{fill:#fff}</style></defs><path d="m0 24.576 2.187-4.334A9.38 9.38 0 0 0 7.4 22.081c1.456 0 2.147-.421 2.147-1.075 0-2.264-9.013-2.418-9.013-8.783 0-3.336 2.722-5.791 7.133-5.791a11.74 11.74 0 0 1 6.9 2.187l-2.11 4.258a9.44 9.44 0 0 0-4.832-1.61c-1.226 0-1.763.461-1.763 1 0 2.338 9.013 1.917 9.013 8.629 0 3.72-2.8 6.021-7.247 6.021A12.8 12.8 0 0 1 0 24.576M34.783 6.706v19.943h-5.176l-5.944-9.858v9.855h-5.216V6.706h5.216l5.907 9.818V6.706ZM57.181 16.407c0 6.365-3.72 10.509-9.474 10.509-5.677 0-9.4-3.95-9.4-10.048 0-6.328 3.757-10.432 9.587-10.432 5.643 0 9.287 3.914 9.287 9.971m-5.37.23c0-3.146-1.533-5.139-3.987-5.139-2.531 0-4.141 2.034-4.141 5.253 0 3.146 1.573 5.1 4.1 5.1 2.455.003 4.028-1.991 4.028-5.213ZM84.563 6.706l-4.565 19.943h-3.72l-4.064-11.237-4.064 11.237h-3.72L59.865 6.706h5.33l1.957 9.741 3.259-9.741h3.6l3.3 9.741 1.917-9.741Z" class="a"/><path d="M113.574 12.318a.665.665 0 0 1 .654.608v13.843a1.44 1.44 0 0 1-.522 1.044 17 17 0 0 1-10.794 3.527c-9.4 0-15.67-6.267-15.67-15.67S93.509 0 102.912 0a18 18 0 0 1 9.142 2.525.68.68 0 0 1 .393.783l-2.175 6.4a.664.664 0 0 1-.826.347 13.7 13.7 0 0 0-6.267-1.524c-4.006 0-6.7 2.872-6.7 7.139 0 4.353 2.7 7.225 6.7 7.225 1.61 0 2.7-.3 3.176-.826v-2.526h-4.006c-.393 0-.654-.175-.7-.479l-.565-6.006a.635.635 0 0 1 .7-.74zM132.12 0c-9.271 0-15.452 6.267-15.452 15.713 0 9.357 6.181 15.627 15.452 15.627s15.452-6.267 15.452-15.627C147.571 6.267 141.391 0 132.12 0M154.253 24.072c3.576 1.1 3.987 3.324 3.523 4.82-.488 1.582-2.077 3.186-5.652 2.083-3.536-1.091-3.987-3.324-3.5-4.9.465-1.5 2.093-3.094 5.629-2.003M151.42 22.467a.664.664 0 0 1-.445-.774l5.7-20.7a.667.667 0 0 1 .817-.43l7.32 2.255a.67.67 0 0 1 .433.817l-6.986 20.3a.66.66 0 0 1-.8.39Z" class="b"/><path d="m143.092 18.911.24-.237-.089-.326ZM132.393 15.399l10.838 2.9-2.9-10.841-10.838-2.906ZM129.471 4.546l-.353-.1-.258.258Z" class="a"/><path d="m131.367 16.426-3-11.222-7.457 7.471 3 11.209 11.212 3 7.459-7.459Z" class="a"/><text style="fill:#fff;font-size:10px;font-family:Helvetica-LightOblique,Helvetica;font-weight:300;font-style:oblique" transform="translate(78.06 47.712)"><tspan x="0" y="0">gelo delivery</tspan></text></svg>