<svg xmlns="http://www.w3.org/2000/svg" width="189" height="54.415"><defs><style>.a{fill:#f7f9fa}</style></defs><path d="m0 28.105 2.5-4.957a10.7 10.7 0 0 0 5.965 2.1c1.665 0 2.456-.481 2.456-1.23 0-2.589-10.307-2.765-10.307-10.044 0-3.815 3.113-6.622 8.157-6.622a13.43 13.43 0 0 1 7.894 2.5l-2.413 4.875a10.8 10.8 0 0 0-5.526-1.84c-1.4 0-2.016.527-2.016 1.142 0 2.673 10.307 2.192 10.307 9.868 0 4.254-3.2 6.886-8.287 6.886A14.63 14.63 0 0 1 0 28.105M39.778 7.67v22.807h-5.919l-6.8-11.273v11.27h-5.963V7.67h5.965l6.756 11.228V7.67ZM65.392 18.764c0 7.279-4.254 12.018-10.834 12.018-6.492 0-10.746-4.518-10.746-11.491 0-7.237 4.3-11.93 10.964-11.93 6.449 0 10.616 4.476 10.616 11.403m-6.141.263c0-3.6-1.753-5.877-4.56-5.877-2.895 0-4.736 2.326-4.736 6.007 0 3.6 1.8 5.832 4.693 5.832 2.804.004 4.603-2.278 4.603-5.961ZM96.707 7.67l-5.225 22.807h-4.25l-4.65-12.851-4.648 12.851h-4.252L68.462 7.67h6.1L76.8 18.81l3.727-11.14h4.121l3.773 11.14 2.192-11.14h6.1ZM129.884 14.087a.76.76 0 0 1 .748.7v15.83a1.64 1.64 0 0 1-.6 1.194c-2.986 2.54-7.567 4.033-12.345 4.033-10.753 0-17.92-7.167-17.92-17.92S106.937 0 117.69 0a20.6 20.6 0 0 1 10.455 2.888.774.774 0 0 1 .45.9l-2.488 7.312a.76.76 0 0 1-.945.4 15.7 15.7 0 0 0-7.167-1.742c-4.581 0-7.665 3.285-7.665 8.164 0 4.978 3.084 8.263 7.665 8.263 1.841 0 3.084-.348 3.632-.945v-2.89h-4.581c-.45 0-.748-.2-.8-.548l-.646-6.868a.726.726 0 0 1 .8-.847zM151.093 35.84a19.9 19.9 0 0 1-7.234-1.288 15.9 15.9 0 0 1-5.577-3.635 16.1 16.1 0 0 1-3.59-5.641 20.5 20.5 0 0 1-1.27-7.307 20.8 20.8 0 0 1 1.27-7.369 16.2 16.2 0 0 1 3.589-5.666 15.8 15.8 0 0 1 5.577-3.645A19.8 19.8 0 0 1 151.093 0a19.8 19.8 0 0 1 7.234 1.289 15.8 15.8 0 0 1 5.577 3.645 16.2 16.2 0 0 1 3.59 5.666 20.8 20.8 0 0 1 1.27 7.365 20.5 20.5 0 0 1-1.27 7.308 16.1 16.1 0 0 1-3.589 5.641 15.9 15.9 0 0 1-5.577 3.634 19.9 19.9 0 0 1-7.235 1.292m-4.294-29.889-8.526 8.549 3.429 12.814 12.82 3.432 8.53-8.53-12.82-3.431zm1.29-.745 3.316 12.4 12.395 3.317-3.317-12.393zM176.404 27.529c4.089 1.261 4.56 3.8 4.029 5.512-.559 1.809-2.375 3.643-6.464 2.382-4.044-1.247-4.56-3.8-4-5.607.529-1.712 2.391-3.535 6.435-2.287M173.165 25.695a.76.76 0 0 1-.509-.885l6.513-23.671a.763.763 0 0 1 .934-.492l8.372 2.579a.77.77 0 0 1 .5.934l-7.989 23.218a.757.757 0 0 1-.917.446Z" class="a"/><text style="fill:#f7f9fa;font-size:9px;font-family:Helvetica-LightOblique,Helvetica;font-weight:300;font-style:oblique" transform="translate(89.27 52.414)"><tspan x="0" y="0">gelo delivery</tspan></text></svg>