<svg xmlns="http://www.w3.org/2000/svg" width="219.267" height="65.687"><g fill="#27bdbe"><path d="m0 32.605 2.9-5.751a12.44 12.44 0 0 0 6.922 2.44c1.932 0 2.849-.558 2.849-1.426 0-3-11.958-3.208-11.958-11.652 0-4.426 3.611-7.683 9.464-7.683a15.58 15.58 0 0 1 9.158 2.9l-2.8 5.649a12.5 12.5 0 0 0-6.411-2.136c-1.626 0-2.339.611-2.339 1.325 0 3.1 11.958 2.543 11.958 11.448 0 4.936-3.713 7.988-9.614 7.988A16.98 16.98 0 0 1 0 32.605M46.148 8.897v26.459h-6.867l-7.887-13.079v13.075h-6.92V8.897h6.92l7.837 13.026V8.897ZM75.864 21.768c0 8.445-4.936 13.943-12.569 13.943-7.532 0-12.467-5.241-12.467-13.331 0-8.4 4.984-13.841 12.72-13.841 7.482-.001 12.316 5.191 12.316 13.229m-7.124.306c0-4.173-2.034-6.819-5.29-6.819-3.358 0-5.494 2.7-5.494 6.969 0 4.173 2.087 6.766 5.445 6.766 3.252.004 5.338-2.641 5.338-6.917ZM112.194 8.897l-6.056 26.459h-4.936L95.81 20.447l-5.392 14.909h-4.936L79.426 8.897h7.071l2.6 12.924 4.324-12.924h4.781l4.377 12.924 2.543-12.924h7.075Z"/></g><path fill="#5a00d2" d="M150.684 16.343a.88.88 0 0 1 .868.807v18.365a1.9 1.9 0 0 1-.693 1.386c-3.464 2.947-8.779 4.679-14.322 4.679-12.475 0-20.79-8.314-20.79-20.79S124.062 0 136.538 0a23.87 23.87 0 0 1 12.129 3.35.9.9 0 0 1 .522 1.039l-2.886 8.49a.88.88 0 0 1-1.1.461 18.2 18.2 0 0 0-8.314-2.022c-5.315 0-8.893 3.811-8.893 9.472 0 5.775 3.578 9.586 8.893 9.586 2.136 0 3.578-.4 4.214-1.1v-3.35h-5.315c-.522 0-.868-.232-.925-.636l-.75-7.968a.842.842 0 0 1 .925-.982h15.642ZM175.289 0c-12.3 0-20.5 8.314-20.5 20.847 0 12.414 8.2 20.733 20.5 20.733s20.5-8.314 20.5-20.733C195.79 8.314 187.59 0 175.289 0M204.654 31.936c4.744 1.463 5.29 4.41 4.675 6.395-.648 2.1-2.755 4.226-7.5 2.763-4.691-1.447-5.29-4.41-4.642-6.5.616-1.989 2.776-4.105 7.467-2.658M200.896 29.809a.88.88 0 0 1-.591-1.027l7.556-27.462a.885.885 0 0 1 1.084-.571l9.712 2.992a.89.89 0 0 1 .575 1.084l-9.267 26.938a.88.88 0 0 1-1.064.518Z"/><g fill="#27bdbe"><path d="m175.651 20.431 14.379 3.847-3.847-14.383-14.379-3.855Z"/><path d="m174.29 21.792-3.981-14.888-9.892 9.912 3.978 14.872 14.876 3.982 9.9-9.9Z"/></g><text fill="#5a00d2" font-family="Helvetica-LightOblique, Helvetica" font-size="13" font-style="oblique" font-weight="300" transform="translate(103.566 62.687)"><tspan x="0" y="0">gelo delivery</tspan></text></svg>