<svg xmlns="http://www.w3.org/2000/svg" width="234.596" height="60.394"><path fill="#ee3128" fill-rule="evenodd" d="m121 10.924 6.1-6.062 7.164 7.25c1 1.137.254 2.21-.505 4.017l.505.763L133 18.161l-.674-.677c-2.192 1.045-3.646 1.234-4.265.474 0 0-7.062-7.117-7.062-7.034Z"/><path fill="#fff" fill-rule="evenodd" d="m128.862 12.687 2.464 3.268-.344.794.89-.495 1.33.794-.787-1.289.591-.893-.938.447ZM122.993 12.192l5.374 5.5a1.69 1.69 0 0 0 2.168-.148 2.23 2.23 0 0 1-1.825-.2l-5.57-5.4-.148.247Z"/><path fill="#ee3128" fill-rule="evenodd" d="m172.274 11.371-6.1-6.062-7.168 7.25c-1 1.137-.254 2.21.505 4.017l-.505.763 1.265 1.271.674-.677c2.192 1.045 3.646 1.234 4.265.474 0-.007 7.065-7.12 7.065-7.034Z"/><path fill="#fff" fill-rule="evenodd" d="m164.415 13.13-2.467 3.271.347.79-.887-.495-1.333.794.79-1.289-.591-.89.935.443ZM170.278 12.636l-5.374 5.5a1.69 1.69 0 0 1-2.168-.148 2.23 2.23 0 0 0 1.825-.2l5.57-5.4.148.251Z"/><path fill="#ee3128" fill-rule="evenodd" d="M146.931 0a4.127 4.127 0 1 1-4.127 4.127A4.135 4.135 0 0 1 146.931 0"/><path fill="#fff" fill-rule="evenodd" d="M146.941 2.182a1.883 1.883 0 1 1-1.883 1.883 1.886 1.886 0 0 1 1.883-1.883"/><path fill="#ee3128" fill-rule="evenodd" d="M144.381 7.399a12.2 12.2 0 0 0-3.787 1.2v3.334a3.76 3.76 0 0 0 1.873.684 19.14 19.14 0 0 1 9.151.127 3.8 3.8 0 0 0 1.405-.6l.041-3.509a15.7 15.7 0 0 0-3.66-1.326l-5.024.086Z"/><path fill="#fff" fill-rule="evenodd" d="M141.484 9.88a5.5 5.5 0 0 1 .808-.811l9.319.041a1.82 1.82 0 0 1 .893.942c.162-.557-.22-1-.852-1.326l-9.364-.041c-.735.333-.976.749-.8 1.2ZM141.484 10.649a1.3 1.3 0 0 0 .852.684h2.722l-.086.426-2.766-.041c-.924-.227-.783-.756-.725-1.069ZM152.377 10.649a1.3 1.3 0 0 1-.852.684H148.8l.086.426 2.766-.041c.924-.227.783-.756.725-1.069"/><path fill="#231f20" fill-rule="evenodd" d="M146.718 13.934a17.024 17.024 0 1 1-17.024 17.024 17.055 17.055 0 0 1 17.024-17.024"/><path fill="#231f20" fill-rule="evenodd" d="M146.622 15.374a15.495 15.495 0 1 1-15.495 15.495 15.524 15.524 0 0 1 15.495-15.495"/><path fill="#fff" fill-rule="evenodd" d="M146.745 19.817a11.151 11.151 0 1 1-11.151 11.151 11.174 11.174 0 0 1 11.151-11.151"/><path fill="#ee3128" fill-rule="evenodd" d="m123.687 34.937-.11 7.4 1.625.326c2.852 7.288 7.938 11.46 17.536 14.144a7.66 7.66 0 0 1 3.79 3.591 6.26 6.26 0 0 1 3.68-3.481c8.192-2.529 14.11-5.378 17.752-14.034l1.948-.326-.326-7.615-4.763 5.55.972 1.416c-4.024 6.928-9.436 9.065-15.481 9.031l-1.625-1.522a4.82 4.82 0 0 1-4.44-.216l-1.3 1.632c-7.8 0-12.694-3.447-15.587-9.247l1.082-1.089z"/><path fill="#fff" fill-rule="evenodd" d="m146.312 50.494-.866 3.481c-9.745-.948-16.484-5.182-19.594-13.381l1.732-.216-2.058-.653-1.3-3.481.759 3.807-1.081 1.632 1.3-.979q5.469 12.35 20.027 14.687l1.082 3.155zM147.285 53.975c7.893-.591 16-3.79 20.244-13.165l-1.734-.437 1.948-.436 1.409-3.481-.757 3.81 1.192 1.632-1.515-.869c-4.168 9.319-11.962 13.055-20.783 14.251v-1.3Z"/><path fill="#231f20" d="M146.512 12.12a18.84 18.84 0 0 1 18.8 18.8 18.84 18.84 0 0 1-18.8 18.8 18.84 18.84 0 0 1-18.8-18.8 18.84 18.84 0 0 1 18.8-18.8m0 .392a18.45 18.45 0 0 0-18.416 18.412 18.45 18.45 0 0 0 18.412 18.415 18.455 18.455 0 0 0 18.416-18.415 18.443 18.443 0 0 0-18.412-18.412"/><path fill="#fff" fill-rule="evenodd" d="M145.264 50.17h.11a.49.49 0 0 0 .519-.454v-2.725a.49.49 0 0 0-.519-.454h-.11a.49.49 0 0 0-.519.454v2.725a.49.49 0 0 0 .519.454"/><path fill="#231f20" d="M145.26 50.009h.11a.4.4 0 0 0 .261-.093.27.27 0 0 0 .1-.2v-2.725a.27.27 0 0 0-.1-.2.4.4 0 0 0-.261-.093h-.11a.4.4 0 0 0-.261.093.27.27 0 0 0-.1.2v2.726a.27.27 0 0 0 .1.2.4.4 0 0 0 .261.093Zm.107.323h-.107a.7.7 0 0 1-.471-.175.6.6 0 0 1-.21-.44v-2.725a.58.58 0 0 1 .206-.44.72.72 0 0 1 .474-.175h.11a.7.7 0 0 1 .471.175.6.6 0 0 1 .21.44v2.725a.57.57 0 0 1-.21.44.7.7 0 0 1-.471.175Z"/><path fill="#fff" fill-rule="evenodd" d="M146.453 50.17h.11a.49.49 0 0 0 .519-.454v-2.725a.49.49 0 0 0-.519-.454h-.11a.49.49 0 0 0-.519.454v2.725a.49.49 0 0 0 .519.454"/><path fill="#231f20" d="M146.453 50.009h.11a.4.4 0 0 0 .261-.093.27.27 0 0 0 .1-.2v-2.725a.27.27 0 0 0-.1-.2.4.4 0 0 0-.261-.093h-.11a.4.4 0 0 0-.261.093.27.27 0 0 0-.1.2v2.726a.27.27 0 0 0 .1.2.4.4 0 0 0 .261.093Zm.11.323h-.11a.7.7 0 0 1-.471-.175.6.6 0 0 1-.21-.44v-2.725a.57.57 0 0 1 .21-.44.72.72 0 0 1 .474-.175h.11a.7.7 0 0 1 .471.175.6.6 0 0 1 .21.44v2.725a.57.57 0 0 1-.21.44.73.73 0 0 1-.474.175"/><path fill="#fff" fill-rule="evenodd" d="M147.687 50.17h.11a.49.49 0 0 0 .519-.454v-2.725a.49.49 0 0 0-.519-.454h-.11a.49.49 0 0 0-.519.454v2.725a.493.493 0 0 0 .519.454"/><path fill="#231f20" d="M147.686 50.009h.11a.4.4 0 0 0 .261-.093.27.27 0 0 0 .1-.2v-2.725a.27.27 0 0 0-.1-.2.4.4 0 0 0-.261-.093h-.11a.4.4 0 0 0-.261.093.27.27 0 0 0-.1.2v2.726a.27.27 0 0 0 .1.2.4.4 0 0 0 .261.093Zm.11.323h-.11a.7.7 0 0 1-.471-.175.6.6 0 0 1-.21-.44v-2.725a.58.58 0 0 1 .206-.44.72.72 0 0 1 .474-.175h.11a.7.7 0 0 1 .471.175.6.6 0 0 1 .21.44v2.725a.57.57 0 0 1-.21.44.7.7 0 0 1-.471.175Z"/><path fill="#fff" fill-rule="evenodd" d="M162.683 29.516v.11a.51.51 0 0 0 .5.519h3a.515.515 0 0 0 .5-.519v-.11a.51.51 0 0 0-.5-.519h-3a.513.513 0 0 0-.5.519"/><path fill="#231f20" d="M162.844 29.514v.11a.4.4 0 0 0 .007.072.37.37 0 0 0 .093.182.33.33 0 0 0 .172.1.4.4 0 0 0 .065.007h3a1 1 0 0 0 .069-.007.4.4 0 0 0 .069-.021.3.3 0 0 0 .062-.038.37.37 0 0 0 .144-.292v-.11a.4.4 0 0 0-.007-.072.37.37 0 0 0-.093-.182.32.32 0 0 0-.172-.1.4.4 0 0 0-.065-.007h-3a1 1 0 0 0-.069.007.4.4 0 0 0-.069.021.3.3 0 0 0-.062.038.37.37 0 0 0-.144.292m-.323.11v-.11a.69.69 0 0 1 .275-.55.6.6 0 0 1 .12-.072.7.7 0 0 1 .134-.045.6.6 0 0 1 .134-.014h3a1 1 0 0 1 .134.014.65.65 0 0 1 .333.189.7.7 0 0 1 .179.344.6.6 0 0 1 .014.134v.11a.69.69 0 0 1-.275.55.6.6 0 0 1-.12.072.7.7 0 0 1-.134.045.6.6 0 0 1-.134.014h-3a.6.6 0 0 1-.134-.014.65.65 0 0 1-.333-.189.7.7 0 0 1-.179-.344.6.6 0 0 1-.014-.134"/><path fill="#fff" fill-rule="evenodd" d="M162.68 30.707v.11a.51.51 0 0 0 .5.519h3a.515.515 0 0 0 .5-.519v-.11a.51.51 0 0 0-.5-.519h-3a.513.513 0 0 0-.5.519"/><path fill="#231f20" d="M162.841 30.707v.11a.4.4 0 0 0 .007.072.37.37 0 0 0 .093.182.3.3 0 0 0 .172.1.4.4 0 0 0 .065.007h3a1 1 0 0 0 .069-.007.4.4 0 0 0 .069-.021.3.3 0 0 0 .062-.038.37.37 0 0 0 .144-.292v-.11a.4.4 0 0 0-.007-.072.4.4 0 0 0-.093-.182.32.32 0 0 0-.168-.1.4.4 0 0 0-.065-.007h-3a1 1 0 0 0-.069.007.4.4 0 0 0-.069.021.3.3 0 0 0-.062.038.36.36 0 0 0-.148.292m-.323.11v-.11a.69.69 0 0 1 .275-.55.6.6 0 0 1 .12-.072.7.7 0 0 1 .134-.045.6.6 0 0 1 .134-.014h3a.6.6 0 0 1 .134.014.65.65 0 0 1 .333.189.7.7 0 0 1 .179.344.6.6 0 0 1 .014.134v.11a.69.69 0 0 1-.275.55.6.6 0 0 1-.12.072.7.7 0 0 1-.134.045.6.6 0 0 1-.134.014h-3a1 1 0 0 1-.134-.014.65.65 0 0 1-.333-.189.7.7 0 0 1-.179-.344 1 1 0 0 1-.014-.134"/><path fill="#fff" fill-rule="evenodd" d="M162.676 31.941v.11a.51.51 0 0 0 .5.519h3a.515.515 0 0 0 .5-.519v-.11a.51.51 0 0 0-.5-.519h-3a.515.515 0 0 0-.5.519"/><path fill="#231f20" d="M162.838 31.94v.11a1 1 0 0 0 .007.079.4.4 0 0 0 .093.179.33.33 0 0 0 .162.093.3.3 0 0 0 .076.01h3a1 1 0 0 0 .069-.007.4.4 0 0 0 .069-.021.3.3 0 0 0 .062-.038.37.37 0 0 0 .144-.292v-.11a.4.4 0 0 0-.007-.072.37.37 0 0 0-.093-.182.33.33 0 0 0-.172-.1.4.4 0 0 0-.065-.007h-3a1 1 0 0 0-.069.007.4.4 0 0 0-.069.021.3.3 0 0 0-.062.038.36.36 0 0 0-.144.289Zm-.323.11v-.11a.69.69 0 0 1 .275-.55.6.6 0 0 1 .12-.072.7.7 0 0 1 .134-.045.6.6 0 0 1 .134-.014h3a.6.6 0 0 1 .134.014.65.65 0 0 1 .333.189.7.7 0 0 1 .179.344.6.6 0 0 1 .014.134v.11a.69.69 0 0 1-.275.55.6.6 0 0 1-.12.072.7.7 0 0 1-.134.045.6.6 0 0 1-.134.014h-3a.6.6 0 0 1-.151-.021.7.7 0 0 1-.316-.186.7.7 0 0 1-.175-.333.6.6 0 0 1-.017-.141Z"/><path fill="#fff" fill-rule="evenodd" d="M126.656 29.336v.11a.51.51 0 0 0 .5.519h3a.515.515 0 0 0 .5-.519v-.11a.51.51 0 0 0-.5-.519h-3a.513.513 0 0 0-.5.519"/><path fill="#231f20" d="M126.818 29.336v.11a1 1 0 0 0 .007.079.4.4 0 0 0 .093.179.32.32 0 0 0 .165.1.4.4 0 0 0 .072.007h3a1 1 0 0 0 .069-.007l.069-.021a.3.3 0 0 0 .062-.038.37.37 0 0 0 .144-.292v-.11a.4.4 0 0 0-.007-.072.37.37 0 0 0-.093-.182.33.33 0 0 0-.172-.1.4.4 0 0 0-.065-.007h-3a1 1 0 0 0-.069.007.4.4 0 0 0-.069.021.3.3 0 0 0-.062.038.36.36 0 0 0-.144.289Zm-.323.11v-.11a.69.69 0 0 1 .275-.55.6.6 0 0 1 .12-.072.7.7 0 0 1 .134-.045.6.6 0 0 1 .134-.014h3a.6.6 0 0 1 .134.014.67.67 0 0 1 .333.192.7.7 0 0 1 .179.344.6.6 0 0 1 .014.134v.11a.69.69 0 0 1-.275.55.6.6 0 0 1-.12.072.7.7 0 0 1-.134.045.6.6 0 0 1-.134.014h-3a.6.6 0 0 1-.141-.017.66.66 0 0 1-.326-.186.7.7 0 0 1-.175-.333 1 1 0 0 1-.017-.148Z"/><path fill="#fff" fill-rule="evenodd" d="M126.653 30.529v.11a.51.51 0 0 0 .5.519h3a.515.515 0 0 0 .5-.519v-.11a.51.51 0 0 0-.5-.519h-3a.515.515 0 0 0-.5.519"/><path fill="#231f20" d="M126.815 30.528v.11a.4.4 0 0 0 .007.072.37.37 0 0 0 .093.182.33.33 0 0 0 .172.1.4.4 0 0 0 .065.007h3a1 1 0 0 0 .065-.011l.069-.021a.3.3 0 0 0 .062-.038.37.37 0 0 0 .144-.292v-.11a.4.4 0 0 0-.007-.072.37.37 0 0 0-.093-.182.33.33 0 0 0-.172-.1.4.4 0 0 0-.065-.007h-3a1 1 0 0 0-.069.007.4.4 0 0 0-.069.021.3.3 0 0 0-.062.038.37.37 0 0 0-.144.292Zm-.32.11v-.11a.69.69 0 0 1 .275-.55.6.6 0 0 1 .12-.072.7.7 0 0 1 .134-.045.6.6 0 0 1 .134-.014h3a.6.6 0 0 1 .134.014.65.65 0 0 1 .333.189.7.7 0 0 1 .179.344.6.6 0 0 1 .014.134v.11a.69.69 0 0 1-.275.55.6.6 0 0 1-.12.072.7.7 0 0 1-.134.045.6.6 0 0 1-.134.014h-3a.6.6 0 0 1-.134-.014.65.65 0 0 1-.333-.189.7.7 0 0 1-.183-.344.6.6 0 0 1-.014-.134Z"/><path fill="#fff" fill-rule="evenodd" d="M126.653 31.762v.11a.51.51 0 0 0 .5.519h3a.515.515 0 0 0 .5-.519v-.11a.51.51 0 0 0-.5-.519h-3a.51.51 0 0 0-.5.519"/><path fill="#231f20" d="M126.811 31.762v.11a.4.4 0 0 0 .007.072.37.37 0 0 0 .093.182.33.33 0 0 0 .172.1.4.4 0 0 0 .065.007h3a1 1 0 0 0 .069-.007.4.4 0 0 0 .069-.021.3.3 0 0 0 .062-.038.37.37 0 0 0 .144-.292v-.11a.4.4 0 0 0-.007-.072.37.37 0 0 0-.093-.182.33.33 0 0 0-.172-.1.4.4 0 0 0-.065-.007h-3a.4.4 0 0 0-.072.007.2.2 0 0 0-.065.024 1 1 0 0 0-.062.038.35.35 0 0 0-.144.289Zm-.323.11v-.11a.69.69 0 0 1 .268-.546 1 1 0 0 1 .117-.072.6.6 0 0 1 .134-.045.7.7 0 0 1 .141-.017h3a.6.6 0 0 1 .134.014.65.65 0 0 1 .333.189.7.7 0 0 1 .179.344.6.6 0 0 1 .014.134v.11a.69.69 0 0 1-.275.55.6.6 0 0 1-.12.072.7.7 0 0 1-.134.045.6.6 0 0 1-.134.014h-3a1 1 0 0 1-.134-.014.65.65 0 0 1-.333-.189.7.7 0 0 1-.179-.344 1 1 0 0 1-.01-.134Z"/><path fill="#fff" fill-rule="evenodd" d="M145.622 14.872h.11a.49.49 0 0 0 .519-.447v-2.683a.487.487 0 0 0-.519-.447h-.11a.49.49 0 0 0-.519.447v2.683a.485.485 0 0 0 .519.447"/><path fill="#231f20" d="M145.621 14.711h.11a.4.4 0 0 0 .261-.093.26.26 0 0 0 .1-.2V11.74a.26.26 0 0 0-.1-.2.4.4 0 0 0-.261-.093h-.11a.4.4 0 0 0-.261.093.26.26 0 0 0-.1.2v2.684a.26.26 0 0 0 .1.2.38.38 0 0 0 .261.093Zm.11.32h-.11a.7.7 0 0 1-.471-.172.58.58 0 0 1-.21-.436V11.74a.57.57 0 0 1 .21-.436.72.72 0 0 1 .471-.172h.11a.7.7 0 0 1 .471.172.58.58 0 0 1 .21.436v2.684a.57.57 0 0 1-.21.436.72.72 0 0 1-.471.172Z"/><path fill="#fff" fill-rule="evenodd" d="M146.811 14.872h.11a.49.49 0 0 0 .519-.447v-2.683a.487.487 0 0 0-.519-.447h-.11a.49.49 0 0 0-.519.447v2.683a.49.49 0 0 0 .519.447"/><path fill="#231f20" d="M146.81 14.711h.11a.4.4 0 0 0 .261-.093.26.26 0 0 0 .1-.2V11.74a.26.26 0 0 0-.1-.2.4.4 0 0 0-.261-.093h-.11a.4.4 0 0 0-.261.093.26.26 0 0 0-.1.2v2.684a.26.26 0 0 0 .1.2.4.4 0 0 0 .261.093Zm.11.32h-.11a.7.7 0 0 1-.471-.172.58.58 0 0 1-.21-.436V11.74a.57.57 0 0 1 .21-.436.72.72 0 0 1 .471-.172h.11a.7.7 0 0 1 .471.172.58.58 0 0 1 .209.436v2.684a.57.57 0 0 1-.21.436.7.7 0 0 1-.471.172Z"/><path fill="#fff" fill-rule="evenodd" d="M148.048 14.872h.11a.49.49 0 0 0 .519-.447v-2.683a.487.487 0 0 0-.519-.447h-.11a.49.49 0 0 0-.519.447v2.683a.485.485 0 0 0 .519.447"/><path fill="#231f20" d="M148.044 14.711h.11a.4.4 0 0 0 .261-.093.26.26 0 0 0 .1-.2V11.74a.26.26 0 0 0-.1-.2.4.4 0 0 0-.261-.093h-.11a.4.4 0 0 0-.261.093.26.26 0 0 0-.1.2v2.684a.26.26 0 0 0 .1.2.38.38 0 0 0 .261.093Zm.107.32h-.107a.7.7 0 0 1-.471-.172.58.58 0 0 1-.21-.436V11.74a.57.57 0 0 1 .21-.436.72.72 0 0 1 .471-.172h.11a.7.7 0 0 1 .471.172.58.58 0 0 1 .21.436v2.684a.57.57 0 0 1-.21.436.7.7 0 0 1-.471.172Z"/><path fill="#ee3128" fill-rule="evenodd" d="M138.553 25.848a22.8 22.8 0 0 1 7.88-3.45 63 63 0 0 0 2.021 5.653c-2.883.392-5.23 1.931-7.732 2.952z"/><path fill="#fff" fill-rule="evenodd" d="M143.474 23.996a2.577 2.577 0 1 1-2.577 2.577 2.583 2.583 0 0 1 2.577-2.577"/><path fill="#2a3795" fill-rule="evenodd" d="m142.618 25.388-.069.093-.086-.086-.055-.168-.151.107-.278.107.093.069.052.155-.227.089-.058-.137-.155.093.024.12-.11.052.141.21.117.089-.144.034-.11.265-.124.1.1.052-.014.089.124.072.052.155.172.086.1-.134.124-.014v-.117l.124.072.031-.082.117.134.388-.028s.189.052.189.182-.186.271.137.285.32.292.529.268l.034.1.127.045c-.223.041-.148.34-.292.412a.49.49 0 0 1 .519.144l.065-.237c.065-.045.134-.079.082-.227l.1-.206a.43.43 0 0 1 .052-.316l.179-.23v-.674l.086-.041.072-.124.172-.258-.052-.113.089-.072-.031-.134.069-.093-.086-.258-.141-.124-.124-.031-.055.048-.076-.062-.127.041-.131-.038-.089.072-.127-.086-.048.072-.137-.113-.038-.158-.117-.048-.039.062h-.117l-.089.072h-.117l-.168.014-.017.12-.01.144-.127.041h-.158l.007.1-.172-.041Z"/><path fill="#ee3128" fill-rule="evenodd" d="m132.457 43.312-8.23 8.051 1.082 1.416 8.337-8.161Z"/><path fill="#fff" d="m133.114 44.205-2.165 2.172-.344-.344 2.161-2.175ZM128.577 48.762l-3.192 3-.337-.357 3.192-3Z"/><path fill="#ee3128" fill-rule="evenodd" d="m160.681 43.106 8.23 8.051-1.082 1.412-8.337-8.158Z"/><path fill="#fff" d="m160.37 43.652 2.165 2.175-.347.344-2.165-2.175ZM164.893 48.202l3.192 3-.337.354-3.189-3Z"/><path fill="#231f20" fill-rule="evenodd" d="M137.931 24.817a.66.66 0 1 1-.66.66.66.66 0 0 1 .66-.66"/><path fill="#231f20" d="m138.031 26.237 6.234 15.47.928.141-6.722-15.786zm.553-.385 6.849 16.075.065.155-.165-.024-1.144-.172-.052-.007-.021-.052-6.336-15.662.8-.313Z"/><path fill="#231f20" fill-rule="evenodd" d="m138.415 27.35.574-.23.629 1.436-.629.347ZM139.677 30.745l.746-.347.629 1.495-.746.46ZM141.051 33.97l.8-.285.574 1.436-.8.4ZM142.367 37.075l.746-.289.687 1.612-.859.344ZM143.628 40.411l.914-.46.746 2.014-1.144-.23ZM146.491 22.343a13.6 13.6 0 0 1 3.608-.348v1.265a7.4 7.4 0 0 0-3.148.4 11 11 0 0 1-.46-1.323ZM147.292 24.759a5.7 5.7 0 0 1 2.749-.344l.058-.921 3.206-1.553.687.863-3.835 2.072-.113.8a6.5 6.5 0 0 0-2.405.23l-.347-1.151ZM148.092 26.944a4.2 4.2 0 0 1 1.948-.117v-.519l4.636-2.412.4 1.265-4.983 2.533v.46a5.5 5.5 0 0 0-1.6-.113 11 11 0 0 0-.4-1.1ZM141.24 32.219c2.938-1.663 6.014-3.161 8.8-2.972a26.7 26.7 0 0 1 5.44-2.935l.285 1.323a54 54 0 0 0-5.9 2.993c-1.924-.543-5.017.976-8.168 2.742z"/><path fill="#231f20" fill-rule="evenodd" d="M142.082 34.41c3-1.67 5.959-3.131 7.728-2.8l.113.347a58 58 0 0 1 6.069-3.167l.23 1.323a48.6 48.6 0 0 0-6.3 3.223c-.509-1.388-3.814.227-7.385 2.223zM143.092 36.593c1.945-1.189 6.488-3.739 6.777-1.88a44 44 0 0 1 6.584-3.337l.172 1.381c-2.823 1.249-7.884 3.128-8.647 5.64.285.423 5.783-3.471 8.759-4.429l.172 1.381a39.2 39.2 0 0 0-7.959 4.258q-1.546.6-1.488-.632l-.46-3.165a24.6 24.6 0 0 0-3.454 1.88l-.46-1.1Z"/><path fill="#fff" fill-rule="evenodd" d="M147.147 35.806c1.089-.557 1.443-.574 1.464-.058a6.4 6.4 0 0 0-1.254 1.856l-.21-1.8Z"/><path fill="#231f20" d="m148.24 35.405-.065.921h-.048l.065-.921zm-.361-.117.027 1.495h-.05l-.027-1.495Zm-.278 0-.058 2.072h-.048l.058-2.072Zm-.457.168.058 1.21h-.048l-.058-1.21zM144.821 12.23a.195.195 0 1 1 .268.282 5 5 0 0 0-.735.852 2.8 2.8 0 0 0-.385.828.194.194 0 1 1-.375-.1 3.2 3.2 0 0 1 .436-.945 5.4 5.4 0 0 1 .79-.918ZM141.955 12.749a.194.194 0 0 1 .234.309 3.05 3.05 0 0 0-.8.887 2.8 2.8 0 0 0-.357 1.107.2.2 0 0 1-.216.172.193.193 0 0 1-.172-.213 3.2 3.2 0 0 1 .409-1.258 3.5 3.5 0 0 1 .907-1ZM138.814 13.835a.2.2 0 0 1 .275-.007.19.19 0 0 1 .007.275 4 4 0 0 0-.247.282 3 3 0 0 0-.192.278 1.55 1.55 0 0 0-.165 1.368.193.193 0 0 1-.117.247.2.2 0 0 1-.247-.117 1.93 1.93 0 0 1 .2-1.7 3 3 0 0 1 .22-.316 4 4 0 0 1 .271-.313ZM135.904 15.528a.193.193 0 1 1 .34.182 3.6 3.6 0 0 0-.392 1.148 3 3 0 0 0 .055 1.137.194.194 0 1 1-.378.089 3.4 3.4 0 0 1-.062-1.285 4 4 0 0 1 .437-1.271M133.357 17.636a.2.2 0 0 1 .375.113c-.027.1-.052.189-.069.275a2 2 0 0 0-.031.275 2.5 2.5 0 0 0 .375 1.423.194.194 0 1 1-.337.192 2.9 2.9 0 0 1-.43-1.639 3 3 0 0 1 .038-.323q.034-.161.079-.316M131.174 20.109a.2.2 0 0 1 .2-.192.193.193 0 0 1 .189.2 3.8 3.8 0 0 0 .137 1.155 2.6 2.6 0 0 0 .467.911.2.2 0 0 1-.306.244 3 3 0 0 1-.533-1.041 4.3 4.3 0 0 1-.155-1.275ZM129.467 22.91a.19.19 0 0 1 .179-.21.2.2 0 0 1 .213.179 2.44 2.44 0 0 0 .326 1.069 2.1 2.1 0 0 0 .756.732.194.194 0 1 1-.2.333 2.5 2.5 0 0 1-.893-.866 2.8 2.8 0 0 1-.385-1.237ZM151.374 12.835a.194.194 0 0 1 .237.137.2.2 0 0 1-.137.241 3.2 3.2 0 0 0-1 .443 1.5 1.5 0 0 0-.522.629.194.194 0 0 1-.357-.151 1.86 1.86 0 0 1 .653-.79 3.4 3.4 0 0 1 1.124-.509ZM154.515 13.956a.19.19 0 0 1 .22.162.2.2 0 0 1-.165.223 3.6 3.6 0 0 0-1.058.306 1.3 1.3 0 0 0-.567.488.2.2 0 0 1-.333-.2 1.7 1.7 0 0 1 .729-.636 4 4 0 0 1 1.175-.34ZM157.071 15.488a.2.2 0 1 1 0 .392 2 2 0 0 0-.859.158 1.1 1.1 0 0 0-.5.454.194.194 0 0 1-.337-.192 1.5 1.5 0 0 1 .674-.612 2.4 2.4 0 0 1 1.024-.2ZM159.522 17.443a.2.2 0 0 1 .151.23.19.19 0 0 1-.23.148 1.96 1.96 0 0 0-1.5.326.194.194 0 0 1-.21-.326 2.32 2.32 0 0 1 1.79-.378ZM161.614 19.759a.193.193 0 0 1-.144.357 1.5 1.5 0 0 0-.783-.107 1.9 1.9 0 0 0-.8.323.193.193 0 1 1-.216-.32 2.25 2.25 0 0 1 .966-.385 1.87 1.87 0 0 1 .979.131ZM163.288 22.608a.194.194 0 0 1-.2.333 2.4 2.4 0 0 0-.787-.3 1.9 1.9 0 0 0-.773.028.194.194 0 0 1-.089-.378 2.2 2.2 0 0 1 .931-.031 2.8 2.8 0 0 1 .914.351ZM164.408 25.505a.2.2 0 0 1-.2.333 2.2 2.2 0 0 0-.677-.271 2.9 2.9 0 0 0-.8-.055.195.195 0 0 1-.024-.388 3.1 3.1 0 0 1 .907.065 2.6 2.6 0 0 1 .8.316ZM128.371 25.996a.194.194 0 0 1 .344-.179 6 6 0 0 0 .625.972 4.5 4.5 0 0 0 .732.735.2.2 0 0 1-.244.306 5 5 0 0 1-.8-.8 7 7 0 0 1-.66-1.034ZM128.032 32.693a.193.193 0 1 1 .323-.213 2 2 0 0 0 .2.258 2 2 0 0 0 .23.22 1.8 1.8 0 0 0 1.309.44.194.194 0 1 1 .048.385 2.2 2.2 0 0 1-1.6-.522 3 3 0 0 1-.275-.258 4 4 0 0 1-.23-.309ZM163.384 28.105a.2.2 0 0 1-.151-.23.19.19 0 0 1 .23-.148 4.2 4.2 0 0 1 1.728.866.2.2 0 1 1-.244.306 3.86 3.86 0 0 0-1.564-.794ZM163.394 34.119a.194.194 0 0 1 .175-.347 2.2 2.2 0 0 1 .711.581 4 4 0 0 1 .557.931.19.19 0 0 1-.1.254.194.194 0 0 1-.258-.1 3.5 3.5 0 0 0-.5-.842 1.9 1.9 0 0 0-.584-.478ZM162.518 37.095a.19.19 0 0 1 .007-.275.2.2 0 0 1 .275.007 3.64 3.64 0 0 1 .931 1.749.193.193 0 1 1-.378.082 3.2 3.2 0 0 0-.306-.835 3.4 3.4 0 0 0-.529-.729ZM128.326 35.453a.194.194 0 0 1 .278-.271 2 2 0 0 0 .244.206 3.27 3.27 0 0 0 1.959.577.194.194 0 1 1 .048.385 3.6 3.6 0 0 1-1.886-.437 3 3 0 0 1-.347-.213 2 2 0 0 1-.3-.251ZM129.319 38.542a.193.193 0 0 1 .213-.323 3.3 3.3 0 0 0 1.055.474 2.5 2.5 0 0 0 1.038.027.194.194 0 0 1 .072.381 2.9 2.9 0 0 1-1.2-.031 3.6 3.6 0 0 1-1.182-.529ZM130.883 41.277a.194.194 0 0 1 .151-.357 5.6 5.6 0 0 0 1.137.375 1.55 1.55 0 0 0 .942-.076.193.193 0 0 1 .258.1.2.2 0 0 1-.1.258 1.92 1.92 0 0 1-1.175.1 6 6 0 0 1-1.216-.4ZM133.01 43.885a.195.195 0 1 1 .127-.368 2.5 2.5 0 0 0 1.038.137 2.8 2.8 0 0 0 1.045-.306.194.194 0 0 1 .175.347 3.3 3.3 0 0 1-1.189.347 2.9 2.9 0 0 1-1.2-.158ZM135.419 45.951a.2.2 0 0 1-.117-.251.19.19 0 0 1 .247-.113 2 2 0 0 0 1.021.11 2.6 2.6 0 0 0 1.038-.44.2.2 0 0 1 .271.048.19.19 0 0 1-.048.268 3 3 0 0 1-1.2.505 2.35 2.35 0 0 1-1.216-.127ZM138.141 47.855a.19.19 0 0 1-.2-.186.2.2 0 0 1 .186-.206 3.4 3.4 0 0 0 1.086-.223 3.7 3.7 0 0 0 1.089-.673.195.195 0 1 1 .258.292 4.1 4.1 0 0 1-1.206.746 3.8 3.8 0 0 1-1.21.251ZM141.46 48.975a.195.195 0 1 1-.079-.381 3 3 0 0 0 .292-.076 3 3 0 0 0 .275-.1 2.7 2.7 0 0 0 1.134-.928.195.195 0 1 1 .316.227 3.04 3.04 0 0 1-1.3 1.058 3 3 0 0 1-.313.113 3 3 0 0 1-.326.086ZM149.154 47.717a.19.19 0 0 1 .271-.031.193.193 0 0 1 .034.271l-.883 1.124a.19.19 0 0 1-.271.031.193.193 0 0 1-.034-.271zM152.003 46.903a.194.194 0 1 1 .375.1 3.8 3.8 0 0 1-.526 1.182 3.8 3.8 0 0 1-.9.935.193.193 0 0 1-.271-.038.19.19 0 0 1 .041-.271 3.5 3.5 0 0 0 .808-.838 3.7 3.7 0 0 0 .471-1.069ZM154.763 45.796a.2.2 0 0 1 .385.065 3.8 3.8 0 0 1-.4 1.151 4.4 4.4 0 0 1-.77 1.021.194.194 0 1 1-.275-.275 4 4 0 0 0 .7-.931 3.4 3.4 0 0 0 .361-1.031ZM157.233 44.153a.195.195 0 0 1 .381-.079 3.42 3.42 0 0 1-.309 2.192.193.193 0 1 1-.347-.168 3 3 0 0 0 .275-1.945M159.415 42.044a.195.195 0 1 1 .371-.117 4 4 0 0 1 .134.556 4 4 0 0 1-.01 1.426.194.194 0 1 1-.381-.072 3.7 3.7 0 0 0 .01-1.292q-.02-.122-.052-.251c-.032-.129-.048-.172-.072-.254ZM161.206 39.556a.195.195 0 0 1 .316-.227 2.5 2.5 0 0 1 .474 1.12 2.1 2.1 0 0 1-.161 1.137.194.194 0 1 1-.357-.151 1.7 1.7 0 0 0 .134-.931 2.14 2.14 0 0 0-.405-.948Z"/><path fill="#fff" fill-rule="evenodd" d="m140.267 41.484-1.752 2.414-1.787-1.3.3-.409 1.3.945.388-.533-1.21-.88.3-.406 1.21.88.478-.656-1.347-.979.3-.405 1.832 1.33Zm-2.174-1.746-.419.388-.388-.419.419-.388zm-3.43-2.848-.12-.6a1.32 1.32 0 0 1 .849.038 1.27 1.27 0 0 1 .591.577 1.3 1.3 0 0 1 .12 1.052 1.56 1.56 0 0 1-.783.873 1.62 1.62 0 0 1-1.2.223 1.32 1.32 0 0 1-.849-.684 1.24 1.24 0 0 1-.148-.935 1.2 1.2 0 0 1 .333-.533l.412.454a.62.62 0 0 0-.134.794.68.68 0 0 0 .467.354 1.16 1.16 0 0 0 .773-.192 1.23 1.23 0 0 0 .6-.567.66.66 0 0 0-.045-.577.6.6 0 0 0-.333-.289.87.87 0 0 0-.543.014Zm.529-1.546-.543.175-.175-.543.543-.175zm-1.88-4.051.144-.594a1.3 1.3 0 0 1 .753.4 1.4 1.4 0 0 1-.045 1.773 1.56 1.56 0 0 1-1.079.46 1.62 1.62 0 0 1-1.179-.3 1.31 1.31 0 0 1-.481-.979 1.25 1.25 0 0 1 .261-.911 1.2 1.2 0 0 1 .526-.344l.182.584a.614.614 0 0 0-.457.66.67.67 0 0 0 .275.519 1.15 1.15 0 0 0 .783.151 1.28 1.28 0 0 0 .79-.258.66.66 0 0 0 .2-.543.6.6 0 0 0-.182-.4.9.9 0 0 0-.495-.21Zm-.447-1.371a1.9 1.9 0 0 1-.725-.278 1.5 1.5 0 0 1-.347-.351 1.2 1.2 0 0 1-.189-.43 1.7 1.7 0 0 1 .007-.653 1.4 1.4 0 0 1 .6-.955 1.83 1.83 0 0 1 2.227.43 1.38 1.38 0 0 1 .2 1.107 1.4 1.4 0 0 1-.6.959 1.53 1.53 0 0 1-1.175.172Zm.1-.612a1.1 1.1 0 0 0 .8-.082.78.78 0 0 0 .371-.533.77.77 0 0 0-.141-.629 1.15 1.15 0 0 0-.718-.375 1.1 1.1 0 0 0-.794.076.835.835 0 0 0-.227 1.175 1.13 1.13 0 0 0 .711.368Zm2.055-2.412-2.7-1.258.536-1.148a2.2 2.2 0 0 1 .364-.594.7.7 0 0 1 .405-.192.9.9 0 0 1 .481.079.8.8 0 0 1 .419.412.95.95 0 0 1 0 .649 1.4 1.4 0 0 1 .364-.186 3.7 3.7 0 0 1 .584-.107l.68-.086-.306.653-.77.12a4 4 0 0 0-.533.1.5.5 0 0 0-.189.11 1 1 0 0 0-.158.261l-.052.11 1.127.526-.254.546Zm-1.3-1.271.189-.4a2.5 2.5 0 0 0 .2-.505.33.33 0 0 0-.045-.206.4.4 0 0 0-.179-.151.37.37 0 0 0-.254-.031.4.4 0 0 0-.2.155 4 4 0 0 0-.2.4l-.2.426.691.32Zm2.684-1.347-2.411-1.754.354-.488 2.412 1.753-.354.488Zm.663-.99-2.144-2.069.405-.423 2.278.505-1.433-1.381.388-.4 2.144 2.069-.419.433-2.234-.485 1.4 1.35zm2.7-2.457-1.313-2.1-.749.467-.268-.426 2.007-1.254.268.426-.749.467 1.313 2.1zm1.59-1.035-.921-2.835.574-.186.361 1.117 1.124-.364-.361-1.117.57-.186.921 2.835-.574.186-.4-1.237-1.12.364.4 1.241zm2.873-.869-.519-2.935.591-.1.519 2.935zm3.825-.254-.653.01-.271-.674-1.192.021-.234.68-.639.01 1.107-3 .636-.01zm-1.127-1.158-.43-1.1-.385 1.113.814-.014Zm1.443 1.241.67-2.9.57.131.742 2.213.447-1.938.546.127-.67 2.9-.583-.143-.732-2.165-.436 1.893-.55-.124Zm3.24-.158.546.216a.72.72 0 0 0-.007.481.8.8 0 0 0 .773.412.36.36 0 0 0 .261-.189.3.3 0 0 0 .027-.189.5.5 0 0 0-.134-.213 8 8 0 0 0-.371-.333 1.6 1.6 0 0 1-.471-.57.78.78 0 0 1 .337-.979.8.8 0 0 1 .467-.1 1.4 1.4 0 0 1 .57.175 1.25 1.25 0 0 1 .639.6.87.87 0 0 1-.034.722l-.55-.251a.5.5 0 0 0 0-.368.6.6 0 0 0-.3-.261.68.68 0 0 0-.416-.089.22.22 0 0 0-.168.12.25.25 0 0 0 0 .2 1.6 1.6 0 0 0 .4.43 3 3 0 0 1 .481.488.8.8 0 0 1 .155.419.87.87 0 0 1-.11.478.9.9 0 0 1-.344.361.86.86 0 0 1-.509.113 1.7 1.7 0 0 1-.629-.2 1.3 1.3 0 0 1-.653-.625 1.2 1.2 0 0 1 .031-.856Zm5.182 3.575.271.55a1.3 1.3 0 0 1-.832.182 1.3 1.3 0 0 1-.722-.405 1.27 1.27 0 0 1-.385-.983 1.55 1.55 0 0 1 .533-1.045 1.63 1.63 0 0 1 1.1-.526 1.32 1.32 0 0 1 1 .44 1.23 1.23 0 0 1 .385.863 1.2 1.2 0 0 1-.182.6l-.515-.33a.614.614 0 0 0-.076-.8.69.69 0 0 0-.543-.223 1.16 1.16 0 0 0-.7.388 1.25 1.25 0 0 0-.436.7.66.66 0 0 0 .2.546.6.6 0 0 0 .4.192.95.95 0 0 0 .512-.158Zm1.264 3.923-.326-.567.457-.564-.595-1.029-.708.127-.32-.553 3.161-.485.32.55zm.467-1.55.753-.907-1.158.2.405.7Zm2.495 1.055.326 1.144a3.5 3.5 0 0 1 .117.515.7.7 0 0 1-.034.333.74.74 0 0 1-.175.289.7.7 0 0 1-.309.186.7.7 0 0 1-.4 0 .7.7 0 0 1-.337-.223.78.78 0 0 1-.144.478.74.74 0 0 1-.392.265.85.85 0 0 1-.405.017.75.75 0 0 1-.364-.165.85.85 0 0 1-.247-.351q-.056-.14-.22-.691l-.278-.976 2.862-.818Zm-.313.715-.663.189.11.378q.099.34.131.416a.4.4 0 0 0 .168.2.3.3 0 0 0 .247.021.32.32 0 0 0 .2-.134.34.34 0 0 0 .038-.247 10 10 0 0 0-.131-.5l-.1-.326Zm-1.137.326-.766.22.155.536a2.5 2.5 0 0 0 .135.398.4.4 0 0 0 .175.179.36.36 0 0 0 .268.01.4.4 0 0 0 .2-.124.35.35 0 0 0 .079-.216 2.1 2.1 0 0 0-.107-.526l-.137-.471Zm-.649 2.663 2.979-.1.076 2.21-.505.017-.055-1.608-.66.024.052 1.495-.5.017-.052-1.495-.811.027.058 1.663-.5.017-.079-2.265Zm.8 4.852-.285.543a1.3 1.3 0 0 1-.636-.564 1.27 1.27 0 0 1-.1-.821 1.28 1.28 0 0 1 .567-.89 1.57 1.57 0 0 1 1.158-.186 1.64 1.64 0 0 1 1.072.577 1.31 1.31 0 0 1 .23 1.065 1.23 1.23 0 0 1-.471.818 1.2 1.2 0 0 1-.594.206l-.038-.612a.62.62 0 0 0 .4-.155.63.63 0 0 0 .2-.378.68.68 0 0 0-.13-.564 1.17 1.17 0 0 0-.722-.337 1.25 1.25 0 0 0-.828.062.66.66 0 0 0-.33.478.6.6 0 0 0 .079.433.87.87 0 0 0 .433.33Zm1.33 2.076-.244.55-1.474-.656a3.5 3.5 0 0 0-.464-.182.48.48 0 0 0-.344.048.65.65 0 0 0-.265.32.62.62 0 0 0-.062.4.4.4 0 0 0 .172.247 3.4 3.4 0 0 0 .45.23l1.505.67-.244.55-1.43-.636a4 4 0 0 1-.674-.354.83.83 0 0 1-.268-.316.9.9 0 0 1-.079-.419 1.5 1.5 0 0 1 .151-.56 1.6 1.6 0 0 1 .354-.55.9.9 0 0 1 .375-.213.9.9 0 0 1 .371-.021 3.6 3.6 0 0 1 .715.254l1.454.643Zm-1.718 3.333-.677.866a2 2 0 0 1-.4.412 1 1 0 0 1-.491.186 1.3 1.3 0 0 1-.557-.072 2.2 2.2 0 0 1-.615-.357 2 2 0 0 1-.443-.464 1.3 1.3 0 0 1-.216-.574 1.03 1.03 0 0 1 .072-.481 1.7 1.7 0 0 1 .278-.457l.7-.893 2.347 1.835Zm-.77.165-1.556-1.215-.278.354a1.6 1.6 0 0 0-.2.306.55.55 0 0 0-.052.268.6.6 0 0 0 .131.3 2.4 2.4 0 0 0 .845.663.7.7 0 0 0 .333.045.55.55 0 0 0 .282-.134 3 3 0 0 0 .326-.371l.172-.216Zm-5.622 1.976.509-.412.629.361.924-.749-.234-.68.495-.4.972 3.045-.495.4zm1.6.22 1.014.6-.381-1.113-.632.512ZM143.054 45.827l-.55-.158.594-2.069a1.95 1.95 0 0 1-.828.213l.144-.5a1.7 1.7 0 0 0 .543-.134 1.05 1.05 0 0 0 .478-.361l.447.127-.828 2.88Zm1.344-.412.557-.014a.4.4 0 0 0 .082.258.3.3 0 0 0 .216.1.37.37 0 0 0 .313-.134 1.36 1.36 0 0 0 .216-.66.69.69 0 0 1-.56.2.8.8 0 0 1-.581-.323 1 1 0 0 1-.192-.725 1 1 0 0 1 .333-.7.975.975 0 0 1 1.419.2 2.44 2.44 0 0 1-.216 2.323.98.98 0 0 1-.818.292.85.85 0 0 1-.546-.234.92.92 0 0 1-.223-.581Zm1.4-1.131a.64.64 0 0 0-.089-.436.37.37 0 0 0-.278-.179.32.32 0 0 0-.271.1.64.64 0 0 0-.141.4.67.67 0 0 0 .076.433.35.35 0 0 0 .271.158.35.35 0 0 0 .289-.107.57.57 0 0 0 .144-.371Zm1.2 1.206.546-.113a.54.54 0 0 0 .168.309.38.38 0 0 0 .289.086.4.4 0 0 0 .285-.158.52.52 0 0 0 .089-.371.5.5 0 0 0-.144-.33.37.37 0 0 0-.292-.1 1 1 0 0 0-.258.065l.021-.467a.52.52 0 0 0 .344-.131.36.36 0 0 0 .1-.292.308.308 0 0 0-.354-.3.33.33 0 0 0-.241.124.48.48 0 0 0-.1.306l-.533-.045a1.15 1.15 0 0 1 .127-.443.8.8 0 0 1 .285-.282 1.05 1.05 0 0 1 .436-.131.88.88 0 0 1 .694.21.7.7 0 0 1 .251.474.7.7 0 0 1-.371.66.694.694 0 0 1 .622.656.88.88 0 0 1-.227.691 1.074 1.074 0 0 1-1.375.165.94.94 0 0 1-.361-.584Zm2.636-.278.529-.213a.5.5 0 0 0 .223.254.38.38 0 0 0 .3.031.39.39 0 0 0 .251-.223.68.68 0 0 0 0-.454.6.6 0 0 0-.23-.361.42.42 0 0 0-.347-.045.58.58 0 0 0-.364.33l-.464.062-.161-1.57 1.454-.416.148.515-1.034.3.055.512a.9.9 0 0 1 .347-.2.85.85 0 0 1 .694.089.98.98 0 0 1 .45.615 1.08 1.08 0 0 1-.024.691.95.95 0 0 1-.667.6 1 1 0 0 1-.708-.027.9.9 0 0 1-.464-.488Z"/><path fill="#fff" fill-rule="evenodd" d="m159.727 34.151-.289.54a1.3 1.3 0 0 1-.629-.57 1.25 1.25 0 0 1-.086-.821 1.27 1.27 0 0 1 .577-.883 1.56 1.56 0 0 1 1.161-.172 1.64 1.64 0 0 1 1.065.591 1.32 1.32 0 0 1 .22 1.069 1.24 1.24 0 0 1-.481.814 1.2 1.2 0 0 1-.594.2l-.031-.612a.6.6 0 0 0 .4-.151.63.63 0 0 0 .206-.375.67.67 0 0 0-.134-.57 1.17 1.17 0 0 0-.718-.344 1.26 1.26 0 0 0-.828.052.66.66 0 0 0-.333.474.6.6 0 0 0 .076.433.87.87 0 0 0 .419.326Zm-1.649-1.594.237.045a3 3 0 0 0-.093.375.47.47 0 0 0 .014.275.16.16 0 0 0 .11.089.15.15 0 0 0 .131-.041.3.3 0 0 0 .086-.182.9.9 0 0 0 .01-.268l.189.089a1 1 0 0 1-.01.347.6.6 0 0 1-.182.361.34.34 0 0 1-.292.079.35.35 0 0 1-.258-.2.9.9 0 0 1-.045-.584 1.7 1.7 0 0 1 .1-.388ZM140.595 43.112a.7.7 0 1 1-.7.7.7.7 0 0 1 .7-.7M152.818 43.112a.7.7 0 1 1-.7.7.7.7 0 0 1 .7-.7"/><path fill="#fff" d="M145.141 1.69q-.128.13-.241.254a3.3 3.3 0 0 0-.959 2.155 2.3 2.3 0 0 0 .127.763 3.56 3.56 0 0 0 1.058 1.485l-.271.306a3.94 3.94 0 0 1-1.175-1.66 2.8 2.8 0 0 1-.151-.893 3.67 3.67 0 0 1 1.062-2.423q.124-.139.254-.271l.3.285ZM148.923 1.402a6 6 0 0 1 .464.505 3.53 3.53 0 0 1 .914 2.22 3.04 3.04 0 0 1-.931 2.106 6 6 0 0 1-.457.426l-.258-.316a5 5 0 0 0 .423-.392 2.63 2.63 0 0 0 .817-1.824 3.14 3.14 0 0 0-.818-1.962 7 7 0 0 0-.433-.471l.278-.292Z"/><path d="M64 15.286v17.489l22.573 27.619 22.58-27.619V15.286Z"/><path fill="#fff" d="M64.299 15.585V32.67l22.273 27.245 22.281-27.245V15.585Z"/><path d="M90.174 31.809v20.057l16.4-20.057Z"/><path fill="#ed1c24" d="m66.575 31.809 16.411 20.057V31.809Z"/><path fill="#ffde17" d="M106.578 10.06h-2.853l-.883-2.718-.883 2.718h-2.86l2.313 1.677-.883 2.725 2.313-1.685 2.313 1.685-.883-2.725ZM71.202 10.06l-.887-2.718-.883 2.718h-2.857l2.313 1.677-.883 2.725 2.31-1.68 2.313 1.685-.883-2.725 2.313-1.677Z"/><path fill="#ed1c24" d="m82.043 10.06-.883-2.718-.883 2.718h-2.853l2.306 1.677-.876 2.725 2.306-1.685 2.313 1.685-.883-2.725 2.313-1.677ZM87.456 2.718 86.573 0l-.883 2.718h-2.853l2.306 1.677-.876 2.725 2.306-1.685 2.313 1.685-.883-2.725 2.313-1.677ZM95.736 10.06h-2.853L92 7.342l-.883 2.718h-2.86l2.313 1.677-.883 2.725L92 12.777l2.306 1.685-.883-2.725Z"/><path d="M66.575 17.652h40.002v12.024H66.575z"/><path fill="#fff" d="M104.811 22.406v-1.258a1.684 1.684 0 0 0-1.677-1.677h-4.237a1.684 1.684 0 0 0-1.677 1.677v5.031a1.684 1.684 0 0 0 1.677 1.677h4.237a1.684 1.684 0 0 0 1.677-1.677v-1.258h-1.677v.839a.42.42 0 0 1-.419.419h-3.4a.42.42 0 0 1-.419-.419v-4.193a.42.42 0 0 1 .419-.419h3.4a.42.42 0 0 1 .419.419v.839ZM68.35 21.148v1.677a1.68 1.68 0 0 0 1.677 1.677h3.818a.423.423 0 0 1 .419.419v.839a.423.423 0 0 1-.419.419h-5.5v1.677h5.915a1.684 1.684 0 0 0 1.677-1.677v-1.677a1.684 1.684 0 0 0-1.677-1.677h-3.814a.42.42 0 0 1-.419-.419v-.839a.42.42 0 0 1 .419-.419h5.5v-1.677h-5.919a1.68 1.68 0 0 0-1.677 1.677M83.893 19.471h-5.915v8.385h1.677v-3.354h4.238a1.677 1.677 0 0 0 1.67-1.677v-1.677a1.68 1.68 0 0 0-1.67-1.677m0 2.935a.423.423 0 0 1-.419.419h-3.818v-1.677h3.818a.43.43 0 0 1 .419.419ZM87.591 27.856h1.677v-3.354h4.233v-1.677h-4.238v-1.677h5.915v-1.677h-7.587Z"/><g fill-rule="evenodd"><path fill="#007344" d="M26.259 56.473A26.236 26.236 0 1 0 .03 30.229a26.29 26.29 0 0 0 26.229 26.244"/><path fill="#fff" d="M26.259 55.633a25.462 25.462 0 1 1 17.946-7.459 25.37 25.37 0 0 1-17.946 7.459"/><path fill="#007344" d="M26.259 55.113A24.968 24.968 0 1 0 8.7 47.799a24.82 24.82 0 0 0 17.559 7.314"/><path fill="#fff" d="m12.844 12.334-.316.7.573.52-.777-.086-.307.7-.171-.757-.742-.086.656-.381-.157-.757.564.52ZM11.081 14.515l-.278.934.81.553-.978.033-.257.928-.349-.9-.966.021.762-.585-.328-.934.807.553ZM9.137 17.569l-.039 1.191 1.138.372-1.152.363v1.17l-.709-.949-1.117.331.7-.928-.683-1 1.135.393ZM7.81 21.392l.307 1.7 1.723.242-1.551.822.31 1.708-1.256-1.186-1.531.807.757-1.551-1.256-1.236 1.741.236ZM39.686 12.334l.328.7-.582.52.774-.086.307.7.171-.757.757-.086-.671-.381.171-.757-.585.52ZM41.463 14.515l.263.934-.816.553.987.033.257.928.34-.9.966.021-.757-.585.331-.934-.81.553ZM43.412 17.569l.012 1.191-1.117.372 1.138.363.015 1.17.689-.949 1.123.331-.709-.928.691-1-1.138.393ZM44.721 21.392l-.3 1.7-1.735.242 1.546.822-.31 1.708 1.277-1.188 1.519.807-.762-1.551 1.274-1.235-1.755.236ZM17.537 34.088a.19.19 0 0 0-.21.021L9.08 45.041a.38.38 0 0 0 .038.452 27.7 27.7 0 0 0 4.542 4.043c.106.071.3.225.381.021l.881-2.072a.33.33 0 0 0-.086-.361 17.3 17.3 0 0 1-2.379-1.977.47.47 0 0 1 0-.5l6.492-9.439c.033-.033 0-.118-.053-.139a13 13 0 0 1-1.359-.981M25.281 53.358c.118 0 .118-.086.118-.157l.118-15.978a.126.126 0 0 0-.118-.106c-.393-.012-.81-.065-1.223-.118-.053-.021-.118.012-.157.086l-1.927 4.442c-.053.106-.086.086-.106-.021l-.151-4.988c0-.071-.021-.106-.053-.106a13 13 0 0 1-1.392-.585.1.1 0 0 0-.139.053l-5.8 13.96a.156.156 0 0 0 .053.189c.564.361 1.138.671 1.723.987.065.033.2.065.236-.053l3.57-9.988c.033-.118.065-.139.065.021l.157 8.472c0 .446.033.446.225.033l3.393-7.544c.033-.1.065-.1.053.021l-.881 11.023c-.012.065.071.151.139.171.706.1 1.41.157 2.1.189ZM31.223 38.136a20 20 0 0 1-2.615.618c-.053 0-.118.086-.118.157l.1 4.2a.157.157 0 0 0 .177.157q1.569-.235 3.115-.57c.139-.033.189 0 .225.192l.257 1.649c.021.092.033.21-.086.242q-1.707.412-3.443.671c-.086.021-.189.053-.189.21l.106 4.359c0 .225.139.343.257.322a22 22 0 0 0 3.942-.774c.086-.012.21-.047.242.139l.343 2.273c.038.124-.086.242-.236.275a23.3 23.3 0 0 1-6.6 1.123c-.171 0-.31-.053-.31-.21l.106-15.878c0-.086.151-.139.257-.139a13.6 13.6 0 0 0 4.114-.81c.157-.053.21-.033.21.038l.257 1.6c.015.109-.027.13-.109.163ZM34.651 51.774c-.053.012-.139.012-.157-.071l-2.858-15.582c-.012-.032 0-.053.053-.065.434-.192.86-.414 1.274-.638.032-.021.118-.033.118.012l3.963 15.018c.033.118.021.171-.032.21-.777.408-1.534.768-2.361 1.117ZM47.284 31.223c-.106.511-.242.993-.393 1.478-.021.033-.053.118-.157.086l-.343-.189c-.053-.032-.118.021-.157.053l-.532 1.327a.2.2 0 0 0 .086.257l2.394 1.6a.188.188 0 0 0 .3-.139 23.4 23.4 0 0 0 .65-5.8.2.2 0 0 0-.139-.21l-3.957-1.374a.38.38 0 0 0-.5.151 27 27 0 0 1-.978 1.723c-.053.053-.139.157-.275.086l-1.944-.946c-.092-.053-.157-.1-.092-.257l.316-.692c.033-.086.151-.065.225-.033l.671.257a.13.13 0 0 0 .192-.065l.31-.827c.033-.065-.071-.157-.139-.189l-2.6-.892a.165.165 0 0 0-.2.106 16 16 0 0 1-1.105 2.562.256.256 0 0 0 .071.343l4.923 3.319a.23.23 0 0 0 .328-.106c.5-.789.96-1.6 1.413-2.385a.14.14 0 0 1 .2-.053l1.359.606c.059.006.1.071.08.2ZM4.729 37.999c-.033-.086.065-.189.139-.242l9.95-6.3a.18.18 0 0 1 .189.038c.3.343.585.683.892 1.031a.26.26 0 0 1 .053.225L8.671 44.687c-.053.065-.225.012-.275-.053a14 14 0 0 1-.842-1.155.23.23 0 0 1 .012-.257l1.708-2.739a.4.4 0 0 0 .033-.393c-.3-.774-.553-1.531-.795-2.308-.012-.071-.171-.086-.236-.053l-2.722 1.826c-.071.033-.21.012-.242-.053-.2-.479-.411-1-.582-1.5Zm8.13-3.325-2.825 1.9a.18.18 0 0 0-.071.225 10 10 0 0 0 .488 1.392c.033.118.139.192.2.065l2.222-3.561c.015-.021-.006-.033-.018-.021ZM43.477 45.61c-.053.053-.139.106-.2.021l-4.391-5.322c-.038-.053-.106-.106-.177-.053l-.757.532c-.065.053-.157.124-.106.263l2.722 7.211a.15.15 0 0 1-.053.189 27 27 0 0 1-2.181 1.551c-.053.033-.139.065-.157-.021l-4.363-14.894.086-.118a12.8 12.8 0 0 0 2.846-2.358.514.514 0 0 1 .86.139l2.893 4.764a1.28 1.28 0 0 1-.071 1.454l-.086.1 4.326 4.805a.147.147 0 0 1 .012.225c-.393.538-.768 1-1.2 1.516Zm-5.316-7.855-1.191-2.34a.116.116 0 0 0-.189-.053c-.257.171-.52.393-.795.564a.08.08 0 0 0-.012.106l.978 2.615c.021.038.053.071.106.038l1.031-.742a.143.143 0 0 0 .071-.189ZM47.73 38.207c-.012.053-.053.106-.118.071l-2.358-1.622a.15.15 0 0 0-.157.038l-.978 2.476a.23.23 0 0 0 .033.189l1.637 2.722a.2.2 0 0 1 .021.151c-.3.467-.585.913-.892 1.359a.076.076 0 0 1-.124 0L37.566 31.57a.13.13 0 0 1 0-.151c.31-.387.585-.789.86-1.2a.08.08 0 0 1 .118-.033l9.681 6.229a.15.15 0 0 1 .047.151c-.16.538-.331 1.09-.541 1.643Zm-4.27-2.775-2.668-1.809c-.1-.065-.118-.053-.065.053l2.083 3.463c.033.053.118.171.189.012s.428-1.011.564-1.5c.021-.095-.053-.168-.1-.222ZM9.137 34.108a22.3 22.3 0 0 1-2.072-3.233.166.166 0 0 0-.236-.086l-3.156 1.079c-.189.071-.225-.053-.225-.139-.065-.736-.053-1.472-.053-2.2a.233.233 0 0 1 .189-.263l9.037-1.788a.185.185 0 0 1 .21.086 19 19 0 0 0 1.584 3.017c.053.065 0 .183-.053.225l-4.923 3.366q-.15.108-.3-.068Zm2.893-3.576q-.412-.6-.774-1.223a.066.066 0 0 0-.086 0l-2.326.81c-.106.012-.086.086-.065.118a10 10 0 0 0 1.028 1.63.18.18 0 0 0 .236.053l1.986-1.321a.08.08 0 0 0 0-.068ZM26.258 34.488a13.33 13.33 0 0 0 13.448-13.165 13.446 13.446 0 0 0-26.887 0 13.32 13.32 0 0 0 13.439 13.165"/><path fill="#007344" d="M26.259 33.956a12.64 12.64 0 0 1-8.918-3.714 12.5 12.5 0 0 1-3.7-8.919 12.626 12.626 0 1 1 12.618 12.633"/><path fill="#fff" d="M22.526 11.393a20 20 0 0 0 3.195-2.34 12.26 12.26 0 0 0-8.913 4.391 16.1 16.1 0 0 0 5.718-2.051M29.997 11.393a16 16 0 0 0 5.718 2.051 12 12 0 0 0-.724-.783 12.24 12.24 0 0 0-8.177-3.608 19.7 19.7 0 0 0 3.183 2.34M18.391 25.047a21 21 0 0 1-2.364-10.432 12.283 12.283 0 0 0 9.557 19.14 23.9 23.9 0 0 1-7.19-8.709ZM36.518 14.657a21.2 21.2 0 0 1-2.379 10.39 23.6 23.6 0 0 1-7.2 8.709 12.3 12.3 0 0 0 11.683-12.249 12.17 12.17 0 0 0-2.1-6.847Z"/><path fill="#fff" d="M26.259 33.542a23.6 23.6 0 0 0 7.447-8.845c1.965-4.01 2.674-8.091 2.261-10.8a15.9 15.9 0 0 1-6.218-2.169 20.5 20.5 0 0 1-3.49-2.595 19.4 19.4 0 0 1-3.463 2.595 16.1 16.1 0 0 1-6.229 2.154c-.393 2.722.29 6.8 2.275 10.81a23.5 23.5 0 0 0 7.417 8.848Z"/><path fill="#007344" d="M26.259 33.075c-.328-.242-.656-.479-.978-.742a22.6 22.6 0 0 1-6.046-7.586 22.8 22.8 0 0 1-2.512-9.267 12 12 0 0 1 .065-1.359 12 12 0 0 0 1.912-.343 15 15 0 0 0 3.029-1.105 19.5 19.5 0 0 0 3.464-2.181 13 13 0 0 0 1.064-.966 13 13 0 0 0 1.058.946 18 18 0 0 0 3.484 2.2 15.5 15.5 0 0 0 3.475 1.209 10 10 0 0 0 1.478.236c.033.434.053.848.053 1.262a22.44 22.44 0 0 1-2.512 9.366 22.9 22.9 0 0 1-6.079 7.624c-.3.239-.632.482-.955.706"/><path fill="#fff" d="M27.665 11.217a13 13 0 0 1-1.407-1.191 12 12 0 0 1-1.392 1.191ZM29.953 12.644a22 22 0 0 1-1.773-1.064h-3.836a19 19 0 0 1-1.773 1.064ZM33.573 14.089a15.2 15.2 0 0 1-2.911-1.085h-8.795a16 16 0 0 1-2.931 1.085ZM35.446 15.672c0-.381 0-.742-.033-1.085h-18.3c-.033.343-.033.7-.033 1.085ZM35.343 17.128c.038-.361.071-.724.086-1.085H17.098c.021.361.053.724.106 1.085ZM35.107 18.594a10 10 0 0 0 .183-1.064H17.234q.081.516.189 1.064ZM34.776 20.058l.257-1.085H17.491c.092.361.177.724.275 1.085ZM34.329 21.519c.118-.361.236-.724.343-1.085h-16.8c.106.361.2.724.328 1.085ZM33.797 23.001c.139-.381.269-.742.408-1.085H18.339c.118.343.257.7.414 1.085ZM33.142 24.461c.171-.361.343-.724.5-1.085H18.904c.157.361.31.724.488 1.085ZM32.384 25.923q.299-.542.585-1.085H19.574c.177.361.381.724.57 1.085ZM31.483 27.388c.242-.361.467-.724.692-1.085H20.369c.2.361.428.724.671 1.085ZM30.452 28.849c.275-.361.532-.7.795-1.085h-9.965c.257.381.511.724.789 1.085ZM29.217 30.298a12 12 0 0 0 .946-1.073h-7.8c.31.381.618.742.946 1.073ZM27.73 31.753c.4-.349.774-.709 1.138-1.079h-5.213c.361.369.742.73 1.155 1.079ZM26.258 32.937c.355-.257.7-.52 1.046-.795h-2.077c.34.275.689.538 1.031.795"/><path fill="#007344" d="M21.463 27.271c.52 0 1.138.021 1.445-.479a1.1 1.1 0 0 0 .192-.638v-6.131a.4.4 0 0 0-.157-.257 2 2 0 0 0-.913-.381 2.6 2.6 0 0 0 .934-.381.4.4 0 0 0 .139-.233v-3.745a.53.53 0 0 0-.071-.29.77.77 0 0 0-.31-.328 2.1 2.1 0 0 0-1.256-.033 2.7 2.7 0 0 1 .242-.52 1.37 1.37 0 0 1 1.445-.827 2.7 2.7 0 0 1 1.191.538 5 5 0 0 1 1.46-.934 5.5 5.5 0 0 1 1.959-.381 4.56 4.56 0 0 1 3.286 1.433 4.72 4.72 0 0 1 1.413 3.339 5.14 5.14 0 0 1-1.5 3.378 4.54 4.54 0 0 1-3.135 1.5 2.75 2.75 0 0 1-1.676-.488 1.56 1.56 0 0 1-.709-1.274.7.7 0 0 1 .021-.2 1.57 1.57 0 0 1 .414-1.064 1.47 1.47 0 0 1 1.132-.467 1 1 0 0 1 .171.012 1.34 1.34 0 0 1 .81.275.94.94 0 0 1 .3.724.855.855 0 0 1-.73.913 1.6 1.6 0 0 0 .316.071 2.21 2.21 0 0 0 1.959-1.5 1.56 1.56 0 0 0-.1-.848 2 2 0 0 1-.157-.736 1.7 1.7 0 0 1 .225-.934 1.07 1.07 0 0 0 .086-1 2.52 2.52 0 0 0-.875-1.182 2.47 2.47 0 0 0-1.451-.414 2.3 2.3 0 0 0-1.418.6 1.65 1.65 0 0 0-.691 1.138v13.376a2.24 2.24 0 0 1-1.138-.553 1.6 1.6 0 0 1-.393-.553 1.58 1.58 0 0 1-.892.4 1.77 1.77 0 0 1-1.568-.926"/><path fill="#fff" d="M22.209 27.582a1.35 1.35 0 0 0 .789.263 1.83 1.83 0 0 0 1.105-.742 1.56 1.56 0 0 0 .446 1 1.9 1.9 0 0 0 .532.328v-12.9a1.98 1.98 0 0 1 .81-1.413 2.66 2.66 0 0 1 1.664-.683 2.85 2.85 0 0 1 1.655.479 3 3 0 0 1 1.02 1.359 1.36 1.36 0 0 1-.106 1.274 1.56 1.56 0 0 0-.192.757 1.9 1.9 0 0 0 .139.638 1.9 1.9 0 0 1 .118 1.052 2.57 2.57 0 0 1-2.34 1.773 1.55 1.55 0 0 1-.656-.21.91.91 0 0 1-.393-1 .98.98 0 0 0 .5.381.3.3 0 0 0 .171.033c.316 0 .452-.275.452-.553a.55.55 0 0 0-.177-.446 1.03 1.03 0 0 0-.6-.189.6.6 0 0 0-.139-.012 1.04 1.04 0 0 0-.854.343 1.3 1.3 0 0 0-.328.86.5.5 0 0 0-.021.171 1.27 1.27 0 0 0 .526.987 2.6 2.6 0 0 0 1.5.414 4.1 4.1 0 0 0 2.878-1.4 4.76 4.76 0 0 0 1.395-3.115 4.43 4.43 0 0 0-1.309-3.094 4.26 4.26 0 0 0-3.029-1.317 4.8 4.8 0 0 0-1.82.361 4.4 4.4 0 0 0-1.445.952l-.106.118-.118-.086a3.1 3.1 0 0 0-1.17-.585 1.05 1.05 0 0 0-1.02.564 1.35 1.35 0 0 1 .81.157.98.98 0 0 1 .467.479.93.93 0 0 1 .106.446v3.738a.7.7 0 0 1-.257.511q-.08.055-.157.106a.7.7 0 0 1 .139.106.76.76 0 0 1 .275.532v6.132a1.7 1.7 0 0 1-.242.842 1.31 1.31 0 0 1-1.017.588Z"/></g><path fill="#231f20" fill-rule="evenodd" d="m209.307 54.67-.947-.987-.527-.435-.579-.415-.625-.363-.679-.357-.711-.348-.783-.3-.8-.311-.829-.282-.867-.272-.9-.256-.9-.262-.93-.256-.941-.276-.93-.271-.943-.279-.956-.311-.93-.322-.921-.357-.915-.374-.9-.409-.875-.455-.829-.481-.823-.547-.777-.573-.746-.639-.7-.705-.625-.757-.593-.809-.512-.9-.455-.967-.373-1.039-.2-.691-.136-.705-.107-.691-.032-.659.02-.685.052-.639.1-.651.137-.624.164-.633.19-.6.236-.593.236-.593.276-.573.282-.579.291-.553.322-.567.3-.558.328-.547.322-.541.317-.547.328-.533.3-.533.308-.521.282-.527.276-.521.25-.512.236-.527.2-.512.19-.5.144-.512.118-.507.092-.512.026-.216.02-.225.02-.216v-.688l-.02-.23-.02-.236-.026-.216-.04-.236-.032-.216-.046-.236-.052-.236-.038-.23-.072-.216-.066-.236-.092-.23-.078-.216-.092-.216-.1-.236-.112-.2-.1-.216-.118-.23-.118-.216-.118-.2-.138-.2-.117-.216-.139-.2-.158-.2-.153-.19-.158-.2-.571-.663L195.189 6l.829.429.394.184.409.2.4.178.409.178.4.178.429.17.415.164.42.153.409.158.42.144.429.138.42.138.429.118.42.118.435.118.429.1.44.112.429.078.435.1.44.066.429.092.438.066.435.052.449.046.455.052.44.04.449.026.435.04.461.014.435.02h.89l.435-.02.461-.014.435-.04.44-.026.449-.04.455-.052.44-.046.435-.052.449-.066.42-.092.449-.066.435-.1.42-.078.449-.112.42-.1.435-.118.429-.118.42-.118.429-.138.429-.138.42-.144.4-.158.429-.153.415-.164.42-.17.409-.178.416-.179.4-.178.4-.2.394-.184.842-.428L231 13.421l-.573.659-.158.2-.144.19-.158.2-.138.2-.132.21-.138.2-.118.2-.118.216-.118.23-.1.216-.107.2-.1.236-.086.216-.086.216-.086.23-.072.236-.066.216-.052.225-.046.236-.046.236-.032.216-.04.236-.032.216-.02.236-.014.23v.688l.014.216.02.225.032.216.086.512.118.507.153.512.184.5.21.512.236.527.25.512.271.521.291.527.3.521.311.533.322.533.317.547.328.541.337.557.3.558.322.567.282.553.291.579.276.573.236.593.236.593.184.6.17.633.138.625.1.651.046.639.02.685-.026.659-.107.691-.132.705-.21.691-.368 1.033-.455.967-.521.9-.593.809-.619.757-.705.705-.737.639-.783.573-.818.547-.849.481-.864.455-.9.409-.921.374-.915.357-.93.322-.961.311-.941.282-.936.271-.936.276-.93.256-.9.262-.9.256-.869.271-.829.282-.8.311-.777.3-.711.348-.685.357-.619.363-.587.415-.521.435-.938 1.013Z"/><path fill="#fff" fill-rule="evenodd" d="m207.547 51.843-.429-.256-.731-.383-.777-.357-.8-.328-.829-.3-.337-.118V34.288l3.906-2.925v20.48Zm-7.922-14.52v11.565l-.118-.032-.941-.276-.93-.265-.936-.291-.665-.225v-7.778l3.59-2.7Zm-7.421 5.585v3.405l-.809-.42-.8-.455-.763-.512-.164-.118 2.533-1.9Zm-7.07-7.92.02-.178.132-.573.158-.567.164-.567.216-.558.237-.557.256-.547.277-.553.291-.547.282-.541.328-.547.3-.541.317-.547.328-.521.324-.556.317-.541.308-.547.282-.521.291-.547.276-.558.236-.547.236-.541.184-.567.17-.553.138-.558.1-.573.04-.256.006-.256.02-.256.02-.25v-.276l-.02-.256-.02-.245-.008-.252-.04-.256-.032-.271-.046-.256-.06-.256-.052-.261-.066-.245-.06-.256-.09-.253-.086-.256-.1-.236-.1-.256-.114-.237-.1-.236-.138-.25-.118-.236-.124-.225-.138-.236-.138-.236-.144-.216-.158-.23-.164-.216-.17-.216-.142-.164 6.405-6.27.2.1.415.2.409.2.42.19.429.184.42.17.429.184.415.17.42.158.449.144.44.158.429.153.435.138.44.118.449.138.435.1.461.118.435.1.449.107.455.078.461.092.434.07.466.066.455.052.461.066.455.052.455.04.466.026.455.02.455.032h1.865l.461-.032.455-.02.461-.026.455-.04.455-.052.466-.066.455-.052.455-.066.461-.078.455-.092.449-.078.455-.107.44-.1.449-.118.435-.1.46-.127.429-.118.435-.138.44-.153.435-.158.429-.144.429-.158.44-.17.429-.184.144-.052zm40-16.9v28.77l-.5.216-.9.343-.915.311-.921.3-.93.291-.153.026v-27l4.315-3.257Zm-8.94 6.739v24.861l-.731.236-.849.291-.849.3-.792.328-.771.357-.337.184V28.088zm13.59 2.205.032.066.322.547.322.521.317.547.328.541.308.547.3.541.282.547.271.558.256.547.236.553.2.558.19.567.144.567.118.573.092.579.046.593.026.593-.046.613-.078.613-.118.613-.178.645-.357.947-.42.875-.475.823-.527.757-.593.705-.633.639-.383.317V27.032ZM193.609 36.929l1.324-.809a.65.65 0 0 0 .512.711c.337.092 1.575-.731 1.857-1.244.389-.7.271-1.923-.2-1.923-.567 0-1.831 1.382-2.64 1.382-.1 0-.613.164-.8-.613-.052-.2-.052-2.147-.052-2.536 0-1.6.6-1.917 1.909-2.766a9.2 9.2 0 0 1 2.352-.967l.216-.818.835-.455.014 2.925-1.264.481a.34.34 0 0 0-.337-.357 4 4 0 0 0-1.891 1.223s-.343 1.316.072 1.652c.236.2 2.173-1.575 2.925-1.376 0 0 .613.21.659.374a10.1 10.1 0 0 1 0 3.662 7 7 0 0 1-2.91 2.369 4.2 4.2 0 0 0-1.494.671v.679l-1.094.633.009-2.9Zm7.208-3.62a2 2 0 0 0 .256-.132.26.26 0 0 1 .2.072.37.37 0 0 1 .072.23 1.3 1.3 0 0 1-.072.317 2 2 0 0 1-.2.343 1.5 1.5 0 0 1-.256.291.48.48 0 0 1-.383.1.3.3 0 0 1-.132-.271 1.2 1.2 0 0 1 .052-.337 3 3 0 0 1 .2-.343 1.6 1.6 0 0 1 .263-.27m2.633-9.49 6.025-4.425v2.562l-1.206.777v-.343c0-.2-.066-.573-.066-.6 0-.066-.1-.078-.2-.078a14.5 14.5 0 0 0-2.087 1.673v2.378l1.356-.967v1.494l-1.376.93.02 1.172c0 .158-.066.731.337.705.078 0 .567-.475.884-.645l.026 1.126-3.662 2.7v-1.12c.481-.317.751-.461.751-1.232v-4.8c0-.553-.236-.679-.792-.481zm5.816 3.19a1 1 0 0 1 .256-.138.33.33 0 0 1 .2.06.5.5 0 0 1 .066.245 1.5 1.5 0 0 1-.066.3 2 2 0 0 1-.2.368 1.2 1.2 0 0 1-.256.262.47.47 0 0 1-.389.118.28.28 0 0 1-.124-.276 1.6 1.6 0 0 1 .046-.337c.072-.118.118-.216.2-.357.089-.078.19-.176.268-.242Zm8-10.916.066-.573c.046-.394-.21-.512-.558-.322a8.5 8.5 0 0 0-1.488.915 2.27 2.27 0 0 0-.374 1.534v3.417c0 .915.42.869.42.869.771-.052 1.955-.967 1.937-1.336l-.046-1.52 1.527-1.068-.072 2.343c-.026.976-1.411 1.863-2.4 2.594a15 15 0 0 1-1.8 1.126c-.864.429-1.474.132-1.474-1.468l-.02-3.647c0-3.221.843-3.754 2.977-4.9a2.86 2.86 0 0 1 1.382-.357c.1-.2.04-.869.256-1.146l1.151-.615-.032 3.043-1.445 1.114Zm3.667 2.283a1 1 0 0 1 .245-.132.4.4 0 0 1 .2.052.5.5 0 0 1 .066.245 1 1 0 0 1-.066.311 2 2 0 0 1-.2.343 1.3 1.3 0 0 1-.245.291.52.52 0 0 1-.389.118.33.33 0 0 1-.138-.291 1.3 1.3 0 0 1 .052-.337 1.6 1.6 0 0 1 .21-.343 1 1 0 0 1 .265-.256Z"/><path fill="#231f20" d="M199.018 19.613a4 4 0 0 1-.279.374 4 4 0 0 1-.438.449 5 5 0 0 1-2.047 1.086 5 5 0 0 0 1.514.233 5.2 5.2 0 0 0 1.681-.282 3.5 3.5 0 0 0 .276-1.379c0-.095-.006-.2-.014-.3q-.008-.083-.014-.155a1.3 1.3 0 0 1-.679-.023Zm-3.308 1.7a4.5 4.5 0 0 0 2.389-1.1 4 4 0 0 0 .656-.748.6.6 0 0 1-.092-.1l-.006-.006a.6.6 0 0 1-.063-.118 6.4 6.4 0 0 1-3.236-.055 9.8 9.8 0 0 1-2.474-1.11 5.17 5.17 0 0 0 2.827 3.236Zm2.058-10.09a5.5 5.5 0 0 1 3.855 1.578 5.33 5.33 0 0 1 1.618 3.82 5.39 5.39 0 0 1-1.615 3.834 5.48 5.48 0 0 1-3.855 1.595 5.36 5.36 0 0 1-3.808-1.595 5.44 5.44 0 0 1-1.448-2.611l-.052-.032.032-.052a5.4 5.4 0 0 1-.121-1.143 5.4 5.4 0 0 1 5.395-5.395Zm0 .3a5 5 0 0 0-1.01.1 15 15 0 0 1 1.8 2.8c.489.97.9 1.972 1.3 2.988a1.8 1.8 0 0 1 .51-.13l.086-.006a8 8 0 0 0 .291-2.614 6.1 6.1 0 0 0-.783-2.608l.043-.026a5.2 5.2 0 0 0-2.231-.5Zm-1.336.178a5.12 5.12 0 0 0-2.9 2.1 15.3 15.3 0 0 0 3.714 3.463q.415.272.855.527.359.206.734.394a2.3 2.3 0 0 1 .521-.5 3 3 0 0 1 .227-.141c-.4-1.016-.809-2.018-1.3-2.982a14.5 14.5 0 0 0-1.854-2.859Zm-3.076 2.371a5.06 5.06 0 0 0-.685 2.548 5 5 0 0 0 .107 1.036 10 10 0 0 0 2.66 1.232 6.1 6.1 0 0 0 3.1.049.4.4 0 0 1 0-.058 1.2 1.2 0 0 1 .13-.443 14 14 0 0 1-.725-.392q-.445-.255-.872-.535a15.5 15.5 0 0 1-3.716-3.437Zm6.471 7.249a5.2 5.2 0 0 0 1.583-1.077 5.3 5.3 0 0 0 .846-1.094 6.3 6.3 0 0 1-.972-.168q-.183-.042-.377-.083a2 2 0 0 1-.334.3l-.1.072a3 3 0 0 1-.273.173 2 2 0 0 1-.207.095 3.4 3.4 0 0 1 .04.55 3.7 3.7 0 0 1-.2 1.232Zm2.591-2.467a5 5 0 0 0 .521-2.231v-.141a4.7 4.7 0 0 1-1.071.982 4 4 0 0 1-.357.2 3 3 0 0 1-.242.109.9.9 0 0 1-.055.651 2 2 0 0 1-.107.207q.124.027.245.055a5 5 0 0 0 1.068.164Zm.486-2.836a5.05 5.05 0 0 0-1.488-3 5.2 5.2 0 0 0-1.022-.78 6.4 6.4 0 0 1 .648 2.407 8.2 8.2 0 0 1-.291 2.666.77.77 0 0 1 .36.207q.133-.053.268-.118a4 4 0 0 0 .328-.187 4.4 4.4 0 0 0 1.2-1.192Zm-3.382 1.911a1.45 1.45 0 0 0-.682.973.5.5 0 0 0 .012.153.4.4 0 0 0 .055.124.8.8 0 0 0 .907.1 2 2 0 0 0 .242-.107 2 2 0 0 0 .239-.15c.012-.009 0 0 0 0h.006q.052-.033.095-.066a1.65 1.65 0 0 0 .541-.651.54.54 0 0 0 .009-.515s-.006-.009-.012-.014v-.006a.57.57 0 0 0-.55-.188 1.94 1.94 0 0 0-.866.351Zm.771 1.1"/></svg>