<svg xmlns="http://www.w3.org/2000/svg" xml:space="preserve" id="Layer_1" x="0" y="0" version="1.1" viewBox="0 0 75.4 92"><style>.st0{fill:#27bdbe}</style><path d="M72.4 11.5c-.4-.7-1.3-1-2-.6s-1 1.3-.6 2c4.4 7.7 3.1 17.4-3.2 23.7l-1.1 1.1c-.3-.7-.7-1.4-1.3-1.9l-15-15.1c1-.5 1.9-1.1 2.7-1.9l2.9-2.9c.6-.6.6-1.5 0-2.1s-1.5-.6-2.1 0l-2.9 2.9c-1.3 1.4-3.2 2.1-5.1 2.1h-5.8c-.4 0-.8.2-1 .4l-4.4 4.4c-1.3 1.3-3.5 1.3-4.8 0s-1.3-3.5 0-4.8L38.8 8.7C45 2.5 54.6 1.2 62.3 5.4c.7.4 1.6.2 2-.5s.2-1.6-.5-2h-.1C59.4.6 54.5-.4 49.7.3c-4.5.6-8.6 2.5-12 5.5-9.4-8.4-23.7-7.6-32 1.8-8 9-7.6 22.6 1 31.1l.6.6c.1.1.2.2.3.2.2 2.9 2.6 5.1 5.5 5.1h.2v.2c0 3.1 2.5 5.5 5.5 5.5h.2v.2c0 3.1 2.5 5.5 5.5 5.5h.2c-.1 3.1 2.3 5.6 5.3 5.8 1.5.1 3.1-.5 4.2-1.6l2.1-2.1 2.8 2.8c2.2 2.2 5.7 2.2 7.8 0 1.1-1.1 1.7-2.6 1.6-4.2h.3c3.1 0 5.5-2.5 5.5-5.5V51h.2c3.1 0 5.5-2.5 5.5-5.5v-.2h.2c2.2 0 4.3-1.4 5.1-3.4.1-.1.3-.2.4-.3l2.9-2.9c7.4-7.2 8.9-18.3 3.8-27.2M13 41.7c-1.4 0-2.6-1.2-2.6-2.6 0-.7.3-1.4.8-1.9l2.5-2.5c1-1 2.7-1 3.7 0s1 2.7 0 3.7l-2.5 2.5c-.5.5-1.2.8-1.9.8m4 5c-1-1-1-2.7 0-3.7l2.5-2.5c1-1 2.7-1 3.7 0s1 2.7 0 3.7l-2.5 2.5c-1.1 1-2.7 1-3.7 0m5.7 5.7c-1-1-1-2.7 0-3.7l2.5-2.5c1-1 2.7-1 3.7 0s1 2.7 0 3.7l-2.5 2.5c-1 1.1-2.7 1.1-3.7 0m12 3.3-2.5 2.5c-1 1-2.7 1-3.7 0s-1-2.7 0-3.7L31 52c1-1 2.7-1 3.7 0s1 2.7 0 3.7m27.5-14.1c-1 1-2.7 1-3.7 0l-6.1-6.1-5.8-5.8c-.6-.6-1.5-.5-2.1.1-.5.6-.5 1.5 0 2l11.9 11.9c1 1 1 2.7 0 3.7s-2.7 1-3.7 0L40.9 35.5c-.6-.6-1.5-.6-2.1 0s-.6 1.5 0 2.1l5.8 5.8 6.1 6.1c1 1 1 2.7 0 3.7s-2.7 1-3.7 0L40.9 47c-.1-.1-.2-.2-.4-.3L38.7 45c-.6-.6-1.5-.5-2.1.1-.5.6-.5 1.5 0 2l8.2 8.2c1 1 1 2.7 0 3.7s-2.7 1-3.7 0L38 55.9c1.1-2.9-.3-6.1-3.2-7.2-.6-.2-1.3-.4-2-.4h-.2c.1-3.1-2.3-5.6-5.3-5.8h-.4c.1-3.1-2.3-5.6-5.3-5.8h-.4c.1-3.1-2.3-5.6-5.3-5.8-1.5-.1-3.1.5-4.1 1.6L9.3 35c-.3.3-.6.7-.8 1-7.7-7.7-7.3-20.2.6-27.7 7.4-6.9 18.8-7.2 26.4-.6l-9 9c-2.4 2.5-2.3 6.5.2 8.9 2.4 2.4 6.3 2.4 8.8 0l4-4h5.2c.4 0 .8 0 1.3-.1l16.3 16.2c.9 1.2.9 2.9-.1 3.9M17.5 79.3 15 88h-2.9l-2.6-8.7h2.4l1.6 6.1 1.6-6.1zM23.7 87.2h-2.8l-.2.8h-2.4l2.6-8.7h2.9l2.5 8.7h-2.4zm-.5-2-.9-3.4-.9 3.4zM32.4 85.8V88h-4.9v-8.7h2.3v6.6zM41.5 83.5c0 2.8-1.6 4.6-4.1 4.6s-4.1-1.7-4.1-4.4c0-2.8 1.6-4.6 4.2-4.6 2.4.1 4 1.8 4 4.4m-2.3.1c0-1.4-.7-2.3-1.7-2.3-1.1 0-1.8.9-1.8 2.3s.7 2.2 1.8 2.2c1 .1 1.7-.7 1.7-2.2M48 88l-1.6-2.5h-1V88h-2.3v-8.7h2.6c1.8 0 4.6 0 4.6 3.1 0 1.6-.8 2.4-1.7 2.8l2 2.8zm-1.6-4.5c.9 0 1.6 0 1.6-1.1 0-1-.8-1-1.6-1h-1v2.1zM54.1 81.5v1.2h3v2h-3v1.2H58V88h-6.2v-8.7H58v2.2zM59.4 87.1l1-1.9c.7.5 1.6.8 2.3.8.6 0 .9-.2.9-.5 0-1-3.9-1.1-3.9-3.8 0-1.5 1.2-2.5 3.1-2.5 1.3 0 2.2.4 3 1l-1 1.8c-.6-.4-1.3-.7-2.1-.7-.5 0-.8.2-.8.4 0 1 3.9.8 3.9 3.8 0 1.6-1.2 2.6-3.2 2.6-1.2 0-2.3-.3-3.2-1" class="st0"/></svg>