<svg xmlns="http://www.w3.org/2000/svg" xml:space="preserve" id="Layer_1" x="0" y="0" version="1.1" viewBox="0 0 75.3 74.7"><style>.st0{fill:#5a00d2}</style><path d="M74.1 17.8c-4.3-5.4-9.7-9.9-15.8-13C52 1.7 45.2.1 38.2 0H37c-7 .1-13.8 1.7-20 4.8s-11.6 7.5-15.8 13c-1.6 2.1-1.6 5 0 7.1 4.3 5.4 9.7 9.9 15.8 13 6.2 3.1 13.1 4.8 20 4.8h1.2c7-.1 13.8-1.7 20-4.8s11.6-7.5 15.8-13c1.7-2.1 1.7-5 .1-7.1M18.4 35.1c-5.8-2.9-10.8-7-14.8-12.1-.8-1-.8-2.3 0-3.3 5.1-6.6 12-11.5 19.8-14.2-8.8 7.9-9.5 21.3-1.7 30.1.5.6 1.1 1.1 1.7 1.7-1.7-.7-3.4-1.4-5-2.2m19.2 4.5c-10.1 0-18.3-8.2-18.3-18.3S27.5 3 37.6 3s18.3 8.2 18.3 18.3-8.2 18.3-18.3 18.3m34-16.6c-5.1 6.5-11.9 11.5-19.7 14.2 8.8-7.9 9.5-21.3 1.6-30.1-.5-.6-1-1.1-1.6-1.6 7.8 2.7 14.7 7.7 19.8 14.2.7.9.7 2.3-.1 3.3" class="st0"/><path d="M37.618 13.513c-4.3 0-7.8 3.5-7.8 7.8s3.5 7.8 7.8 7.8 7.8-3.5 7.8-7.8-3.5-7.8-7.8-7.8m0 12.6c-2.6 0-4.8-2.1-4.8-4.8s2.1-4.8 4.8-4.8c2.6 0 4.8 2.1 4.8 4.8 0 2.6-2.2 4.8-4.8 4.8M25.2 59.8l-2.9 10H19l-2.9-10h2.7l1.9 7 1.8-7zM29.2 59.8v10h-2.6v-10zM30.7 68.7l1.1-2.2c.8.6 1.8.9 2.6.9.7 0 1.1-.2 1.1-.5 0-1.1-4.5-1.2-4.5-4.4 0-1.7 1.4-2.9 3.6-2.9 1.4 0 2.5.4 3.5 1.1L37 62.8c-.7-.4-1.5-.8-2.4-.8-.6 0-.9.2-.9.5 0 1.2 4.5 1 4.5 4.3 0 1.9-1.4 3-3.6 3-1.6.1-2.9-.3-3.9-1.1M45.5 68.8h-3.2l-.2.9h-2.7l2.9-10h3.3l2.9 10h-2.7zm-3.3-9.9-1.2-.5c.2-1.2 1-1.9 1.9-1.9 1 0 1.6.7 2.2.7.3 0 .6-.2.7-.7l1.2.5c-.2 1.2-1 1.9-1.8 1.9-.9 0-1.7-.7-2.2-.7-.3 0-.6.2-.8.7m2.8 7.6-1-3.8-1 3.8zM59.2 64.6c0 3.2-1.9 5.3-4.7 5.3s-4.7-2-4.7-5c0-3.2 1.9-5.2 4.8-5.2 2.9-.1 4.6 1.9 4.6 4.9m-2.7.1c0-1.6-.8-2.6-2-2.6-1.3 0-2.1 1-2.1 2.6s.8 2.6 2.1 2.6 2-1 2-2.6" class="st0"/></svg>