<svg xmlns="http://www.w3.org/2000/svg" width="219.267" height="65.687" viewBox="0 0 219.267 65.687"><g transform="translate(0 8.534)"><path d="M0,45.011,2.9,39.26A12.438,12.438,0,0,0,9.822,41.7c1.932,0,2.849-.558,2.849-1.426,0-3-11.958-3.208-11.958-11.652,0-4.426,3.611-7.683,9.464-7.683a15.577,15.577,0,0,1,9.158,2.9l-2.8,5.649a12.521,12.521,0,0,0-6.411-2.136c-1.626,0-2.339.611-2.339,1.325,0,3.1,11.958,2.543,11.958,11.448,0,4.936-3.713,7.988-9.614,7.988A16.976,16.976,0,0,1,0,45.011Z" transform="translate(0 -20.94)" fill="#27bdbe"/><path d="M81.724,21.83V48.289H74.857L66.97,35.21V48.285H60.05V21.83h6.92l7.837,13.026V21.83Z" transform="translate(-35.576 -21.467)" fill="#27bdbe"/><path d="M149.747,34.18c0,8.445-4.936,13.943-12.569,13.943-7.532,0-12.467-5.241-12.467-13.331,0-8.4,4.984-13.841,12.72-13.841C144.913,20.95,149.747,26.142,149.747,34.18Zm-7.124.306c0-4.173-2.034-6.819-5.29-6.819-3.358,0-5.494,2.7-5.494,6.969,0,4.173,2.087,6.766,5.445,6.766C140.536,41.406,142.622,38.761,142.622,34.485Z" transform="translate(-73.883 -20.946)" fill="#27bdbe"/><path d="M227.648,21.83l-6.056,26.459h-4.936L211.264,33.38l-5.392,14.909h-4.936L194.88,21.83h7.071l2.6,12.924,4.324-12.924h4.781l4.377,12.924,2.543-12.924h7.075Z" transform="translate(-115.454 -21.467)" fill="#27bdbe"/></g><path d="M318.936,16.343a.882.882,0,0,1,.868.807V35.515a1.9,1.9,0,0,1-.693,1.386c-3.464,2.947-8.779,4.679-14.322,4.679-12.475,0-20.79-8.314-20.79-20.79S292.314,0,304.79,0a23.871,23.871,0,0,1,12.129,3.35.9.9,0,0,1,.522,1.039l-2.886,8.49a.88.88,0,0,1-1.1.461,18.222,18.222,0,0,0-8.314-2.022c-5.315,0-8.893,3.811-8.893,9.472,0,5.775,3.578,9.586,8.893,9.586,2.136,0,3.578-.4,4.214-1.1v-3.35h-5.315c-.522,0-.868-.232-.925-.636l-.75-7.968a.842.842,0,0,1,.925-.982h15.642ZM309.7,28.411v0Z" transform="translate(-168.252)" fill="#5a00d2"/><path d="M400.29,0c-12.3,0-20.5,8.314-20.5,20.847,0,12.414,8.2,20.733,20.5,20.733s20.5-8.314,20.5-20.733C420.791,8.314,412.591,0,400.29,0Z" transform="translate(-225.001)" fill="#5a00d2"/><path d="M490.971,77.665c4.744,1.463,5.29,4.41,4.675,6.395-.648,2.1-2.755,4.226-7.5,2.763-4.691-1.447-5.29-4.41-4.642-6.5C484.12,78.334,486.28,76.218,490.971,77.665Z" transform="translate(-286.317 -45.729)" fill="#5a00d2"/><path d="M492.02,30.846a.881.881,0,0,1-.591-1.027l7.556-27.462a.885.885,0,0,1,1.084-.571l9.712,2.992a.891.891,0,0,1,.575,1.084L501.089,32.8a.878.878,0,0,1-1.064.518Z" transform="translate(-291.124 -1.037)" fill="#5a00d2"/><g transform="translate(160.417 6.04)"><path d="M425.387,29.211l14.379,3.847-3.847-14.383L421.54,14.82Z" transform="translate(-410.153 -14.82)" fill="#27bdbe"/><path d="M407.473,31.828,403.492,16.94,393.6,26.852l3.978,14.872,14.876,3.982,9.9-9.9Z" transform="translate(-393.6 -16.076)" fill="#27bdbe"/></g><text transform="translate(103.566 62.687)" fill="#5a00d2" font-size="13" font-family="Helvetica-LightOblique, Helvetica" font-weight="300" font-style="oblique"><tspan x="0" y="0">gelo delivery</tspan></text></svg>