<svg xmlns="http://www.w3.org/2000/svg" width="163.68" height="156.72" viewBox="0 0 163.68 156.72"><g transform="translate(165.707 -493.261) rotate(25)"><g transform="translate(101.697 496.831)"><g transform="translate(0 0)"><path d="M125.811,115.968,73.285,25.556c-2.415-4.075-5.887-6.49-9.509-6.49-3.773,0-7.245,2.415-9.509,6.49L2.042,115.968c-2.415,4.075-2.717,8.3-.755,11.471,1.811,3.17,5.585,4.981,10.415,4.981H116.151c4.679,0,8.453-1.811,10.415-4.981C128.377,124.27,128.075,120.043,125.811,115.968Zm-4.981,8.3c-.755,1.208-2.415,1.811-4.83,1.811H11.551c-2.415,0-4.226-.755-4.83-1.811-.755-1.207-.453-3.019.755-5.132L59.7,28.726c1.208-2.113,2.717-3.321,4.075-3.321s2.868,1.208,4.075,3.321l52.224,90.412C121.283,121.251,121.585,123.062,120.83,124.27Z" transform="translate(0 -19.066)" fill="#ff4e00"/></g><g transform="translate(60.607 29.735)"><path d="M163.783,97.866a3.1,3.1,0,0,0-3.17,3.17V143a3.17,3.17,0,1,0,6.339,0V101.036A3.1,3.1,0,0,0,163.783,97.866Z" transform="translate(-160.613 -97.866)" fill="#ff4e00"/></g><g transform="translate(58.192 85.129)"><circle cx="5.585" cy="5.585" r="5.585" fill="#ff4e00"/></g></g></g></svg>