<?xml version="1.0" encoding="utf-8"?>
<!-- Generator: Adobe Illustrator 24.1.0, SVG Export Plug-In . SVG Version: 6.00 Build 0)  -->
<svg version="1.1" id="Layer_1" xmlns="http://www.w3.org/2000/svg" xmlns:xlink="http://www.w3.org/1999/xlink" x="0px" y="0px"
	 viewBox="0 0 822.2 514" style="enable-background:new 0 0 822.2 514;" xml:space="preserve">
<style type="text/css">
	.st0{fill:#FF4E00;}
</style>
<g transform="translate(0 -66.272)">
	<path class="st0" d="M74.8,235.2c0,4.3,3.7,8.3,11,12c7.6,3.7,16.1,5.6,24.6,5.5c16.6,0.5,32.6-6,44.1-18.1
		c0.7-0.8,1.5-1.5,2.4-2.1c0.7-0.3,1.4-0.5,2.1-0.4h3.4c1.1-0.1,2.2,0.4,2.7,1.4c0.6,1.6,0.8,3.4,0.7,5.1
		c0.1,11.5-3.2,22.7-9.5,32.3c-6.7,10.2-15.9,18.4-26.8,23.9c-12,6.1-25.3,9.2-38.8,9c-14.3,0.2-28.4-3-41.2-9.3
		c-12-6-22.1-15.2-29.2-26.6c-7.3-11.8-11.1-25.4-10.9-39.3c-0.2-13.6,3.3-27,10.2-38.7c6.9-11.5,17-20.7,29-26.7
		c13.6-6.8,28.7-10.1,43.9-9.7c11.6-0.2,23.2,1.8,34,5.9c9.3,3.4,17.6,9.3,23.9,16.9c5.8,7.2,8.9,16.2,8.8,25.4
		c0.3,11.6-4.6,22.7-13.3,30.4c-9.3,8.2-21.3,12.5-33.6,12c-12.5,0.5-24.5-4.5-33-13.6c-1.1,0-2.2,0.5-3,1.3
		C75.3,232.8,74.8,234,74.8,235.2z M107,66.3c7.5-0.3,14.8,2.5,20.2,7.6c5.3,5.3,8.1,12.6,7.8,20.1c0,8.5-2.6,16.9-7.5,23.9
		c-5.3,7.7-12.4,14-20.8,18.2c-9.1,4.8-19.2,7.2-29.4,7.1c-8.3,0.3-16.5-1.8-23.7-5.9c-2.1-1.1-3.1-2.3-3.1-3.4
		c0-0.8,0.3-1.6,0.8-2.3l1.7-2.8c0.4-0.7,1.2-1.1,2-1.1c0.9,0.1,1.8,0.4,2.5,0.8l1.1,0.6c2.7,1.6,5.9,2.5,9,2.5
		c3.1,0.1,6.1-1.3,7.9-3.8c2.1-3.1,3-6.9,2.8-10.6c0-2.3-0.1-4.6-0.4-6.9c-0.3-2.2-0.6-4.4-1-6.6c-0.4-2.6-0.6-5.3-0.6-7.9
		c-0.2-8,2.9-15.7,8.6-21.3C91.1,68.8,98.9,65.9,107,66.3z M83.3,215.7c1,1.5,2.7,2.3,4.5,2.3c3.4,0,5.1-1.9,5.1-5.7v-40.1
		c0-3.8-1.7-5.6-5.1-5.7c-1.8,0-3.5,0.8-4.5,2.3V215.7z"/>
	<path class="st0" d="M238.9,235.2c0,4.3,3.7,8.3,11,12c7.6,3.7,16.1,5.6,24.6,5.5c16.6,0.5,32.6-6,44.1-18.1
		c0.7-0.8,1.5-1.5,2.4-2.1c0.7-0.3,1.4-0.5,2.1-0.4h3.4c1.1-0.1,2.2,0.4,2.7,1.4c0.6,1.6,0.8,3.4,0.7,5.1
		c0.1,11.5-3.2,22.7-9.5,32.3c-6.7,10.2-15.9,18.4-26.8,23.9c-12,6.1-25.3,9.2-38.8,9c-14.3,0.2-28.4-3-41.2-9.3
		c-12-6-22.1-15.2-29.2-26.6c-7.3-11.8-11.1-25.4-10.9-39.3c-0.2-13.6,3.3-27,10.2-38.7c6.9-11.4,17-20.7,29-26.7
		c13.6-6.8,28.7-10.1,43.9-9.7c11.6-0.2,23.2,1.8,34,5.9c9.3,3.4,17.6,9.3,23.9,16.9c5.8,7.2,8.9,16.2,8.8,25.4
		c0.3,11.6-4.6,22.7-13.3,30.4c-9.3,8.2-21.3,12.4-33.6,12c-12.5,0.5-24.5-4.5-33-13.6c-1.1,0-2.2,0.5-3,1.3
		C239.4,232.8,238.9,234,238.9,235.2z M271.1,66.3c7.5-0.3,14.8,2.5,20.2,7.6c5.3,5.3,8.1,12.6,7.8,20.1c0,8.5-2.6,16.9-7.5,23.9
		c-5.3,7.7-12.4,14-20.8,18.2c-9.1,4.8-19.2,7.2-29.4,7.1c-8.3,0.3-16.5-1.8-23.7-5.9c-2.1-1.1-3.1-2.3-3.1-3.4
		c0-0.8,0.3-1.6,0.8-2.3l1.7-2.8c0.4-0.7,1.2-1.1,2-1.1c0.9,0.1,1.8,0.4,2.5,0.8l1.1,0.6c2.7,1.6,5.9,2.5,9,2.5
		c3.1,0.1,6.1-1.3,7.9-3.8c2.1-3.1,3-6.9,2.8-10.6c0-2.3-0.1-4.6-0.4-6.9c-0.3-2.2-0.6-4.4-1-6.6c-0.4-2.6-0.6-5.3-0.6-7.9
		c-0.2-8,2.9-15.7,8.6-21.3C255.1,68.8,263,65.9,271.1,66.3L271.1,66.3z M247.4,215.7c1,1.5,2.7,2.3,4.5,2.3c3.4,0,5.1-1.9,5.1-5.7
		v-40.1c0-3.8-1.7-5.6-5.1-5.7c-1.8,0-3.5,0.8-4.5,2.3V215.7z"/>
	<path class="st0" d="M403,235.2c0,4.3,3.7,8.3,11,12c7.6,3.7,16.1,5.6,24.6,5.5c16.6,0.5,32.6-6,44.1-18.1c0.7-0.8,1.5-1.5,2.4-2.1
		c0.7-0.3,1.4-0.5,2.1-0.4h3.4c1.1-0.1,2.2,0.4,2.7,1.4c0.6,1.6,0.8,3.4,0.7,5.1c0.1,11.5-3.2,22.7-9.5,32.3
		c-6.7,10.2-15.9,18.4-26.8,23.9c-12,6.1-25.4,9.2-38.8,9c-14.3,0.2-28.4-3-41.2-9.3c-12-6-22.1-15.2-29.2-26.6
		c-7.3-11.8-11.1-25.4-10.9-39.3c-0.2-13.6,3.3-27,10.2-38.7c6.9-11.4,17-20.7,29-26.7c13.6-6.8,28.7-10.1,43.9-9.7
		c11.6-0.2,23.2,1.8,34,5.9c9.3,3.4,17.6,9.3,23.9,16.9c5.8,7.2,8.9,16.2,8.8,25.4c0.3,11.6-4.6,22.7-13.3,30.4
		c-9.3,8.2-21.3,12.5-33.6,12c-12.5,0.5-24.5-4.5-33-13.6c-1.1,0-2.2,0.5-3,1.3C403.4,232.8,403,234,403,235.2z M435.2,66.3
		c7.5-0.3,14.8,2.5,20.2,7.6c5.3,5.3,8.1,12.6,7.8,20.1c0,8.5-2.6,16.9-7.5,23.9c-5.3,7.7-12.4,14-20.8,18.2
		c-9.1,4.8-19.2,7.2-29.4,7.1c-8.3,0.3-16.5-1.8-23.7-5.9c-2.1-1.1-3.1-2.3-3.1-3.4c0-0.8,0.3-1.6,0.8-2.3l1.7-2.8
		c0.4-0.7,1.2-1.1,2-1.1c0.9,0.1,1.8,0.4,2.5,0.8l1.1,0.6c2.7,1.6,5.9,2.5,9,2.5c3.1,0.1,6.1-1.3,7.9-3.8c2.1-3.1,3-6.9,2.8-10.6
		c0-2.3-0.1-4.6-0.4-6.9c-0.3-2.2-0.6-4.4-1-6.6c-0.4-2.6-0.6-5.3-0.6-7.9c-0.2-8,2.9-15.7,8.6-21.3
		C419.2,68.8,427.1,65.9,435.2,66.3L435.2,66.3z M411.5,215.7c1,1.5,2.7,2.3,4.5,2.3c3.4,0,5.1-1.9,5.1-5.7v-40.1
		c0-3.8-1.7-5.6-5.1-5.7c-1.8,0-3.5,0.8-4.5,2.3V215.7z"/>
	<path class="st0" d="M567.1,235.2c0,4.3,3.7,8.3,11,12c7.6,3.7,16.1,5.6,24.6,5.5c16.6,0.5,32.6-6,44.1-18.1
		c0.7-0.8,1.5-1.5,2.4-2.1c0.7-0.3,1.4-0.5,2.1-0.4h3.4c1.1-0.1,2.2,0.4,2.7,1.4c0.6,1.6,0.8,3.4,0.7,5.1
		c0.1,11.5-3.2,22.7-9.5,32.3c-6.7,10.2-15.9,18.4-26.8,23.9c-12,6.1-25.4,9.2-38.8,9c-14.3,0.2-28.4-3-41.2-9.3
		c-12-6-22.1-15.2-29.2-26.6c-7.3-11.8-11.1-25.4-10.9-39.3c-0.2-13.6,3.3-27,10.2-38.7c6.9-11.4,17-20.7,29-26.7
		c13.6-6.8,28.7-10.1,43.9-9.7c11.6-0.2,23.2,1.8,34,5.9c9.3,3.4,17.6,9.3,23.9,16.9c5.8,7.2,8.9,16.2,8.8,25.4
		c0.3,11.6-4.6,22.7-13.3,30.4c-9.3,8.2-21.3,12.4-33.6,12c-12.5,0.5-24.5-4.5-33-13.6c-1.1,0-2.2,0.5-3,1.3
		C567.5,232.8,567.1,234,567.1,235.2z M599.3,66.3c7.5-0.3,14.8,2.5,20.2,7.6c5.3,5.3,8.1,12.6,7.8,20.1c0,8.5-2.6,16.9-7.5,23.9
		c-5.3,7.7-12.4,14-20.8,18.2c-9.1,4.8-19.2,7.2-29.4,7.1c-8.3,0.3-16.5-1.8-23.7-5.9c-2.1-1.1-3.1-2.3-3.1-3.4
		c0-0.8,0.3-1.6,0.8-2.3l1.7-2.8c0.4-0.7,1.2-1.1,2-1.1c0.9,0.1,1.8,0.4,2.5,0.8l1.1,0.6c2.7,1.6,5.9,2.5,9,2.5
		c3.1,0.1,6.1-1.3,7.9-3.8c2.1-3.1,3-6.9,2.8-10.6c0-2.3-0.1-4.6-0.4-6.9c-0.3-2.2-0.6-4.4-1-6.6c-0.4-2.6-0.6-5.3-0.6-7.9
		c-0.2-8,2.9-15.7,8.6-21.3C583.3,68.8,591.2,65.9,599.3,66.3L599.3,66.3z M575.6,215.7c1,1.5,2.7,2.3,4.5,2.3
		c3.4,0,5.1-1.9,5.1-5.7v-40.1c0-3.8-1.7-5.6-5.1-5.7c-1.8,0-3.5,0.8-4.5,2.3V215.7z"/>
	<path class="st0" d="M731.2,235.2c0,4.3,3.7,8.3,11,12c7.6,3.7,16.1,5.6,24.6,5.5c16.6,0.5,32.6-6,44.1-18.1
		c0.7-0.8,1.5-1.5,2.4-2.1c0.7-0.3,1.4-0.5,2.1-0.4h3.4c1.1-0.1,2.2,0.4,2.7,1.4c0.6,1.6,0.8,3.4,0.7,5.1
		c0.1,11.5-3.2,22.7-9.5,32.3c-6.7,10.2-15.9,18.4-26.8,23.9c-12,6.1-25.4,9.2-38.8,9c-14.3,0.2-28.4-3-41.2-9.3
		c-12-6-22.1-15.2-29.2-26.6c-7.3-11.8-11.1-25.4-10.9-39.3c-0.2-13.6,3.3-27,10.2-38.7c6.9-11.4,17-20.7,29-26.7
		c13.6-6.8,28.7-10.1,43.9-9.7c11.6-0.2,23.2,1.8,34,5.9c9.3,3.4,17.6,9.3,23.9,16.9c5.8,7.2,8.9,16.2,8.8,25.4
		c0.3,11.6-4.6,22.7-13.3,30.4c-9.3,8.2-21.3,12.5-33.6,12c-12.5,0.5-24.5-4.5-33-13.6c-1.1,0-2.2,0.5-3,1.3
		C731.6,232.8,731.2,234,731.2,235.2z M763.4,66.3c7.5-0.3,14.8,2.5,20.2,7.6c5.3,5.3,8.1,12.6,7.8,20.1c0,8.5-2.6,16.9-7.5,23.9
		c-5.3,7.7-12.4,14-20.8,18.2c-9.1,4.8-19.2,7.2-29.4,7.1c-8.3,0.3-16.5-1.8-23.7-5.9c-2.1-1.1-3.1-2.3-3.1-3.4
		c0-0.8,0.3-1.6,0.8-2.3l1.7-2.8c0.4-0.7,1.2-1.1,2-1.1c0.9,0.1,1.8,0.4,2.5,0.8l1.1,0.6c2.7,1.6,5.9,2.5,9,2.5
		c3.1,0.1,6.1-1.3,7.9-3.8c2.1-3.1,3-6.9,2.8-10.6c0-2.3-0.1-4.6-0.4-6.9c-0.3-2.2-0.6-4.4-1-6.6c-0.4-2.6-0.6-5.3-0.6-7.9
		c-0.2-8,2.9-15.7,8.6-21.3C747.4,68.8,755.3,65.9,763.4,66.3L763.4,66.3z M739.7,215.7c1,1.5,2.7,2.3,4.5,2.3
		c3.4,0,5.1-1.9,5.1-5.7v-40.1c0-3.8-1.7-5.6-5.1-5.7c-1.8,0-3.5,0.8-4.5,2.3V215.7z"/>
	<path class="st0" d="M48,431.9c7.7-0.4,15.4,1.3,22.2,4.9c5.7,3.5,9.8,9,11.4,15.4c4.1-7.5,10.2-13.6,17.7-17.7
		c7.8-4.1,16.5-6.2,25.3-6.1c13.6,0,23.9,4,31.1,12.1c7.2,8.1,10.7,19.6,10.7,34.5v91.2c0.2,2.5-0.5,5-2.1,6.9
		c-2.1,1.6-4.8,2.4-7.5,2.1h-50.9c-2.7,0.3-5.4-0.5-7.5-2.1c-1.6-1.9-2.4-4.4-2.1-6.9v-97.2c0.1-1.8-0.4-3.6-1.4-5.1
		c-0.9-1.3-2.4-2-4-2c-1.9-0.2-3.7,0.7-4.8,2.3v102c0.2,2.5-0.5,5-2.1,6.9c-2.1,1.6-4.8,2.4-7.5,2.1H25.7c-2.7,0.3-5.4-0.5-7.5-2.1
		c-1.6-1.9-2.4-4.4-2.1-6.9v-99.7c0.3-5.2-0.7-10.4-2.8-15.1c-2.6-4.1-6.2-7.5-10.4-9.7c-0.9-0.4-1.7-1.1-2.4-1.8
		c-0.3-0.6-0.5-1.2-0.4-1.8v-3.4c0-1.9,1.1-2.8,3.4-2.8L48,431.9L48,431.9z"/>
	<path class="st0" d="M304.2,578.8c-19,0-32.6-7.8-40.7-23.4c-3.6,7.3-9.1,13.4-16,17.8c-7.1,4-15.2,5.9-23.3,5.7
		c-13,0-23.4-3.2-31.3-9.6c-7.8-6.1-12.2-15.5-11.9-25.4c-0.4-8.4,3.2-16.5,9.7-21.9c6.5-5.4,16.5-9,30.1-10.9
		c34.6-4.5,52-17.6,52-39.3c0.1-8.4-3.1-16.5-9-22.5c-5.5-6.1-13.3-9.5-21.5-9.5c-4,0-5.9,1.3-5.9,4c0,1,0.3,2,0.8,2.8
		c7.2-0.3,14.2,2.3,19.5,7.1c5,4.6,7.8,11.2,7.6,18.1c0.1,8.5-4,16.5-10.9,21.5c-8,5.9-17.9,8.9-27.8,8.5c-11.5,0-20.6-2.9-27.4-8.6
		c-6.7-5.6-10.5-14-10.2-22.7c0-12.6,6.1-22.7,18.4-30.4s28.4-11.4,48.6-11.4c24.1,0,42.4,5.8,54.9,17.5
		c12.5,11.7,18.8,28.8,18.8,51.4v35.3c-0.2,2.2,0.1,4.4,0.8,6.5c0.5,1.1,1.6,1.8,2.8,1.7c1.6,0.1,3-0.8,3.7-2.3
		c1.1-2.8,1.7-5.8,2-8.8c0.1-2,0.5-3.9,1.1-5.8c0.5-0.7,1.4-1.1,2.3-1h4.8c1.2,0,2.2,0.8,2.4,2c0.6,2.1,0.8,4.3,0.7,6.5
		c0,15.1-3.9,26.7-11.7,34.9C329.8,574.7,318.6,578.8,304.2,578.8z M319.1,387.6c0.1,8.7-3.4,17.1-9.7,23
		c-6.4,6.3-15.2,9.7-24.2,9.5c-5.2,0-10.3-0.9-15.1-2.7c-5.9-2.3-11.6-5.3-16.8-8.9c-10.4-6.8-17-10.9-19.9-12.3
		c-2.4-1.3-5.1-2-7.8-2.1c-1.4,0-2.8,0.4-4,1.3c-1.1,0.7-1.7,2-1.7,3.2c0,3.2,2.5,5.8,7.6,7.9c1.3,0.5,2.5,1,3.7,1.7
		c0.6,0.4,0.9,1,0.8,1.7c0,0.7-0.2,1.4-0.6,2l-0.6,1.4c-0.8,1.9-1.7,2.8-2.8,2.8c-1.3-0.1-2.7-0.4-4-0.8
		c-7.2-1.8-13.7-5.8-18.6-11.3c-4.4-5.1-6.9-11.6-6.8-18.4c-0.1-8.7,3.4-17.1,9.7-23c6.4-6.3,15.2-9.7,24.2-9.5
		c4.8,0,9.5,0.9,14,2.5c6.3,2.4,12.3,5.4,17.9,9c6,3.6,10.7,6.4,14.1,8.5s6.1,3.6,8.1,4.5c1.7,0.9,3.6,1.4,5.5,1.4
		c1.4,0,2.8-0.4,4-1.3c1.1-0.7,1.7-2,1.7-3.2c0-3.4-2.5-6-7.6-7.9c-1.3-0.5-2.5-1-3.7-1.7c-0.6-0.4-0.9-1-0.8-1.7
		c0-0.7,0.2-1.4,0.6-2l0.6-1.4c0.8-1.9,1.7-2.8,2.8-2.8c1.3,0.1,2.7,0.4,4,0.8c7.2,1.8,13.7,5.8,18.6,11.3
		C316.8,374.3,319.2,380.9,319.1,387.6L319.1,387.6z M258.7,517.8c-1-1.5-2.7-2.3-4.5-2.3c-3.2,0-4.8,1.9-4.8,5.7v18.1
		c0,3.8,1.6,5.6,4.8,5.7c1.8,0,3.5-0.8,4.5-2.3V517.8z"/>
	<path class="st0" d="M436.6,578.8c-26.6,0-46.7-6.4-60.6-19.2c-13.8-12.8-20.8-31.4-20.8-55.9c0-24.5,6.9-43.1,20.8-55.9
		c13.8-12.8,34-19.2,60.6-19.2c26.6,0,46.7,6.4,60.6,19.2c13.8,12.8,20.8,31.4,20.8,55.9c0,24.5-6.9,43.1-20.8,55.9
		C483.4,572.4,463.2,578.8,436.6,578.8z M436.6,565.8c3.4,0,5.1-2.5,5.1-7.6v-109c0-5.1-1.7-7.6-5.1-7.6s-5.1,2.5-5.1,7.6v109
		C431.5,563.3,433.2,565.8,436.6,565.8L436.6,565.8z"/>
	<path class="st0" d="M567.1,517.5c-1.1,0.1-2.2-0.3-3-1.1c-1.1-1.6-2-3.3-2.7-5.1c-9.4-20-17.8-40.4-25-61.3
		c-5-15.2-7.5-27.6-7.5-37c0-12.8,3.6-22.8,10.7-29.9c7.2-7.2,16.9-10.7,29.4-10.7c12.4,0,22.2,3.6,29.4,10.7
		c7.2,7.2,10.7,17.1,10.7,29.9c0,9.4-2.5,21.8-7.5,37c-7.3,20.9-15.6,41.3-25,61.3c-0.7,1.8-1.6,3.5-2.7,5.1c-0.8,0.8-1.8,1.2-3,1.1
		H567.1z M569.1,580.2c-8.4,0.4-16.6-2.3-23.2-7.6c-10.9-9.8-11.7-26.6-1.9-37.5c0.6-0.7,1.3-1.4,2-2c13.7-10.2,32.4-10.2,46,0
		c11,9.7,11.9,26.5,2.2,37.5c-0.6,0.7-1.3,1.4-2,2C585.7,577.9,577.5,580.6,569.1,580.2L569.1,580.2z"/>
</g>
</svg>
