<svg xmlns="http://www.w3.org/2000/svg" width="37.787" height="24.837" viewBox="0 0 37.787 24.837"><g transform="translate(-100 -275)"><path d="M178.973,375.8a3.276,3.276,0,1,0,3.273,3.279A3.276,3.276,0,0,0,178.973,375.8Zm0,4.912a1.633,1.633,0,1,1,1.633-1.633A1.636,1.636,0,0,1,178.973,380.712Z" transform="translate(-65.856 -82.515)" fill="#ff4e00"/><path d="M102.3,338.1v3.491a1.574,1.574,0,0,0,1.576,1.576h2.114a4.323,4.323,0,0,1,8.557,0H123.1a4.327,4.327,0,0,1,8.563,0h1.691a1.574,1.574,0,0,0,1.576-1.576V338.1Z" transform="translate(2.843 -47.229)" fill="#ff4e00"/><path d="M446.179,375.8a3.276,3.276,0,1,0,3.273,3.279A3.281,3.281,0,0,0,446.179,375.8Zm0,4.912a1.633,1.633,0,1,1,1.633-1.633A1.636,1.636,0,0,1,446.179,380.712Z" transform="translate(-315.943 -82.515)" fill="#ff4e00"/><g transform="translate(100 275)"><path d="M27.457,90.3a5.457,5.457,0,1,0,5.463,5.457A5.457,5.457,0,0,0,27.457,90.3Zm0,9.677a4.214,4.214,0,1,1,4.214-4.214A4.213,4.213,0,0,1,27.457,99.977Zm1.608-3.324a.533.533,0,0,1-.141-.019l-1.761-.474a.542.542,0,0,1-.4-.525V92.926a.544.544,0,0,1,1.089,0v2.293l1.358.365a.546.546,0,0,1,.384.666A.54.54,0,0,1,29.064,96.653Z" transform="translate(-22 -90.3)" fill="#ff4e00"/></g><g transform="translate(105.137 277.856)"><path d="M134.229,144.392l-6.2-6.136a2.111,2.111,0,0,0-1.479-.608h-3.132v-1.172a1.574,1.574,0,0,0-1.576-1.576H107.894a5.975,5.975,0,0,1-5.38,8.576c-.1,0-.211,0-.314-.006v3.567h32.651v-1.153A2.115,2.115,0,0,0,134.229,144.392Zm-2.7.2h-6a.25.25,0,0,1-.25-.25v-4.631a.25.25,0,0,1,.25-.25h1.14a.247.247,0,0,1,.173.07l4.855,4.631A.248.248,0,0,1,131.527,144.6Z" transform="translate(-102.2 -134.9)" fill="#ff4e00"/></g></g></svg>