<svg xmlns="http://www.w3.org/2000/svg" width="727.672" height="602.272" viewBox="0 0 727.672 602.272"><defs><style>.a,.b{fill:none;stroke-width:3px;}.a{stroke:#27bdbe;}.b{stroke:#ff4e00;}.c{fill:#27bdbe;}</style></defs><g transform="translate(-759.32 -177.291)"><g transform="matrix(0.342, -0.94, 0.94, 0.342, 1141, 561.651)"><path class="a" d="M18.159,67.924,86.026,86.084,67.867,18.2,0,0Z" transform="translate(53.747 0)"/><path class="a" d="M65.481,70.271,46.687,0,0,46.783l18.775,70.194,70.214,18.794,46.706-46.706Z" transform="translate(0 4.078)"/></g><g transform="matrix(0.208, 0.978, -0.978, 0.208, 1214.972, 178.901)"><path class="b" d="M21.889,81.874l81.8,21.889L81.8,21.935,0,0Z" transform="translate(64.785 0)"/><path class="b" d="M78.929,84.7,56.275,0,0,56.391,22.631,141l84.633,22.654,56.3-56.3Z" transform="translate(0 4.916)"/></g><g transform="translate(32.439 4.861)"><path class="b" d="M16.086,60.169,76.2,76.255,60.118,16.12,0,0Z" transform="translate(967.171 541.288)"/><path class="b" d="M58,62.248,41.357,0,0,41.442l16.631,62.18,62.2,16.648L120.2,78.9Z" transform="translate(919.561 544.901)"/></g><g transform="translate(1270.543 1752.538) rotate(-115)"><path class="b" d="M16.086,60.169,76.2,76.255,60.118,16.12,0,0Z" transform="translate(967.171 541.288)"/><path class="b" d="M58,62.248,41.357,0,0,41.442l16.631,62.18,62.2,16.648L120.2,78.9Z" transform="translate(919.561 544.901)"/></g><g transform="translate(1406.996 372.414) rotate(-150)"><path class="b" d="M18.473,69.1,87.512,87.571,69.039,18.512,0,0Z" transform="translate(54.675 0)"/><path class="b" d="M66.612,71.485,47.494,0,0,47.591,19.1,119l71.426,19.119L138.039,90.6Z" transform="translate(0 4.149)"/></g><g transform="translate(925.027 129.582) rotate(25)"><g transform="translate(101.697 496.831)"><g transform="translate(0 0)"><path class="c" d="M125.811,115.968,73.285,25.556c-2.415-4.075-5.887-6.49-9.509-6.49-3.773,0-7.245,2.415-9.509,6.49L2.042,115.968c-2.415,4.075-2.717,8.3-.755,11.471,1.811,3.17,5.585,4.981,10.415,4.981H116.151c4.679,0,8.453-1.811,10.415-4.981C128.377,124.27,128.075,120.043,125.811,115.968Zm-4.981,8.3c-.755,1.208-2.415,1.811-4.83,1.811H11.551c-2.415,0-4.226-.755-4.83-1.811-.755-1.207-.453-3.019.755-5.132L59.7,28.726c1.208-2.113,2.717-3.321,4.075-3.321s2.868,1.208,4.075,3.321l52.224,90.412C121.283,121.251,121.585,123.062,120.83,124.27Z" transform="translate(0 -19.066)"/></g><g transform="translate(60.607 29.735)"><path class="c" d="M163.783,97.866a3.1,3.1,0,0,0-3.17,3.17V143a3.17,3.17,0,1,0,6.339,0V101.036A3.1,3.1,0,0,0,163.783,97.866Z" transform="translate(-160.613 -97.866)"/></g><g transform="translate(58.192 85.129)"><circle class="c" cx="5.585" cy="5.585" r="5.585"/></g></g></g></g></svg>