<svg xmlns="http://www.w3.org/2000/svg" width="849.773" height="644.315" viewBox="0 0 849.773 644.315"><defs><style>.a,.b{fill:none;stroke-width:3px;}.a{stroke:#ff4e00;}.b{stroke:#27bdbe;}</style></defs><g transform="translate(-636.219 -177.405)"><g transform="matrix(0.342, -0.94, 0.94, 0.342, 1297, 380.651)"><path class="a" d="M18.159,67.924,86.026,86.084,67.867,18.2,0,0Z" transform="translate(53.747 0)"/><path class="a" d="M65.481,70.271,46.687,0,0,46.783l18.775,70.194,70.214,18.794,46.706-46.706Z" transform="translate(0 4.078)"/></g><g transform="translate(1269.543 1716.538) rotate(-115)"><path class="b" d="M16.086,60.169,76.2,76.255,60.118,16.12,0,0Z" transform="translate(967.171 541.288)"/><path class="b" d="M58,62.248,41.357,0,0,41.442l16.631,62.18,62.2,16.648L120.2,78.9Z" transform="translate(919.561 544.901)"/></g><g transform="translate(705 783.716) rotate(-76)"><path class="b" d="M19.31,72.227l72.166,19.31L72.166,19.351,0,0Z" transform="translate(57.152 0)"/><path class="b" d="M69.629,74.723,49.645,0,0,49.747l19.964,74.641,74.661,19.985,49.665-49.665Z" transform="translate(0 4.336)"/></g><g transform="matrix(0.208, 0.978, -0.978, 0.208, 717.215, 179.154)"><path class="a" d="M10.489,39.233l39.2,10.489L39.2,10.511,0,0Z" transform="translate(31.044 0)"/><path class="a" d="M37.822,40.589,26.967,0,0,27.022,10.844,67.566,51.4,78.422,78.377,51.444Z" transform="translate(0 2.356)"/></g><g transform="translate(97.625 89.861)"><path class="a" d="M16.086,60.169,76.2,76.255,60.118,16.12,0,0Z" transform="translate(967.171 541.288)"/><path class="a" d="M58,62.248,41.357,0,0,41.442l16.631,62.18,62.2,16.648L120.2,78.9Z" transform="translate(919.561 544.901)"/></g></g></svg>