<svg xmlns="http://www.w3.org/2000/svg" width="125.899" height="121.936" viewBox="0 0 125.899 121.936"><defs><style>.a{fill:#ff4e00;}</style></defs><g transform="translate(-336.488 -331.356) rotate(-30)"><g transform="translate(101.697 496.831)"><g transform="translate(0 0)"><path class="a" d="M94.674,91.986,55.147,23.95c-1.817-3.067-4.43-4.884-7.156-4.884-2.84,0-5.452,1.817-7.156,4.884L1.537,91.986C-.28,95.052-.508,98.233.969,100.618c1.363,2.385,4.2,3.748,7.837,3.748H87.4c3.521,0,6.361-1.363,7.837-3.748C96.6,98.233,96.378,95.052,94.674,91.986Zm-3.748,6.247c-.568.909-1.817,1.363-3.635,1.363H8.693c-1.817,0-3.18-.568-3.635-1.363-.568-.909-.341-2.272.568-3.862l39.3-68.036c.909-1.59,2.044-2.5,3.067-2.5s2.158.909,3.067,2.5l39.3,68.036C91.266,95.961,91.494,97.324,90.926,98.233Z" transform="translate(0 -19.066)"/></g><g transform="translate(45.607 22.376)"><path class="a" d="M163,97.866a2.329,2.329,0,0,0-2.385,2.385v31.576a2.385,2.385,0,1,0,4.77,0V100.251A2.329,2.329,0,0,0,163,97.866Z" transform="translate(-160.613 -97.866)"/></g><g transform="translate(43.79 64.06)"><circle class="a" cx="4.203" cy="4.203" r="4.203"/></g></g></g></svg>