<svg xmlns="http://www.w3.org/2000/svg" width="701.251" height="652.428" viewBox="0 0 701.251 652.428"><defs><style>.a,.b{fill:none;stroke-width:3px;}.a{stroke:#27bdbe;}.b{stroke:#ff4e00;}</style></defs><g transform="translate(-785.74 -177.291)"><g transform="matrix(0.342, -0.94, 0.94, 0.342, 1141, 533.651)"><path class="a" d="M18.159,67.924,86.026,86.084,67.867,18.2,0,0Z" transform="translate(53.747 0)"/><path class="a" d="M65.481,70.271,46.687,0,0,46.783l18.775,70.194,70.214,18.794,46.706-46.706Z" transform="translate(0 4.078)"/></g><g transform="translate(784.753 791.716) rotate(-76)"><path class="a" d="M19.31,72.227l72.166,19.31L72.166,19.351,0,0Z" transform="translate(57.152 0)"/><path class="a" d="M69.629,74.723,49.645,0,0,49.747l19.964,74.641,74.661,19.985,49.665-49.665Z" transform="translate(0 4.336)"/></g><g transform="matrix(0.208, 0.978, -0.978, 0.208, 1128.886, 190.901)"><path class="b" d="M21.889,81.874l81.8,21.889L81.8,21.935,0,0Z" transform="translate(64.785 0)"/><path class="b" d="M78.929,84.7,56.275,0,0,56.391,22.631,141l84.633,22.654,56.3-56.3Z" transform="translate(0 4.916)"/></g><g transform="translate(57 -15.139)"><path class="b" d="M16.086,60.169,76.2,76.255,60.118,16.12,0,0Z" transform="translate(967.171 541.288)"/><path class="b" d="M58,62.248,41.357,0,0,41.442l16.631,62.18,62.2,16.648L120.2,78.9Z" transform="translate(919.561 544.901)"/></g><g transform="translate(1270.543 1752.538) rotate(-115)"><path class="b" d="M16.086,60.169,76.2,76.255,60.118,16.12,0,0Z" transform="translate(967.171 541.288)"/><path class="b" d="M58,62.248,41.357,0,0,41.442l16.631,62.18,62.2,16.648L120.2,78.9Z" transform="translate(919.561 544.901)"/></g><g transform="translate(1406.996 372.414) rotate(-150)"><path class="b" d="M18.473,69.1,87.512,87.571,69.039,18.512,0,0Z" transform="translate(54.675 0)"/><path class="b" d="M66.612,71.485,47.494,0,0,47.591,19.1,119l71.426,19.119L138.039,90.6Z" transform="translate(0 4.149)"/></g></g></svg>