<svg xmlns="http://www.w3.org/2000/svg" width="16.064" height="16.064" viewBox="0 0 16.064 16.064"><path d="M16.626,8.594A8.032,8.032,0,1,1,8.594.563,8.031,8.031,0,0,1,16.626,8.594ZM8.81,3.218A4.2,4.2,0,0,0,5.035,5.283a.389.389,0,0,0,.088.527l1.124.852a.389.389,0,0,0,.54-.069c.579-.734.975-1.159,1.856-1.159.662,0,1.48.426,1.48,1.067,0,.485-.4.734-1.054,1.1C8.307,8.028,7.3,8.56,7.3,9.89v.13a.389.389,0,0,0,.389.389H9.5a.389.389,0,0,0,.389-.389V9.976c0-.922,2.694-.96,2.694-3.455C12.584,4.643,10.635,3.218,8.81,3.218ZM8.594,11.25a1.49,1.49,0,1,0,1.49,1.49A1.491,1.491,0,0,0,8.594,11.25Z" transform="translate(-0.563 -0.563)" fill="#fff"/></svg>